G04 #@! TF.FileFunction,Soldermask,Top*
%FSLAX46Y46*%
G04 Gerber Fmt 4.6, Leading zero omitted, Abs format (unit mm)*
G04 Created by KiCad (PCBNEW 4.0.0-rc1-stable) date 06/12/2015 04:25:02 p.m.*
%MOMM*%
G01*
G04 APERTURE LIST*
%ADD10C,0.100000*%
%ADD11R,1.150000X1.600000*%
%ADD12R,1.600000X1.150000*%
%ADD13R,2.432000X2.127200*%
%ADD14O,2.432000X2.127200*%
%ADD15R,2.701240X0.900380*%
%ADD16R,2.899360X2.398980*%
%ADD17C,1.299160*%
%ADD18R,2.127200X2.127200*%
%ADD19O,2.127200X2.127200*%
%ADD20C,1.910000*%
%ADD21R,1.910000X1.910000*%
%ADD22R,1.543000X0.908000*%
%ADD23R,1.500000X1.000000*%
%ADD24C,1.901140*%
%ADD25R,4.100000X1.600000*%
G04 APERTURE END LIST*
D10*
D11*
X159700000Y-92850000D03*
X159700000Y-90950000D03*
X159700000Y-95750000D03*
X159700000Y-97650000D03*
D12*
X146350000Y-95000000D03*
X144450000Y-95000000D03*
X155750000Y-86700000D03*
X153850000Y-86700000D03*
D11*
X156300000Y-67750000D03*
X156300000Y-69650000D03*
D12*
X156350000Y-74500000D03*
X154450000Y-74500000D03*
X166550000Y-72700000D03*
X164650000Y-72700000D03*
D13*
X139900000Y-109800000D03*
D14*
X139900000Y-107260000D03*
X139900000Y-104720000D03*
X139900000Y-102180000D03*
X139900000Y-99640000D03*
D15*
X144249320Y-86499800D03*
X144249320Y-87299900D03*
X144249320Y-88100000D03*
X144249320Y-88900100D03*
X144249320Y-89700200D03*
D16*
X144150260Y-83649920D03*
X138651160Y-83649920D03*
X144150260Y-92550080D03*
X138651160Y-92550080D03*
D17*
X141650900Y-85900360D03*
X141650900Y-90299640D03*
D18*
X174000000Y-105800000D03*
D19*
X176540000Y-105800000D03*
X174000000Y-103260000D03*
X176540000Y-103260000D03*
X174000000Y-100720000D03*
X176540000Y-100720000D03*
X174000000Y-98180000D03*
X176540000Y-98180000D03*
X174000000Y-95640000D03*
X176540000Y-95640000D03*
X174000000Y-93100000D03*
X176540000Y-93100000D03*
X174000000Y-90560000D03*
X176540000Y-90560000D03*
X174000000Y-88020000D03*
X176540000Y-88020000D03*
X174000000Y-85480000D03*
X176540000Y-85480000D03*
X174000000Y-82940000D03*
X176540000Y-82940000D03*
X174000000Y-80400000D03*
X176540000Y-80400000D03*
X174000000Y-77860000D03*
X176540000Y-77860000D03*
X174000000Y-75320000D03*
X176540000Y-75320000D03*
X174000000Y-72780000D03*
X176540000Y-72780000D03*
X174000000Y-70240000D03*
X176540000Y-70240000D03*
D18*
X141900000Y-76000000D03*
D19*
X139360000Y-76000000D03*
X141900000Y-73460000D03*
X139360000Y-73460000D03*
X141900000Y-70920000D03*
X139360000Y-70920000D03*
X141900000Y-68380000D03*
X139360000Y-68380000D03*
X141900000Y-65840000D03*
X139360000Y-65840000D03*
D11*
X158300000Y-67750000D03*
X158300000Y-69650000D03*
D12*
X145950000Y-76600000D03*
X147850000Y-76600000D03*
X145950000Y-74800000D03*
X147850000Y-74800000D03*
X156350000Y-72600000D03*
X154450000Y-72600000D03*
X145950000Y-73000000D03*
X147850000Y-73000000D03*
X145950000Y-71200000D03*
X147850000Y-71200000D03*
X156350000Y-76800000D03*
X154450000Y-76800000D03*
D20*
X151580000Y-68100000D03*
D21*
X146500000Y-68100000D03*
D20*
X149040000Y-68100000D03*
D22*
X155756000Y-105155000D03*
X155756000Y-103885000D03*
X155756000Y-102615000D03*
X155756000Y-101345000D03*
X155756000Y-100075000D03*
X155756000Y-98805000D03*
X155756000Y-97535000D03*
X155756000Y-96265000D03*
X155756000Y-94995000D03*
X155756000Y-93725000D03*
X155756000Y-92455000D03*
X155756000Y-91185000D03*
X155756000Y-89915000D03*
X155756000Y-88645000D03*
X148644000Y-88645000D03*
X148644000Y-89915000D03*
X148644000Y-91185000D03*
X148644000Y-92455000D03*
X148644000Y-93725000D03*
X148644000Y-94995000D03*
X148644000Y-96265000D03*
X148644000Y-97535000D03*
X148644000Y-98805000D03*
X148644000Y-100075000D03*
X148644000Y-101345000D03*
X148644000Y-102615000D03*
X148644000Y-103885000D03*
X148644000Y-105155000D03*
D23*
X163850000Y-67800000D03*
X163850000Y-69700000D03*
X161050000Y-67800000D03*
X161050000Y-68750000D03*
X161050000Y-69700000D03*
D24*
X163600000Y-96740940D03*
X163600000Y-91859060D03*
D25*
X167860000Y-67800000D03*
X167860000Y-70600000D03*
M02*
