G04 #@! TF.FileFunction,Soldermask,Top*
%FSLAX46Y46*%
G04 Gerber Fmt 4.6, Leading zero omitted, Abs format (unit mm)*
G04 Created by KiCad (PCBNEW 4.0.4-stable) date 11/02/17 18:15:52*
%MOMM*%
%LPD*%
G01*
G04 APERTURE LIST*
%ADD10C,0.100000*%
%ADD11R,1.150000X1.600000*%
%ADD12R,1.600000X1.150000*%
%ADD13R,2.127200X2.127200*%
%ADD14O,2.127200X2.127200*%
%ADD15C,1.910000*%
%ADD16R,1.910000X1.910000*%
%ADD17R,1.543000X0.908000*%
%ADD18R,1.500000X1.000000*%
%ADD19C,1.901140*%
%ADD20R,4.100000X1.600000*%
%ADD21R,1.750000X0.800000*%
%ADD22O,1.350000X1.650000*%
%ADD23O,1.950000X1.400000*%
%ADD24O,1.650000X1.350000*%
%ADD25O,1.400000X1.950000*%
%ADD26R,2.000000X3.000000*%
%ADD27R,3.000000X2.000000*%
%ADD28R,2.100000X2.100000*%
%ADD29O,2.100000X2.100000*%
G04 APERTURE END LIST*
D10*
D11*
X159700000Y-92850000D03*
X159700000Y-90950000D03*
X159700000Y-95750000D03*
X159700000Y-97650000D03*
D12*
X155750000Y-86700000D03*
X153850000Y-86700000D03*
D11*
X156300000Y-67750000D03*
X156300000Y-69650000D03*
D12*
X156350000Y-74500000D03*
X154450000Y-74500000D03*
X166550000Y-72700000D03*
X164650000Y-72700000D03*
D13*
X174000000Y-105800000D03*
D14*
X176540000Y-105800000D03*
X174000000Y-103260000D03*
X176540000Y-103260000D03*
X174000000Y-100720000D03*
X176540000Y-100720000D03*
X174000000Y-98180000D03*
X176540000Y-98180000D03*
X174000000Y-95640000D03*
X176540000Y-95640000D03*
X174000000Y-93100000D03*
X176540000Y-93100000D03*
X174000000Y-90560000D03*
X176540000Y-90560000D03*
X174000000Y-88020000D03*
X176540000Y-88020000D03*
X174000000Y-85480000D03*
X176540000Y-85480000D03*
X174000000Y-82940000D03*
X176540000Y-82940000D03*
X174000000Y-80400000D03*
X176540000Y-80400000D03*
X174000000Y-77860000D03*
X176540000Y-77860000D03*
X174000000Y-75320000D03*
X176540000Y-75320000D03*
X174000000Y-72780000D03*
X176540000Y-72780000D03*
X174000000Y-70240000D03*
X176540000Y-70240000D03*
D13*
X141900000Y-76000000D03*
D14*
X139360000Y-76000000D03*
X141900000Y-73460000D03*
X139360000Y-73460000D03*
X141900000Y-70920000D03*
X139360000Y-70920000D03*
X141900000Y-68380000D03*
X139360000Y-68380000D03*
X141900000Y-65840000D03*
X139360000Y-65840000D03*
D11*
X158300000Y-67750000D03*
X158300000Y-69650000D03*
D12*
X145950000Y-76600000D03*
X147850000Y-76600000D03*
X145950000Y-74800000D03*
X147850000Y-74800000D03*
X156350000Y-72600000D03*
X154450000Y-72600000D03*
X145950000Y-73000000D03*
X147850000Y-73000000D03*
X145950000Y-71200000D03*
X147850000Y-71200000D03*
X156350000Y-76800000D03*
X154450000Y-76800000D03*
D15*
X151580000Y-68100000D03*
D16*
X146500000Y-68100000D03*
D15*
X149040000Y-68100000D03*
D17*
X155756000Y-105155000D03*
X155756000Y-103885000D03*
X155756000Y-102615000D03*
X155756000Y-101345000D03*
X155756000Y-100075000D03*
X155756000Y-98805000D03*
X155756000Y-97535000D03*
X155756000Y-96265000D03*
X155756000Y-94995000D03*
X155756000Y-93725000D03*
X155756000Y-92455000D03*
X155756000Y-91185000D03*
X155756000Y-89915000D03*
X155756000Y-88645000D03*
X148644000Y-88645000D03*
X148644000Y-89915000D03*
X148644000Y-91185000D03*
X148644000Y-92455000D03*
X148644000Y-93725000D03*
X148644000Y-94995000D03*
X148644000Y-96265000D03*
X148644000Y-97535000D03*
X148644000Y-98805000D03*
X148644000Y-100075000D03*
X148644000Y-101345000D03*
X148644000Y-102615000D03*
X148644000Y-103885000D03*
X148644000Y-105155000D03*
D18*
X163850000Y-67800000D03*
X163850000Y-69700000D03*
X161050000Y-67800000D03*
X161050000Y-68750000D03*
X161050000Y-69700000D03*
D19*
X163600000Y-96740940D03*
X163600000Y-91859060D03*
D20*
X167860000Y-67800000D03*
X167860000Y-70600000D03*
D21*
X141765000Y-86513000D03*
X141765000Y-87163000D03*
X141765000Y-87813000D03*
X141765000Y-88463000D03*
X141765000Y-89113000D03*
D22*
X141765000Y-85313000D03*
X141765000Y-90313000D03*
D23*
X139065000Y-84313000D03*
X139065000Y-91313000D03*
D24*
X162520000Y-114220000D03*
X157520000Y-114220000D03*
D25*
X163520000Y-116920000D03*
X156520000Y-116920000D03*
D26*
X145415000Y-94107000D03*
X145415000Y-90507000D03*
D27*
X151533000Y-114173000D03*
X147933000Y-114173000D03*
D28*
X139900000Y-109800000D03*
D29*
X139900000Y-107260000D03*
X139900000Y-104720000D03*
X139900000Y-102180000D03*
X139900000Y-99640000D03*
X139900000Y-97100000D03*
M02*
