G04 #@! TF.FileFunction,Soldermask,Bot*
%FSLAX46Y46*%
G04 Gerber Fmt 4.6, Leading zero omitted, Abs format (unit mm)*
G04 Created by KiCad (PCBNEW 4.0.0-rc1-stable) date 06/12/2015 04:25:02 p.m.*
%MOMM*%
G01*
G04 APERTURE LIST*
%ADD10C,0.100000*%
%ADD11R,2.432000X2.127200*%
%ADD12O,2.432000X2.127200*%
%ADD13C,1.299160*%
%ADD14R,2.127200X2.127200*%
%ADD15O,2.127200X2.127200*%
%ADD16R,1.200100X1.200100*%
%ADD17R,1.600000X1.150000*%
%ADD18R,1.150000X1.600000*%
%ADD19C,1.910000*%
%ADD20R,1.910000X1.910000*%
%ADD21C,1.901140*%
G04 APERTURE END LIST*
D10*
D11*
X139900000Y-109800000D03*
D12*
X139900000Y-107260000D03*
X139900000Y-104720000D03*
X139900000Y-102180000D03*
X139900000Y-99640000D03*
D13*
X141650900Y-85900360D03*
X141650900Y-90299640D03*
D14*
X174000000Y-105800000D03*
D15*
X176540000Y-105800000D03*
X174000000Y-103260000D03*
X176540000Y-103260000D03*
X174000000Y-100720000D03*
X176540000Y-100720000D03*
X174000000Y-98180000D03*
X176540000Y-98180000D03*
X174000000Y-95640000D03*
X176540000Y-95640000D03*
X174000000Y-93100000D03*
X176540000Y-93100000D03*
X174000000Y-90560000D03*
X176540000Y-90560000D03*
X174000000Y-88020000D03*
X176540000Y-88020000D03*
X174000000Y-85480000D03*
X176540000Y-85480000D03*
X174000000Y-82940000D03*
X176540000Y-82940000D03*
X174000000Y-80400000D03*
X176540000Y-80400000D03*
X174000000Y-77860000D03*
X176540000Y-77860000D03*
X174000000Y-75320000D03*
X176540000Y-75320000D03*
X174000000Y-72780000D03*
X176540000Y-72780000D03*
X174000000Y-70240000D03*
X176540000Y-70240000D03*
D14*
X141900000Y-76000000D03*
D15*
X139360000Y-76000000D03*
X141900000Y-73460000D03*
X139360000Y-73460000D03*
X141900000Y-70920000D03*
X139360000Y-70920000D03*
X141900000Y-68380000D03*
X139360000Y-68380000D03*
X141900000Y-65840000D03*
X139360000Y-65840000D03*
D16*
X182050000Y-102200760D03*
X180150000Y-102200760D03*
X181100000Y-100201780D03*
X181950000Y-70900760D03*
X180050000Y-70900760D03*
X181000000Y-68901780D03*
X181950000Y-77200760D03*
X180050000Y-77200760D03*
X181000000Y-75201780D03*
X182050000Y-95100760D03*
X180150000Y-95100760D03*
X181100000Y-93101780D03*
X181950000Y-83600760D03*
X180050000Y-83600760D03*
X181000000Y-81601780D03*
D17*
X182250000Y-104000000D03*
X180350000Y-104000000D03*
X182150000Y-72700000D03*
X180250000Y-72700000D03*
D18*
X184000000Y-101850000D03*
X184000000Y-99950000D03*
X183900000Y-70550000D03*
X183900000Y-68650000D03*
D17*
X182150000Y-79000000D03*
X180250000Y-79000000D03*
X182250000Y-96900000D03*
X180350000Y-96900000D03*
D18*
X183900000Y-76850000D03*
X183900000Y-74950000D03*
X184000000Y-94750000D03*
X184000000Y-92850000D03*
D17*
X182150000Y-85400000D03*
X180250000Y-85400000D03*
D18*
X183900000Y-83250000D03*
X183900000Y-81350000D03*
D19*
X151580000Y-68100000D03*
D20*
X146500000Y-68100000D03*
D19*
X149040000Y-68100000D03*
D21*
X163600000Y-96740940D03*
X163600000Y-91859060D03*
M02*
