G04 #@! TF.FileFunction,Copper,L1,Top,Signal*
%FSLAX46Y46*%
G04 Gerber Fmt 4.6, Leading zero omitted, Abs format (unit mm)*
G04 Created by KiCad (PCBNEW 4.0.4-stable) date 11/02/17 18:15:52*
%MOMM*%
%LPD*%
G01*
G04 APERTURE LIST*
%ADD10C,0.100000*%
%ADD11R,0.750000X1.200000*%
%ADD12R,1.200000X0.750000*%
%ADD13R,1.727200X1.727200*%
%ADD14O,1.727200X1.727200*%
%ADD15C,1.510000*%
%ADD16R,1.510000X1.510000*%
%ADD17R,1.143000X0.508000*%
%ADD18R,1.100000X0.600000*%
%ADD19C,1.501140*%
%ADD20R,3.700000X1.200000*%
%ADD21R,1.350000X0.400000*%
%ADD22O,0.950000X1.250000*%
%ADD23O,1.550000X1.000000*%
%ADD24O,1.250000X0.950000*%
%ADD25O,1.000000X1.550000*%
%ADD26R,1.600000X2.600000*%
%ADD27R,2.600000X1.600000*%
%ADD28R,1.700000X1.700000*%
%ADD29O,1.700000X1.700000*%
%ADD30C,0.685800*%
%ADD31C,0.250000*%
%ADD32C,0.500000*%
%ADD33C,0.400000*%
%ADD34C,1.000000*%
%ADD35C,0.254000*%
G04 APERTURE END LIST*
D10*
D11*
X159700000Y-92850000D03*
X159700000Y-90950000D03*
X159700000Y-95750000D03*
X159700000Y-97650000D03*
D12*
X155750000Y-86700000D03*
X153850000Y-86700000D03*
D11*
X156300000Y-67750000D03*
X156300000Y-69650000D03*
D12*
X156350000Y-74500000D03*
X154450000Y-74500000D03*
X166550000Y-72700000D03*
X164650000Y-72700000D03*
D13*
X174000000Y-105800000D03*
D14*
X176540000Y-105800000D03*
X174000000Y-103260000D03*
X176540000Y-103260000D03*
X174000000Y-100720000D03*
X176540000Y-100720000D03*
X174000000Y-98180000D03*
X176540000Y-98180000D03*
X174000000Y-95640000D03*
X176540000Y-95640000D03*
X174000000Y-93100000D03*
X176540000Y-93100000D03*
X174000000Y-90560000D03*
X176540000Y-90560000D03*
X174000000Y-88020000D03*
X176540000Y-88020000D03*
X174000000Y-85480000D03*
X176540000Y-85480000D03*
X174000000Y-82940000D03*
X176540000Y-82940000D03*
X174000000Y-80400000D03*
X176540000Y-80400000D03*
X174000000Y-77860000D03*
X176540000Y-77860000D03*
X174000000Y-75320000D03*
X176540000Y-75320000D03*
X174000000Y-72780000D03*
X176540000Y-72780000D03*
X174000000Y-70240000D03*
X176540000Y-70240000D03*
D13*
X141900000Y-76000000D03*
D14*
X139360000Y-76000000D03*
X141900000Y-73460000D03*
X139360000Y-73460000D03*
X141900000Y-70920000D03*
X139360000Y-70920000D03*
X141900000Y-68380000D03*
X139360000Y-68380000D03*
X141900000Y-65840000D03*
X139360000Y-65840000D03*
D11*
X158300000Y-67750000D03*
X158300000Y-69650000D03*
D12*
X145950000Y-76600000D03*
X147850000Y-76600000D03*
X145950000Y-74800000D03*
X147850000Y-74800000D03*
X156350000Y-72600000D03*
X154450000Y-72600000D03*
X145950000Y-73000000D03*
X147850000Y-73000000D03*
X145950000Y-71200000D03*
X147850000Y-71200000D03*
X156350000Y-76800000D03*
X154450000Y-76800000D03*
D15*
X151580000Y-68100000D03*
D16*
X146500000Y-68100000D03*
D15*
X149040000Y-68100000D03*
D17*
X155756000Y-105155000D03*
X155756000Y-103885000D03*
X155756000Y-102615000D03*
X155756000Y-101345000D03*
X155756000Y-100075000D03*
X155756000Y-98805000D03*
X155756000Y-97535000D03*
X155756000Y-96265000D03*
X155756000Y-94995000D03*
X155756000Y-93725000D03*
X155756000Y-92455000D03*
X155756000Y-91185000D03*
X155756000Y-89915000D03*
X155756000Y-88645000D03*
X148644000Y-88645000D03*
X148644000Y-89915000D03*
X148644000Y-91185000D03*
X148644000Y-92455000D03*
X148644000Y-93725000D03*
X148644000Y-94995000D03*
X148644000Y-96265000D03*
X148644000Y-97535000D03*
X148644000Y-98805000D03*
X148644000Y-100075000D03*
X148644000Y-101345000D03*
X148644000Y-102615000D03*
X148644000Y-103885000D03*
X148644000Y-105155000D03*
D18*
X163850000Y-67800000D03*
X163850000Y-69700000D03*
X161050000Y-67800000D03*
X161050000Y-68750000D03*
X161050000Y-69700000D03*
D19*
X163600000Y-96740940D03*
X163600000Y-91859060D03*
D20*
X167860000Y-67800000D03*
X167860000Y-70600000D03*
D21*
X141765000Y-86513000D03*
X141765000Y-87163000D03*
X141765000Y-87813000D03*
X141765000Y-88463000D03*
X141765000Y-89113000D03*
D22*
X141765000Y-85313000D03*
X141765000Y-90313000D03*
D23*
X139065000Y-84313000D03*
X139065000Y-91313000D03*
D24*
X162520000Y-114220000D03*
X157520000Y-114220000D03*
D25*
X163520000Y-116920000D03*
X156520000Y-116920000D03*
D26*
X145415000Y-94107000D03*
X145415000Y-90507000D03*
D27*
X151533000Y-114173000D03*
X147933000Y-114173000D03*
D28*
X139900000Y-109800000D03*
D29*
X139900000Y-107260000D03*
X139900000Y-104720000D03*
X139900000Y-102180000D03*
X139900000Y-99640000D03*
X139900000Y-97100000D03*
D30*
X182120000Y-90390000D03*
X182110000Y-89580000D03*
X182130000Y-88770000D03*
X182120000Y-87970000D03*
X183660000Y-106310000D03*
X183660000Y-107110000D03*
X182870000Y-107110000D03*
X182070000Y-106310000D03*
X182070000Y-107100000D03*
X153680000Y-70850000D03*
X154260000Y-70290000D03*
X160670000Y-76330000D03*
X162230000Y-76320000D03*
X160680000Y-72730000D03*
X162260000Y-72730000D03*
X164660000Y-88130000D03*
X163860000Y-88130000D03*
X163060000Y-88130000D03*
X162260000Y-88130000D03*
X164710000Y-83620000D03*
X164710000Y-82820000D03*
X163900000Y-82820000D03*
X163100000Y-82820000D03*
X162280000Y-82810000D03*
X161470000Y-82830000D03*
X163900000Y-83620000D03*
X163100000Y-83620000D03*
X162280000Y-83620000D03*
X161470000Y-72730000D03*
X161450000Y-76320000D03*
X161470000Y-83620000D03*
X161460000Y-88130000D03*
X182870000Y-106310000D03*
X154830000Y-69720000D03*
X159650000Y-68730000D03*
X145040000Y-111390000D03*
X145850000Y-111390000D03*
X143460000Y-111390000D03*
X144250000Y-111390000D03*
X154178000Y-112141000D03*
X153797000Y-103124000D03*
X151000000Y-77200000D03*
X148700000Y-79500000D03*
X183750000Y-65700000D03*
X147390000Y-105690000D03*
X147390000Y-107140000D03*
X146300000Y-104420000D03*
X146300000Y-107140000D03*
X168700000Y-103300000D03*
X168700000Y-100700000D03*
X168700000Y-98200000D03*
X145200000Y-107150000D03*
X145200000Y-103100000D03*
X143490000Y-107140000D03*
X143480000Y-100970000D03*
X150300000Y-98300000D03*
X144300000Y-109300000D03*
X144300000Y-102050000D03*
X184800000Y-104000000D03*
X184800000Y-96900000D03*
X184800000Y-85400000D03*
X184800000Y-79000000D03*
X184800000Y-72700000D03*
X154200000Y-90600000D03*
X153300000Y-91900000D03*
X152500000Y-95800000D03*
X151400000Y-97000000D03*
D31*
X159700000Y-92850000D02*
X162609060Y-92850000D01*
X162609060Y-92850000D02*
X163600000Y-91859060D01*
X155756000Y-93725000D02*
X158825000Y-93725000D01*
X158825000Y-93725000D02*
X159700000Y-92850000D01*
X143215000Y-89113000D02*
X141765000Y-89113000D01*
X182120000Y-87970000D02*
X182120000Y-88760000D01*
X182120000Y-89590000D02*
X182120000Y-90390000D01*
X182110000Y-89580000D02*
X182120000Y-89590000D01*
X182120000Y-88760000D02*
X182130000Y-88770000D01*
X183660000Y-107110000D02*
X183660000Y-106310000D01*
X183660000Y-106310000D02*
X182870000Y-106310000D01*
X182870000Y-107110000D02*
X182840000Y-107110000D01*
X182840000Y-107110000D02*
X182870000Y-107110000D01*
X182870000Y-107110000D02*
X182840000Y-107110000D01*
X182070000Y-107100000D02*
X182070000Y-106310000D01*
X153700000Y-70850000D02*
X153680000Y-70850000D01*
X154260000Y-70290000D02*
X153700000Y-70850000D01*
X161450000Y-76320000D02*
X160680000Y-76320000D01*
X160680000Y-76320000D02*
X160670000Y-76330000D01*
X161470000Y-72730000D02*
X160680000Y-72730000D01*
X162260000Y-72730000D02*
X162260000Y-72700000D01*
X162260000Y-72700000D02*
X162260000Y-72730000D01*
X162260000Y-72730000D02*
X162260000Y-72700000D01*
X163860000Y-88130000D02*
X164660000Y-88130000D01*
X162260000Y-88130000D02*
X163060000Y-88130000D01*
X164710000Y-82820000D02*
X164710000Y-83620000D01*
X163100000Y-83620000D02*
X163100000Y-82820000D01*
X161470000Y-83620000D02*
X161470000Y-82830000D01*
X161470000Y-83620000D02*
X162280000Y-83620000D01*
X163100000Y-83620000D02*
X163900000Y-83620000D01*
X161470000Y-83620000D02*
X161470000Y-76340000D01*
X161500000Y-72700000D02*
X162260000Y-72700000D01*
X162260000Y-72700000D02*
X164650000Y-72700000D01*
X161470000Y-72730000D02*
X161500000Y-72700000D01*
X161470000Y-76340000D02*
X161450000Y-76320000D01*
X159700000Y-90950000D02*
X159700000Y-89610000D01*
X153850000Y-84850000D02*
X153850000Y-86700000D01*
X154880000Y-83820000D02*
X153850000Y-84850000D01*
X161270000Y-83820000D02*
X154880000Y-83820000D01*
X161470000Y-83620000D02*
X161270000Y-83820000D01*
X161460000Y-88220000D02*
X161460000Y-88130000D01*
X159700000Y-89610000D02*
X161460000Y-88220000D01*
X182870000Y-106310000D02*
X182870000Y-105720000D01*
X182870000Y-105720000D02*
X182120000Y-104970000D01*
X182120000Y-104970000D02*
X182120000Y-87970000D01*
X182840000Y-109630000D02*
X181140000Y-111330000D01*
X182840000Y-106340000D02*
X182840000Y-107110000D01*
X182840000Y-107110000D02*
X182840000Y-109630000D01*
X182870000Y-106310000D02*
X182840000Y-106340000D01*
X161050000Y-68750000D02*
X159670000Y-68750000D01*
X154900000Y-69650000D02*
X156300000Y-69650000D01*
X154830000Y-69720000D02*
X154900000Y-69650000D01*
X159670000Y-68750000D02*
X159650000Y-68730000D01*
X144250000Y-111390000D02*
X144620000Y-111390000D01*
X145850000Y-111390000D02*
X145850000Y-111330000D01*
X145850000Y-111330000D02*
X145850000Y-111390000D01*
X145850000Y-111390000D02*
X145850000Y-111330000D01*
X144310000Y-111330000D02*
X144250000Y-111390000D01*
X145850000Y-111330000D02*
X144310000Y-111330000D01*
X159700000Y-95750000D02*
X162609060Y-95750000D01*
X162609060Y-95750000D02*
X163600000Y-96740940D01*
X155756000Y-94995000D02*
X158945000Y-94995000D01*
X158945000Y-94995000D02*
X159700000Y-95750000D01*
D32*
X145586000Y-94151000D02*
X146430000Y-94995000D01*
X146430000Y-94995000D02*
X146940000Y-94995000D01*
X145542000Y-94151000D02*
X145586000Y-94151000D01*
X145542000Y-94151000D02*
X141688000Y-94151000D01*
X141688000Y-94151000D02*
X141500000Y-94339000D01*
X140664010Y-95174990D02*
X141500000Y-94339000D01*
X141500000Y-94339000D02*
X141500000Y-91843000D01*
X138411824Y-95174990D02*
X140664010Y-95174990D01*
X138050000Y-95536814D02*
X138411824Y-95174990D01*
X138074992Y-95511822D02*
X138076150Y-95510664D01*
X138050000Y-98750000D02*
X138050000Y-95536814D01*
X138050000Y-95536814D02*
X138074992Y-95511822D01*
X139900000Y-107260000D02*
X138810000Y-107260000D01*
X138810000Y-107260000D02*
X138050000Y-106500000D01*
X151533000Y-114173000D02*
X152146000Y-114173000D01*
X152146000Y-114173000D02*
X154178000Y-112141000D01*
D33*
X140590000Y-86513000D02*
X141765000Y-86513000D01*
D32*
X143141800Y-86499800D02*
X143128600Y-86513000D01*
D33*
X143128600Y-86513000D02*
X141765000Y-86513000D01*
D32*
X144653000Y-86499800D02*
X143141800Y-86499800D01*
X146940000Y-94995000D02*
X148644000Y-94995000D01*
X148639000Y-95000000D02*
X148644000Y-94995000D01*
X153797000Y-95123000D02*
X153797000Y-103124000D01*
X152781000Y-94107000D02*
X153797000Y-95123000D01*
X152019000Y-94107000D02*
X152781000Y-94107000D01*
X150603500Y-94107000D02*
X152019000Y-94107000D01*
X148644000Y-94995000D02*
X149715500Y-94995000D01*
X149715500Y-94995000D02*
X150603500Y-94107000D01*
X141500000Y-91843000D02*
X139446000Y-89789000D01*
X139446000Y-89789000D02*
X139446000Y-87630000D01*
X139446000Y-87630000D02*
X139473000Y-87630000D01*
X139473000Y-87630000D02*
X140590000Y-86513000D01*
X144653000Y-86499800D02*
X147500200Y-86499800D01*
X144639800Y-86513000D02*
X144653000Y-86499800D01*
X147500200Y-86499800D02*
X148700000Y-85300000D01*
X154550000Y-67750000D02*
X156300000Y-67750000D01*
X151000000Y-71300000D02*
X154550000Y-67750000D01*
X151000000Y-77200000D02*
X151000000Y-71300000D01*
X148700000Y-85300000D02*
X148700000Y-79500000D01*
X161050000Y-67150000D02*
X161050000Y-67800000D01*
X162500000Y-65700000D02*
X161050000Y-67150000D01*
X163800000Y-65700000D02*
X162500000Y-65700000D01*
X183750000Y-65700000D02*
X163800000Y-65700000D01*
X138050000Y-106500000D02*
X138050000Y-98750000D01*
X156300000Y-67750000D02*
X158300000Y-67750000D01*
X158300000Y-67750000D02*
X158350000Y-67800000D01*
X158350000Y-67800000D02*
X161050000Y-67800000D01*
D31*
X148639000Y-95000000D02*
X148644000Y-94995000D01*
X155756000Y-88645000D02*
X155756000Y-86706000D01*
X155756000Y-86706000D02*
X155750000Y-86700000D01*
X155750000Y-88639000D02*
X155756000Y-88645000D01*
X155750000Y-88639000D02*
X155756000Y-88645000D01*
X154450000Y-76800000D02*
X154450000Y-76250000D01*
X156350000Y-75250000D02*
X156350000Y-74500000D01*
X156000000Y-75600000D02*
X156350000Y-75250000D01*
X155100000Y-75600000D02*
X156000000Y-75600000D01*
X154450000Y-76250000D02*
X155100000Y-75600000D01*
X139360000Y-76000000D02*
X139360000Y-77160000D01*
X152700000Y-74500000D02*
X154450000Y-74500000D01*
X152000000Y-75200000D02*
X152700000Y-74500000D01*
X152000000Y-77400000D02*
X152000000Y-75200000D01*
X151100000Y-78300000D02*
X152000000Y-77400000D01*
X140500000Y-78300000D02*
X151100000Y-78300000D01*
X139360000Y-77160000D02*
X140500000Y-78300000D01*
X154450000Y-72600000D02*
X154450000Y-74500000D01*
X154450000Y-72600000D02*
X154450000Y-72050000D01*
X163850000Y-70650000D02*
X163850000Y-69700000D01*
X163300000Y-71200000D02*
X163850000Y-70650000D01*
X155300000Y-71200000D02*
X163300000Y-71200000D01*
X154450000Y-72050000D02*
X155300000Y-71200000D01*
X139360000Y-65840000D02*
X139360000Y-68380000D01*
X139360000Y-68380000D02*
X139360000Y-70920000D01*
X139360000Y-70920000D02*
X139360000Y-73460000D01*
X139360000Y-73460000D02*
X139360000Y-76000000D01*
X139360000Y-76000000D02*
X139400000Y-76040000D01*
D32*
X163850000Y-67800000D02*
X165250000Y-67800000D01*
D34*
X165250000Y-67800000D02*
X167860000Y-67800000D01*
D31*
X139900000Y-109800000D02*
X141900000Y-109800000D01*
X153945000Y-105155000D02*
X155756000Y-105155000D01*
X152700000Y-106400000D02*
X153945000Y-105155000D01*
X142900000Y-106400000D02*
X152700000Y-106400000D01*
X142500000Y-106800000D02*
X142900000Y-106400000D01*
X142500000Y-109200000D02*
X142500000Y-106800000D01*
X141900000Y-109800000D02*
X142500000Y-109200000D01*
X155756000Y-105155000D02*
X156655000Y-105155000D01*
X156655000Y-105155000D02*
X158900000Y-107400000D01*
X158900000Y-107400000D02*
X172400000Y-107400000D01*
X172400000Y-107400000D02*
X174000000Y-105800000D01*
X173355000Y-105155000D02*
X174000000Y-105800000D01*
X147390000Y-105155000D02*
X147390000Y-105690000D01*
X147390000Y-107140000D02*
X148200000Y-107950000D01*
X148200000Y-107950000D02*
X177100000Y-107950000D01*
X177100000Y-107950000D02*
X178250000Y-106800000D01*
X178250000Y-106800000D02*
X178250000Y-97350000D01*
X178250000Y-97350000D02*
X176540000Y-95640000D01*
X139900000Y-102180000D02*
X141580000Y-102180000D01*
X142555000Y-105155000D02*
X147390000Y-105155000D01*
X147390000Y-105155000D02*
X147640000Y-105155000D01*
X147640000Y-105155000D02*
X148644000Y-105155000D01*
X142100000Y-104700000D02*
X142555000Y-105155000D01*
X142100000Y-102700000D02*
X142100000Y-104700000D01*
X141580000Y-102180000D02*
X142100000Y-102700000D01*
X146300000Y-103885000D02*
X146300000Y-104420000D01*
X146300000Y-107140000D02*
X147610000Y-108450000D01*
X147610000Y-108450000D02*
X177300000Y-108450000D01*
X177300000Y-108450000D02*
X178750000Y-107000000D01*
X178750000Y-107000000D02*
X178750000Y-95310000D01*
X178750000Y-95310000D02*
X176540000Y-93100000D01*
X139900000Y-99640000D02*
X142240000Y-99640000D01*
X143185000Y-103885000D02*
X146300000Y-103885000D01*
X146300000Y-103885000D02*
X146500000Y-103885000D01*
X146500000Y-103885000D02*
X146560000Y-103885000D01*
X146560000Y-103885000D02*
X148644000Y-103885000D01*
X142700000Y-103400000D02*
X143185000Y-103885000D01*
X142700000Y-100100000D02*
X142700000Y-103400000D01*
X142240000Y-99640000D02*
X142700000Y-100100000D01*
X144526000Y-87299900D02*
X146481900Y-87299900D01*
X146481900Y-87299900D02*
X147827000Y-88645000D01*
X147827000Y-88645000D02*
X148644000Y-88645000D01*
X144249320Y-87299900D02*
X144526000Y-87299900D01*
X141765000Y-87163000D02*
X142690000Y-87163000D01*
X142826900Y-87299900D02*
X144526000Y-87299900D01*
X142690000Y-87163000D02*
X142826900Y-87299900D01*
X141765000Y-87813000D02*
X142690000Y-87813000D01*
X142690000Y-87813000D02*
X142977000Y-88100000D01*
X142977000Y-88100000D02*
X146400000Y-88100000D01*
X146400000Y-88100000D02*
X148215000Y-89915000D01*
X148215000Y-89915000D02*
X148644000Y-89915000D01*
X155756000Y-92455000D02*
X157445000Y-92455000D01*
X166900000Y-101500000D02*
X168700000Y-103300000D01*
X166900000Y-87900000D02*
X166900000Y-101500000D01*
X165600000Y-86600000D02*
X166900000Y-87900000D01*
X159700000Y-86600000D02*
X165600000Y-86600000D01*
X158400000Y-87900000D02*
X159700000Y-86600000D01*
X158400000Y-91500000D02*
X158400000Y-87900000D01*
X157445000Y-92455000D02*
X158400000Y-91500000D01*
X167600000Y-99600000D02*
X168700000Y-100700000D01*
X166200000Y-86000000D02*
X167600000Y-87400000D01*
X159300000Y-86000000D02*
X166200000Y-86000000D01*
X157900000Y-90500000D02*
X157900000Y-87400000D01*
X157900000Y-87400000D02*
X159300000Y-86000000D01*
X157215000Y-91185000D02*
X157900000Y-90500000D01*
X155756000Y-91185000D02*
X157215000Y-91185000D01*
X167600000Y-87400000D02*
X167600000Y-99600000D01*
X155756000Y-89915000D02*
X156685000Y-89915000D01*
X168300000Y-97800000D02*
X168700000Y-98200000D01*
X168300000Y-86800000D02*
X168300000Y-97800000D01*
X166900000Y-85400000D02*
X168300000Y-86800000D01*
X158800000Y-85400000D02*
X166900000Y-85400000D01*
X157300000Y-86900000D02*
X158800000Y-85400000D01*
X157300000Y-89300000D02*
X157300000Y-86900000D01*
X156685000Y-89915000D02*
X157300000Y-89300000D01*
X155756000Y-103885000D02*
X156635002Y-103885000D01*
X172500000Y-92060000D02*
X174000000Y-90560000D01*
X172500000Y-105900000D02*
X172500000Y-92060000D01*
X171500000Y-106900000D02*
X172500000Y-105900000D01*
X159650002Y-106900000D02*
X171500000Y-106900000D01*
X156635002Y-103885000D02*
X159650002Y-106900000D01*
X155756000Y-102615000D02*
X156665002Y-102615000D01*
X172049998Y-89970002D02*
X174000000Y-88020000D01*
X172049998Y-105250000D02*
X172049998Y-89970002D01*
X170850000Y-106449998D02*
X172049998Y-105250000D01*
X160500000Y-106449998D02*
X170850000Y-106449998D01*
X156665002Y-102615000D02*
X160500000Y-106449998D01*
X155756000Y-102615000D02*
X156160004Y-102615000D01*
X155756000Y-101345000D02*
X156695004Y-101345000D01*
X171599996Y-87880004D02*
X174000000Y-85480000D01*
X171599996Y-104550004D02*
X171599996Y-87880004D01*
X170150004Y-105999996D02*
X171599996Y-104550004D01*
X161350000Y-105999996D02*
X170150004Y-105999996D01*
X156695004Y-101345000D02*
X161350000Y-105999996D01*
X155756000Y-101345000D02*
X155895002Y-101345000D01*
X155756000Y-100075000D02*
X156625006Y-100075000D01*
X171100000Y-85840000D02*
X174000000Y-82940000D01*
X171100000Y-104150000D02*
X171100000Y-85840000D01*
X169700006Y-105549994D02*
X171100000Y-104150000D01*
X162100000Y-105549994D02*
X169700006Y-105549994D01*
X156625006Y-100075000D02*
X162100000Y-105549994D01*
X155756000Y-98805000D02*
X156605002Y-98805000D01*
X170600000Y-83800000D02*
X174000000Y-80400000D01*
X170600000Y-103699992D02*
X170600000Y-83800000D01*
X169249994Y-105049998D02*
X170600000Y-103699992D01*
X162850000Y-105049998D02*
X169249994Y-105049998D01*
X156605002Y-98805000D02*
X162850000Y-105049998D01*
X179250000Y-93270000D02*
X176540000Y-90560000D01*
X179250000Y-107250000D02*
X179250000Y-93270000D01*
X177550000Y-108950000D02*
X179250000Y-107250000D01*
X147000000Y-108950000D02*
X177550000Y-108950000D01*
X145200000Y-107150000D02*
X147000000Y-108950000D01*
X145685000Y-102615000D02*
X145200000Y-103100000D01*
X148644000Y-102615000D02*
X145685000Y-102615000D01*
X148644000Y-100075000D02*
X144370000Y-100080000D01*
X179850000Y-88790000D02*
X176540000Y-85480000D01*
X179850000Y-107450000D02*
X179850000Y-88790000D01*
X177850000Y-109450000D02*
X179850000Y-107450000D01*
X145790000Y-109440000D02*
X177850000Y-109450000D01*
X143490000Y-107140000D02*
X145790000Y-109440000D01*
X144370000Y-100080000D02*
X143480000Y-100970000D01*
X148644000Y-98805000D02*
X149795000Y-98805000D01*
X149795000Y-98805000D02*
X150300000Y-98300000D01*
X148644000Y-101345000D02*
X145005000Y-101345000D01*
X180400000Y-86800000D02*
X176540000Y-82940000D01*
X180400000Y-107650000D02*
X180400000Y-86800000D01*
X178100000Y-109950000D02*
X180400000Y-107650000D01*
X144950000Y-109950000D02*
X178100000Y-109950000D01*
X144300000Y-109300000D02*
X144950000Y-109950000D01*
X145005000Y-101345000D02*
X144300000Y-102050000D01*
X141900000Y-76000000D02*
X143400000Y-76000000D01*
X144000000Y-76600000D02*
X145950000Y-76600000D01*
X143400000Y-76000000D02*
X144000000Y-76600000D01*
X141900000Y-73460000D02*
X142760000Y-73460000D01*
X142760000Y-73460000D02*
X144100000Y-74800000D01*
X144100000Y-74800000D02*
X145950000Y-74800000D01*
X141900000Y-70920000D02*
X142020000Y-70920000D01*
X142020000Y-70920000D02*
X144100000Y-73000000D01*
X144100000Y-73000000D02*
X145950000Y-73000000D01*
X141900000Y-68380000D02*
X143380000Y-68380000D01*
X144400000Y-71200000D02*
X145950000Y-71200000D01*
X143900000Y-70700000D02*
X144400000Y-71200000D01*
X143900000Y-68900000D02*
X143900000Y-70700000D01*
X143380000Y-68380000D02*
X143900000Y-68900000D01*
X141900000Y-65840000D02*
X145740000Y-65840000D01*
X146500000Y-66600000D02*
X146500000Y-68100000D01*
X145740000Y-65840000D02*
X146500000Y-66600000D01*
X146500000Y-68100000D02*
X149040000Y-68100000D01*
X158300000Y-69650000D02*
X161000000Y-69650000D01*
X161000000Y-69650000D02*
X161050000Y-69700000D01*
D34*
X158230000Y-74550000D02*
X165730000Y-74550000D01*
X165730000Y-74550000D02*
X167580000Y-72700000D01*
X157600000Y-72600000D02*
X158230000Y-72600000D01*
X158220000Y-76800000D02*
X157630000Y-76800000D01*
X158230000Y-76810000D02*
X158220000Y-76800000D01*
X158230000Y-72600000D02*
X158230000Y-74550000D01*
X158230000Y-74550000D02*
X158230000Y-76810000D01*
D32*
X156350000Y-72600000D02*
X157600000Y-72600000D01*
X157600000Y-72600000D02*
X157640000Y-72600000D01*
X156350000Y-76800000D02*
X157630000Y-76800000D01*
X157630000Y-76800000D02*
X157640000Y-76800000D01*
X166550000Y-72700000D02*
X167580000Y-72700000D01*
D34*
X167580000Y-72700000D02*
X167860000Y-72420000D01*
X167860000Y-72420000D02*
X167860000Y-70600000D01*
X183900000Y-104000000D02*
X183900000Y-96900000D01*
D32*
X184800000Y-104000000D02*
X183900000Y-104000000D01*
X184800000Y-96900000D02*
X183900000Y-96900000D01*
X184800000Y-85400000D02*
X183900000Y-85400000D01*
X184800000Y-79000000D02*
X183900000Y-79000000D01*
X184800000Y-72700000D02*
X183900000Y-72700000D01*
D34*
X176540000Y-70240000D02*
X176540000Y-67850000D01*
X176550000Y-67900000D02*
X176550000Y-67850000D01*
X176550000Y-67860000D02*
X176550000Y-67900000D01*
X176540000Y-67850000D02*
X176550000Y-67860000D01*
X167860000Y-70600000D02*
X171400000Y-70600000D01*
X183900000Y-69150000D02*
X183900000Y-72700000D01*
X176550000Y-67850000D02*
X182600000Y-67850000D01*
X182600000Y-67850000D02*
X183900000Y-69150000D01*
X183900000Y-72700000D02*
X183900000Y-79000000D01*
X183900000Y-79000000D02*
X183900000Y-85400000D01*
X183900000Y-85400000D02*
X183900000Y-96900000D01*
X172750000Y-67850000D02*
X176550000Y-67850000D01*
X171950000Y-68650000D02*
X172750000Y-67850000D01*
X171950000Y-70050000D02*
X171950000Y-68650000D01*
X171400000Y-70600000D02*
X171950000Y-70050000D01*
D31*
X148644000Y-91185000D02*
X153615000Y-91185000D01*
X153615000Y-91185000D02*
X154200000Y-90600000D01*
X148644000Y-92455000D02*
X152745000Y-92455000D01*
X152745000Y-92455000D02*
X153300000Y-91900000D01*
X155756000Y-97535000D02*
X156735000Y-97535000D01*
X170100000Y-81760000D02*
X173060000Y-78800000D01*
X170100000Y-103400000D02*
X170100000Y-81760000D01*
X168900004Y-104599996D02*
X170100000Y-103400000D01*
X163799996Y-104599996D02*
X168900004Y-104599996D01*
X156735000Y-97535000D02*
X163799996Y-104599996D01*
X173060000Y-78800000D02*
X174000000Y-77860000D01*
X148644000Y-96265000D02*
X152035000Y-96265000D01*
X152035000Y-96265000D02*
X152500000Y-95800000D01*
X148644000Y-97535000D02*
X150865000Y-97535000D01*
X150865000Y-97535000D02*
X151400000Y-97000000D01*
D35*
G36*
X185890000Y-118622857D02*
X137337000Y-118612912D01*
X137337000Y-117047000D01*
X155385000Y-117047000D01*
X155385000Y-117322000D01*
X155519998Y-117746678D01*
X155807237Y-118087368D01*
X156218126Y-118289119D01*
X156393000Y-118162954D01*
X156393000Y-117047000D01*
X156647000Y-117047000D01*
X156647000Y-118162954D01*
X156821874Y-118289119D01*
X157232763Y-118087368D01*
X157520002Y-117746678D01*
X157655000Y-117322000D01*
X157655000Y-117047000D01*
X162385000Y-117047000D01*
X162385000Y-117322000D01*
X162519998Y-117746678D01*
X162807237Y-118087368D01*
X163218126Y-118289119D01*
X163393000Y-118162954D01*
X163393000Y-117047000D01*
X163647000Y-117047000D01*
X163647000Y-118162954D01*
X163821874Y-118289119D01*
X164232763Y-118087368D01*
X164520002Y-117746678D01*
X164655000Y-117322000D01*
X164655000Y-117047000D01*
X163647000Y-117047000D01*
X163393000Y-117047000D01*
X162385000Y-117047000D01*
X157655000Y-117047000D01*
X156647000Y-117047000D01*
X156393000Y-117047000D01*
X155385000Y-117047000D01*
X137337000Y-117047000D01*
X137337000Y-116518000D01*
X155385000Y-116518000D01*
X155385000Y-116793000D01*
X156393000Y-116793000D01*
X156393000Y-115677046D01*
X156647000Y-115677046D01*
X156647000Y-116793000D01*
X157655000Y-116793000D01*
X157655000Y-116518000D01*
X162385000Y-116518000D01*
X162385000Y-116793000D01*
X163393000Y-116793000D01*
X163393000Y-115677046D01*
X163647000Y-115677046D01*
X163647000Y-116793000D01*
X164655000Y-116793000D01*
X164655000Y-116518000D01*
X164520002Y-116093322D01*
X164232763Y-115752632D01*
X163821874Y-115550881D01*
X163647000Y-115677046D01*
X163393000Y-115677046D01*
X163218126Y-115550881D01*
X162807237Y-115752632D01*
X162519998Y-116093322D01*
X162385000Y-116518000D01*
X157655000Y-116518000D01*
X157520002Y-116093322D01*
X157232763Y-115752632D01*
X156821874Y-115550881D01*
X156647000Y-115677046D01*
X156393000Y-115677046D01*
X156218126Y-115550881D01*
X155807237Y-115752632D01*
X155519998Y-116093322D01*
X155385000Y-116518000D01*
X137337000Y-116518000D01*
X137337000Y-114458750D01*
X145998000Y-114458750D01*
X145998000Y-115099310D01*
X146094673Y-115332699D01*
X146273302Y-115511327D01*
X146506691Y-115608000D01*
X147647250Y-115608000D01*
X147806000Y-115449250D01*
X147806000Y-114300000D01*
X146156750Y-114300000D01*
X145998000Y-114458750D01*
X137337000Y-114458750D01*
X137337000Y-113246690D01*
X145998000Y-113246690D01*
X145998000Y-113887250D01*
X146156750Y-114046000D01*
X147806000Y-114046000D01*
X147806000Y-112896750D01*
X148060000Y-112896750D01*
X148060000Y-114046000D01*
X148080000Y-114046000D01*
X148080000Y-114300000D01*
X148060000Y-114300000D01*
X148060000Y-115449250D01*
X148218750Y-115608000D01*
X149359309Y-115608000D01*
X149592698Y-115511327D01*
X149733936Y-115370090D01*
X149768910Y-115424441D01*
X149981110Y-115569431D01*
X150233000Y-115620440D01*
X152833000Y-115620440D01*
X153068317Y-115576162D01*
X153284441Y-115437090D01*
X153429431Y-115224890D01*
X153480440Y-114973000D01*
X153480440Y-114517938D01*
X156300732Y-114517938D01*
X156484448Y-114891821D01*
X156808951Y-115179568D01*
X157218869Y-115321229D01*
X157393000Y-115172563D01*
X157393000Y-114347000D01*
X157647000Y-114347000D01*
X157647000Y-115172563D01*
X157821131Y-115321229D01*
X158231049Y-115179568D01*
X158555552Y-114891821D01*
X158739268Y-114517938D01*
X161300732Y-114517938D01*
X161484448Y-114891821D01*
X161808951Y-115179568D01*
X162218869Y-115321229D01*
X162393000Y-115172563D01*
X162393000Y-114347000D01*
X162647000Y-114347000D01*
X162647000Y-115172563D01*
X162821131Y-115321229D01*
X163231049Y-115179568D01*
X163555552Y-114891821D01*
X163739268Y-114517938D01*
X163612734Y-114347000D01*
X162647000Y-114347000D01*
X162393000Y-114347000D01*
X161427266Y-114347000D01*
X161300732Y-114517938D01*
X158739268Y-114517938D01*
X158612734Y-114347000D01*
X157647000Y-114347000D01*
X157393000Y-114347000D01*
X156427266Y-114347000D01*
X156300732Y-114517938D01*
X153480440Y-114517938D01*
X153480440Y-114090140D01*
X153648517Y-113922062D01*
X156300732Y-113922062D01*
X156427266Y-114093000D01*
X157393000Y-114093000D01*
X157393000Y-113267437D01*
X157647000Y-113267437D01*
X157647000Y-114093000D01*
X158612734Y-114093000D01*
X158739268Y-113922062D01*
X161300732Y-113922062D01*
X161427266Y-114093000D01*
X162393000Y-114093000D01*
X162393000Y-113267437D01*
X162647000Y-113267437D01*
X162647000Y-114093000D01*
X163612734Y-114093000D01*
X163739268Y-113922062D01*
X163555552Y-113548179D01*
X163231049Y-113260432D01*
X162821131Y-113118771D01*
X162647000Y-113267437D01*
X162393000Y-113267437D01*
X162218869Y-113118771D01*
X161808951Y-113260432D01*
X161484448Y-113548179D01*
X161300732Y-113922062D01*
X158739268Y-113922062D01*
X158555552Y-113548179D01*
X158231049Y-113260432D01*
X157821131Y-113118771D01*
X157647000Y-113267437D01*
X157393000Y-113267437D01*
X157218869Y-113118771D01*
X156808951Y-113260432D01*
X156484448Y-113548179D01*
X156300732Y-113922062D01*
X153648517Y-113922062D01*
X154507733Y-113062846D01*
X154731212Y-112970507D01*
X155006540Y-112695659D01*
X155155730Y-112336370D01*
X155156069Y-111947337D01*
X155007507Y-111587788D01*
X154732659Y-111312460D01*
X154373370Y-111163270D01*
X153984337Y-111162931D01*
X153624788Y-111311493D01*
X153349460Y-111586341D01*
X153255998Y-111811423D01*
X152341860Y-112725560D01*
X150233000Y-112725560D01*
X149997683Y-112769838D01*
X149781559Y-112908910D01*
X149735031Y-112977006D01*
X149592698Y-112834673D01*
X149359309Y-112738000D01*
X148218750Y-112738000D01*
X148060000Y-112896750D01*
X147806000Y-112896750D01*
X147647250Y-112738000D01*
X146506691Y-112738000D01*
X146273302Y-112834673D01*
X146094673Y-113013301D01*
X145998000Y-113246690D01*
X137337000Y-113246690D01*
X137337000Y-106995270D01*
X137400857Y-107090839D01*
X137424210Y-107125790D01*
X138184208Y-107885787D01*
X138184210Y-107885790D01*
X138471325Y-108077633D01*
X138695327Y-108122190D01*
X138820853Y-108310054D01*
X138862452Y-108337850D01*
X138814683Y-108346838D01*
X138598559Y-108485910D01*
X138453569Y-108698110D01*
X138402560Y-108950000D01*
X138402560Y-110650000D01*
X138446838Y-110885317D01*
X138585910Y-111101441D01*
X138798110Y-111246431D01*
X139050000Y-111297440D01*
X140750000Y-111297440D01*
X140985317Y-111253162D01*
X141201441Y-111114090D01*
X141346431Y-110901890D01*
X141397440Y-110650000D01*
X141397440Y-110560000D01*
X141900000Y-110560000D01*
X142190839Y-110502148D01*
X142437401Y-110337401D01*
X143037401Y-109737401D01*
X143202148Y-109490839D01*
X143260000Y-109200000D01*
X143260000Y-108103350D01*
X143294630Y-108117730D01*
X143393014Y-108117816D01*
X143746239Y-108471041D01*
X143471460Y-108745341D01*
X143322270Y-109104630D01*
X143321931Y-109493663D01*
X143470493Y-109853212D01*
X143745341Y-110128540D01*
X144104630Y-110277730D01*
X144203014Y-110277816D01*
X144412599Y-110487401D01*
X144659161Y-110652148D01*
X144950000Y-110710000D01*
X178100000Y-110710000D01*
X178390839Y-110652148D01*
X178637401Y-110487401D01*
X180937401Y-108187401D01*
X181102148Y-107940840D01*
X181160000Y-107650000D01*
X181160000Y-86800000D01*
X181149060Y-86745000D01*
X181102148Y-86509160D01*
X180937401Y-86262599D01*
X177973158Y-83298356D01*
X178038600Y-82969359D01*
X178038600Y-82910641D01*
X177924526Y-82337152D01*
X177599670Y-81850971D01*
X177328828Y-81670000D01*
X177599670Y-81489029D01*
X177924526Y-81002848D01*
X178038600Y-80429359D01*
X178038600Y-80370641D01*
X177924526Y-79797152D01*
X177599670Y-79310971D01*
X177328828Y-79130000D01*
X177599670Y-78949029D01*
X177924526Y-78462848D01*
X178038600Y-77889359D01*
X178038600Y-77830641D01*
X177924526Y-77257152D01*
X177599670Y-76770971D01*
X177328828Y-76590000D01*
X177599670Y-76409029D01*
X177924526Y-75922848D01*
X178038600Y-75349359D01*
X178038600Y-75290641D01*
X177924526Y-74717152D01*
X177599670Y-74230971D01*
X177328839Y-74050008D01*
X177746821Y-73668490D01*
X177994968Y-73139027D01*
X177874469Y-72907000D01*
X176667000Y-72907000D01*
X176667000Y-72927000D01*
X176413000Y-72927000D01*
X176413000Y-72907000D01*
X176393000Y-72907000D01*
X176393000Y-72653000D01*
X176413000Y-72653000D01*
X176413000Y-72633000D01*
X176667000Y-72633000D01*
X176667000Y-72653000D01*
X177874469Y-72653000D01*
X177994968Y-72420973D01*
X177746821Y-71891510D01*
X177328839Y-71509992D01*
X177599670Y-71329029D01*
X177924526Y-70842848D01*
X178038600Y-70269359D01*
X178038600Y-70210641D01*
X177924526Y-69637152D01*
X177675000Y-69263710D01*
X177675000Y-68985000D01*
X182129868Y-68985000D01*
X182765000Y-69620132D01*
X182765000Y-104000000D01*
X182851397Y-104434346D01*
X183097434Y-104802566D01*
X183465654Y-105048603D01*
X183900000Y-105135000D01*
X184334346Y-105048603D01*
X184503353Y-104935676D01*
X184604630Y-104977730D01*
X184993663Y-104978069D01*
X185353212Y-104829507D01*
X185628540Y-104554659D01*
X185777730Y-104195370D01*
X185778069Y-103806337D01*
X185629507Y-103446788D01*
X185354659Y-103171460D01*
X185035000Y-103038726D01*
X185035000Y-97860989D01*
X185353212Y-97729507D01*
X185628540Y-97454659D01*
X185777730Y-97095370D01*
X185778069Y-96706337D01*
X185629507Y-96346788D01*
X185354659Y-96071460D01*
X185035000Y-95938726D01*
X185035000Y-86360989D01*
X185353212Y-86229507D01*
X185628540Y-85954659D01*
X185777730Y-85595370D01*
X185778069Y-85206337D01*
X185629507Y-84846788D01*
X185354659Y-84571460D01*
X185035000Y-84438726D01*
X185035000Y-79960989D01*
X185353212Y-79829507D01*
X185628540Y-79554659D01*
X185777730Y-79195370D01*
X185778069Y-78806337D01*
X185629507Y-78446788D01*
X185354659Y-78171460D01*
X185035000Y-78038726D01*
X185035000Y-73660989D01*
X185353212Y-73529507D01*
X185628540Y-73254659D01*
X185777730Y-72895370D01*
X185778069Y-72506337D01*
X185629507Y-72146788D01*
X185354659Y-71871460D01*
X185035000Y-71738726D01*
X185035000Y-69150000D01*
X185033011Y-69140000D01*
X184948604Y-68715655D01*
X184702566Y-68347434D01*
X183402566Y-67047434D01*
X183305186Y-66982367D01*
X183034346Y-66801397D01*
X182600000Y-66715000D01*
X172750000Y-66715000D01*
X172315654Y-66801397D01*
X172044814Y-66982367D01*
X171947434Y-67047434D01*
X171147434Y-67847434D01*
X170901397Y-68215654D01*
X170815000Y-68650000D01*
X170815000Y-69465000D01*
X170051797Y-69465000D01*
X169961890Y-69403569D01*
X169710000Y-69352560D01*
X166010000Y-69352560D01*
X165774683Y-69396838D01*
X165558559Y-69535910D01*
X165413569Y-69748110D01*
X165362560Y-70000000D01*
X165362560Y-71200000D01*
X165406838Y-71435317D01*
X165545910Y-71651441D01*
X165680825Y-71743625D01*
X165611354Y-71788329D01*
X165609698Y-71786673D01*
X165376309Y-71690000D01*
X164935750Y-71690000D01*
X164777000Y-71848750D01*
X164777000Y-72573000D01*
X164797000Y-72573000D01*
X164797000Y-72827000D01*
X164777000Y-72827000D01*
X164777000Y-72847000D01*
X164523000Y-72847000D01*
X164523000Y-72827000D01*
X163573750Y-72827000D01*
X163415000Y-72985750D01*
X163415000Y-73201310D01*
X163503513Y-73415000D01*
X159365000Y-73415000D01*
X159365000Y-72600000D01*
X159278603Y-72165654D01*
X159141189Y-71960000D01*
X163300000Y-71960000D01*
X163570850Y-71906124D01*
X163511673Y-71965301D01*
X163415000Y-72198690D01*
X163415000Y-72414250D01*
X163573750Y-72573000D01*
X164523000Y-72573000D01*
X164523000Y-71848750D01*
X164364250Y-71690000D01*
X163923691Y-71690000D01*
X163857303Y-71717499D01*
X164387401Y-71187401D01*
X164552148Y-70940840D01*
X164569588Y-70853162D01*
X164610000Y-70650000D01*
X164610000Y-70607926D01*
X164635317Y-70603162D01*
X164851441Y-70464090D01*
X164996431Y-70251890D01*
X165047440Y-70000000D01*
X165047440Y-69400000D01*
X165003162Y-69164683D01*
X164864090Y-68948559D01*
X164651890Y-68803569D01*
X164400000Y-68752560D01*
X163300000Y-68752560D01*
X163064683Y-68796838D01*
X162848559Y-68935910D01*
X162703569Y-69148110D01*
X162652560Y-69400000D01*
X162652560Y-70000000D01*
X162696838Y-70235317D01*
X162828548Y-70440000D01*
X162067901Y-70440000D01*
X162196431Y-70251890D01*
X162247440Y-70000000D01*
X162247440Y-69400000D01*
X162214611Y-69225531D01*
X162235000Y-69176309D01*
X162235000Y-69035750D01*
X162076250Y-68877000D01*
X161959360Y-68877000D01*
X161851890Y-68803569D01*
X161600000Y-68752560D01*
X160500000Y-68752560D01*
X160264683Y-68796838D01*
X160140108Y-68877000D01*
X160023750Y-68877000D01*
X160010750Y-68890000D01*
X159292334Y-68890000D01*
X159278162Y-68814683D01*
X159204380Y-68700022D01*
X159214644Y-68685000D01*
X160231380Y-68685000D01*
X160248110Y-68696431D01*
X160500000Y-68747440D01*
X161600000Y-68747440D01*
X161835317Y-68703162D01*
X161959892Y-68623000D01*
X162076250Y-68623000D01*
X162235000Y-68464250D01*
X162235000Y-68323691D01*
X162212931Y-68270411D01*
X162247440Y-68100000D01*
X162247440Y-67500000D01*
X162203162Y-67264683D01*
X162196794Y-67254786D01*
X162866579Y-66585000D01*
X165837596Y-66585000D01*
X165774683Y-66596838D01*
X165668756Y-66665000D01*
X165250000Y-66665000D01*
X164815654Y-66751397D01*
X164602793Y-66893627D01*
X164400000Y-66852560D01*
X163300000Y-66852560D01*
X163064683Y-66896838D01*
X162848559Y-67035910D01*
X162703569Y-67248110D01*
X162652560Y-67500000D01*
X162652560Y-68100000D01*
X162696838Y-68335317D01*
X162835910Y-68551441D01*
X163048110Y-68696431D01*
X163300000Y-68747440D01*
X164400000Y-68747440D01*
X164606189Y-68708643D01*
X164815654Y-68848603D01*
X165250000Y-68935000D01*
X165668203Y-68935000D01*
X165758110Y-68996431D01*
X166010000Y-69047440D01*
X169710000Y-69047440D01*
X169945317Y-69003162D01*
X170161441Y-68864090D01*
X170306431Y-68651890D01*
X170357440Y-68400000D01*
X170357440Y-67200000D01*
X170313162Y-66964683D01*
X170174090Y-66748559D01*
X169961890Y-66603569D01*
X169870194Y-66585000D01*
X183331312Y-66585000D01*
X183554630Y-66677730D01*
X183943663Y-66678069D01*
X184303212Y-66529507D01*
X184578540Y-66254659D01*
X184727730Y-65895370D01*
X184728069Y-65506337D01*
X184579507Y-65146788D01*
X184304659Y-64871460D01*
X183945370Y-64722270D01*
X183556337Y-64721931D01*
X183331092Y-64815000D01*
X162500005Y-64815000D01*
X162500000Y-64814999D01*
X162221019Y-64870493D01*
X162161325Y-64882367D01*
X161874210Y-65074210D01*
X161874208Y-65074213D01*
X160424210Y-66524210D01*
X160232367Y-66811325D01*
X160232367Y-66811326D01*
X160211744Y-66915000D01*
X159278222Y-66915000D01*
X159278162Y-66914683D01*
X159139090Y-66698559D01*
X158926890Y-66553569D01*
X158675000Y-66502560D01*
X157925000Y-66502560D01*
X157689683Y-66546838D01*
X157473559Y-66685910D01*
X157351192Y-66865000D01*
X157246192Y-66865000D01*
X157139090Y-66698559D01*
X156926890Y-66553569D01*
X156675000Y-66502560D01*
X155925000Y-66502560D01*
X155689683Y-66546838D01*
X155473559Y-66685910D01*
X155351192Y-66865000D01*
X154550005Y-66865000D01*
X154550000Y-66864999D01*
X154211325Y-66932367D01*
X153924210Y-67124210D01*
X153924208Y-67124213D01*
X152970649Y-68077771D01*
X152954285Y-67753751D01*
X152796601Y-67373068D01*
X152555141Y-67304465D01*
X151759605Y-68100000D01*
X151773748Y-68114142D01*
X151594142Y-68293748D01*
X151580000Y-68279605D01*
X150784465Y-69075141D01*
X150853068Y-69316601D01*
X151373976Y-69502177D01*
X151555406Y-69493014D01*
X150374210Y-70674210D01*
X150182367Y-70961325D01*
X150182367Y-70961326D01*
X150114999Y-71300000D01*
X150115000Y-71300005D01*
X150115000Y-76781312D01*
X150022270Y-77004630D01*
X150021931Y-77393663D01*
X150082396Y-77540000D01*
X148745304Y-77540000D01*
X148809698Y-77513327D01*
X148988327Y-77334699D01*
X149085000Y-77101310D01*
X149085000Y-76885750D01*
X148926250Y-76727000D01*
X147977000Y-76727000D01*
X147977000Y-76747000D01*
X147723000Y-76747000D01*
X147723000Y-76727000D01*
X147703000Y-76727000D01*
X147703000Y-76473000D01*
X147723000Y-76473000D01*
X147723000Y-75748750D01*
X147674250Y-75700000D01*
X147723000Y-75651250D01*
X147723000Y-74927000D01*
X147977000Y-74927000D01*
X147977000Y-75651250D01*
X148025750Y-75700000D01*
X147977000Y-75748750D01*
X147977000Y-76473000D01*
X148926250Y-76473000D01*
X149085000Y-76314250D01*
X149085000Y-76098690D01*
X148988327Y-75865301D01*
X148823025Y-75700000D01*
X148988327Y-75534699D01*
X149085000Y-75301310D01*
X149085000Y-75085750D01*
X148926250Y-74927000D01*
X147977000Y-74927000D01*
X147723000Y-74927000D01*
X147703000Y-74927000D01*
X147703000Y-74673000D01*
X147723000Y-74673000D01*
X147723000Y-73948750D01*
X147674250Y-73900000D01*
X147723000Y-73851250D01*
X147723000Y-73127000D01*
X147977000Y-73127000D01*
X147977000Y-73851250D01*
X148025750Y-73900000D01*
X147977000Y-73948750D01*
X147977000Y-74673000D01*
X148926250Y-74673000D01*
X149085000Y-74514250D01*
X149085000Y-74298690D01*
X148988327Y-74065301D01*
X148823025Y-73900000D01*
X148988327Y-73734699D01*
X149085000Y-73501310D01*
X149085000Y-73285750D01*
X148926250Y-73127000D01*
X147977000Y-73127000D01*
X147723000Y-73127000D01*
X147703000Y-73127000D01*
X147703000Y-72873000D01*
X147723000Y-72873000D01*
X147723000Y-72148750D01*
X147674250Y-72100000D01*
X147723000Y-72051250D01*
X147723000Y-71327000D01*
X147977000Y-71327000D01*
X147977000Y-72051250D01*
X148025750Y-72100000D01*
X147977000Y-72148750D01*
X147977000Y-72873000D01*
X148926250Y-72873000D01*
X149085000Y-72714250D01*
X149085000Y-72498690D01*
X148988327Y-72265301D01*
X148823025Y-72100000D01*
X148988327Y-71934699D01*
X149085000Y-71701310D01*
X149085000Y-71485750D01*
X148926250Y-71327000D01*
X147977000Y-71327000D01*
X147723000Y-71327000D01*
X147703000Y-71327000D01*
X147703000Y-71073000D01*
X147723000Y-71073000D01*
X147723000Y-70348750D01*
X147977000Y-70348750D01*
X147977000Y-71073000D01*
X148926250Y-71073000D01*
X149085000Y-70914250D01*
X149085000Y-70698690D01*
X148988327Y-70465301D01*
X148809698Y-70286673D01*
X148576309Y-70190000D01*
X148135750Y-70190000D01*
X147977000Y-70348750D01*
X147723000Y-70348750D01*
X147564250Y-70190000D01*
X147123691Y-70190000D01*
X146890302Y-70286673D01*
X146888932Y-70288043D01*
X146801890Y-70228569D01*
X146550000Y-70177560D01*
X145350000Y-70177560D01*
X145114683Y-70221838D01*
X144898559Y-70360910D01*
X144844519Y-70440000D01*
X144714802Y-70440000D01*
X144660000Y-70385198D01*
X144660000Y-68900000D01*
X144602148Y-68609161D01*
X144437401Y-68362599D01*
X143917401Y-67842599D01*
X143670839Y-67677852D01*
X143380000Y-67620000D01*
X143189262Y-67620000D01*
X142989029Y-67320330D01*
X142674248Y-67110000D01*
X142989029Y-66899670D01*
X143189262Y-66600000D01*
X145425198Y-66600000D01*
X145557953Y-66732755D01*
X145509683Y-66741838D01*
X145293559Y-66880910D01*
X145148569Y-67093110D01*
X145097560Y-67345000D01*
X145097560Y-68855000D01*
X145141838Y-69090317D01*
X145280910Y-69306441D01*
X145493110Y-69451431D01*
X145745000Y-69502440D01*
X147255000Y-69502440D01*
X147490317Y-69458162D01*
X147706441Y-69319090D01*
X147851431Y-69106890D01*
X147890162Y-68915629D01*
X148251600Y-69277698D01*
X148762299Y-69489758D01*
X149315275Y-69490241D01*
X149826343Y-69279072D01*
X150217698Y-68888400D01*
X150303384Y-68682044D01*
X150363399Y-68826932D01*
X150604859Y-68895535D01*
X151400395Y-68100000D01*
X150604859Y-67304465D01*
X150363399Y-67373068D01*
X150307941Y-67528737D01*
X150219072Y-67313657D01*
X150030604Y-67124859D01*
X150784465Y-67124859D01*
X151580000Y-67920395D01*
X152375535Y-67124859D01*
X152306932Y-66883399D01*
X151786024Y-66697823D01*
X151233751Y-66725715D01*
X150853068Y-66883399D01*
X150784465Y-67124859D01*
X150030604Y-67124859D01*
X149828400Y-66922302D01*
X149317701Y-66710242D01*
X148764725Y-66709759D01*
X148253657Y-66920928D01*
X147890802Y-67283150D01*
X147858162Y-67109683D01*
X147719090Y-66893559D01*
X147506890Y-66748569D01*
X147260000Y-66698573D01*
X147260000Y-66600000D01*
X147202148Y-66309161D01*
X147202148Y-66309160D01*
X147037401Y-66062599D01*
X146277401Y-65302599D01*
X146030839Y-65137852D01*
X145740000Y-65080000D01*
X143189262Y-65080000D01*
X142989029Y-64780330D01*
X142502848Y-64455474D01*
X141929359Y-64341400D01*
X141870641Y-64341400D01*
X141297152Y-64455474D01*
X140810971Y-64780330D01*
X140630000Y-65051172D01*
X140449029Y-64780330D01*
X139962848Y-64455474D01*
X139389359Y-64341400D01*
X139330641Y-64341400D01*
X138757152Y-64455474D01*
X138270971Y-64780330D01*
X137946115Y-65266511D01*
X137832041Y-65840000D01*
X137946115Y-66413489D01*
X138270971Y-66899670D01*
X138585752Y-67110000D01*
X138270971Y-67320330D01*
X137946115Y-67806511D01*
X137832041Y-68380000D01*
X137946115Y-68953489D01*
X138270971Y-69439670D01*
X138585752Y-69650000D01*
X138270971Y-69860330D01*
X137946115Y-70346511D01*
X137832041Y-70920000D01*
X137946115Y-71493489D01*
X138270971Y-71979670D01*
X138585752Y-72190000D01*
X138270971Y-72400330D01*
X137946115Y-72886511D01*
X137832041Y-73460000D01*
X137946115Y-74033489D01*
X138270971Y-74519670D01*
X138585752Y-74730000D01*
X138270971Y-74940330D01*
X137946115Y-75426511D01*
X137832041Y-76000000D01*
X137946115Y-76573489D01*
X138270971Y-77059670D01*
X138627418Y-77297841D01*
X138657852Y-77450839D01*
X138822599Y-77697401D01*
X139962599Y-78837401D01*
X140209160Y-79002148D01*
X140257414Y-79011746D01*
X140500000Y-79060000D01*
X147823849Y-79060000D01*
X147722270Y-79304630D01*
X147721931Y-79693663D01*
X147815000Y-79918908D01*
X147815000Y-84933421D01*
X147133620Y-85614800D01*
X144653005Y-85614800D01*
X144653000Y-85614799D01*
X144652995Y-85614800D01*
X143141805Y-85614800D01*
X143141800Y-85614799D01*
X142859316Y-85670990D01*
X142845639Y-85673710D01*
X142866229Y-85614131D01*
X142717563Y-85440000D01*
X141892000Y-85440000D01*
X141892000Y-85460000D01*
X141638000Y-85460000D01*
X141638000Y-85440000D01*
X140812437Y-85440000D01*
X140663771Y-85614131D01*
X140674363Y-85644780D01*
X140590000Y-85627999D01*
X140251326Y-85695366D01*
X139964211Y-85887210D01*
X138901578Y-86949842D01*
X138820210Y-87004210D01*
X138628367Y-87291325D01*
X138561000Y-87630000D01*
X138561000Y-89788995D01*
X138560999Y-89789000D01*
X138617190Y-90071484D01*
X138628367Y-90127675D01*
X138662169Y-90178264D01*
X138238322Y-90312998D01*
X137897632Y-90600237D01*
X137695881Y-91011126D01*
X137822046Y-91186000D01*
X138938000Y-91186000D01*
X138938000Y-91166000D01*
X139192000Y-91166000D01*
X139192000Y-91186000D01*
X139212000Y-91186000D01*
X139212000Y-91440000D01*
X139192000Y-91440000D01*
X139192000Y-92448000D01*
X139467000Y-92448000D01*
X139891678Y-92313002D01*
X140232368Y-92025763D01*
X140297841Y-91892420D01*
X140615000Y-92209579D01*
X140615000Y-93972421D01*
X140297430Y-94289990D01*
X138411824Y-94289990D01*
X138073149Y-94357357D01*
X137786034Y-94549200D01*
X137786032Y-94549203D01*
X137424210Y-94911024D01*
X137337000Y-95041543D01*
X137337000Y-91614874D01*
X137695881Y-91614874D01*
X137897632Y-92025763D01*
X138238322Y-92313002D01*
X138663000Y-92448000D01*
X138938000Y-92448000D01*
X138938000Y-91440000D01*
X137822046Y-91440000D01*
X137695881Y-91614874D01*
X137337000Y-91614874D01*
X137337000Y-84614874D01*
X137695881Y-84614874D01*
X137897632Y-85025763D01*
X138238322Y-85313002D01*
X138663000Y-85448000D01*
X138938000Y-85448000D01*
X138938000Y-84440000D01*
X139192000Y-84440000D01*
X139192000Y-85448000D01*
X139467000Y-85448000D01*
X139891678Y-85313002D01*
X140232368Y-85025763D01*
X140239190Y-85011869D01*
X140663771Y-85011869D01*
X140812437Y-85186000D01*
X141638000Y-85186000D01*
X141638000Y-84220266D01*
X141892000Y-84220266D01*
X141892000Y-85186000D01*
X142717563Y-85186000D01*
X142866229Y-85011869D01*
X142724568Y-84601951D01*
X142436821Y-84277448D01*
X142062938Y-84093732D01*
X141892000Y-84220266D01*
X141638000Y-84220266D01*
X141467062Y-84093732D01*
X141093179Y-84277448D01*
X140805432Y-84601951D01*
X140663771Y-85011869D01*
X140239190Y-85011869D01*
X140434119Y-84614874D01*
X140307954Y-84440000D01*
X139192000Y-84440000D01*
X138938000Y-84440000D01*
X137822046Y-84440000D01*
X137695881Y-84614874D01*
X137337000Y-84614874D01*
X137337000Y-84011126D01*
X137695881Y-84011126D01*
X137822046Y-84186000D01*
X138938000Y-84186000D01*
X138938000Y-83178000D01*
X139192000Y-83178000D01*
X139192000Y-84186000D01*
X140307954Y-84186000D01*
X140434119Y-84011126D01*
X140232368Y-83600237D01*
X139891678Y-83312998D01*
X139467000Y-83178000D01*
X139192000Y-83178000D01*
X138938000Y-83178000D01*
X138663000Y-83178000D01*
X138238322Y-83312998D01*
X137897632Y-83600237D01*
X137695881Y-84011126D01*
X137337000Y-84011126D01*
X137337000Y-57277000D01*
X185890000Y-57277000D01*
X185890000Y-118622857D01*
X185890000Y-118622857D01*
G37*
X185890000Y-118622857D02*
X137337000Y-118612912D01*
X137337000Y-117047000D01*
X155385000Y-117047000D01*
X155385000Y-117322000D01*
X155519998Y-117746678D01*
X155807237Y-118087368D01*
X156218126Y-118289119D01*
X156393000Y-118162954D01*
X156393000Y-117047000D01*
X156647000Y-117047000D01*
X156647000Y-118162954D01*
X156821874Y-118289119D01*
X157232763Y-118087368D01*
X157520002Y-117746678D01*
X157655000Y-117322000D01*
X157655000Y-117047000D01*
X162385000Y-117047000D01*
X162385000Y-117322000D01*
X162519998Y-117746678D01*
X162807237Y-118087368D01*
X163218126Y-118289119D01*
X163393000Y-118162954D01*
X163393000Y-117047000D01*
X163647000Y-117047000D01*
X163647000Y-118162954D01*
X163821874Y-118289119D01*
X164232763Y-118087368D01*
X164520002Y-117746678D01*
X164655000Y-117322000D01*
X164655000Y-117047000D01*
X163647000Y-117047000D01*
X163393000Y-117047000D01*
X162385000Y-117047000D01*
X157655000Y-117047000D01*
X156647000Y-117047000D01*
X156393000Y-117047000D01*
X155385000Y-117047000D01*
X137337000Y-117047000D01*
X137337000Y-116518000D01*
X155385000Y-116518000D01*
X155385000Y-116793000D01*
X156393000Y-116793000D01*
X156393000Y-115677046D01*
X156647000Y-115677046D01*
X156647000Y-116793000D01*
X157655000Y-116793000D01*
X157655000Y-116518000D01*
X162385000Y-116518000D01*
X162385000Y-116793000D01*
X163393000Y-116793000D01*
X163393000Y-115677046D01*
X163647000Y-115677046D01*
X163647000Y-116793000D01*
X164655000Y-116793000D01*
X164655000Y-116518000D01*
X164520002Y-116093322D01*
X164232763Y-115752632D01*
X163821874Y-115550881D01*
X163647000Y-115677046D01*
X163393000Y-115677046D01*
X163218126Y-115550881D01*
X162807237Y-115752632D01*
X162519998Y-116093322D01*
X162385000Y-116518000D01*
X157655000Y-116518000D01*
X157520002Y-116093322D01*
X157232763Y-115752632D01*
X156821874Y-115550881D01*
X156647000Y-115677046D01*
X156393000Y-115677046D01*
X156218126Y-115550881D01*
X155807237Y-115752632D01*
X155519998Y-116093322D01*
X155385000Y-116518000D01*
X137337000Y-116518000D01*
X137337000Y-114458750D01*
X145998000Y-114458750D01*
X145998000Y-115099310D01*
X146094673Y-115332699D01*
X146273302Y-115511327D01*
X146506691Y-115608000D01*
X147647250Y-115608000D01*
X147806000Y-115449250D01*
X147806000Y-114300000D01*
X146156750Y-114300000D01*
X145998000Y-114458750D01*
X137337000Y-114458750D01*
X137337000Y-113246690D01*
X145998000Y-113246690D01*
X145998000Y-113887250D01*
X146156750Y-114046000D01*
X147806000Y-114046000D01*
X147806000Y-112896750D01*
X148060000Y-112896750D01*
X148060000Y-114046000D01*
X148080000Y-114046000D01*
X148080000Y-114300000D01*
X148060000Y-114300000D01*
X148060000Y-115449250D01*
X148218750Y-115608000D01*
X149359309Y-115608000D01*
X149592698Y-115511327D01*
X149733936Y-115370090D01*
X149768910Y-115424441D01*
X149981110Y-115569431D01*
X150233000Y-115620440D01*
X152833000Y-115620440D01*
X153068317Y-115576162D01*
X153284441Y-115437090D01*
X153429431Y-115224890D01*
X153480440Y-114973000D01*
X153480440Y-114517938D01*
X156300732Y-114517938D01*
X156484448Y-114891821D01*
X156808951Y-115179568D01*
X157218869Y-115321229D01*
X157393000Y-115172563D01*
X157393000Y-114347000D01*
X157647000Y-114347000D01*
X157647000Y-115172563D01*
X157821131Y-115321229D01*
X158231049Y-115179568D01*
X158555552Y-114891821D01*
X158739268Y-114517938D01*
X161300732Y-114517938D01*
X161484448Y-114891821D01*
X161808951Y-115179568D01*
X162218869Y-115321229D01*
X162393000Y-115172563D01*
X162393000Y-114347000D01*
X162647000Y-114347000D01*
X162647000Y-115172563D01*
X162821131Y-115321229D01*
X163231049Y-115179568D01*
X163555552Y-114891821D01*
X163739268Y-114517938D01*
X163612734Y-114347000D01*
X162647000Y-114347000D01*
X162393000Y-114347000D01*
X161427266Y-114347000D01*
X161300732Y-114517938D01*
X158739268Y-114517938D01*
X158612734Y-114347000D01*
X157647000Y-114347000D01*
X157393000Y-114347000D01*
X156427266Y-114347000D01*
X156300732Y-114517938D01*
X153480440Y-114517938D01*
X153480440Y-114090140D01*
X153648517Y-113922062D01*
X156300732Y-113922062D01*
X156427266Y-114093000D01*
X157393000Y-114093000D01*
X157393000Y-113267437D01*
X157647000Y-113267437D01*
X157647000Y-114093000D01*
X158612734Y-114093000D01*
X158739268Y-113922062D01*
X161300732Y-113922062D01*
X161427266Y-114093000D01*
X162393000Y-114093000D01*
X162393000Y-113267437D01*
X162647000Y-113267437D01*
X162647000Y-114093000D01*
X163612734Y-114093000D01*
X163739268Y-113922062D01*
X163555552Y-113548179D01*
X163231049Y-113260432D01*
X162821131Y-113118771D01*
X162647000Y-113267437D01*
X162393000Y-113267437D01*
X162218869Y-113118771D01*
X161808951Y-113260432D01*
X161484448Y-113548179D01*
X161300732Y-113922062D01*
X158739268Y-113922062D01*
X158555552Y-113548179D01*
X158231049Y-113260432D01*
X157821131Y-113118771D01*
X157647000Y-113267437D01*
X157393000Y-113267437D01*
X157218869Y-113118771D01*
X156808951Y-113260432D01*
X156484448Y-113548179D01*
X156300732Y-113922062D01*
X153648517Y-113922062D01*
X154507733Y-113062846D01*
X154731212Y-112970507D01*
X155006540Y-112695659D01*
X155155730Y-112336370D01*
X155156069Y-111947337D01*
X155007507Y-111587788D01*
X154732659Y-111312460D01*
X154373370Y-111163270D01*
X153984337Y-111162931D01*
X153624788Y-111311493D01*
X153349460Y-111586341D01*
X153255998Y-111811423D01*
X152341860Y-112725560D01*
X150233000Y-112725560D01*
X149997683Y-112769838D01*
X149781559Y-112908910D01*
X149735031Y-112977006D01*
X149592698Y-112834673D01*
X149359309Y-112738000D01*
X148218750Y-112738000D01*
X148060000Y-112896750D01*
X147806000Y-112896750D01*
X147647250Y-112738000D01*
X146506691Y-112738000D01*
X146273302Y-112834673D01*
X146094673Y-113013301D01*
X145998000Y-113246690D01*
X137337000Y-113246690D01*
X137337000Y-106995270D01*
X137400857Y-107090839D01*
X137424210Y-107125790D01*
X138184208Y-107885787D01*
X138184210Y-107885790D01*
X138471325Y-108077633D01*
X138695327Y-108122190D01*
X138820853Y-108310054D01*
X138862452Y-108337850D01*
X138814683Y-108346838D01*
X138598559Y-108485910D01*
X138453569Y-108698110D01*
X138402560Y-108950000D01*
X138402560Y-110650000D01*
X138446838Y-110885317D01*
X138585910Y-111101441D01*
X138798110Y-111246431D01*
X139050000Y-111297440D01*
X140750000Y-111297440D01*
X140985317Y-111253162D01*
X141201441Y-111114090D01*
X141346431Y-110901890D01*
X141397440Y-110650000D01*
X141397440Y-110560000D01*
X141900000Y-110560000D01*
X142190839Y-110502148D01*
X142437401Y-110337401D01*
X143037401Y-109737401D01*
X143202148Y-109490839D01*
X143260000Y-109200000D01*
X143260000Y-108103350D01*
X143294630Y-108117730D01*
X143393014Y-108117816D01*
X143746239Y-108471041D01*
X143471460Y-108745341D01*
X143322270Y-109104630D01*
X143321931Y-109493663D01*
X143470493Y-109853212D01*
X143745341Y-110128540D01*
X144104630Y-110277730D01*
X144203014Y-110277816D01*
X144412599Y-110487401D01*
X144659161Y-110652148D01*
X144950000Y-110710000D01*
X178100000Y-110710000D01*
X178390839Y-110652148D01*
X178637401Y-110487401D01*
X180937401Y-108187401D01*
X181102148Y-107940840D01*
X181160000Y-107650000D01*
X181160000Y-86800000D01*
X181149060Y-86745000D01*
X181102148Y-86509160D01*
X180937401Y-86262599D01*
X177973158Y-83298356D01*
X178038600Y-82969359D01*
X178038600Y-82910641D01*
X177924526Y-82337152D01*
X177599670Y-81850971D01*
X177328828Y-81670000D01*
X177599670Y-81489029D01*
X177924526Y-81002848D01*
X178038600Y-80429359D01*
X178038600Y-80370641D01*
X177924526Y-79797152D01*
X177599670Y-79310971D01*
X177328828Y-79130000D01*
X177599670Y-78949029D01*
X177924526Y-78462848D01*
X178038600Y-77889359D01*
X178038600Y-77830641D01*
X177924526Y-77257152D01*
X177599670Y-76770971D01*
X177328828Y-76590000D01*
X177599670Y-76409029D01*
X177924526Y-75922848D01*
X178038600Y-75349359D01*
X178038600Y-75290641D01*
X177924526Y-74717152D01*
X177599670Y-74230971D01*
X177328839Y-74050008D01*
X177746821Y-73668490D01*
X177994968Y-73139027D01*
X177874469Y-72907000D01*
X176667000Y-72907000D01*
X176667000Y-72927000D01*
X176413000Y-72927000D01*
X176413000Y-72907000D01*
X176393000Y-72907000D01*
X176393000Y-72653000D01*
X176413000Y-72653000D01*
X176413000Y-72633000D01*
X176667000Y-72633000D01*
X176667000Y-72653000D01*
X177874469Y-72653000D01*
X177994968Y-72420973D01*
X177746821Y-71891510D01*
X177328839Y-71509992D01*
X177599670Y-71329029D01*
X177924526Y-70842848D01*
X178038600Y-70269359D01*
X178038600Y-70210641D01*
X177924526Y-69637152D01*
X177675000Y-69263710D01*
X177675000Y-68985000D01*
X182129868Y-68985000D01*
X182765000Y-69620132D01*
X182765000Y-104000000D01*
X182851397Y-104434346D01*
X183097434Y-104802566D01*
X183465654Y-105048603D01*
X183900000Y-105135000D01*
X184334346Y-105048603D01*
X184503353Y-104935676D01*
X184604630Y-104977730D01*
X184993663Y-104978069D01*
X185353212Y-104829507D01*
X185628540Y-104554659D01*
X185777730Y-104195370D01*
X185778069Y-103806337D01*
X185629507Y-103446788D01*
X185354659Y-103171460D01*
X185035000Y-103038726D01*
X185035000Y-97860989D01*
X185353212Y-97729507D01*
X185628540Y-97454659D01*
X185777730Y-97095370D01*
X185778069Y-96706337D01*
X185629507Y-96346788D01*
X185354659Y-96071460D01*
X185035000Y-95938726D01*
X185035000Y-86360989D01*
X185353212Y-86229507D01*
X185628540Y-85954659D01*
X185777730Y-85595370D01*
X185778069Y-85206337D01*
X185629507Y-84846788D01*
X185354659Y-84571460D01*
X185035000Y-84438726D01*
X185035000Y-79960989D01*
X185353212Y-79829507D01*
X185628540Y-79554659D01*
X185777730Y-79195370D01*
X185778069Y-78806337D01*
X185629507Y-78446788D01*
X185354659Y-78171460D01*
X185035000Y-78038726D01*
X185035000Y-73660989D01*
X185353212Y-73529507D01*
X185628540Y-73254659D01*
X185777730Y-72895370D01*
X185778069Y-72506337D01*
X185629507Y-72146788D01*
X185354659Y-71871460D01*
X185035000Y-71738726D01*
X185035000Y-69150000D01*
X185033011Y-69140000D01*
X184948604Y-68715655D01*
X184702566Y-68347434D01*
X183402566Y-67047434D01*
X183305186Y-66982367D01*
X183034346Y-66801397D01*
X182600000Y-66715000D01*
X172750000Y-66715000D01*
X172315654Y-66801397D01*
X172044814Y-66982367D01*
X171947434Y-67047434D01*
X171147434Y-67847434D01*
X170901397Y-68215654D01*
X170815000Y-68650000D01*
X170815000Y-69465000D01*
X170051797Y-69465000D01*
X169961890Y-69403569D01*
X169710000Y-69352560D01*
X166010000Y-69352560D01*
X165774683Y-69396838D01*
X165558559Y-69535910D01*
X165413569Y-69748110D01*
X165362560Y-70000000D01*
X165362560Y-71200000D01*
X165406838Y-71435317D01*
X165545910Y-71651441D01*
X165680825Y-71743625D01*
X165611354Y-71788329D01*
X165609698Y-71786673D01*
X165376309Y-71690000D01*
X164935750Y-71690000D01*
X164777000Y-71848750D01*
X164777000Y-72573000D01*
X164797000Y-72573000D01*
X164797000Y-72827000D01*
X164777000Y-72827000D01*
X164777000Y-72847000D01*
X164523000Y-72847000D01*
X164523000Y-72827000D01*
X163573750Y-72827000D01*
X163415000Y-72985750D01*
X163415000Y-73201310D01*
X163503513Y-73415000D01*
X159365000Y-73415000D01*
X159365000Y-72600000D01*
X159278603Y-72165654D01*
X159141189Y-71960000D01*
X163300000Y-71960000D01*
X163570850Y-71906124D01*
X163511673Y-71965301D01*
X163415000Y-72198690D01*
X163415000Y-72414250D01*
X163573750Y-72573000D01*
X164523000Y-72573000D01*
X164523000Y-71848750D01*
X164364250Y-71690000D01*
X163923691Y-71690000D01*
X163857303Y-71717499D01*
X164387401Y-71187401D01*
X164552148Y-70940840D01*
X164569588Y-70853162D01*
X164610000Y-70650000D01*
X164610000Y-70607926D01*
X164635317Y-70603162D01*
X164851441Y-70464090D01*
X164996431Y-70251890D01*
X165047440Y-70000000D01*
X165047440Y-69400000D01*
X165003162Y-69164683D01*
X164864090Y-68948559D01*
X164651890Y-68803569D01*
X164400000Y-68752560D01*
X163300000Y-68752560D01*
X163064683Y-68796838D01*
X162848559Y-68935910D01*
X162703569Y-69148110D01*
X162652560Y-69400000D01*
X162652560Y-70000000D01*
X162696838Y-70235317D01*
X162828548Y-70440000D01*
X162067901Y-70440000D01*
X162196431Y-70251890D01*
X162247440Y-70000000D01*
X162247440Y-69400000D01*
X162214611Y-69225531D01*
X162235000Y-69176309D01*
X162235000Y-69035750D01*
X162076250Y-68877000D01*
X161959360Y-68877000D01*
X161851890Y-68803569D01*
X161600000Y-68752560D01*
X160500000Y-68752560D01*
X160264683Y-68796838D01*
X160140108Y-68877000D01*
X160023750Y-68877000D01*
X160010750Y-68890000D01*
X159292334Y-68890000D01*
X159278162Y-68814683D01*
X159204380Y-68700022D01*
X159214644Y-68685000D01*
X160231380Y-68685000D01*
X160248110Y-68696431D01*
X160500000Y-68747440D01*
X161600000Y-68747440D01*
X161835317Y-68703162D01*
X161959892Y-68623000D01*
X162076250Y-68623000D01*
X162235000Y-68464250D01*
X162235000Y-68323691D01*
X162212931Y-68270411D01*
X162247440Y-68100000D01*
X162247440Y-67500000D01*
X162203162Y-67264683D01*
X162196794Y-67254786D01*
X162866579Y-66585000D01*
X165837596Y-66585000D01*
X165774683Y-66596838D01*
X165668756Y-66665000D01*
X165250000Y-66665000D01*
X164815654Y-66751397D01*
X164602793Y-66893627D01*
X164400000Y-66852560D01*
X163300000Y-66852560D01*
X163064683Y-66896838D01*
X162848559Y-67035910D01*
X162703569Y-67248110D01*
X162652560Y-67500000D01*
X162652560Y-68100000D01*
X162696838Y-68335317D01*
X162835910Y-68551441D01*
X163048110Y-68696431D01*
X163300000Y-68747440D01*
X164400000Y-68747440D01*
X164606189Y-68708643D01*
X164815654Y-68848603D01*
X165250000Y-68935000D01*
X165668203Y-68935000D01*
X165758110Y-68996431D01*
X166010000Y-69047440D01*
X169710000Y-69047440D01*
X169945317Y-69003162D01*
X170161441Y-68864090D01*
X170306431Y-68651890D01*
X170357440Y-68400000D01*
X170357440Y-67200000D01*
X170313162Y-66964683D01*
X170174090Y-66748559D01*
X169961890Y-66603569D01*
X169870194Y-66585000D01*
X183331312Y-66585000D01*
X183554630Y-66677730D01*
X183943663Y-66678069D01*
X184303212Y-66529507D01*
X184578540Y-66254659D01*
X184727730Y-65895370D01*
X184728069Y-65506337D01*
X184579507Y-65146788D01*
X184304659Y-64871460D01*
X183945370Y-64722270D01*
X183556337Y-64721931D01*
X183331092Y-64815000D01*
X162500005Y-64815000D01*
X162500000Y-64814999D01*
X162221019Y-64870493D01*
X162161325Y-64882367D01*
X161874210Y-65074210D01*
X161874208Y-65074213D01*
X160424210Y-66524210D01*
X160232367Y-66811325D01*
X160232367Y-66811326D01*
X160211744Y-66915000D01*
X159278222Y-66915000D01*
X159278162Y-66914683D01*
X159139090Y-66698559D01*
X158926890Y-66553569D01*
X158675000Y-66502560D01*
X157925000Y-66502560D01*
X157689683Y-66546838D01*
X157473559Y-66685910D01*
X157351192Y-66865000D01*
X157246192Y-66865000D01*
X157139090Y-66698559D01*
X156926890Y-66553569D01*
X156675000Y-66502560D01*
X155925000Y-66502560D01*
X155689683Y-66546838D01*
X155473559Y-66685910D01*
X155351192Y-66865000D01*
X154550005Y-66865000D01*
X154550000Y-66864999D01*
X154211325Y-66932367D01*
X153924210Y-67124210D01*
X153924208Y-67124213D01*
X152970649Y-68077771D01*
X152954285Y-67753751D01*
X152796601Y-67373068D01*
X152555141Y-67304465D01*
X151759605Y-68100000D01*
X151773748Y-68114142D01*
X151594142Y-68293748D01*
X151580000Y-68279605D01*
X150784465Y-69075141D01*
X150853068Y-69316601D01*
X151373976Y-69502177D01*
X151555406Y-69493014D01*
X150374210Y-70674210D01*
X150182367Y-70961325D01*
X150182367Y-70961326D01*
X150114999Y-71300000D01*
X150115000Y-71300005D01*
X150115000Y-76781312D01*
X150022270Y-77004630D01*
X150021931Y-77393663D01*
X150082396Y-77540000D01*
X148745304Y-77540000D01*
X148809698Y-77513327D01*
X148988327Y-77334699D01*
X149085000Y-77101310D01*
X149085000Y-76885750D01*
X148926250Y-76727000D01*
X147977000Y-76727000D01*
X147977000Y-76747000D01*
X147723000Y-76747000D01*
X147723000Y-76727000D01*
X147703000Y-76727000D01*
X147703000Y-76473000D01*
X147723000Y-76473000D01*
X147723000Y-75748750D01*
X147674250Y-75700000D01*
X147723000Y-75651250D01*
X147723000Y-74927000D01*
X147977000Y-74927000D01*
X147977000Y-75651250D01*
X148025750Y-75700000D01*
X147977000Y-75748750D01*
X147977000Y-76473000D01*
X148926250Y-76473000D01*
X149085000Y-76314250D01*
X149085000Y-76098690D01*
X148988327Y-75865301D01*
X148823025Y-75700000D01*
X148988327Y-75534699D01*
X149085000Y-75301310D01*
X149085000Y-75085750D01*
X148926250Y-74927000D01*
X147977000Y-74927000D01*
X147723000Y-74927000D01*
X147703000Y-74927000D01*
X147703000Y-74673000D01*
X147723000Y-74673000D01*
X147723000Y-73948750D01*
X147674250Y-73900000D01*
X147723000Y-73851250D01*
X147723000Y-73127000D01*
X147977000Y-73127000D01*
X147977000Y-73851250D01*
X148025750Y-73900000D01*
X147977000Y-73948750D01*
X147977000Y-74673000D01*
X148926250Y-74673000D01*
X149085000Y-74514250D01*
X149085000Y-74298690D01*
X148988327Y-74065301D01*
X148823025Y-73900000D01*
X148988327Y-73734699D01*
X149085000Y-73501310D01*
X149085000Y-73285750D01*
X148926250Y-73127000D01*
X147977000Y-73127000D01*
X147723000Y-73127000D01*
X147703000Y-73127000D01*
X147703000Y-72873000D01*
X147723000Y-72873000D01*
X147723000Y-72148750D01*
X147674250Y-72100000D01*
X147723000Y-72051250D01*
X147723000Y-71327000D01*
X147977000Y-71327000D01*
X147977000Y-72051250D01*
X148025750Y-72100000D01*
X147977000Y-72148750D01*
X147977000Y-72873000D01*
X148926250Y-72873000D01*
X149085000Y-72714250D01*
X149085000Y-72498690D01*
X148988327Y-72265301D01*
X148823025Y-72100000D01*
X148988327Y-71934699D01*
X149085000Y-71701310D01*
X149085000Y-71485750D01*
X148926250Y-71327000D01*
X147977000Y-71327000D01*
X147723000Y-71327000D01*
X147703000Y-71327000D01*
X147703000Y-71073000D01*
X147723000Y-71073000D01*
X147723000Y-70348750D01*
X147977000Y-70348750D01*
X147977000Y-71073000D01*
X148926250Y-71073000D01*
X149085000Y-70914250D01*
X149085000Y-70698690D01*
X148988327Y-70465301D01*
X148809698Y-70286673D01*
X148576309Y-70190000D01*
X148135750Y-70190000D01*
X147977000Y-70348750D01*
X147723000Y-70348750D01*
X147564250Y-70190000D01*
X147123691Y-70190000D01*
X146890302Y-70286673D01*
X146888932Y-70288043D01*
X146801890Y-70228569D01*
X146550000Y-70177560D01*
X145350000Y-70177560D01*
X145114683Y-70221838D01*
X144898559Y-70360910D01*
X144844519Y-70440000D01*
X144714802Y-70440000D01*
X144660000Y-70385198D01*
X144660000Y-68900000D01*
X144602148Y-68609161D01*
X144437401Y-68362599D01*
X143917401Y-67842599D01*
X143670839Y-67677852D01*
X143380000Y-67620000D01*
X143189262Y-67620000D01*
X142989029Y-67320330D01*
X142674248Y-67110000D01*
X142989029Y-66899670D01*
X143189262Y-66600000D01*
X145425198Y-66600000D01*
X145557953Y-66732755D01*
X145509683Y-66741838D01*
X145293559Y-66880910D01*
X145148569Y-67093110D01*
X145097560Y-67345000D01*
X145097560Y-68855000D01*
X145141838Y-69090317D01*
X145280910Y-69306441D01*
X145493110Y-69451431D01*
X145745000Y-69502440D01*
X147255000Y-69502440D01*
X147490317Y-69458162D01*
X147706441Y-69319090D01*
X147851431Y-69106890D01*
X147890162Y-68915629D01*
X148251600Y-69277698D01*
X148762299Y-69489758D01*
X149315275Y-69490241D01*
X149826343Y-69279072D01*
X150217698Y-68888400D01*
X150303384Y-68682044D01*
X150363399Y-68826932D01*
X150604859Y-68895535D01*
X151400395Y-68100000D01*
X150604859Y-67304465D01*
X150363399Y-67373068D01*
X150307941Y-67528737D01*
X150219072Y-67313657D01*
X150030604Y-67124859D01*
X150784465Y-67124859D01*
X151580000Y-67920395D01*
X152375535Y-67124859D01*
X152306932Y-66883399D01*
X151786024Y-66697823D01*
X151233751Y-66725715D01*
X150853068Y-66883399D01*
X150784465Y-67124859D01*
X150030604Y-67124859D01*
X149828400Y-66922302D01*
X149317701Y-66710242D01*
X148764725Y-66709759D01*
X148253657Y-66920928D01*
X147890802Y-67283150D01*
X147858162Y-67109683D01*
X147719090Y-66893559D01*
X147506890Y-66748569D01*
X147260000Y-66698573D01*
X147260000Y-66600000D01*
X147202148Y-66309161D01*
X147202148Y-66309160D01*
X147037401Y-66062599D01*
X146277401Y-65302599D01*
X146030839Y-65137852D01*
X145740000Y-65080000D01*
X143189262Y-65080000D01*
X142989029Y-64780330D01*
X142502848Y-64455474D01*
X141929359Y-64341400D01*
X141870641Y-64341400D01*
X141297152Y-64455474D01*
X140810971Y-64780330D01*
X140630000Y-65051172D01*
X140449029Y-64780330D01*
X139962848Y-64455474D01*
X139389359Y-64341400D01*
X139330641Y-64341400D01*
X138757152Y-64455474D01*
X138270971Y-64780330D01*
X137946115Y-65266511D01*
X137832041Y-65840000D01*
X137946115Y-66413489D01*
X138270971Y-66899670D01*
X138585752Y-67110000D01*
X138270971Y-67320330D01*
X137946115Y-67806511D01*
X137832041Y-68380000D01*
X137946115Y-68953489D01*
X138270971Y-69439670D01*
X138585752Y-69650000D01*
X138270971Y-69860330D01*
X137946115Y-70346511D01*
X137832041Y-70920000D01*
X137946115Y-71493489D01*
X138270971Y-71979670D01*
X138585752Y-72190000D01*
X138270971Y-72400330D01*
X137946115Y-72886511D01*
X137832041Y-73460000D01*
X137946115Y-74033489D01*
X138270971Y-74519670D01*
X138585752Y-74730000D01*
X138270971Y-74940330D01*
X137946115Y-75426511D01*
X137832041Y-76000000D01*
X137946115Y-76573489D01*
X138270971Y-77059670D01*
X138627418Y-77297841D01*
X138657852Y-77450839D01*
X138822599Y-77697401D01*
X139962599Y-78837401D01*
X140209160Y-79002148D01*
X140257414Y-79011746D01*
X140500000Y-79060000D01*
X147823849Y-79060000D01*
X147722270Y-79304630D01*
X147721931Y-79693663D01*
X147815000Y-79918908D01*
X147815000Y-84933421D01*
X147133620Y-85614800D01*
X144653005Y-85614800D01*
X144653000Y-85614799D01*
X144652995Y-85614800D01*
X143141805Y-85614800D01*
X143141800Y-85614799D01*
X142859316Y-85670990D01*
X142845639Y-85673710D01*
X142866229Y-85614131D01*
X142717563Y-85440000D01*
X141892000Y-85440000D01*
X141892000Y-85460000D01*
X141638000Y-85460000D01*
X141638000Y-85440000D01*
X140812437Y-85440000D01*
X140663771Y-85614131D01*
X140674363Y-85644780D01*
X140590000Y-85627999D01*
X140251326Y-85695366D01*
X139964211Y-85887210D01*
X138901578Y-86949842D01*
X138820210Y-87004210D01*
X138628367Y-87291325D01*
X138561000Y-87630000D01*
X138561000Y-89788995D01*
X138560999Y-89789000D01*
X138617190Y-90071484D01*
X138628367Y-90127675D01*
X138662169Y-90178264D01*
X138238322Y-90312998D01*
X137897632Y-90600237D01*
X137695881Y-91011126D01*
X137822046Y-91186000D01*
X138938000Y-91186000D01*
X138938000Y-91166000D01*
X139192000Y-91166000D01*
X139192000Y-91186000D01*
X139212000Y-91186000D01*
X139212000Y-91440000D01*
X139192000Y-91440000D01*
X139192000Y-92448000D01*
X139467000Y-92448000D01*
X139891678Y-92313002D01*
X140232368Y-92025763D01*
X140297841Y-91892420D01*
X140615000Y-92209579D01*
X140615000Y-93972421D01*
X140297430Y-94289990D01*
X138411824Y-94289990D01*
X138073149Y-94357357D01*
X137786034Y-94549200D01*
X137786032Y-94549203D01*
X137424210Y-94911024D01*
X137337000Y-95041543D01*
X137337000Y-91614874D01*
X137695881Y-91614874D01*
X137897632Y-92025763D01*
X138238322Y-92313002D01*
X138663000Y-92448000D01*
X138938000Y-92448000D01*
X138938000Y-91440000D01*
X137822046Y-91440000D01*
X137695881Y-91614874D01*
X137337000Y-91614874D01*
X137337000Y-84614874D01*
X137695881Y-84614874D01*
X137897632Y-85025763D01*
X138238322Y-85313002D01*
X138663000Y-85448000D01*
X138938000Y-85448000D01*
X138938000Y-84440000D01*
X139192000Y-84440000D01*
X139192000Y-85448000D01*
X139467000Y-85448000D01*
X139891678Y-85313002D01*
X140232368Y-85025763D01*
X140239190Y-85011869D01*
X140663771Y-85011869D01*
X140812437Y-85186000D01*
X141638000Y-85186000D01*
X141638000Y-84220266D01*
X141892000Y-84220266D01*
X141892000Y-85186000D01*
X142717563Y-85186000D01*
X142866229Y-85011869D01*
X142724568Y-84601951D01*
X142436821Y-84277448D01*
X142062938Y-84093732D01*
X141892000Y-84220266D01*
X141638000Y-84220266D01*
X141467062Y-84093732D01*
X141093179Y-84277448D01*
X140805432Y-84601951D01*
X140663771Y-85011869D01*
X140239190Y-85011869D01*
X140434119Y-84614874D01*
X140307954Y-84440000D01*
X139192000Y-84440000D01*
X138938000Y-84440000D01*
X137822046Y-84440000D01*
X137695881Y-84614874D01*
X137337000Y-84614874D01*
X137337000Y-84011126D01*
X137695881Y-84011126D01*
X137822046Y-84186000D01*
X138938000Y-84186000D01*
X138938000Y-83178000D01*
X139192000Y-83178000D01*
X139192000Y-84186000D01*
X140307954Y-84186000D01*
X140434119Y-84011126D01*
X140232368Y-83600237D01*
X139891678Y-83312998D01*
X139467000Y-83178000D01*
X139192000Y-83178000D01*
X138938000Y-83178000D01*
X138663000Y-83178000D01*
X138238322Y-83312998D01*
X137897632Y-83600237D01*
X137695881Y-84011126D01*
X137337000Y-84011126D01*
X137337000Y-57277000D01*
X185890000Y-57277000D01*
X185890000Y-118622857D01*
G36*
X140027000Y-104593000D02*
X140047000Y-104593000D01*
X140047000Y-104847000D01*
X140027000Y-104847000D01*
X140027000Y-104867000D01*
X139773000Y-104867000D01*
X139773000Y-104847000D01*
X139753000Y-104847000D01*
X139753000Y-104593000D01*
X139773000Y-104593000D01*
X139773000Y-104573000D01*
X140027000Y-104573000D01*
X140027000Y-104593000D01*
X140027000Y-104593000D01*
G37*
X140027000Y-104593000D02*
X140047000Y-104593000D01*
X140047000Y-104847000D01*
X140027000Y-104847000D01*
X140027000Y-104867000D01*
X139773000Y-104867000D01*
X139773000Y-104847000D01*
X139753000Y-104847000D01*
X139753000Y-104593000D01*
X139773000Y-104593000D01*
X139773000Y-104573000D01*
X140027000Y-104573000D01*
X140027000Y-104593000D01*
G36*
X166140000Y-88214802D02*
X166140000Y-101500000D01*
X166197852Y-101790839D01*
X166362599Y-102037401D01*
X167722015Y-103396817D01*
X167721931Y-103493663D01*
X167865032Y-103839996D01*
X164114798Y-103839996D01*
X159132304Y-98857502D01*
X159198690Y-98885000D01*
X159414250Y-98885000D01*
X159573000Y-98726250D01*
X159573000Y-97777000D01*
X159827000Y-97777000D01*
X159827000Y-98726250D01*
X159985750Y-98885000D01*
X160201310Y-98885000D01*
X160434699Y-98788327D01*
X160613327Y-98609698D01*
X160710000Y-98376309D01*
X160710000Y-97935750D01*
X160551250Y-97777000D01*
X159827000Y-97777000D01*
X159573000Y-97777000D01*
X158848750Y-97777000D01*
X158690000Y-97935750D01*
X158690000Y-98376309D01*
X158717499Y-98442697D01*
X157272401Y-96997599D01*
X157025839Y-96832852D01*
X156895552Y-96806936D01*
X156962500Y-96645309D01*
X156962500Y-96550750D01*
X156803750Y-96392000D01*
X155883000Y-96392000D01*
X155883000Y-96412000D01*
X155629000Y-96412000D01*
X155629000Y-96392000D01*
X155609000Y-96392000D01*
X155609000Y-96138000D01*
X155629000Y-96138000D01*
X155629000Y-96118000D01*
X155883000Y-96118000D01*
X155883000Y-96138000D01*
X156803750Y-96138000D01*
X156962500Y-95979250D01*
X156962500Y-95884691D01*
X156908780Y-95755000D01*
X158630198Y-95755000D01*
X158677560Y-95802362D01*
X158677560Y-96350000D01*
X158721838Y-96585317D01*
X158788329Y-96688646D01*
X158786673Y-96690302D01*
X158690000Y-96923691D01*
X158690000Y-97364250D01*
X158848750Y-97523000D01*
X159573000Y-97523000D01*
X159573000Y-97503000D01*
X159827000Y-97503000D01*
X159827000Y-97523000D01*
X160551250Y-97523000D01*
X160710000Y-97364250D01*
X160710000Y-96923691D01*
X160613327Y-96690302D01*
X160611957Y-96688932D01*
X160671431Y-96601890D01*
X160690039Y-96510000D01*
X162214631Y-96510000D01*
X162214190Y-97015338D01*
X162424686Y-97524777D01*
X162814113Y-97914884D01*
X163323184Y-98126269D01*
X163874398Y-98126750D01*
X164383837Y-97916254D01*
X164773944Y-97526827D01*
X164985329Y-97017756D01*
X164985810Y-96466542D01*
X164775314Y-95957103D01*
X164385887Y-95566996D01*
X163876816Y-95355611D01*
X163325602Y-95355130D01*
X163299696Y-95365834D01*
X163146461Y-95212599D01*
X162899899Y-95047852D01*
X162609060Y-94990000D01*
X160692334Y-94990000D01*
X160678162Y-94914683D01*
X160539090Y-94698559D01*
X160326890Y-94553569D01*
X160075000Y-94502560D01*
X159527362Y-94502560D01*
X159482401Y-94457599D01*
X159276333Y-94319909D01*
X159362401Y-94262401D01*
X159527362Y-94097440D01*
X160075000Y-94097440D01*
X160310317Y-94053162D01*
X160526441Y-93914090D01*
X160671431Y-93701890D01*
X160690039Y-93610000D01*
X162609060Y-93610000D01*
X162899899Y-93552148D01*
X163146461Y-93387401D01*
X163299364Y-93234498D01*
X163323184Y-93244389D01*
X163874398Y-93244870D01*
X164383837Y-93034374D01*
X164773944Y-92644947D01*
X164985329Y-92135876D01*
X164985810Y-91584662D01*
X164775314Y-91075223D01*
X164385887Y-90685116D01*
X163876816Y-90473731D01*
X163325602Y-90473250D01*
X162816163Y-90683746D01*
X162426056Y-91073173D01*
X162214671Y-91582244D01*
X162214228Y-92090000D01*
X160692334Y-92090000D01*
X160678162Y-92014683D01*
X160611671Y-91911354D01*
X160613327Y-91909698D01*
X160710000Y-91676309D01*
X160710000Y-91235750D01*
X160551250Y-91077000D01*
X159827000Y-91077000D01*
X159827000Y-91097000D01*
X159573000Y-91097000D01*
X159573000Y-91077000D01*
X159553000Y-91077000D01*
X159553000Y-90823000D01*
X159573000Y-90823000D01*
X159573000Y-89873750D01*
X159827000Y-89873750D01*
X159827000Y-90823000D01*
X160551250Y-90823000D01*
X160710000Y-90664250D01*
X160710000Y-90223691D01*
X160613327Y-89990302D01*
X160434699Y-89811673D01*
X160201310Y-89715000D01*
X159985750Y-89715000D01*
X159827000Y-89873750D01*
X159573000Y-89873750D01*
X159414250Y-89715000D01*
X159198690Y-89715000D01*
X159160000Y-89731026D01*
X159160000Y-88214802D01*
X160014802Y-87360000D01*
X165285198Y-87360000D01*
X166140000Y-88214802D01*
X166140000Y-88214802D01*
G37*
X166140000Y-88214802D02*
X166140000Y-101500000D01*
X166197852Y-101790839D01*
X166362599Y-102037401D01*
X167722015Y-103396817D01*
X167721931Y-103493663D01*
X167865032Y-103839996D01*
X164114798Y-103839996D01*
X159132304Y-98857502D01*
X159198690Y-98885000D01*
X159414250Y-98885000D01*
X159573000Y-98726250D01*
X159573000Y-97777000D01*
X159827000Y-97777000D01*
X159827000Y-98726250D01*
X159985750Y-98885000D01*
X160201310Y-98885000D01*
X160434699Y-98788327D01*
X160613327Y-98609698D01*
X160710000Y-98376309D01*
X160710000Y-97935750D01*
X160551250Y-97777000D01*
X159827000Y-97777000D01*
X159573000Y-97777000D01*
X158848750Y-97777000D01*
X158690000Y-97935750D01*
X158690000Y-98376309D01*
X158717499Y-98442697D01*
X157272401Y-96997599D01*
X157025839Y-96832852D01*
X156895552Y-96806936D01*
X156962500Y-96645309D01*
X156962500Y-96550750D01*
X156803750Y-96392000D01*
X155883000Y-96392000D01*
X155883000Y-96412000D01*
X155629000Y-96412000D01*
X155629000Y-96392000D01*
X155609000Y-96392000D01*
X155609000Y-96138000D01*
X155629000Y-96138000D01*
X155629000Y-96118000D01*
X155883000Y-96118000D01*
X155883000Y-96138000D01*
X156803750Y-96138000D01*
X156962500Y-95979250D01*
X156962500Y-95884691D01*
X156908780Y-95755000D01*
X158630198Y-95755000D01*
X158677560Y-95802362D01*
X158677560Y-96350000D01*
X158721838Y-96585317D01*
X158788329Y-96688646D01*
X158786673Y-96690302D01*
X158690000Y-96923691D01*
X158690000Y-97364250D01*
X158848750Y-97523000D01*
X159573000Y-97523000D01*
X159573000Y-97503000D01*
X159827000Y-97503000D01*
X159827000Y-97523000D01*
X160551250Y-97523000D01*
X160710000Y-97364250D01*
X160710000Y-96923691D01*
X160613327Y-96690302D01*
X160611957Y-96688932D01*
X160671431Y-96601890D01*
X160690039Y-96510000D01*
X162214631Y-96510000D01*
X162214190Y-97015338D01*
X162424686Y-97524777D01*
X162814113Y-97914884D01*
X163323184Y-98126269D01*
X163874398Y-98126750D01*
X164383837Y-97916254D01*
X164773944Y-97526827D01*
X164985329Y-97017756D01*
X164985810Y-96466542D01*
X164775314Y-95957103D01*
X164385887Y-95566996D01*
X163876816Y-95355611D01*
X163325602Y-95355130D01*
X163299696Y-95365834D01*
X163146461Y-95212599D01*
X162899899Y-95047852D01*
X162609060Y-94990000D01*
X160692334Y-94990000D01*
X160678162Y-94914683D01*
X160539090Y-94698559D01*
X160326890Y-94553569D01*
X160075000Y-94502560D01*
X159527362Y-94502560D01*
X159482401Y-94457599D01*
X159276333Y-94319909D01*
X159362401Y-94262401D01*
X159527362Y-94097440D01*
X160075000Y-94097440D01*
X160310317Y-94053162D01*
X160526441Y-93914090D01*
X160671431Y-93701890D01*
X160690039Y-93610000D01*
X162609060Y-93610000D01*
X162899899Y-93552148D01*
X163146461Y-93387401D01*
X163299364Y-93234498D01*
X163323184Y-93244389D01*
X163874398Y-93244870D01*
X164383837Y-93034374D01*
X164773944Y-92644947D01*
X164985329Y-92135876D01*
X164985810Y-91584662D01*
X164775314Y-91075223D01*
X164385887Y-90685116D01*
X163876816Y-90473731D01*
X163325602Y-90473250D01*
X162816163Y-90683746D01*
X162426056Y-91073173D01*
X162214671Y-91582244D01*
X162214228Y-92090000D01*
X160692334Y-92090000D01*
X160678162Y-92014683D01*
X160611671Y-91911354D01*
X160613327Y-91909698D01*
X160710000Y-91676309D01*
X160710000Y-91235750D01*
X160551250Y-91077000D01*
X159827000Y-91077000D01*
X159827000Y-91097000D01*
X159573000Y-91097000D01*
X159573000Y-91077000D01*
X159553000Y-91077000D01*
X159553000Y-90823000D01*
X159573000Y-90823000D01*
X159573000Y-89873750D01*
X159827000Y-89873750D01*
X159827000Y-90823000D01*
X160551250Y-90823000D01*
X160710000Y-90664250D01*
X160710000Y-90223691D01*
X160613327Y-89990302D01*
X160434699Y-89811673D01*
X160201310Y-89715000D01*
X159985750Y-89715000D01*
X159827000Y-89873750D01*
X159573000Y-89873750D01*
X159414250Y-89715000D01*
X159198690Y-89715000D01*
X159160000Y-89731026D01*
X159160000Y-88214802D01*
X160014802Y-87360000D01*
X165285198Y-87360000D01*
X166140000Y-88214802D01*
G36*
X176667000Y-103133000D02*
X176687000Y-103133000D01*
X176687000Y-103387000D01*
X176667000Y-103387000D01*
X176667000Y-103407000D01*
X176413000Y-103407000D01*
X176413000Y-103387000D01*
X176393000Y-103387000D01*
X176393000Y-103133000D01*
X176413000Y-103133000D01*
X176413000Y-103113000D01*
X176667000Y-103113000D01*
X176667000Y-103133000D01*
X176667000Y-103133000D01*
G37*
X176667000Y-103133000D02*
X176687000Y-103133000D01*
X176687000Y-103387000D01*
X176667000Y-103387000D01*
X176667000Y-103407000D01*
X176413000Y-103407000D01*
X176413000Y-103387000D01*
X176393000Y-103387000D01*
X176393000Y-103133000D01*
X176413000Y-103133000D01*
X176413000Y-103113000D01*
X176667000Y-103113000D01*
X176667000Y-103133000D01*
G36*
X172940330Y-71329029D02*
X173211172Y-71510000D01*
X172940330Y-71690971D01*
X172615474Y-72177152D01*
X172501400Y-72750641D01*
X172501400Y-72809359D01*
X172615474Y-73382848D01*
X172940330Y-73869029D01*
X173211172Y-74050000D01*
X172940330Y-74230971D01*
X172615474Y-74717152D01*
X172501400Y-75290641D01*
X172501400Y-75349359D01*
X172615474Y-75922848D01*
X172940330Y-76409029D01*
X173211172Y-76590000D01*
X172940330Y-76770971D01*
X172615474Y-77257152D01*
X172501400Y-77830641D01*
X172501400Y-77889359D01*
X172566842Y-78218356D01*
X169562599Y-81222599D01*
X169397852Y-81469161D01*
X169340000Y-81760000D01*
X169340000Y-97456950D01*
X169254659Y-97371460D01*
X169060000Y-97290630D01*
X169060000Y-86800000D01*
X169002148Y-86509161D01*
X168837401Y-86262599D01*
X167437401Y-84862599D01*
X167190839Y-84697852D01*
X166900000Y-84640000D01*
X158800000Y-84640000D01*
X158509160Y-84697852D01*
X158262599Y-84862599D01*
X156966204Y-86158994D01*
X156953162Y-86089683D01*
X156814090Y-85873559D01*
X156601890Y-85728569D01*
X156350000Y-85677560D01*
X155150000Y-85677560D01*
X154914683Y-85721838D01*
X154811354Y-85788329D01*
X154809698Y-85786673D01*
X154576309Y-85690000D01*
X154135750Y-85690000D01*
X153977000Y-85848750D01*
X153977000Y-86573000D01*
X153997000Y-86573000D01*
X153997000Y-86827000D01*
X153977000Y-86827000D01*
X153977000Y-87551250D01*
X154135750Y-87710000D01*
X154576309Y-87710000D01*
X154809698Y-87613327D01*
X154811068Y-87611957D01*
X154898110Y-87671431D01*
X154996000Y-87691254D01*
X154996000Y-87779029D01*
X154949183Y-87787838D01*
X154733059Y-87926910D01*
X154588069Y-88139110D01*
X154537060Y-88391000D01*
X154537060Y-88899000D01*
X154581338Y-89134317D01*
X154675666Y-89280907D01*
X154588069Y-89409110D01*
X154537060Y-89661000D01*
X154537060Y-89681105D01*
X154395370Y-89622270D01*
X154006337Y-89621931D01*
X153646788Y-89770493D01*
X153371460Y-90045341D01*
X153222270Y-90404630D01*
X153222252Y-90425000D01*
X149809123Y-90425000D01*
X149811931Y-90420890D01*
X149862940Y-90169000D01*
X149862940Y-89661000D01*
X149818662Y-89425683D01*
X149724334Y-89279093D01*
X149811931Y-89150890D01*
X149862940Y-88899000D01*
X149862940Y-88391000D01*
X149818662Y-88155683D01*
X149679590Y-87939559D01*
X149467390Y-87794569D01*
X149215500Y-87743560D01*
X148072500Y-87743560D01*
X148011786Y-87754984D01*
X147618142Y-87361340D01*
X147791332Y-87326890D01*
X147838875Y-87317433D01*
X148125990Y-87125590D01*
X148125991Y-87125589D01*
X148265829Y-86985750D01*
X152615000Y-86985750D01*
X152615000Y-87201310D01*
X152711673Y-87434699D01*
X152890302Y-87613327D01*
X153123691Y-87710000D01*
X153564250Y-87710000D01*
X153723000Y-87551250D01*
X153723000Y-86827000D01*
X152773750Y-86827000D01*
X152615000Y-86985750D01*
X148265829Y-86985750D01*
X149052889Y-86198690D01*
X152615000Y-86198690D01*
X152615000Y-86414250D01*
X152773750Y-86573000D01*
X153723000Y-86573000D01*
X153723000Y-85848750D01*
X153564250Y-85690000D01*
X153123691Y-85690000D01*
X152890302Y-85786673D01*
X152711673Y-85965301D01*
X152615000Y-86198690D01*
X149052889Y-86198690D01*
X149325787Y-85925792D01*
X149325790Y-85925790D01*
X149517633Y-85638675D01*
X149585000Y-85300000D01*
X149585000Y-79918688D01*
X149677730Y-79695370D01*
X149678069Y-79306337D01*
X149576285Y-79060000D01*
X151100000Y-79060000D01*
X151390839Y-79002148D01*
X151637401Y-78837401D01*
X152537401Y-77937401D01*
X152702148Y-77690840D01*
X152760000Y-77400000D01*
X152760000Y-75514802D01*
X153014803Y-75260000D01*
X153343156Y-75260000D01*
X153385910Y-75326441D01*
X153598110Y-75471431D01*
X153850000Y-75522440D01*
X154102758Y-75522440D01*
X153912599Y-75712599D01*
X153869194Y-75777560D01*
X153850000Y-75777560D01*
X153614683Y-75821838D01*
X153398559Y-75960910D01*
X153253569Y-76173110D01*
X153202560Y-76425000D01*
X153202560Y-77175000D01*
X153246838Y-77410317D01*
X153385910Y-77626441D01*
X153598110Y-77771431D01*
X153850000Y-77822440D01*
X155050000Y-77822440D01*
X155285317Y-77778162D01*
X155399978Y-77704380D01*
X155498110Y-77771431D01*
X155750000Y-77822440D01*
X156950000Y-77822440D01*
X157111125Y-77792122D01*
X157195654Y-77848603D01*
X157630000Y-77935000D01*
X158179727Y-77935000D01*
X158230000Y-77945000D01*
X158664346Y-77858603D01*
X159032566Y-77612566D01*
X159278603Y-77244346D01*
X159365000Y-76810000D01*
X159365000Y-75685000D01*
X165730000Y-75685000D01*
X166164346Y-75598603D01*
X166532566Y-75352566D01*
X168662566Y-73222566D01*
X168726421Y-73127000D01*
X168908603Y-72854346D01*
X168995000Y-72420000D01*
X168995000Y-71847440D01*
X169710000Y-71847440D01*
X169945317Y-71803162D01*
X170051244Y-71735000D01*
X171400000Y-71735000D01*
X171834346Y-71648603D01*
X172202566Y-71402566D01*
X172674278Y-70930855D01*
X172940330Y-71329029D01*
X172940330Y-71329029D01*
G37*
X172940330Y-71329029D02*
X173211172Y-71510000D01*
X172940330Y-71690971D01*
X172615474Y-72177152D01*
X172501400Y-72750641D01*
X172501400Y-72809359D01*
X172615474Y-73382848D01*
X172940330Y-73869029D01*
X173211172Y-74050000D01*
X172940330Y-74230971D01*
X172615474Y-74717152D01*
X172501400Y-75290641D01*
X172501400Y-75349359D01*
X172615474Y-75922848D01*
X172940330Y-76409029D01*
X173211172Y-76590000D01*
X172940330Y-76770971D01*
X172615474Y-77257152D01*
X172501400Y-77830641D01*
X172501400Y-77889359D01*
X172566842Y-78218356D01*
X169562599Y-81222599D01*
X169397852Y-81469161D01*
X169340000Y-81760000D01*
X169340000Y-97456950D01*
X169254659Y-97371460D01*
X169060000Y-97290630D01*
X169060000Y-86800000D01*
X169002148Y-86509161D01*
X168837401Y-86262599D01*
X167437401Y-84862599D01*
X167190839Y-84697852D01*
X166900000Y-84640000D01*
X158800000Y-84640000D01*
X158509160Y-84697852D01*
X158262599Y-84862599D01*
X156966204Y-86158994D01*
X156953162Y-86089683D01*
X156814090Y-85873559D01*
X156601890Y-85728569D01*
X156350000Y-85677560D01*
X155150000Y-85677560D01*
X154914683Y-85721838D01*
X154811354Y-85788329D01*
X154809698Y-85786673D01*
X154576309Y-85690000D01*
X154135750Y-85690000D01*
X153977000Y-85848750D01*
X153977000Y-86573000D01*
X153997000Y-86573000D01*
X153997000Y-86827000D01*
X153977000Y-86827000D01*
X153977000Y-87551250D01*
X154135750Y-87710000D01*
X154576309Y-87710000D01*
X154809698Y-87613327D01*
X154811068Y-87611957D01*
X154898110Y-87671431D01*
X154996000Y-87691254D01*
X154996000Y-87779029D01*
X154949183Y-87787838D01*
X154733059Y-87926910D01*
X154588069Y-88139110D01*
X154537060Y-88391000D01*
X154537060Y-88899000D01*
X154581338Y-89134317D01*
X154675666Y-89280907D01*
X154588069Y-89409110D01*
X154537060Y-89661000D01*
X154537060Y-89681105D01*
X154395370Y-89622270D01*
X154006337Y-89621931D01*
X153646788Y-89770493D01*
X153371460Y-90045341D01*
X153222270Y-90404630D01*
X153222252Y-90425000D01*
X149809123Y-90425000D01*
X149811931Y-90420890D01*
X149862940Y-90169000D01*
X149862940Y-89661000D01*
X149818662Y-89425683D01*
X149724334Y-89279093D01*
X149811931Y-89150890D01*
X149862940Y-88899000D01*
X149862940Y-88391000D01*
X149818662Y-88155683D01*
X149679590Y-87939559D01*
X149467390Y-87794569D01*
X149215500Y-87743560D01*
X148072500Y-87743560D01*
X148011786Y-87754984D01*
X147618142Y-87361340D01*
X147791332Y-87326890D01*
X147838875Y-87317433D01*
X148125990Y-87125590D01*
X148125991Y-87125589D01*
X148265829Y-86985750D01*
X152615000Y-86985750D01*
X152615000Y-87201310D01*
X152711673Y-87434699D01*
X152890302Y-87613327D01*
X153123691Y-87710000D01*
X153564250Y-87710000D01*
X153723000Y-87551250D01*
X153723000Y-86827000D01*
X152773750Y-86827000D01*
X152615000Y-86985750D01*
X148265829Y-86985750D01*
X149052889Y-86198690D01*
X152615000Y-86198690D01*
X152615000Y-86414250D01*
X152773750Y-86573000D01*
X153723000Y-86573000D01*
X153723000Y-85848750D01*
X153564250Y-85690000D01*
X153123691Y-85690000D01*
X152890302Y-85786673D01*
X152711673Y-85965301D01*
X152615000Y-86198690D01*
X149052889Y-86198690D01*
X149325787Y-85925792D01*
X149325790Y-85925790D01*
X149517633Y-85638675D01*
X149585000Y-85300000D01*
X149585000Y-79918688D01*
X149677730Y-79695370D01*
X149678069Y-79306337D01*
X149576285Y-79060000D01*
X151100000Y-79060000D01*
X151390839Y-79002148D01*
X151637401Y-78837401D01*
X152537401Y-77937401D01*
X152702148Y-77690840D01*
X152760000Y-77400000D01*
X152760000Y-75514802D01*
X153014803Y-75260000D01*
X153343156Y-75260000D01*
X153385910Y-75326441D01*
X153598110Y-75471431D01*
X153850000Y-75522440D01*
X154102758Y-75522440D01*
X153912599Y-75712599D01*
X153869194Y-75777560D01*
X153850000Y-75777560D01*
X153614683Y-75821838D01*
X153398559Y-75960910D01*
X153253569Y-76173110D01*
X153202560Y-76425000D01*
X153202560Y-77175000D01*
X153246838Y-77410317D01*
X153385910Y-77626441D01*
X153598110Y-77771431D01*
X153850000Y-77822440D01*
X155050000Y-77822440D01*
X155285317Y-77778162D01*
X155399978Y-77704380D01*
X155498110Y-77771431D01*
X155750000Y-77822440D01*
X156950000Y-77822440D01*
X157111125Y-77792122D01*
X157195654Y-77848603D01*
X157630000Y-77935000D01*
X158179727Y-77935000D01*
X158230000Y-77945000D01*
X158664346Y-77858603D01*
X159032566Y-77612566D01*
X159278603Y-77244346D01*
X159365000Y-76810000D01*
X159365000Y-75685000D01*
X165730000Y-75685000D01*
X166164346Y-75598603D01*
X166532566Y-75352566D01*
X168662566Y-73222566D01*
X168726421Y-73127000D01*
X168908603Y-72854346D01*
X168995000Y-72420000D01*
X168995000Y-71847440D01*
X169710000Y-71847440D01*
X169945317Y-71803162D01*
X170051244Y-71735000D01*
X171400000Y-71735000D01*
X171834346Y-71648603D01*
X172202566Y-71402566D01*
X172674278Y-70930855D01*
X172940330Y-71329029D01*
G36*
X143980000Y-89080691D02*
X143980000Y-90221250D01*
X144138750Y-90380000D01*
X145288000Y-90380000D01*
X145288000Y-90360000D01*
X145542000Y-90360000D01*
X145542000Y-90380000D01*
X146691250Y-90380000D01*
X146850000Y-90221250D01*
X146850000Y-89624802D01*
X147432213Y-90207015D01*
X147469338Y-90404317D01*
X147563666Y-90550907D01*
X147476069Y-90679110D01*
X147425060Y-90931000D01*
X147425060Y-91439000D01*
X147469338Y-91674317D01*
X147563666Y-91820907D01*
X147476069Y-91949110D01*
X147425060Y-92201000D01*
X147425060Y-92709000D01*
X147469338Y-92944317D01*
X147560104Y-93085371D01*
X147534173Y-93111302D01*
X147437500Y-93344691D01*
X147437500Y-93439250D01*
X147596250Y-93598000D01*
X148517000Y-93598000D01*
X148517000Y-93578000D01*
X148771000Y-93578000D01*
X148771000Y-93598000D01*
X148791000Y-93598000D01*
X148791000Y-93852000D01*
X148771000Y-93852000D01*
X148771000Y-93872000D01*
X148517000Y-93872000D01*
X148517000Y-93852000D01*
X147596250Y-93852000D01*
X147437500Y-94010750D01*
X147437500Y-94105309D01*
X147439443Y-94110000D01*
X146862440Y-94110000D01*
X146862440Y-92807000D01*
X146818162Y-92571683D01*
X146679090Y-92355559D01*
X146610994Y-92309031D01*
X146753327Y-92166698D01*
X146850000Y-91933309D01*
X146850000Y-90792750D01*
X146691250Y-90634000D01*
X145542000Y-90634000D01*
X145542000Y-90654000D01*
X145288000Y-90654000D01*
X145288000Y-90634000D01*
X144138750Y-90634000D01*
X143980000Y-90792750D01*
X143980000Y-91933309D01*
X144076673Y-92166698D01*
X144217910Y-92307936D01*
X144163559Y-92342910D01*
X144018569Y-92555110D01*
X143967560Y-92807000D01*
X143967560Y-93266000D01*
X142385000Y-93266000D01*
X142385000Y-91843005D01*
X142385001Y-91843000D01*
X142328810Y-91560516D01*
X142317633Y-91504325D01*
X142268736Y-91431145D01*
X142436821Y-91348552D01*
X142724568Y-91024049D01*
X142866229Y-90614131D01*
X142717563Y-90440000D01*
X141892000Y-90440000D01*
X141892000Y-90460000D01*
X141638000Y-90460000D01*
X141638000Y-90440000D01*
X141618000Y-90440000D01*
X141618000Y-90186000D01*
X141638000Y-90186000D01*
X141638000Y-90166000D01*
X141892000Y-90166000D01*
X141892000Y-90186000D01*
X142717563Y-90186000D01*
X142866229Y-90011869D01*
X142807910Y-89843115D01*
X142978327Y-89672699D01*
X143075000Y-89439310D01*
X143075000Y-89371750D01*
X142916250Y-89213000D01*
X142757933Y-89213000D01*
X142891441Y-89127090D01*
X143036431Y-88914890D01*
X143042035Y-88887215D01*
X143069250Y-88860000D01*
X144071413Y-88860000D01*
X143980000Y-89080691D01*
X143980000Y-89080691D01*
G37*
X143980000Y-89080691D02*
X143980000Y-90221250D01*
X144138750Y-90380000D01*
X145288000Y-90380000D01*
X145288000Y-90360000D01*
X145542000Y-90360000D01*
X145542000Y-90380000D01*
X146691250Y-90380000D01*
X146850000Y-90221250D01*
X146850000Y-89624802D01*
X147432213Y-90207015D01*
X147469338Y-90404317D01*
X147563666Y-90550907D01*
X147476069Y-90679110D01*
X147425060Y-90931000D01*
X147425060Y-91439000D01*
X147469338Y-91674317D01*
X147563666Y-91820907D01*
X147476069Y-91949110D01*
X147425060Y-92201000D01*
X147425060Y-92709000D01*
X147469338Y-92944317D01*
X147560104Y-93085371D01*
X147534173Y-93111302D01*
X147437500Y-93344691D01*
X147437500Y-93439250D01*
X147596250Y-93598000D01*
X148517000Y-93598000D01*
X148517000Y-93578000D01*
X148771000Y-93578000D01*
X148771000Y-93598000D01*
X148791000Y-93598000D01*
X148791000Y-93852000D01*
X148771000Y-93852000D01*
X148771000Y-93872000D01*
X148517000Y-93872000D01*
X148517000Y-93852000D01*
X147596250Y-93852000D01*
X147437500Y-94010750D01*
X147437500Y-94105309D01*
X147439443Y-94110000D01*
X146862440Y-94110000D01*
X146862440Y-92807000D01*
X146818162Y-92571683D01*
X146679090Y-92355559D01*
X146610994Y-92309031D01*
X146753327Y-92166698D01*
X146850000Y-91933309D01*
X146850000Y-90792750D01*
X146691250Y-90634000D01*
X145542000Y-90634000D01*
X145542000Y-90654000D01*
X145288000Y-90654000D01*
X145288000Y-90634000D01*
X144138750Y-90634000D01*
X143980000Y-90792750D01*
X143980000Y-91933309D01*
X144076673Y-92166698D01*
X144217910Y-92307936D01*
X144163559Y-92342910D01*
X144018569Y-92555110D01*
X143967560Y-92807000D01*
X143967560Y-93266000D01*
X142385000Y-93266000D01*
X142385000Y-91843005D01*
X142385001Y-91843000D01*
X142328810Y-91560516D01*
X142317633Y-91504325D01*
X142268736Y-91431145D01*
X142436821Y-91348552D01*
X142724568Y-91024049D01*
X142866229Y-90614131D01*
X142717563Y-90440000D01*
X141892000Y-90440000D01*
X141892000Y-90460000D01*
X141638000Y-90460000D01*
X141638000Y-90440000D01*
X141618000Y-90440000D01*
X141618000Y-90186000D01*
X141638000Y-90186000D01*
X141638000Y-90166000D01*
X141892000Y-90166000D01*
X141892000Y-90186000D01*
X142717563Y-90186000D01*
X142866229Y-90011869D01*
X142807910Y-89843115D01*
X142978327Y-89672699D01*
X143075000Y-89439310D01*
X143075000Y-89371750D01*
X142916250Y-89213000D01*
X142757933Y-89213000D01*
X142891441Y-89127090D01*
X143036431Y-88914890D01*
X143042035Y-88887215D01*
X143069250Y-88860000D01*
X144071413Y-88860000D01*
X143980000Y-89080691D01*
G36*
X176667000Y-87893000D02*
X176687000Y-87893000D01*
X176687000Y-88147000D01*
X176667000Y-88147000D01*
X176667000Y-88167000D01*
X176413000Y-88167000D01*
X176413000Y-88147000D01*
X176393000Y-88147000D01*
X176393000Y-87893000D01*
X176413000Y-87893000D01*
X176413000Y-87873000D01*
X176667000Y-87873000D01*
X176667000Y-87893000D01*
X176667000Y-87893000D01*
G37*
X176667000Y-87893000D02*
X176687000Y-87893000D01*
X176687000Y-88147000D01*
X176667000Y-88147000D01*
X176667000Y-88167000D01*
X176413000Y-88167000D01*
X176413000Y-88147000D01*
X176393000Y-88147000D01*
X176393000Y-87893000D01*
X176413000Y-87893000D01*
X176413000Y-87873000D01*
X176667000Y-87873000D01*
X176667000Y-87893000D01*
G36*
X155388329Y-68688646D02*
X155386673Y-68690302D01*
X155290000Y-68923691D01*
X155290000Y-69364250D01*
X155448750Y-69523000D01*
X156173000Y-69523000D01*
X156173000Y-69503000D01*
X156427000Y-69503000D01*
X156427000Y-69523000D01*
X156447000Y-69523000D01*
X156447000Y-69777000D01*
X156427000Y-69777000D01*
X156427000Y-69797000D01*
X156173000Y-69797000D01*
X156173000Y-69777000D01*
X155448750Y-69777000D01*
X155290000Y-69935750D01*
X155290000Y-70376309D01*
X155316382Y-70440000D01*
X155300000Y-70440000D01*
X155009161Y-70497852D01*
X154762599Y-70662599D01*
X153912599Y-71512599D01*
X153869194Y-71577560D01*
X153850000Y-71577560D01*
X153614683Y-71621838D01*
X153398559Y-71760910D01*
X153253569Y-71973110D01*
X153202560Y-72225000D01*
X153202560Y-72975000D01*
X153246838Y-73210317D01*
X153385910Y-73426441D01*
X153568769Y-73551383D01*
X153398559Y-73660910D01*
X153344519Y-73740000D01*
X152700000Y-73740000D01*
X152409161Y-73797852D01*
X152363190Y-73828569D01*
X152162598Y-73962599D01*
X151885000Y-74240197D01*
X151885000Y-71666580D01*
X154916579Y-68635000D01*
X155353808Y-68635000D01*
X155388329Y-68688646D01*
X155388329Y-68688646D01*
G37*
X155388329Y-68688646D02*
X155386673Y-68690302D01*
X155290000Y-68923691D01*
X155290000Y-69364250D01*
X155448750Y-69523000D01*
X156173000Y-69523000D01*
X156173000Y-69503000D01*
X156427000Y-69503000D01*
X156427000Y-69523000D01*
X156447000Y-69523000D01*
X156447000Y-69777000D01*
X156427000Y-69777000D01*
X156427000Y-69797000D01*
X156173000Y-69797000D01*
X156173000Y-69777000D01*
X155448750Y-69777000D01*
X155290000Y-69935750D01*
X155290000Y-70376309D01*
X155316382Y-70440000D01*
X155300000Y-70440000D01*
X155009161Y-70497852D01*
X154762599Y-70662599D01*
X153912599Y-71512599D01*
X153869194Y-71577560D01*
X153850000Y-71577560D01*
X153614683Y-71621838D01*
X153398559Y-71760910D01*
X153253569Y-71973110D01*
X153202560Y-72225000D01*
X153202560Y-72975000D01*
X153246838Y-73210317D01*
X153385910Y-73426441D01*
X153568769Y-73551383D01*
X153398559Y-73660910D01*
X153344519Y-73740000D01*
X152700000Y-73740000D01*
X152409161Y-73797852D01*
X152363190Y-73828569D01*
X152162598Y-73962599D01*
X151885000Y-74240197D01*
X151885000Y-71666580D01*
X154916579Y-68635000D01*
X155353808Y-68635000D01*
X155388329Y-68688646D01*
M02*
