G04 #@! TF.FileFunction,Copper,L2,Bot,Signal*
%FSLAX46Y46*%
G04 Gerber Fmt 4.6, Leading zero omitted, Abs format (unit mm)*
G04 Created by KiCad (PCBNEW 4.0.0-rc1-stable) date 06/12/2015 04:25:02 p.m.*
%MOMM*%
G01*
G04 APERTURE LIST*
%ADD10C,0.100000*%
%ADD11R,2.032000X1.727200*%
%ADD12O,2.032000X1.727200*%
%ADD13R,1.727200X1.727200*%
%ADD14O,1.727200X1.727200*%
%ADD15R,0.800100X0.800100*%
%ADD16R,1.200000X0.750000*%
%ADD17R,0.750000X1.200000*%
%ADD18C,1.510000*%
%ADD19R,1.510000X1.510000*%
%ADD20C,1.501140*%
%ADD21C,0.685800*%
%ADD22C,0.250000*%
%ADD23C,0.500000*%
%ADD24C,0.254000*%
G04 APERTURE END LIST*
D10*
D11*
X139900000Y-109800000D03*
D12*
X139900000Y-107260000D03*
X139900000Y-104720000D03*
X139900000Y-102180000D03*
X139900000Y-99640000D03*
D13*
X174000000Y-105800000D03*
D14*
X176540000Y-105800000D03*
X174000000Y-103260000D03*
X176540000Y-103260000D03*
X174000000Y-100720000D03*
X176540000Y-100720000D03*
X174000000Y-98180000D03*
X176540000Y-98180000D03*
X174000000Y-95640000D03*
X176540000Y-95640000D03*
X174000000Y-93100000D03*
X176540000Y-93100000D03*
X174000000Y-90560000D03*
X176540000Y-90560000D03*
X174000000Y-88020000D03*
X176540000Y-88020000D03*
X174000000Y-85480000D03*
X176540000Y-85480000D03*
X174000000Y-82940000D03*
X176540000Y-82940000D03*
X174000000Y-80400000D03*
X176540000Y-80400000D03*
X174000000Y-77860000D03*
X176540000Y-77860000D03*
X174000000Y-75320000D03*
X176540000Y-75320000D03*
X174000000Y-72780000D03*
X176540000Y-72780000D03*
X174000000Y-70240000D03*
X176540000Y-70240000D03*
D13*
X141900000Y-76000000D03*
D14*
X139360000Y-76000000D03*
X141900000Y-73460000D03*
X139360000Y-73460000D03*
X141900000Y-70920000D03*
X139360000Y-70920000D03*
X141900000Y-68380000D03*
X139360000Y-68380000D03*
X141900000Y-65840000D03*
X139360000Y-65840000D03*
D15*
X182050000Y-102200760D03*
X180150000Y-102200760D03*
X181100000Y-100201780D03*
X181950000Y-70900760D03*
X180050000Y-70900760D03*
X181000000Y-68901780D03*
X181950000Y-77200760D03*
X180050000Y-77200760D03*
X181000000Y-75201780D03*
X182050000Y-95100760D03*
X180150000Y-95100760D03*
X181100000Y-93101780D03*
X181950000Y-83600760D03*
X180050000Y-83600760D03*
X181000000Y-81601780D03*
D16*
X182250000Y-104000000D03*
X180350000Y-104000000D03*
X182150000Y-72700000D03*
X180250000Y-72700000D03*
D17*
X184000000Y-101850000D03*
X184000000Y-99950000D03*
X183900000Y-70550000D03*
X183900000Y-68650000D03*
D16*
X182150000Y-79000000D03*
X180250000Y-79000000D03*
X182250000Y-96900000D03*
X180350000Y-96900000D03*
D17*
X183900000Y-76850000D03*
X183900000Y-74950000D03*
X184000000Y-94750000D03*
X184000000Y-92850000D03*
D16*
X182150000Y-85400000D03*
X180250000Y-85400000D03*
D17*
X183900000Y-83250000D03*
X183900000Y-81350000D03*
D18*
X151580000Y-68100000D03*
D19*
X146500000Y-68100000D03*
D18*
X149040000Y-68100000D03*
D20*
X163600000Y-96740940D03*
X163600000Y-91859060D03*
D21*
X145040000Y-111390000D03*
X145850000Y-111390000D03*
X143460000Y-111390000D03*
X182120000Y-90390000D03*
X182110000Y-89580000D03*
X182130000Y-88770000D03*
X182120000Y-87970000D03*
X183660000Y-106310000D03*
X183660000Y-107110000D03*
X182870000Y-107110000D03*
X182070000Y-106310000D03*
X182070000Y-107100000D03*
X144250000Y-111390000D03*
X153680000Y-70850000D03*
X154260000Y-70290000D03*
X160670000Y-76330000D03*
X162230000Y-76320000D03*
X160680000Y-72730000D03*
X162260000Y-72730000D03*
X139430000Y-95750000D03*
X140220000Y-95750000D03*
X146880000Y-84460000D03*
X146880000Y-82870000D03*
X146720000Y-92420000D03*
X146720000Y-90820000D03*
X164660000Y-88130000D03*
X163860000Y-88130000D03*
X163060000Y-88130000D03*
X162260000Y-88130000D03*
X164710000Y-83620000D03*
X164710000Y-82820000D03*
X163900000Y-82820000D03*
X163100000Y-82820000D03*
X162280000Y-82810000D03*
X161470000Y-82830000D03*
X163900000Y-83620000D03*
X163100000Y-83620000D03*
X162280000Y-83620000D03*
X146720000Y-91620000D03*
X146880000Y-83670000D03*
X161470000Y-72730000D03*
X161450000Y-76320000D03*
X138650000Y-95750000D03*
X161470000Y-83620000D03*
X161460000Y-88130000D03*
X182870000Y-106310000D03*
X154830000Y-69720000D03*
X159650000Y-68730000D03*
X151000000Y-77200000D03*
X148700000Y-79500000D03*
X183750000Y-65700000D03*
X184800000Y-104000000D03*
X184800000Y-96900000D03*
X184800000Y-85400000D03*
X184800000Y-79000000D03*
X184800000Y-72700000D03*
X147390000Y-105690000D03*
X147390000Y-107140000D03*
X146300000Y-104420000D03*
X146300000Y-107140000D03*
X168700000Y-103300000D03*
X168700000Y-100700000D03*
X168700000Y-98200000D03*
X154200000Y-90600000D03*
X153300000Y-91900000D03*
X152500000Y-95800000D03*
X145200000Y-107150000D03*
X145200000Y-103100000D03*
X151400000Y-97000000D03*
X143490000Y-107140000D03*
X143480000Y-100970000D03*
X150300000Y-98300000D03*
X144300000Y-109300000D03*
X144300000Y-102050000D03*
D22*
X144620000Y-111390000D02*
X145040000Y-111390000D01*
X145040000Y-111390000D02*
X145850000Y-111390000D01*
X144250000Y-111390000D02*
X143460000Y-111390000D01*
X182120000Y-90390000D02*
X182130000Y-90390000D01*
X182110000Y-88790000D02*
X182110000Y-89580000D01*
X182130000Y-88770000D02*
X182110000Y-88790000D01*
X182870000Y-106310000D02*
X182870000Y-107110000D01*
X182070000Y-106310000D02*
X182870000Y-106310000D01*
X144250000Y-111390000D02*
X141870000Y-109010000D01*
X154830000Y-69720000D02*
X154260000Y-70290000D01*
X161450000Y-76320000D02*
X162230000Y-76320000D01*
X161470000Y-72730000D02*
X162260000Y-72730000D01*
X139430000Y-95750000D02*
X138650000Y-95750000D01*
X146880000Y-83670000D02*
X146880000Y-82870000D01*
X146720000Y-91620000D02*
X146720000Y-90820000D01*
X161460000Y-88130000D02*
X162260000Y-88130000D01*
X163060000Y-88130000D02*
X163860000Y-88130000D01*
X164710000Y-83620000D02*
X163900000Y-83620000D01*
X163900000Y-83620000D02*
X163900000Y-82820000D01*
X162280000Y-83620000D02*
X162280000Y-82810000D01*
X162280000Y-83620000D02*
X163100000Y-83620000D01*
X146720000Y-83830000D02*
X146720000Y-91620000D01*
X146880000Y-83670000D02*
X146720000Y-83830000D01*
X161470000Y-76300000D02*
X161470000Y-72730000D01*
X161450000Y-76320000D02*
X161470000Y-76300000D01*
X139900000Y-104720000D02*
X138350000Y-104720000D01*
X137820000Y-96580000D02*
X138650000Y-95750000D01*
X137820000Y-104190000D02*
X137820000Y-96580000D01*
X138350000Y-104720000D02*
X137820000Y-104190000D01*
X161470000Y-87750000D02*
X161470000Y-83620000D01*
X161460000Y-88130000D02*
X161470000Y-87750000D01*
X182070000Y-88020000D02*
X176540000Y-88020000D01*
X182120000Y-87970000D02*
X182070000Y-88020000D01*
X176540000Y-103260000D02*
X178080000Y-103260000D01*
X141840000Y-104720000D02*
X139900000Y-104720000D01*
X141870000Y-104690000D02*
X141840000Y-104720000D01*
X141870000Y-109010000D02*
X141870000Y-104690000D01*
X179600000Y-106310000D02*
X182870000Y-106310000D01*
X178650000Y-105360000D02*
X179600000Y-106310000D01*
X178650000Y-103830000D02*
X178650000Y-105360000D01*
X178080000Y-103260000D02*
X178650000Y-103830000D01*
X158660000Y-69720000D02*
X154830000Y-69720000D01*
X159650000Y-68730000D02*
X158660000Y-69720000D01*
D23*
X176540000Y-105800000D02*
X176540000Y-106150000D01*
X176540000Y-106150000D02*
X178880000Y-108490000D01*
X148700000Y-79500000D02*
X151000000Y-77200000D01*
X183900000Y-76850000D02*
X185550000Y-76850000D01*
X185550000Y-76850000D02*
X185600000Y-76900000D01*
X185600000Y-101850000D02*
X184000000Y-101850000D01*
X185600000Y-94750000D02*
X184000000Y-94750000D01*
X185600000Y-83250000D02*
X183900000Y-83250000D01*
X183900000Y-70550000D02*
X185600000Y-70550000D01*
X178880000Y-108490000D02*
X184587488Y-108481066D01*
X185600000Y-67550000D02*
X183750000Y-65700000D01*
X185600000Y-107330000D02*
X185600000Y-101850000D01*
X185600000Y-101850000D02*
X185600000Y-94750000D01*
X185600000Y-94750000D02*
X185600000Y-83250000D01*
X185600000Y-83250000D02*
X185600000Y-76900000D01*
X185600000Y-76900000D02*
X185600000Y-70550000D01*
X185600000Y-70550000D02*
X185600000Y-67550000D01*
X184587488Y-108481066D02*
X185600000Y-107330000D01*
X182250000Y-104000000D02*
X184800000Y-104000000D01*
X182250000Y-96900000D02*
X184800000Y-96900000D01*
X182150000Y-85400000D02*
X184800000Y-85400000D01*
X182150000Y-79000000D02*
X184800000Y-79000000D01*
X182150000Y-72700000D02*
X184800000Y-72700000D01*
D22*
X181950000Y-83600760D02*
X181950000Y-84250000D01*
X181950000Y-84250000D02*
X182150000Y-84450000D01*
X182150000Y-84450000D02*
X182150000Y-85400000D01*
X182250000Y-104000000D02*
X182250000Y-103050000D01*
X182050000Y-102850000D02*
X182050000Y-102200760D01*
X182250000Y-103050000D02*
X182050000Y-102850000D01*
X181950000Y-77200760D02*
X181950000Y-77950000D01*
X181950000Y-77950000D02*
X182150000Y-78150000D01*
X182150000Y-78150000D02*
X182150000Y-79000000D01*
X182050000Y-95100760D02*
X182050000Y-95750000D01*
X182250000Y-95950000D02*
X182250000Y-96900000D01*
X182050000Y-95750000D02*
X182250000Y-95950000D01*
X181950000Y-70900760D02*
X181950000Y-71650000D01*
X181950000Y-71650000D02*
X182150000Y-71850000D01*
X182150000Y-71850000D02*
X182150000Y-72700000D01*
X147390000Y-105690000D02*
X147390000Y-107140000D01*
X146300000Y-104420000D02*
X146300000Y-107140000D01*
X176500000Y-93100000D02*
X176540000Y-93100000D01*
X168740000Y-103260000D02*
X174000000Y-103260000D01*
X168700000Y-103300000D02*
X168740000Y-103260000D01*
X168720000Y-100720000D02*
X174000000Y-100720000D01*
X168700000Y-100700000D02*
X168720000Y-100720000D01*
X168720000Y-98180000D02*
X174000000Y-98180000D01*
X168700000Y-98200000D02*
X168720000Y-98180000D01*
X174000000Y-95640000D02*
X174000000Y-95650000D01*
X174000000Y-95650000D02*
X175250000Y-96900000D01*
X179501780Y-100201780D02*
X181100000Y-100201780D01*
X178750000Y-99450000D02*
X179501780Y-100201780D01*
X175700000Y-99450000D02*
X178750000Y-99450000D01*
X175250000Y-99000000D02*
X175700000Y-99450000D01*
X175250000Y-96900000D02*
X175250000Y-99000000D01*
X174000000Y-95640000D02*
X174010000Y-95640000D01*
X170040000Y-95640000D02*
X174000000Y-95640000D01*
X168900000Y-94500000D02*
X170040000Y-95640000D01*
X168900000Y-82260000D02*
X168900000Y-94500000D01*
X168330000Y-81750000D02*
X168900000Y-82260000D01*
X154720000Y-81750000D02*
X168330000Y-81750000D01*
X154210000Y-82260000D02*
X154720000Y-81750000D01*
X154200000Y-90600000D02*
X154210000Y-82260000D01*
X184000000Y-100050000D02*
X182750000Y-100050000D01*
X182598220Y-100201780D02*
X181100000Y-100201780D01*
X182750000Y-100050000D02*
X182598220Y-100201780D01*
X174000000Y-93100000D02*
X174050000Y-93100000D01*
X174050000Y-93100000D02*
X175300000Y-91850000D01*
X179751780Y-93101780D02*
X181100000Y-93101780D01*
X178500000Y-91850000D02*
X179751780Y-93101780D01*
X175300000Y-91850000D02*
X178500000Y-91850000D01*
X170700000Y-93100000D02*
X174000000Y-93100000D01*
X169500000Y-91900000D02*
X170700000Y-93100000D01*
X169510000Y-81690000D02*
X169500000Y-91900000D01*
X168890000Y-81070000D02*
X169510000Y-81690000D01*
X153940000Y-81080000D02*
X168890000Y-81070000D01*
X153310000Y-81700000D02*
X153940000Y-81080000D01*
X153300000Y-91900000D02*
X153310000Y-81700000D01*
X181100000Y-93101780D02*
X182498220Y-93101780D01*
X182750000Y-92850000D02*
X184000000Y-92850000D01*
X182498220Y-93101780D02*
X182750000Y-92850000D01*
X176540000Y-75320000D02*
X177780000Y-75320000D01*
X179150000Y-72700000D02*
X180250000Y-72700000D01*
X178650000Y-73200000D02*
X179150000Y-72700000D01*
X178650000Y-74450000D02*
X178650000Y-73200000D01*
X177780000Y-75320000D02*
X178650000Y-74450000D01*
X180170000Y-72780000D02*
X180250000Y-72700000D01*
X180049240Y-70900000D02*
X180050000Y-70900760D01*
X180050000Y-70900760D02*
X180050000Y-71650000D01*
X180050000Y-71650000D02*
X180250000Y-71850000D01*
X180250000Y-71850000D02*
X180250000Y-72700000D01*
X176540000Y-77860000D02*
X178240000Y-77860000D01*
X178899240Y-77200760D02*
X180050000Y-77200760D01*
X178240000Y-77860000D02*
X178899240Y-77200760D01*
X180050000Y-77200760D02*
X180050000Y-77950000D01*
X180250000Y-78150000D02*
X180250000Y-79000000D01*
X180050000Y-77950000D02*
X180250000Y-78150000D01*
X176540000Y-80400000D02*
X176849240Y-80400000D01*
X176849240Y-80400000D02*
X180050000Y-83600760D01*
X180050000Y-83600760D02*
X180050000Y-83450000D01*
X180050000Y-83600760D02*
X180050000Y-84250000D01*
X180250000Y-84450000D02*
X180250000Y-85400000D01*
X180050000Y-84250000D02*
X180250000Y-84450000D01*
X176540000Y-98180000D02*
X177820000Y-98180000D01*
X179100000Y-96900000D02*
X180350000Y-96900000D01*
X177820000Y-98180000D02*
X179100000Y-96900000D01*
X180150000Y-95100760D02*
X180150000Y-95950000D01*
X180150000Y-95950000D02*
X180350000Y-96150000D01*
X180350000Y-96150000D02*
X180350000Y-96900000D01*
X176540000Y-100720000D02*
X178669240Y-100720000D01*
X178669240Y-100720000D02*
X180150000Y-102200760D01*
X180350000Y-104000000D02*
X180350000Y-104050000D01*
X180350000Y-104000000D02*
X180350000Y-103150000D01*
X180150000Y-102950000D02*
X180150000Y-102200760D01*
X180350000Y-103150000D02*
X180150000Y-102950000D01*
X180150000Y-102200760D02*
X180110760Y-102240000D01*
X174000000Y-77860000D02*
X174060000Y-77860000D01*
X174060000Y-77860000D02*
X175300000Y-79100000D01*
X180051780Y-81601780D02*
X181000000Y-81601780D01*
X177550000Y-79100000D02*
X180051780Y-81601780D01*
X175300000Y-79100000D02*
X177550000Y-79100000D01*
X174000000Y-77860000D02*
X174000000Y-77850000D01*
X181000000Y-81601780D02*
X182498220Y-81601780D01*
X182750000Y-81350000D02*
X183900000Y-81350000D01*
X182498220Y-81601780D02*
X182750000Y-81350000D01*
X181000000Y-75201780D02*
X179748220Y-75201780D01*
X175230000Y-76550000D02*
X174000000Y-75320000D01*
X178400000Y-76550000D02*
X175230000Y-76550000D01*
X179748220Y-75201780D02*
X178400000Y-76550000D01*
X174000000Y-75320000D02*
X174000000Y-75300000D01*
X152500000Y-95800000D02*
X152500000Y-81000000D01*
X152500000Y-81000000D02*
X153100000Y-80400000D01*
X153100000Y-80400000D02*
X168920000Y-80400000D01*
X168920000Y-80400000D02*
X174000000Y-75320000D01*
X181000000Y-75201780D02*
X182398220Y-75201780D01*
X182650000Y-74950000D02*
X183900000Y-74950000D01*
X182398220Y-75201780D02*
X182650000Y-74950000D01*
X145200000Y-103100000D02*
X145200000Y-107150000D01*
X174000000Y-72780000D02*
X174000000Y-72750000D01*
X174000000Y-72750000D02*
X175250000Y-71500000D01*
X179198220Y-68901780D02*
X181000000Y-68901780D01*
X178650000Y-69450000D02*
X179198220Y-68901780D01*
X178650000Y-70850000D02*
X178650000Y-69450000D01*
X178000000Y-71500000D02*
X178650000Y-70850000D01*
X175250000Y-71500000D02*
X178000000Y-71500000D01*
X181000000Y-68901780D02*
X182448220Y-68901780D01*
X182700000Y-68650000D02*
X183900000Y-68650000D01*
X182448220Y-68901780D02*
X182700000Y-68650000D01*
X167080000Y-79700000D02*
X174000000Y-72780000D01*
X152100000Y-79700000D02*
X167080000Y-79700000D01*
X151400000Y-80400000D02*
X152100000Y-79700000D01*
X151400000Y-97000000D02*
X151400000Y-80400000D01*
X143480000Y-100970000D02*
X143490000Y-107140000D01*
X165240000Y-79000000D02*
X174000000Y-70240000D01*
X151300000Y-79000000D02*
X165240000Y-79000000D01*
X150300000Y-80000000D02*
X151300000Y-79000000D01*
X150300000Y-98300000D02*
X150300000Y-80000000D01*
X144300000Y-102050000D02*
X144300000Y-109300000D01*
D24*
G36*
X185890000Y-66588421D02*
X184671846Y-65370266D01*
X184579507Y-65146788D01*
X184304659Y-64871460D01*
X183945370Y-64722270D01*
X183556337Y-64721931D01*
X183196788Y-64870493D01*
X182921460Y-65145341D01*
X182772270Y-65504630D01*
X182771931Y-65893663D01*
X182920493Y-66253212D01*
X183195341Y-66528540D01*
X183420422Y-66622002D01*
X184200981Y-67402560D01*
X183525000Y-67402560D01*
X183289683Y-67446838D01*
X183073559Y-67585910D01*
X182928569Y-67798110D01*
X182909961Y-67890000D01*
X182700000Y-67890000D01*
X182409161Y-67947852D01*
X182162599Y-68112599D01*
X182133418Y-68141780D01*
X181923013Y-68141780D01*
X181864140Y-68050289D01*
X181651940Y-67905299D01*
X181400050Y-67854290D01*
X180599950Y-67854290D01*
X180364633Y-67898568D01*
X180148509Y-68037640D01*
X180077353Y-68141780D01*
X179198220Y-68141780D01*
X178907381Y-68199632D01*
X178660819Y-68364379D01*
X178112599Y-68912599D01*
X177947852Y-69159161D01*
X177890000Y-69450000D01*
X177890000Y-69585480D01*
X177599670Y-69150971D01*
X177113489Y-68826115D01*
X176540000Y-68712041D01*
X175966511Y-68826115D01*
X175480330Y-69150971D01*
X175270000Y-69465752D01*
X175059670Y-69150971D01*
X174573489Y-68826115D01*
X174000000Y-68712041D01*
X173426511Y-68826115D01*
X172940330Y-69150971D01*
X172615474Y-69637152D01*
X172501400Y-70210641D01*
X172501400Y-70269359D01*
X172566842Y-70598356D01*
X164925198Y-78240000D01*
X151300000Y-78240000D01*
X151189624Y-78261955D01*
X151329733Y-78121846D01*
X151553212Y-78029507D01*
X151828540Y-77754659D01*
X151977730Y-77395370D01*
X151978069Y-77006337D01*
X151829507Y-76646788D01*
X151554659Y-76371460D01*
X151195370Y-76222270D01*
X150806337Y-76221931D01*
X150446788Y-76370493D01*
X150171460Y-76645341D01*
X150077998Y-76870423D01*
X148370266Y-78578154D01*
X148146788Y-78670493D01*
X147871460Y-78945341D01*
X147722270Y-79304630D01*
X147721931Y-79693663D01*
X147870493Y-80053212D01*
X148145341Y-80328540D01*
X148504630Y-80477730D01*
X148893663Y-80478069D01*
X149253212Y-80329507D01*
X149528540Y-80054659D01*
X149540000Y-80027060D01*
X149540000Y-97676920D01*
X149471460Y-97745341D01*
X149322270Y-98104630D01*
X149321931Y-98493663D01*
X149470493Y-98853212D01*
X149745341Y-99128540D01*
X150104630Y-99277730D01*
X150493663Y-99278069D01*
X150853212Y-99129507D01*
X151128540Y-98854659D01*
X151277730Y-98495370D01*
X151278069Y-98106337D01*
X151224937Y-97977748D01*
X151593663Y-97978069D01*
X151953212Y-97829507D01*
X152228540Y-97554659D01*
X152377730Y-97195370D01*
X152377886Y-97015338D01*
X162214190Y-97015338D01*
X162424686Y-97524777D01*
X162814113Y-97914884D01*
X163323184Y-98126269D01*
X163874398Y-98126750D01*
X164383837Y-97916254D01*
X164773944Y-97526827D01*
X164985329Y-97017756D01*
X164985810Y-96466542D01*
X164775314Y-95957103D01*
X164385887Y-95566996D01*
X163876816Y-95355611D01*
X163325602Y-95355130D01*
X162816163Y-95565626D01*
X162426056Y-95955053D01*
X162214671Y-96464124D01*
X162214190Y-97015338D01*
X152377886Y-97015338D01*
X152378069Y-96806337D01*
X152366271Y-96777784D01*
X152693663Y-96778069D01*
X153053212Y-96629507D01*
X153328540Y-96354659D01*
X153477730Y-95995370D01*
X153478069Y-95606337D01*
X153329507Y-95246788D01*
X153260000Y-95177160D01*
X153260000Y-92877865D01*
X153493663Y-92878069D01*
X153853212Y-92729507D01*
X154128540Y-92454659D01*
X154261914Y-92133458D01*
X162214190Y-92133458D01*
X162424686Y-92642897D01*
X162814113Y-93033004D01*
X163323184Y-93244389D01*
X163874398Y-93244870D01*
X164383837Y-93034374D01*
X164773944Y-92644947D01*
X164985329Y-92135876D01*
X164985810Y-91584662D01*
X164775314Y-91075223D01*
X164385887Y-90685116D01*
X163876816Y-90473731D01*
X163325602Y-90473250D01*
X162816163Y-90683746D01*
X162426056Y-91073173D01*
X162214671Y-91582244D01*
X162214190Y-92133458D01*
X154261914Y-92133458D01*
X154277730Y-92095370D01*
X154278069Y-91706337D01*
X154225009Y-91577922D01*
X154393663Y-91578069D01*
X154753212Y-91429507D01*
X155028540Y-91154659D01*
X155177730Y-90795370D01*
X155178069Y-90406337D01*
X155029507Y-90046788D01*
X154960746Y-89977907D01*
X154969622Y-82575180D01*
X155034802Y-82510000D01*
X168039631Y-82510000D01*
X168140000Y-82599803D01*
X168140000Y-94500000D01*
X168197852Y-94790839D01*
X168362599Y-95037401D01*
X169502599Y-96177401D01*
X169749160Y-96342148D01*
X169797414Y-96351746D01*
X170040000Y-96400000D01*
X172720480Y-96400000D01*
X172940330Y-96729029D01*
X173211172Y-96910000D01*
X172940330Y-97090971D01*
X172720480Y-97420000D01*
X169303114Y-97420000D01*
X169254659Y-97371460D01*
X168895370Y-97222270D01*
X168506337Y-97221931D01*
X168146788Y-97370493D01*
X167871460Y-97645341D01*
X167722270Y-98004630D01*
X167721931Y-98393663D01*
X167870493Y-98753212D01*
X168145341Y-99028540D01*
X168504630Y-99177730D01*
X168893663Y-99178069D01*
X169253212Y-99029507D01*
X169342875Y-98940000D01*
X172720480Y-98940000D01*
X172940330Y-99269029D01*
X173211172Y-99450000D01*
X172940330Y-99630971D01*
X172720480Y-99960000D01*
X169343045Y-99960000D01*
X169254659Y-99871460D01*
X168895370Y-99722270D01*
X168506337Y-99721931D01*
X168146788Y-99870493D01*
X167871460Y-100145341D01*
X167722270Y-100504630D01*
X167721931Y-100893663D01*
X167870493Y-101253212D01*
X168145341Y-101528540D01*
X168504630Y-101677730D01*
X168893663Y-101678069D01*
X169253212Y-101529507D01*
X169302805Y-101480000D01*
X172720480Y-101480000D01*
X172940330Y-101809029D01*
X173211172Y-101990000D01*
X172940330Y-102170971D01*
X172720480Y-102500000D01*
X169283149Y-102500000D01*
X169254659Y-102471460D01*
X168895370Y-102322270D01*
X168506337Y-102321931D01*
X168146788Y-102470493D01*
X167871460Y-102745341D01*
X167722270Y-103104630D01*
X167721931Y-103493663D01*
X167870493Y-103853212D01*
X168145341Y-104128540D01*
X168504630Y-104277730D01*
X168893663Y-104278069D01*
X169253212Y-104129507D01*
X169362910Y-104020000D01*
X172720480Y-104020000D01*
X172926574Y-104328442D01*
X172901083Y-104333238D01*
X172684959Y-104472310D01*
X172539969Y-104684510D01*
X172488960Y-104936400D01*
X172488960Y-106663600D01*
X172533238Y-106898917D01*
X172672310Y-107115041D01*
X172884510Y-107260031D01*
X173136400Y-107311040D01*
X174863600Y-107311040D01*
X175098917Y-107266762D01*
X175315041Y-107127690D01*
X175460031Y-106915490D01*
X175468864Y-106871869D01*
X175480330Y-106889029D01*
X175966511Y-107213885D01*
X176448099Y-107309679D01*
X178254211Y-109115790D01*
X178254795Y-109116181D01*
X178255190Y-109116769D01*
X178398734Y-109212357D01*
X178541326Y-109307633D01*
X178542017Y-109307770D01*
X178542605Y-109308162D01*
X178711101Y-109341404D01*
X178880000Y-109375001D01*
X178880695Y-109374863D01*
X178881385Y-109374999D01*
X184588873Y-109366065D01*
X184616306Y-109360563D01*
X184644047Y-109364258D01*
X184784727Y-109326788D01*
X184927442Y-109298168D01*
X184950683Y-109282586D01*
X184977724Y-109275384D01*
X185093339Y-109186944D01*
X185214257Y-109105876D01*
X185229769Y-109082582D01*
X185251991Y-109065583D01*
X185890000Y-108340268D01*
X185890000Y-112390000D01*
X137337000Y-112390000D01*
X137337000Y-107260000D01*
X138216655Y-107260000D01*
X138330729Y-107833489D01*
X138655585Y-108319670D01*
X138669913Y-108329243D01*
X138648683Y-108333238D01*
X138432559Y-108472310D01*
X138287569Y-108684510D01*
X138236560Y-108936400D01*
X138236560Y-110663600D01*
X138280838Y-110898917D01*
X138419910Y-111115041D01*
X138632110Y-111260031D01*
X138884000Y-111311040D01*
X140916000Y-111311040D01*
X141151317Y-111266762D01*
X141367441Y-111127690D01*
X141512431Y-110915490D01*
X141563440Y-110663600D01*
X141563440Y-108936400D01*
X141519162Y-108701083D01*
X141380090Y-108484959D01*
X141167890Y-108339969D01*
X141126561Y-108331600D01*
X141144415Y-108319670D01*
X141469271Y-107833489D01*
X141583345Y-107260000D01*
X141469271Y-106686511D01*
X141144415Y-106200330D01*
X140834931Y-105993539D01*
X141250732Y-105622036D01*
X141504709Y-105094791D01*
X141507358Y-105079026D01*
X141386217Y-104847000D01*
X140027000Y-104847000D01*
X140027000Y-104867000D01*
X139773000Y-104867000D01*
X139773000Y-104847000D01*
X138413783Y-104847000D01*
X138292642Y-105079026D01*
X138295291Y-105094791D01*
X138549268Y-105622036D01*
X138965069Y-105993539D01*
X138655585Y-106200330D01*
X138330729Y-106686511D01*
X138216655Y-107260000D01*
X137337000Y-107260000D01*
X137337000Y-99640000D01*
X138216655Y-99640000D01*
X138330729Y-100213489D01*
X138655585Y-100699670D01*
X138970366Y-100910000D01*
X138655585Y-101120330D01*
X138330729Y-101606511D01*
X138216655Y-102180000D01*
X138330729Y-102753489D01*
X138655585Y-103239670D01*
X138965069Y-103446461D01*
X138549268Y-103817964D01*
X138295291Y-104345209D01*
X138292642Y-104360974D01*
X138413783Y-104593000D01*
X139773000Y-104593000D01*
X139773000Y-104573000D01*
X140027000Y-104573000D01*
X140027000Y-104593000D01*
X141386217Y-104593000D01*
X141507358Y-104360974D01*
X141504709Y-104345209D01*
X141250732Y-103817964D01*
X140834931Y-103446461D01*
X141144415Y-103239670D01*
X141469271Y-102753489D01*
X141583345Y-102180000D01*
X141469271Y-101606511D01*
X141173370Y-101163663D01*
X142501931Y-101163663D01*
X142650493Y-101523212D01*
X142721010Y-101593852D01*
X142728991Y-106517928D01*
X142661460Y-106585341D01*
X142512270Y-106944630D01*
X142511931Y-107333663D01*
X142660493Y-107693212D01*
X142935341Y-107968540D01*
X143294630Y-108117730D01*
X143540000Y-108117944D01*
X143540000Y-108676920D01*
X143471460Y-108745341D01*
X143322270Y-109104630D01*
X143321931Y-109493663D01*
X143470493Y-109853212D01*
X143745341Y-110128540D01*
X144104630Y-110277730D01*
X144493663Y-110278069D01*
X144853212Y-110129507D01*
X145128540Y-109854659D01*
X145277730Y-109495370D01*
X145278069Y-109106337D01*
X145129507Y-108746788D01*
X145060000Y-108677160D01*
X145060000Y-108127778D01*
X145393663Y-108128069D01*
X145753212Y-107979507D01*
X145758659Y-107974070D01*
X146104630Y-108117730D01*
X146493663Y-108118069D01*
X146845422Y-107972726D01*
X147194630Y-108117730D01*
X147583663Y-108118069D01*
X147943212Y-107969507D01*
X148218540Y-107694659D01*
X148367730Y-107335370D01*
X148368069Y-106946337D01*
X148219507Y-106586788D01*
X148150000Y-106517160D01*
X148150000Y-106313080D01*
X148218540Y-106244659D01*
X148367730Y-105885370D01*
X148368069Y-105496337D01*
X148219507Y-105136788D01*
X147944659Y-104861460D01*
X147585370Y-104712270D01*
X147237619Y-104711967D01*
X147277730Y-104615370D01*
X147278069Y-104226337D01*
X147129507Y-103866788D01*
X146854659Y-103591460D01*
X146495370Y-103442270D01*
X146116869Y-103441940D01*
X146177730Y-103295370D01*
X146178069Y-102906337D01*
X146029507Y-102546788D01*
X145754659Y-102271460D01*
X145395370Y-102122270D01*
X145277837Y-102122168D01*
X145278069Y-101856337D01*
X145129507Y-101496788D01*
X144854659Y-101221460D01*
X144495370Y-101072270D01*
X144457811Y-101072237D01*
X144458069Y-100776337D01*
X144309507Y-100416788D01*
X144034659Y-100141460D01*
X143675370Y-99992270D01*
X143286337Y-99991931D01*
X142926788Y-100140493D01*
X142651460Y-100415341D01*
X142502270Y-100774630D01*
X142501931Y-101163663D01*
X141173370Y-101163663D01*
X141144415Y-101120330D01*
X140829634Y-100910000D01*
X141144415Y-100699670D01*
X141469271Y-100213489D01*
X141583345Y-99640000D01*
X141469271Y-99066511D01*
X141144415Y-98580330D01*
X140658234Y-98255474D01*
X140084745Y-98141400D01*
X139715255Y-98141400D01*
X139141766Y-98255474D01*
X138655585Y-98580330D01*
X138330729Y-99066511D01*
X138216655Y-99640000D01*
X137337000Y-99640000D01*
X137337000Y-90514430D01*
X140566132Y-90514430D01*
X140730902Y-90913203D01*
X141035733Y-91218566D01*
X141434217Y-91384031D01*
X141865690Y-91384408D01*
X142264463Y-91219638D01*
X142569826Y-90914807D01*
X142735291Y-90516323D01*
X142735668Y-90084850D01*
X142570898Y-89686077D01*
X142266067Y-89380714D01*
X141867583Y-89215249D01*
X141436110Y-89214872D01*
X141037337Y-89379642D01*
X140731974Y-89684473D01*
X140566509Y-90082957D01*
X140566132Y-90514430D01*
X137337000Y-90514430D01*
X137337000Y-86115150D01*
X140566132Y-86115150D01*
X140730902Y-86513923D01*
X141035733Y-86819286D01*
X141434217Y-86984751D01*
X141865690Y-86985128D01*
X142264463Y-86820358D01*
X142569826Y-86515527D01*
X142735291Y-86117043D01*
X142735668Y-85685570D01*
X142570898Y-85286797D01*
X142266067Y-84981434D01*
X141867583Y-84815969D01*
X141436110Y-84815592D01*
X141037337Y-84980362D01*
X140731974Y-85285193D01*
X140566509Y-85683677D01*
X140566132Y-86115150D01*
X137337000Y-86115150D01*
X137337000Y-65840000D01*
X137832041Y-65840000D01*
X137946115Y-66413489D01*
X138270971Y-66899670D01*
X138585752Y-67110000D01*
X138270971Y-67320330D01*
X137946115Y-67806511D01*
X137832041Y-68380000D01*
X137946115Y-68953489D01*
X138270971Y-69439670D01*
X138585752Y-69650000D01*
X138270971Y-69860330D01*
X137946115Y-70346511D01*
X137832041Y-70920000D01*
X137946115Y-71493489D01*
X138270971Y-71979670D01*
X138585752Y-72190000D01*
X138270971Y-72400330D01*
X137946115Y-72886511D01*
X137832041Y-73460000D01*
X137946115Y-74033489D01*
X138270971Y-74519670D01*
X138585752Y-74730000D01*
X138270971Y-74940330D01*
X137946115Y-75426511D01*
X137832041Y-76000000D01*
X137946115Y-76573489D01*
X138270971Y-77059670D01*
X138757152Y-77384526D01*
X139330641Y-77498600D01*
X139389359Y-77498600D01*
X139962848Y-77384526D01*
X140428442Y-77073426D01*
X140433238Y-77098917D01*
X140572310Y-77315041D01*
X140784510Y-77460031D01*
X141036400Y-77511040D01*
X142763600Y-77511040D01*
X142998917Y-77466762D01*
X143215041Y-77327690D01*
X143360031Y-77115490D01*
X143411040Y-76863600D01*
X143411040Y-75136400D01*
X143366762Y-74901083D01*
X143227690Y-74684959D01*
X143015490Y-74539969D01*
X142971869Y-74531136D01*
X142989029Y-74519670D01*
X143313885Y-74033489D01*
X143427959Y-73460000D01*
X143313885Y-72886511D01*
X142989029Y-72400330D01*
X142674248Y-72190000D01*
X142989029Y-71979670D01*
X143313885Y-71493489D01*
X143427959Y-70920000D01*
X143313885Y-70346511D01*
X142989029Y-69860330D01*
X142674248Y-69650000D01*
X142989029Y-69439670D01*
X143313885Y-68953489D01*
X143427959Y-68380000D01*
X143313885Y-67806511D01*
X143005513Y-67345000D01*
X145097560Y-67345000D01*
X145097560Y-68855000D01*
X145141838Y-69090317D01*
X145280910Y-69306441D01*
X145493110Y-69451431D01*
X145745000Y-69502440D01*
X147255000Y-69502440D01*
X147490317Y-69458162D01*
X147706441Y-69319090D01*
X147851431Y-69106890D01*
X147890162Y-68915629D01*
X148251600Y-69277698D01*
X148762299Y-69489758D01*
X149315275Y-69490241D01*
X149826343Y-69279072D01*
X150030630Y-69075141D01*
X150784465Y-69075141D01*
X150853068Y-69316601D01*
X151373976Y-69502177D01*
X151926249Y-69474285D01*
X152306932Y-69316601D01*
X152375535Y-69075141D01*
X151580000Y-68279605D01*
X150784465Y-69075141D01*
X150030630Y-69075141D01*
X150217698Y-68888400D01*
X150303384Y-68682044D01*
X150363399Y-68826932D01*
X150604859Y-68895535D01*
X151400395Y-68100000D01*
X151759605Y-68100000D01*
X152555141Y-68895535D01*
X152796601Y-68826932D01*
X152982177Y-68306024D01*
X152954285Y-67753751D01*
X152796601Y-67373068D01*
X152555141Y-67304465D01*
X151759605Y-68100000D01*
X151400395Y-68100000D01*
X150604859Y-67304465D01*
X150363399Y-67373068D01*
X150307941Y-67528737D01*
X150219072Y-67313657D01*
X150030604Y-67124859D01*
X150784465Y-67124859D01*
X151580000Y-67920395D01*
X152375535Y-67124859D01*
X152306932Y-66883399D01*
X151786024Y-66697823D01*
X151233751Y-66725715D01*
X150853068Y-66883399D01*
X150784465Y-67124859D01*
X150030604Y-67124859D01*
X149828400Y-66922302D01*
X149317701Y-66710242D01*
X148764725Y-66709759D01*
X148253657Y-66920928D01*
X147890802Y-67283150D01*
X147858162Y-67109683D01*
X147719090Y-66893559D01*
X147506890Y-66748569D01*
X147255000Y-66697560D01*
X145745000Y-66697560D01*
X145509683Y-66741838D01*
X145293559Y-66880910D01*
X145148569Y-67093110D01*
X145097560Y-67345000D01*
X143005513Y-67345000D01*
X142989029Y-67320330D01*
X142674248Y-67110000D01*
X142989029Y-66899670D01*
X143313885Y-66413489D01*
X143427959Y-65840000D01*
X143313885Y-65266511D01*
X142989029Y-64780330D01*
X142502848Y-64455474D01*
X141929359Y-64341400D01*
X141870641Y-64341400D01*
X141297152Y-64455474D01*
X140810971Y-64780330D01*
X140630000Y-65051172D01*
X140449029Y-64780330D01*
X139962848Y-64455474D01*
X139389359Y-64341400D01*
X139330641Y-64341400D01*
X138757152Y-64455474D01*
X138270971Y-64780330D01*
X137946115Y-65266511D01*
X137832041Y-65840000D01*
X137337000Y-65840000D01*
X137337000Y-63837000D01*
X185890000Y-63837000D01*
X185890000Y-66588421D01*
X185890000Y-66588421D01*
G37*
X185890000Y-66588421D02*
X184671846Y-65370266D01*
X184579507Y-65146788D01*
X184304659Y-64871460D01*
X183945370Y-64722270D01*
X183556337Y-64721931D01*
X183196788Y-64870493D01*
X182921460Y-65145341D01*
X182772270Y-65504630D01*
X182771931Y-65893663D01*
X182920493Y-66253212D01*
X183195341Y-66528540D01*
X183420422Y-66622002D01*
X184200981Y-67402560D01*
X183525000Y-67402560D01*
X183289683Y-67446838D01*
X183073559Y-67585910D01*
X182928569Y-67798110D01*
X182909961Y-67890000D01*
X182700000Y-67890000D01*
X182409161Y-67947852D01*
X182162599Y-68112599D01*
X182133418Y-68141780D01*
X181923013Y-68141780D01*
X181864140Y-68050289D01*
X181651940Y-67905299D01*
X181400050Y-67854290D01*
X180599950Y-67854290D01*
X180364633Y-67898568D01*
X180148509Y-68037640D01*
X180077353Y-68141780D01*
X179198220Y-68141780D01*
X178907381Y-68199632D01*
X178660819Y-68364379D01*
X178112599Y-68912599D01*
X177947852Y-69159161D01*
X177890000Y-69450000D01*
X177890000Y-69585480D01*
X177599670Y-69150971D01*
X177113489Y-68826115D01*
X176540000Y-68712041D01*
X175966511Y-68826115D01*
X175480330Y-69150971D01*
X175270000Y-69465752D01*
X175059670Y-69150971D01*
X174573489Y-68826115D01*
X174000000Y-68712041D01*
X173426511Y-68826115D01*
X172940330Y-69150971D01*
X172615474Y-69637152D01*
X172501400Y-70210641D01*
X172501400Y-70269359D01*
X172566842Y-70598356D01*
X164925198Y-78240000D01*
X151300000Y-78240000D01*
X151189624Y-78261955D01*
X151329733Y-78121846D01*
X151553212Y-78029507D01*
X151828540Y-77754659D01*
X151977730Y-77395370D01*
X151978069Y-77006337D01*
X151829507Y-76646788D01*
X151554659Y-76371460D01*
X151195370Y-76222270D01*
X150806337Y-76221931D01*
X150446788Y-76370493D01*
X150171460Y-76645341D01*
X150077998Y-76870423D01*
X148370266Y-78578154D01*
X148146788Y-78670493D01*
X147871460Y-78945341D01*
X147722270Y-79304630D01*
X147721931Y-79693663D01*
X147870493Y-80053212D01*
X148145341Y-80328540D01*
X148504630Y-80477730D01*
X148893663Y-80478069D01*
X149253212Y-80329507D01*
X149528540Y-80054659D01*
X149540000Y-80027060D01*
X149540000Y-97676920D01*
X149471460Y-97745341D01*
X149322270Y-98104630D01*
X149321931Y-98493663D01*
X149470493Y-98853212D01*
X149745341Y-99128540D01*
X150104630Y-99277730D01*
X150493663Y-99278069D01*
X150853212Y-99129507D01*
X151128540Y-98854659D01*
X151277730Y-98495370D01*
X151278069Y-98106337D01*
X151224937Y-97977748D01*
X151593663Y-97978069D01*
X151953212Y-97829507D01*
X152228540Y-97554659D01*
X152377730Y-97195370D01*
X152377886Y-97015338D01*
X162214190Y-97015338D01*
X162424686Y-97524777D01*
X162814113Y-97914884D01*
X163323184Y-98126269D01*
X163874398Y-98126750D01*
X164383837Y-97916254D01*
X164773944Y-97526827D01*
X164985329Y-97017756D01*
X164985810Y-96466542D01*
X164775314Y-95957103D01*
X164385887Y-95566996D01*
X163876816Y-95355611D01*
X163325602Y-95355130D01*
X162816163Y-95565626D01*
X162426056Y-95955053D01*
X162214671Y-96464124D01*
X162214190Y-97015338D01*
X152377886Y-97015338D01*
X152378069Y-96806337D01*
X152366271Y-96777784D01*
X152693663Y-96778069D01*
X153053212Y-96629507D01*
X153328540Y-96354659D01*
X153477730Y-95995370D01*
X153478069Y-95606337D01*
X153329507Y-95246788D01*
X153260000Y-95177160D01*
X153260000Y-92877865D01*
X153493663Y-92878069D01*
X153853212Y-92729507D01*
X154128540Y-92454659D01*
X154261914Y-92133458D01*
X162214190Y-92133458D01*
X162424686Y-92642897D01*
X162814113Y-93033004D01*
X163323184Y-93244389D01*
X163874398Y-93244870D01*
X164383837Y-93034374D01*
X164773944Y-92644947D01*
X164985329Y-92135876D01*
X164985810Y-91584662D01*
X164775314Y-91075223D01*
X164385887Y-90685116D01*
X163876816Y-90473731D01*
X163325602Y-90473250D01*
X162816163Y-90683746D01*
X162426056Y-91073173D01*
X162214671Y-91582244D01*
X162214190Y-92133458D01*
X154261914Y-92133458D01*
X154277730Y-92095370D01*
X154278069Y-91706337D01*
X154225009Y-91577922D01*
X154393663Y-91578069D01*
X154753212Y-91429507D01*
X155028540Y-91154659D01*
X155177730Y-90795370D01*
X155178069Y-90406337D01*
X155029507Y-90046788D01*
X154960746Y-89977907D01*
X154969622Y-82575180D01*
X155034802Y-82510000D01*
X168039631Y-82510000D01*
X168140000Y-82599803D01*
X168140000Y-94500000D01*
X168197852Y-94790839D01*
X168362599Y-95037401D01*
X169502599Y-96177401D01*
X169749160Y-96342148D01*
X169797414Y-96351746D01*
X170040000Y-96400000D01*
X172720480Y-96400000D01*
X172940330Y-96729029D01*
X173211172Y-96910000D01*
X172940330Y-97090971D01*
X172720480Y-97420000D01*
X169303114Y-97420000D01*
X169254659Y-97371460D01*
X168895370Y-97222270D01*
X168506337Y-97221931D01*
X168146788Y-97370493D01*
X167871460Y-97645341D01*
X167722270Y-98004630D01*
X167721931Y-98393663D01*
X167870493Y-98753212D01*
X168145341Y-99028540D01*
X168504630Y-99177730D01*
X168893663Y-99178069D01*
X169253212Y-99029507D01*
X169342875Y-98940000D01*
X172720480Y-98940000D01*
X172940330Y-99269029D01*
X173211172Y-99450000D01*
X172940330Y-99630971D01*
X172720480Y-99960000D01*
X169343045Y-99960000D01*
X169254659Y-99871460D01*
X168895370Y-99722270D01*
X168506337Y-99721931D01*
X168146788Y-99870493D01*
X167871460Y-100145341D01*
X167722270Y-100504630D01*
X167721931Y-100893663D01*
X167870493Y-101253212D01*
X168145341Y-101528540D01*
X168504630Y-101677730D01*
X168893663Y-101678069D01*
X169253212Y-101529507D01*
X169302805Y-101480000D01*
X172720480Y-101480000D01*
X172940330Y-101809029D01*
X173211172Y-101990000D01*
X172940330Y-102170971D01*
X172720480Y-102500000D01*
X169283149Y-102500000D01*
X169254659Y-102471460D01*
X168895370Y-102322270D01*
X168506337Y-102321931D01*
X168146788Y-102470493D01*
X167871460Y-102745341D01*
X167722270Y-103104630D01*
X167721931Y-103493663D01*
X167870493Y-103853212D01*
X168145341Y-104128540D01*
X168504630Y-104277730D01*
X168893663Y-104278069D01*
X169253212Y-104129507D01*
X169362910Y-104020000D01*
X172720480Y-104020000D01*
X172926574Y-104328442D01*
X172901083Y-104333238D01*
X172684959Y-104472310D01*
X172539969Y-104684510D01*
X172488960Y-104936400D01*
X172488960Y-106663600D01*
X172533238Y-106898917D01*
X172672310Y-107115041D01*
X172884510Y-107260031D01*
X173136400Y-107311040D01*
X174863600Y-107311040D01*
X175098917Y-107266762D01*
X175315041Y-107127690D01*
X175460031Y-106915490D01*
X175468864Y-106871869D01*
X175480330Y-106889029D01*
X175966511Y-107213885D01*
X176448099Y-107309679D01*
X178254211Y-109115790D01*
X178254795Y-109116181D01*
X178255190Y-109116769D01*
X178398734Y-109212357D01*
X178541326Y-109307633D01*
X178542017Y-109307770D01*
X178542605Y-109308162D01*
X178711101Y-109341404D01*
X178880000Y-109375001D01*
X178880695Y-109374863D01*
X178881385Y-109374999D01*
X184588873Y-109366065D01*
X184616306Y-109360563D01*
X184644047Y-109364258D01*
X184784727Y-109326788D01*
X184927442Y-109298168D01*
X184950683Y-109282586D01*
X184977724Y-109275384D01*
X185093339Y-109186944D01*
X185214257Y-109105876D01*
X185229769Y-109082582D01*
X185251991Y-109065583D01*
X185890000Y-108340268D01*
X185890000Y-112390000D01*
X137337000Y-112390000D01*
X137337000Y-107260000D01*
X138216655Y-107260000D01*
X138330729Y-107833489D01*
X138655585Y-108319670D01*
X138669913Y-108329243D01*
X138648683Y-108333238D01*
X138432559Y-108472310D01*
X138287569Y-108684510D01*
X138236560Y-108936400D01*
X138236560Y-110663600D01*
X138280838Y-110898917D01*
X138419910Y-111115041D01*
X138632110Y-111260031D01*
X138884000Y-111311040D01*
X140916000Y-111311040D01*
X141151317Y-111266762D01*
X141367441Y-111127690D01*
X141512431Y-110915490D01*
X141563440Y-110663600D01*
X141563440Y-108936400D01*
X141519162Y-108701083D01*
X141380090Y-108484959D01*
X141167890Y-108339969D01*
X141126561Y-108331600D01*
X141144415Y-108319670D01*
X141469271Y-107833489D01*
X141583345Y-107260000D01*
X141469271Y-106686511D01*
X141144415Y-106200330D01*
X140834931Y-105993539D01*
X141250732Y-105622036D01*
X141504709Y-105094791D01*
X141507358Y-105079026D01*
X141386217Y-104847000D01*
X140027000Y-104847000D01*
X140027000Y-104867000D01*
X139773000Y-104867000D01*
X139773000Y-104847000D01*
X138413783Y-104847000D01*
X138292642Y-105079026D01*
X138295291Y-105094791D01*
X138549268Y-105622036D01*
X138965069Y-105993539D01*
X138655585Y-106200330D01*
X138330729Y-106686511D01*
X138216655Y-107260000D01*
X137337000Y-107260000D01*
X137337000Y-99640000D01*
X138216655Y-99640000D01*
X138330729Y-100213489D01*
X138655585Y-100699670D01*
X138970366Y-100910000D01*
X138655585Y-101120330D01*
X138330729Y-101606511D01*
X138216655Y-102180000D01*
X138330729Y-102753489D01*
X138655585Y-103239670D01*
X138965069Y-103446461D01*
X138549268Y-103817964D01*
X138295291Y-104345209D01*
X138292642Y-104360974D01*
X138413783Y-104593000D01*
X139773000Y-104593000D01*
X139773000Y-104573000D01*
X140027000Y-104573000D01*
X140027000Y-104593000D01*
X141386217Y-104593000D01*
X141507358Y-104360974D01*
X141504709Y-104345209D01*
X141250732Y-103817964D01*
X140834931Y-103446461D01*
X141144415Y-103239670D01*
X141469271Y-102753489D01*
X141583345Y-102180000D01*
X141469271Y-101606511D01*
X141173370Y-101163663D01*
X142501931Y-101163663D01*
X142650493Y-101523212D01*
X142721010Y-101593852D01*
X142728991Y-106517928D01*
X142661460Y-106585341D01*
X142512270Y-106944630D01*
X142511931Y-107333663D01*
X142660493Y-107693212D01*
X142935341Y-107968540D01*
X143294630Y-108117730D01*
X143540000Y-108117944D01*
X143540000Y-108676920D01*
X143471460Y-108745341D01*
X143322270Y-109104630D01*
X143321931Y-109493663D01*
X143470493Y-109853212D01*
X143745341Y-110128540D01*
X144104630Y-110277730D01*
X144493663Y-110278069D01*
X144853212Y-110129507D01*
X145128540Y-109854659D01*
X145277730Y-109495370D01*
X145278069Y-109106337D01*
X145129507Y-108746788D01*
X145060000Y-108677160D01*
X145060000Y-108127778D01*
X145393663Y-108128069D01*
X145753212Y-107979507D01*
X145758659Y-107974070D01*
X146104630Y-108117730D01*
X146493663Y-108118069D01*
X146845422Y-107972726D01*
X147194630Y-108117730D01*
X147583663Y-108118069D01*
X147943212Y-107969507D01*
X148218540Y-107694659D01*
X148367730Y-107335370D01*
X148368069Y-106946337D01*
X148219507Y-106586788D01*
X148150000Y-106517160D01*
X148150000Y-106313080D01*
X148218540Y-106244659D01*
X148367730Y-105885370D01*
X148368069Y-105496337D01*
X148219507Y-105136788D01*
X147944659Y-104861460D01*
X147585370Y-104712270D01*
X147237619Y-104711967D01*
X147277730Y-104615370D01*
X147278069Y-104226337D01*
X147129507Y-103866788D01*
X146854659Y-103591460D01*
X146495370Y-103442270D01*
X146116869Y-103441940D01*
X146177730Y-103295370D01*
X146178069Y-102906337D01*
X146029507Y-102546788D01*
X145754659Y-102271460D01*
X145395370Y-102122270D01*
X145277837Y-102122168D01*
X145278069Y-101856337D01*
X145129507Y-101496788D01*
X144854659Y-101221460D01*
X144495370Y-101072270D01*
X144457811Y-101072237D01*
X144458069Y-100776337D01*
X144309507Y-100416788D01*
X144034659Y-100141460D01*
X143675370Y-99992270D01*
X143286337Y-99991931D01*
X142926788Y-100140493D01*
X142651460Y-100415341D01*
X142502270Y-100774630D01*
X142501931Y-101163663D01*
X141173370Y-101163663D01*
X141144415Y-101120330D01*
X140829634Y-100910000D01*
X141144415Y-100699670D01*
X141469271Y-100213489D01*
X141583345Y-99640000D01*
X141469271Y-99066511D01*
X141144415Y-98580330D01*
X140658234Y-98255474D01*
X140084745Y-98141400D01*
X139715255Y-98141400D01*
X139141766Y-98255474D01*
X138655585Y-98580330D01*
X138330729Y-99066511D01*
X138216655Y-99640000D01*
X137337000Y-99640000D01*
X137337000Y-90514430D01*
X140566132Y-90514430D01*
X140730902Y-90913203D01*
X141035733Y-91218566D01*
X141434217Y-91384031D01*
X141865690Y-91384408D01*
X142264463Y-91219638D01*
X142569826Y-90914807D01*
X142735291Y-90516323D01*
X142735668Y-90084850D01*
X142570898Y-89686077D01*
X142266067Y-89380714D01*
X141867583Y-89215249D01*
X141436110Y-89214872D01*
X141037337Y-89379642D01*
X140731974Y-89684473D01*
X140566509Y-90082957D01*
X140566132Y-90514430D01*
X137337000Y-90514430D01*
X137337000Y-86115150D01*
X140566132Y-86115150D01*
X140730902Y-86513923D01*
X141035733Y-86819286D01*
X141434217Y-86984751D01*
X141865690Y-86985128D01*
X142264463Y-86820358D01*
X142569826Y-86515527D01*
X142735291Y-86117043D01*
X142735668Y-85685570D01*
X142570898Y-85286797D01*
X142266067Y-84981434D01*
X141867583Y-84815969D01*
X141436110Y-84815592D01*
X141037337Y-84980362D01*
X140731974Y-85285193D01*
X140566509Y-85683677D01*
X140566132Y-86115150D01*
X137337000Y-86115150D01*
X137337000Y-65840000D01*
X137832041Y-65840000D01*
X137946115Y-66413489D01*
X138270971Y-66899670D01*
X138585752Y-67110000D01*
X138270971Y-67320330D01*
X137946115Y-67806511D01*
X137832041Y-68380000D01*
X137946115Y-68953489D01*
X138270971Y-69439670D01*
X138585752Y-69650000D01*
X138270971Y-69860330D01*
X137946115Y-70346511D01*
X137832041Y-70920000D01*
X137946115Y-71493489D01*
X138270971Y-71979670D01*
X138585752Y-72190000D01*
X138270971Y-72400330D01*
X137946115Y-72886511D01*
X137832041Y-73460000D01*
X137946115Y-74033489D01*
X138270971Y-74519670D01*
X138585752Y-74730000D01*
X138270971Y-74940330D01*
X137946115Y-75426511D01*
X137832041Y-76000000D01*
X137946115Y-76573489D01*
X138270971Y-77059670D01*
X138757152Y-77384526D01*
X139330641Y-77498600D01*
X139389359Y-77498600D01*
X139962848Y-77384526D01*
X140428442Y-77073426D01*
X140433238Y-77098917D01*
X140572310Y-77315041D01*
X140784510Y-77460031D01*
X141036400Y-77511040D01*
X142763600Y-77511040D01*
X142998917Y-77466762D01*
X143215041Y-77327690D01*
X143360031Y-77115490D01*
X143411040Y-76863600D01*
X143411040Y-75136400D01*
X143366762Y-74901083D01*
X143227690Y-74684959D01*
X143015490Y-74539969D01*
X142971869Y-74531136D01*
X142989029Y-74519670D01*
X143313885Y-74033489D01*
X143427959Y-73460000D01*
X143313885Y-72886511D01*
X142989029Y-72400330D01*
X142674248Y-72190000D01*
X142989029Y-71979670D01*
X143313885Y-71493489D01*
X143427959Y-70920000D01*
X143313885Y-70346511D01*
X142989029Y-69860330D01*
X142674248Y-69650000D01*
X142989029Y-69439670D01*
X143313885Y-68953489D01*
X143427959Y-68380000D01*
X143313885Y-67806511D01*
X143005513Y-67345000D01*
X145097560Y-67345000D01*
X145097560Y-68855000D01*
X145141838Y-69090317D01*
X145280910Y-69306441D01*
X145493110Y-69451431D01*
X145745000Y-69502440D01*
X147255000Y-69502440D01*
X147490317Y-69458162D01*
X147706441Y-69319090D01*
X147851431Y-69106890D01*
X147890162Y-68915629D01*
X148251600Y-69277698D01*
X148762299Y-69489758D01*
X149315275Y-69490241D01*
X149826343Y-69279072D01*
X150030630Y-69075141D01*
X150784465Y-69075141D01*
X150853068Y-69316601D01*
X151373976Y-69502177D01*
X151926249Y-69474285D01*
X152306932Y-69316601D01*
X152375535Y-69075141D01*
X151580000Y-68279605D01*
X150784465Y-69075141D01*
X150030630Y-69075141D01*
X150217698Y-68888400D01*
X150303384Y-68682044D01*
X150363399Y-68826932D01*
X150604859Y-68895535D01*
X151400395Y-68100000D01*
X151759605Y-68100000D01*
X152555141Y-68895535D01*
X152796601Y-68826932D01*
X152982177Y-68306024D01*
X152954285Y-67753751D01*
X152796601Y-67373068D01*
X152555141Y-67304465D01*
X151759605Y-68100000D01*
X151400395Y-68100000D01*
X150604859Y-67304465D01*
X150363399Y-67373068D01*
X150307941Y-67528737D01*
X150219072Y-67313657D01*
X150030604Y-67124859D01*
X150784465Y-67124859D01*
X151580000Y-67920395D01*
X152375535Y-67124859D01*
X152306932Y-66883399D01*
X151786024Y-66697823D01*
X151233751Y-66725715D01*
X150853068Y-66883399D01*
X150784465Y-67124859D01*
X150030604Y-67124859D01*
X149828400Y-66922302D01*
X149317701Y-66710242D01*
X148764725Y-66709759D01*
X148253657Y-66920928D01*
X147890802Y-67283150D01*
X147858162Y-67109683D01*
X147719090Y-66893559D01*
X147506890Y-66748569D01*
X147255000Y-66697560D01*
X145745000Y-66697560D01*
X145509683Y-66741838D01*
X145293559Y-66880910D01*
X145148569Y-67093110D01*
X145097560Y-67345000D01*
X143005513Y-67345000D01*
X142989029Y-67320330D01*
X142674248Y-67110000D01*
X142989029Y-66899670D01*
X143313885Y-66413489D01*
X143427959Y-65840000D01*
X143313885Y-65266511D01*
X142989029Y-64780330D01*
X142502848Y-64455474D01*
X141929359Y-64341400D01*
X141870641Y-64341400D01*
X141297152Y-64455474D01*
X140810971Y-64780330D01*
X140630000Y-65051172D01*
X140449029Y-64780330D01*
X139962848Y-64455474D01*
X139389359Y-64341400D01*
X139330641Y-64341400D01*
X138757152Y-64455474D01*
X138270971Y-64780330D01*
X137946115Y-65266511D01*
X137832041Y-65840000D01*
X137337000Y-65840000D01*
X137337000Y-63837000D01*
X185890000Y-63837000D01*
X185890000Y-66588421D01*
G36*
X179102510Y-102228072D02*
X179102510Y-102600810D01*
X179146788Y-102836127D01*
X179285860Y-103052251D01*
X179373918Y-103112418D01*
X179298559Y-103160910D01*
X179153569Y-103373110D01*
X179102560Y-103625000D01*
X179102560Y-104375000D01*
X179146838Y-104610317D01*
X179285910Y-104826441D01*
X179498110Y-104971431D01*
X179750000Y-105022440D01*
X180950000Y-105022440D01*
X181185317Y-104978162D01*
X181299978Y-104904380D01*
X181398110Y-104971431D01*
X181650000Y-105022440D01*
X182850000Y-105022440D01*
X183085317Y-104978162D01*
X183230095Y-104885000D01*
X184381312Y-104885000D01*
X184604630Y-104977730D01*
X184715000Y-104977826D01*
X184715000Y-106996153D01*
X184186748Y-107596692D01*
X179246005Y-107604426D01*
X177944419Y-106302839D01*
X178038600Y-105829359D01*
X178038600Y-105770641D01*
X177924526Y-105197152D01*
X177599670Y-104710971D01*
X177328839Y-104530008D01*
X177746821Y-104148490D01*
X177994968Y-103619027D01*
X177874469Y-103387000D01*
X176667000Y-103387000D01*
X176667000Y-103407000D01*
X176413000Y-103407000D01*
X176413000Y-103387000D01*
X176393000Y-103387000D01*
X176393000Y-103133000D01*
X176413000Y-103133000D01*
X176413000Y-103113000D01*
X176667000Y-103113000D01*
X176667000Y-103133000D01*
X177874469Y-103133000D01*
X177994968Y-102900973D01*
X177746821Y-102371510D01*
X177328839Y-101989992D01*
X177599670Y-101809029D01*
X177819520Y-101480000D01*
X178354438Y-101480000D01*
X179102510Y-102228072D01*
X179102510Y-102228072D01*
G37*
X179102510Y-102228072D02*
X179102510Y-102600810D01*
X179146788Y-102836127D01*
X179285860Y-103052251D01*
X179373918Y-103112418D01*
X179298559Y-103160910D01*
X179153569Y-103373110D01*
X179102560Y-103625000D01*
X179102560Y-104375000D01*
X179146838Y-104610317D01*
X179285910Y-104826441D01*
X179498110Y-104971431D01*
X179750000Y-105022440D01*
X180950000Y-105022440D01*
X181185317Y-104978162D01*
X181299978Y-104904380D01*
X181398110Y-104971431D01*
X181650000Y-105022440D01*
X182850000Y-105022440D01*
X183085317Y-104978162D01*
X183230095Y-104885000D01*
X184381312Y-104885000D01*
X184604630Y-104977730D01*
X184715000Y-104977826D01*
X184715000Y-106996153D01*
X184186748Y-107596692D01*
X179246005Y-107604426D01*
X177944419Y-106302839D01*
X178038600Y-105829359D01*
X178038600Y-105770641D01*
X177924526Y-105197152D01*
X177599670Y-104710971D01*
X177328839Y-104530008D01*
X177746821Y-104148490D01*
X177994968Y-103619027D01*
X177874469Y-103387000D01*
X176667000Y-103387000D01*
X176667000Y-103407000D01*
X176413000Y-103407000D01*
X176413000Y-103387000D01*
X176393000Y-103387000D01*
X176393000Y-103133000D01*
X176413000Y-103133000D01*
X176413000Y-103113000D01*
X176667000Y-103113000D01*
X176667000Y-103133000D01*
X177874469Y-103133000D01*
X177994968Y-102900973D01*
X177746821Y-102371510D01*
X177328839Y-101989992D01*
X177599670Y-101809029D01*
X177819520Y-101480000D01*
X178354438Y-101480000D01*
X179102510Y-102228072D01*
G36*
X179002510Y-83628072D02*
X179002510Y-84000810D01*
X179046788Y-84236127D01*
X179185860Y-84452251D01*
X179273918Y-84512418D01*
X179198559Y-84560910D01*
X179053569Y-84773110D01*
X179002560Y-85025000D01*
X179002560Y-85775000D01*
X179046838Y-86010317D01*
X179185910Y-86226441D01*
X179398110Y-86371431D01*
X179650000Y-86422440D01*
X180850000Y-86422440D01*
X181085317Y-86378162D01*
X181199978Y-86304380D01*
X181298110Y-86371431D01*
X181550000Y-86422440D01*
X182750000Y-86422440D01*
X182985317Y-86378162D01*
X183130095Y-86285000D01*
X184381312Y-86285000D01*
X184604630Y-86377730D01*
X184715000Y-86377826D01*
X184715000Y-91713772D01*
X184626890Y-91653569D01*
X184375000Y-91602560D01*
X183625000Y-91602560D01*
X183389683Y-91646838D01*
X183173559Y-91785910D01*
X183028569Y-91998110D01*
X183009961Y-92090000D01*
X182750000Y-92090000D01*
X182459161Y-92147852D01*
X182212599Y-92312599D01*
X182183418Y-92341780D01*
X182023013Y-92341780D01*
X181964140Y-92250289D01*
X181751940Y-92105299D01*
X181500050Y-92054290D01*
X180699950Y-92054290D01*
X180464633Y-92098568D01*
X180248509Y-92237640D01*
X180177353Y-92341780D01*
X180066582Y-92341780D01*
X179037401Y-91312599D01*
X178790839Y-91147852D01*
X178500000Y-91090000D01*
X177939016Y-91090000D01*
X178038600Y-90589359D01*
X178038600Y-90530641D01*
X177924526Y-89957152D01*
X177599670Y-89470971D01*
X177328839Y-89290008D01*
X177746821Y-88908490D01*
X177994968Y-88379027D01*
X177874469Y-88147000D01*
X176667000Y-88147000D01*
X176667000Y-88167000D01*
X176413000Y-88167000D01*
X176413000Y-88147000D01*
X176393000Y-88147000D01*
X176393000Y-87893000D01*
X176413000Y-87893000D01*
X176413000Y-87873000D01*
X176667000Y-87873000D01*
X176667000Y-87893000D01*
X177874469Y-87893000D01*
X177994968Y-87660973D01*
X177746821Y-87131510D01*
X177328839Y-86749992D01*
X177599670Y-86569029D01*
X177924526Y-86082848D01*
X178038600Y-85509359D01*
X178038600Y-85450641D01*
X177924526Y-84877152D01*
X177599670Y-84390971D01*
X177328828Y-84210000D01*
X177599670Y-84029029D01*
X177924526Y-83542848D01*
X178038600Y-82969359D01*
X178038600Y-82910641D01*
X177977399Y-82602961D01*
X179002510Y-83628072D01*
X179002510Y-83628072D01*
G37*
X179002510Y-83628072D02*
X179002510Y-84000810D01*
X179046788Y-84236127D01*
X179185860Y-84452251D01*
X179273918Y-84512418D01*
X179198559Y-84560910D01*
X179053569Y-84773110D01*
X179002560Y-85025000D01*
X179002560Y-85775000D01*
X179046838Y-86010317D01*
X179185910Y-86226441D01*
X179398110Y-86371431D01*
X179650000Y-86422440D01*
X180850000Y-86422440D01*
X181085317Y-86378162D01*
X181199978Y-86304380D01*
X181298110Y-86371431D01*
X181550000Y-86422440D01*
X182750000Y-86422440D01*
X182985317Y-86378162D01*
X183130095Y-86285000D01*
X184381312Y-86285000D01*
X184604630Y-86377730D01*
X184715000Y-86377826D01*
X184715000Y-91713772D01*
X184626890Y-91653569D01*
X184375000Y-91602560D01*
X183625000Y-91602560D01*
X183389683Y-91646838D01*
X183173559Y-91785910D01*
X183028569Y-91998110D01*
X183009961Y-92090000D01*
X182750000Y-92090000D01*
X182459161Y-92147852D01*
X182212599Y-92312599D01*
X182183418Y-92341780D01*
X182023013Y-92341780D01*
X181964140Y-92250289D01*
X181751940Y-92105299D01*
X181500050Y-92054290D01*
X180699950Y-92054290D01*
X180464633Y-92098568D01*
X180248509Y-92237640D01*
X180177353Y-92341780D01*
X180066582Y-92341780D01*
X179037401Y-91312599D01*
X178790839Y-91147852D01*
X178500000Y-91090000D01*
X177939016Y-91090000D01*
X178038600Y-90589359D01*
X178038600Y-90530641D01*
X177924526Y-89957152D01*
X177599670Y-89470971D01*
X177328839Y-89290008D01*
X177746821Y-88908490D01*
X177994968Y-88379027D01*
X177874469Y-88147000D01*
X176667000Y-88147000D01*
X176667000Y-88167000D01*
X176413000Y-88167000D01*
X176413000Y-88147000D01*
X176393000Y-88147000D01*
X176393000Y-87893000D01*
X176413000Y-87893000D01*
X176413000Y-87873000D01*
X176667000Y-87873000D01*
X176667000Y-87893000D01*
X177874469Y-87893000D01*
X177994968Y-87660973D01*
X177746821Y-87131510D01*
X177328839Y-86749992D01*
X177599670Y-86569029D01*
X177924526Y-86082848D01*
X178038600Y-85509359D01*
X178038600Y-85450641D01*
X177924526Y-84877152D01*
X177599670Y-84390971D01*
X177328828Y-84210000D01*
X177599670Y-84029029D01*
X177924526Y-83542848D01*
X178038600Y-82969359D01*
X178038600Y-82910641D01*
X177977399Y-82602961D01*
X179002510Y-83628072D01*
G36*
X176667000Y-72653000D02*
X176687000Y-72653000D01*
X176687000Y-72907000D01*
X176667000Y-72907000D01*
X176667000Y-72927000D01*
X176413000Y-72927000D01*
X176413000Y-72907000D01*
X176393000Y-72907000D01*
X176393000Y-72653000D01*
X176413000Y-72653000D01*
X176413000Y-72633000D01*
X176667000Y-72633000D01*
X176667000Y-72653000D01*
X176667000Y-72653000D01*
G37*
X176667000Y-72653000D02*
X176687000Y-72653000D01*
X176687000Y-72907000D01*
X176667000Y-72907000D01*
X176667000Y-72927000D01*
X176413000Y-72927000D01*
X176413000Y-72907000D01*
X176393000Y-72907000D01*
X176393000Y-72653000D01*
X176413000Y-72653000D01*
X176413000Y-72633000D01*
X176667000Y-72633000D01*
X176667000Y-72653000D01*
M02*
