G04 #@! TF.FileFunction,Legend,Top*
%FSLAX46Y46*%
G04 Gerber Fmt 4.6, Leading zero omitted, Abs format (unit mm)*
G04 Created by KiCad (PCBNEW 4.0.0-rc1-stable) date 06/12/2015 04:25:02 p.m.*
%MOMM*%
G01*
G04 APERTURE LIST*
%ADD10C,0.100000*%
%ADD11C,0.300000*%
%ADD12C,0.150000*%
%ADD13C,0.254000*%
G04 APERTURE END LIST*
D10*
D11*
X141113143Y-78172571D02*
X141613143Y-79672571D01*
X142113143Y-78172571D01*
X142541714Y-79601143D02*
X142684571Y-79672571D01*
X142970286Y-79672571D01*
X143113143Y-79601143D01*
X143184571Y-79458286D01*
X143184571Y-79386857D01*
X143113143Y-79244000D01*
X142970286Y-79172571D01*
X142756000Y-79172571D01*
X142613143Y-79101143D01*
X142541714Y-78958286D01*
X142541714Y-78886857D01*
X142613143Y-78744000D01*
X142756000Y-78672571D01*
X142970286Y-78672571D01*
X143113143Y-78744000D01*
X144398857Y-79601143D02*
X144256000Y-79672571D01*
X143970286Y-79672571D01*
X143827429Y-79601143D01*
X143756000Y-79458286D01*
X143756000Y-78886857D01*
X143827429Y-78744000D01*
X143970286Y-78672571D01*
X144256000Y-78672571D01*
X144398857Y-78744000D01*
X144470286Y-78886857D01*
X144470286Y-79029714D01*
X143756000Y-79172571D01*
X145327429Y-79672571D02*
X145184571Y-79601143D01*
X145113143Y-79458286D01*
X145113143Y-78172571D01*
D12*
X176601429Y-110759714D02*
X176601429Y-109997809D01*
X176982381Y-110378761D02*
X176220476Y-110378761D01*
X175982381Y-109045428D02*
X175982381Y-109521619D01*
X176458571Y-109569238D01*
X176410952Y-109521619D01*
X176363333Y-109426381D01*
X176363333Y-109188285D01*
X176410952Y-109093047D01*
X176458571Y-109045428D01*
X176553810Y-108997809D01*
X176791905Y-108997809D01*
X176887143Y-109045428D01*
X176934762Y-109093047D01*
X176982381Y-109188285D01*
X176982381Y-109426381D01*
X176934762Y-109521619D01*
X176887143Y-109569238D01*
X175982381Y-108712095D02*
X176982381Y-108378762D01*
X175982381Y-108045428D01*
X173510000Y-111506190D02*
X173462381Y-111601428D01*
X173462381Y-111744285D01*
X173510000Y-111887143D01*
X173605238Y-111982381D01*
X173700476Y-112030000D01*
X173890952Y-112077619D01*
X174033810Y-112077619D01*
X174224286Y-112030000D01*
X174319524Y-111982381D01*
X174414762Y-111887143D01*
X174462381Y-111744285D01*
X174462381Y-111649047D01*
X174414762Y-111506190D01*
X174367143Y-111458571D01*
X174033810Y-111458571D01*
X174033810Y-111649047D01*
X174462381Y-111030000D02*
X173462381Y-111030000D01*
X173462381Y-110649047D01*
X173510000Y-110553809D01*
X173557619Y-110506190D01*
X173652857Y-110458571D01*
X173795714Y-110458571D01*
X173890952Y-110506190D01*
X173938571Y-110553809D01*
X173986190Y-110649047D01*
X173986190Y-111030000D01*
X174462381Y-110030000D02*
X173462381Y-110030000D01*
X173462381Y-109363334D02*
X173462381Y-109172857D01*
X173510000Y-109077619D01*
X173605238Y-108982381D01*
X173795714Y-108934762D01*
X174129048Y-108934762D01*
X174319524Y-108982381D01*
X174414762Y-109077619D01*
X174462381Y-109172857D01*
X174462381Y-109363334D01*
X174414762Y-109458572D01*
X174319524Y-109553810D01*
X174129048Y-109601429D01*
X173795714Y-109601429D01*
X173605238Y-109553810D01*
X173510000Y-109458572D01*
X173462381Y-109363334D01*
X173462381Y-108315715D02*
X173462381Y-108220476D01*
X173510000Y-108125238D01*
X173557619Y-108077619D01*
X173652857Y-108030000D01*
X173843333Y-107982381D01*
X174081429Y-107982381D01*
X174271905Y-108030000D01*
X174367143Y-108077619D01*
X174414762Y-108125238D01*
X174462381Y-108220476D01*
X174462381Y-108315715D01*
X174414762Y-108410953D01*
X174367143Y-108458572D01*
X174271905Y-108506191D01*
X174081429Y-108553810D01*
X173843333Y-108553810D01*
X173652857Y-108506191D01*
X173557619Y-108458572D01*
X173510000Y-108410953D01*
X173462381Y-108315715D01*
D11*
X170350000Y-89510000D02*
X170278571Y-89652857D01*
X170278571Y-89867143D01*
X170350000Y-90081428D01*
X170492857Y-90224286D01*
X170635714Y-90295714D01*
X170921429Y-90367143D01*
X171135714Y-90367143D01*
X171421429Y-90295714D01*
X171564286Y-90224286D01*
X171707143Y-90081428D01*
X171778571Y-89867143D01*
X171778571Y-89724286D01*
X171707143Y-89510000D01*
X171635714Y-89438571D01*
X171135714Y-89438571D01*
X171135714Y-89724286D01*
X171778571Y-88795714D02*
X170278571Y-88795714D01*
X170278571Y-88224286D01*
X170350000Y-88081428D01*
X170421429Y-88010000D01*
X170564286Y-87938571D01*
X170778571Y-87938571D01*
X170921429Y-88010000D01*
X170992857Y-88081428D01*
X171064286Y-88224286D01*
X171064286Y-88795714D01*
X171778571Y-87295714D02*
X170278571Y-87295714D01*
X170278571Y-86295714D02*
X170278571Y-86010000D01*
X170350000Y-85867142D01*
X170492857Y-85724285D01*
X170778571Y-85652857D01*
X171278571Y-85652857D01*
X171564286Y-85724285D01*
X171707143Y-85867142D01*
X171778571Y-86010000D01*
X171778571Y-86295714D01*
X171707143Y-86438571D01*
X171564286Y-86581428D01*
X171278571Y-86652857D01*
X170778571Y-86652857D01*
X170492857Y-86581428D01*
X170350000Y-86438571D01*
X170278571Y-86295714D01*
D12*
X159100000Y-92250000D02*
X159100000Y-91550000D01*
X160300000Y-91550000D02*
X160300000Y-92250000D01*
X160300000Y-96350000D02*
X160300000Y-97050000D01*
X159100000Y-97050000D02*
X159100000Y-96350000D01*
X145750000Y-95600000D02*
X145050000Y-95600000D01*
X145050000Y-94400000D02*
X145750000Y-94400000D01*
X155150000Y-87300000D02*
X154450000Y-87300000D01*
X154450000Y-86100000D02*
X155150000Y-86100000D01*
X156900000Y-68350000D02*
X156900000Y-69050000D01*
X155700000Y-69050000D02*
X155700000Y-68350000D01*
X155750000Y-75100000D02*
X155050000Y-75100000D01*
X155050000Y-73900000D02*
X155750000Y-73900000D01*
X165950000Y-73300000D02*
X165250000Y-73300000D01*
X165250000Y-72100000D02*
X165950000Y-72100000D01*
X141450000Y-109800000D02*
X141450000Y-111350000D01*
X141450000Y-111350000D02*
X138350000Y-111350000D01*
X138350000Y-111350000D02*
X138350000Y-109800000D01*
X138630000Y-108530000D02*
X138630000Y-98370000D01*
X138630000Y-98370000D02*
X141170000Y-98370000D01*
X141170000Y-98370000D02*
X141170000Y-108530000D01*
X138630000Y-108530000D02*
X141170000Y-108530000D01*
X137200820Y-84249360D02*
X137200820Y-91950640D01*
X136200060Y-84249360D02*
X136200060Y-91950640D01*
X136200060Y-91950640D02*
X145399940Y-91950640D01*
X145399940Y-91950640D02*
X145399940Y-84249360D01*
X145399940Y-84249360D02*
X136200060Y-84249360D01*
X186640000Y-89290000D02*
X177810000Y-89290000D01*
X186640000Y-91830000D02*
X186640000Y-89290000D01*
X177810000Y-91830000D02*
X177810000Y-89290000D01*
X177810000Y-89290000D02*
X186640000Y-89290000D01*
X177810000Y-86750000D02*
X186640000Y-86750000D01*
X177810000Y-89290000D02*
X177810000Y-86750000D01*
X186640000Y-89290000D02*
X186640000Y-86750000D01*
X186640000Y-86750000D02*
X177810000Y-86750000D01*
X186640000Y-84210000D02*
X177810000Y-84210000D01*
X186640000Y-86750000D02*
X186640000Y-84210000D01*
X177810000Y-86750000D02*
X177810000Y-84210000D01*
X177810000Y-84210000D02*
X186640000Y-84210000D01*
X177810000Y-81670000D02*
X186640000Y-81670000D01*
X177810000Y-84210000D02*
X177810000Y-81670000D01*
X186640000Y-84210000D02*
X186640000Y-81670000D01*
X186640000Y-81670000D02*
X177810000Y-81670000D01*
X177810000Y-79130000D02*
X186640000Y-79130000D01*
X177810000Y-81670000D02*
X177810000Y-79130000D01*
X186640000Y-81670000D02*
X186640000Y-79130000D01*
X186640000Y-79130000D02*
X177810000Y-79130000D01*
X186640000Y-76590000D02*
X177810000Y-76590000D01*
X186640000Y-79130000D02*
X186640000Y-76590000D01*
X177810000Y-79130000D02*
X177810000Y-76590000D01*
X177810000Y-76590000D02*
X186640000Y-76590000D01*
X177810000Y-74050000D02*
X186640000Y-74050000D01*
X177810000Y-76590000D02*
X177810000Y-74050000D01*
X186640000Y-76590000D02*
X186640000Y-74050000D01*
X186640000Y-74050000D02*
X177810000Y-74050000D01*
X186640000Y-71510000D02*
X177810000Y-71510000D01*
X186640000Y-74050000D02*
X186640000Y-71510000D01*
X177810000Y-74050000D02*
X177810000Y-71510000D01*
X177810000Y-71510000D02*
X186640000Y-71510000D01*
X177810000Y-68970000D02*
X186640000Y-68970000D01*
X177810000Y-71510000D02*
X177810000Y-68970000D01*
X186640000Y-71510000D02*
X186640000Y-68970000D01*
X186640000Y-68970000D02*
X177810000Y-68970000D01*
X186640000Y-91830000D02*
X177810000Y-91830000D01*
X186640000Y-94370000D02*
X186640000Y-91830000D01*
X177810000Y-94370000D02*
X177810000Y-91830000D01*
X177810000Y-91830000D02*
X186640000Y-91830000D01*
X177810000Y-94370000D02*
X186640000Y-94370000D01*
X177810000Y-96910000D02*
X177810000Y-94370000D01*
X186640000Y-96910000D02*
X186640000Y-94370000D01*
X186640000Y-94370000D02*
X177810000Y-94370000D01*
X186640000Y-96910000D02*
X177810000Y-96910000D01*
X186640000Y-99450000D02*
X186640000Y-96910000D01*
X177810000Y-99450000D02*
X177810000Y-96910000D01*
X177810000Y-96910000D02*
X186640000Y-96910000D01*
X177810000Y-99450000D02*
X186640000Y-99450000D01*
X177810000Y-101990000D02*
X177810000Y-99450000D01*
X186640000Y-101990000D02*
X186640000Y-99450000D01*
X186640000Y-99450000D02*
X177810000Y-99450000D01*
X186640000Y-101990000D02*
X177810000Y-101990000D01*
X186640000Y-104530000D02*
X186640000Y-101990000D01*
X177810000Y-104530000D02*
X177810000Y-101990000D01*
X177810000Y-101990000D02*
X186640000Y-101990000D01*
X177810000Y-104530000D02*
X186640000Y-104530000D01*
X177810000Y-107070000D02*
X177810000Y-104530000D01*
X172850000Y-105800000D02*
X172850000Y-107350000D01*
X172850000Y-107350000D02*
X174000000Y-107350000D01*
X177810000Y-107070000D02*
X186640000Y-107070000D01*
X186640000Y-107070000D02*
X186640000Y-104530000D01*
X186640000Y-104530000D02*
X177810000Y-104530000D01*
X138090000Y-77270000D02*
X138090000Y-64570000D01*
X138090000Y-64570000D02*
X143170000Y-64570000D01*
X143170000Y-64570000D02*
X143170000Y-74730000D01*
X138090000Y-77270000D02*
X140630000Y-77270000D01*
X141900000Y-77550000D02*
X143450000Y-77550000D01*
X140630000Y-77270000D02*
X140630000Y-74730000D01*
X140630000Y-74730000D02*
X143170000Y-74730000D01*
X143450000Y-77550000D02*
X143450000Y-76000000D01*
X158900000Y-68350000D02*
X158900000Y-69050000D01*
X157700000Y-69050000D02*
X157700000Y-68350000D01*
X146550000Y-76000000D02*
X147250000Y-76000000D01*
X147250000Y-77200000D02*
X146550000Y-77200000D01*
X146550000Y-74200000D02*
X147250000Y-74200000D01*
X147250000Y-75400000D02*
X146550000Y-75400000D01*
X155750000Y-73200000D02*
X155050000Y-73200000D01*
X155050000Y-72000000D02*
X155750000Y-72000000D01*
X146550000Y-72400000D02*
X147250000Y-72400000D01*
X147250000Y-73600000D02*
X146550000Y-73600000D01*
X146550000Y-70600000D02*
X147250000Y-70600000D01*
X147250000Y-71800000D02*
X146550000Y-71800000D01*
X155750000Y-77400000D02*
X155050000Y-77400000D01*
X155050000Y-76200000D02*
X155750000Y-76200000D01*
X144275000Y-64540000D02*
X153805000Y-64540000D01*
X153805000Y-64540000D02*
X153805000Y-69370000D01*
X153805000Y-68990000D02*
X144275000Y-68990000D01*
X144275000Y-64540000D02*
X144275000Y-69370000D01*
X154867000Y-88137000D02*
X154867000Y-105790000D01*
X149533000Y-105790000D02*
X149533000Y-88010000D01*
X154867000Y-88010000D02*
X149533000Y-88010000D01*
X149533000Y-105790000D02*
X154867000Y-105790000D01*
X151565000Y-105790000D02*
X151565000Y-104520000D01*
X151565000Y-104520000D02*
X152835000Y-104520000D01*
X152835000Y-104520000D02*
X152835000Y-105790000D01*
X162599240Y-89601000D02*
X163000560Y-89400340D01*
X163000560Y-89400340D02*
X163600000Y-89298740D01*
X163600000Y-89298740D02*
X164100380Y-89400340D01*
X164100380Y-89400340D02*
X164798880Y-89799120D01*
X164798880Y-89799120D02*
X165200200Y-90401100D01*
X165200200Y-90401100D02*
X165400860Y-91000540D01*
X165400860Y-91000540D02*
X165400860Y-97599460D01*
X165400860Y-97599460D02*
X165200200Y-98300500D01*
X165200200Y-98300500D02*
X164900480Y-98699280D01*
X164900480Y-98699280D02*
X164400100Y-99100600D01*
X164400100Y-99100600D02*
X163800660Y-99301260D01*
X163800660Y-99301260D02*
X163300280Y-99301260D01*
X163300280Y-99301260D02*
X162799900Y-99100600D01*
X162799900Y-99100600D02*
X162200460Y-98600220D01*
X162200460Y-98600220D02*
X161900740Y-98099840D01*
X161900740Y-98099840D02*
X161799140Y-97599460D01*
X161799140Y-97500400D02*
X161799140Y-90898940D01*
X161799140Y-90898940D02*
X161900740Y-90500160D01*
X161900740Y-90500160D02*
X162200460Y-89999780D01*
X162200460Y-89999780D02*
X162700840Y-89499400D01*
X161270820Y-97490240D02*
X161319080Y-97949980D01*
X161319080Y-97949980D02*
X161430840Y-98348760D01*
X161430840Y-98348760D02*
X161649280Y-98780560D01*
X161649280Y-98780560D02*
X161880420Y-99070120D01*
X161880420Y-99070120D02*
X162230940Y-99400320D01*
X162230940Y-99400320D02*
X162769420Y-99689880D01*
X162769420Y-99689880D02*
X163368860Y-99819420D01*
X163368860Y-99819420D02*
X163879400Y-99819420D01*
X163879400Y-99819420D02*
X164580440Y-99649240D01*
X164580440Y-99649240D02*
X165169720Y-99250460D01*
X165169720Y-99250460D02*
X165540560Y-98790720D01*
X165540560Y-98790720D02*
X165748840Y-98369080D01*
X165748840Y-98369080D02*
X165908860Y-97919500D01*
X165908860Y-97919500D02*
X165939340Y-97480080D01*
X165720900Y-90139480D02*
X165499920Y-89761020D01*
X165499920Y-89761020D02*
X165220520Y-89440980D01*
X165220520Y-89440980D02*
X164890320Y-89189520D01*
X164890320Y-89189520D02*
X164339140Y-88889800D01*
X164339140Y-88889800D02*
X163869240Y-88780580D01*
X163869240Y-88780580D02*
X163409500Y-88760260D01*
X163409500Y-88760260D02*
X162949760Y-88849160D01*
X162949760Y-88849160D02*
X162500180Y-89039660D01*
X162500180Y-89039660D02*
X162030280Y-89400340D01*
X162030280Y-89400340D02*
X161710240Y-89750860D01*
X161710240Y-89750860D02*
X161479100Y-90139480D01*
X161479100Y-90139480D02*
X161339400Y-90568740D01*
X161339400Y-90568740D02*
X161270820Y-91010700D01*
X165929180Y-97500400D02*
X165929180Y-91048800D01*
X165929180Y-91048800D02*
X165891080Y-90629700D01*
X165891080Y-90629700D02*
X165720900Y-90139480D01*
X161270820Y-97500400D02*
X161270820Y-91048800D01*
X160057143Y-89066666D02*
X160104762Y-89114285D01*
X160152381Y-89257142D01*
X160152381Y-89352380D01*
X160104762Y-89495238D01*
X160009524Y-89590476D01*
X159914286Y-89638095D01*
X159723810Y-89685714D01*
X159580952Y-89685714D01*
X159390476Y-89638095D01*
X159295238Y-89590476D01*
X159200000Y-89495238D01*
X159152381Y-89352380D01*
X159152381Y-89257142D01*
X159200000Y-89114285D01*
X159247619Y-89066666D01*
X160152381Y-88114285D02*
X160152381Y-88685714D01*
X160152381Y-88400000D02*
X159152381Y-88400000D01*
X159295238Y-88495238D01*
X159390476Y-88590476D01*
X159438095Y-88685714D01*
X160157143Y-100066666D02*
X160204762Y-100114285D01*
X160252381Y-100257142D01*
X160252381Y-100352380D01*
X160204762Y-100495238D01*
X160109524Y-100590476D01*
X160014286Y-100638095D01*
X159823810Y-100685714D01*
X159680952Y-100685714D01*
X159490476Y-100638095D01*
X159395238Y-100590476D01*
X159300000Y-100495238D01*
X159252381Y-100352380D01*
X159252381Y-100257142D01*
X159300000Y-100114285D01*
X159347619Y-100066666D01*
X159347619Y-99685714D02*
X159300000Y-99638095D01*
X159252381Y-99542857D01*
X159252381Y-99304761D01*
X159300000Y-99209523D01*
X159347619Y-99161904D01*
X159442857Y-99114285D01*
X159538095Y-99114285D01*
X159680952Y-99161904D01*
X160252381Y-99733333D01*
X160252381Y-99114285D01*
X145233334Y-97257143D02*
X145185715Y-97304762D01*
X145042858Y-97352381D01*
X144947620Y-97352381D01*
X144804762Y-97304762D01*
X144709524Y-97209524D01*
X144661905Y-97114286D01*
X144614286Y-96923810D01*
X144614286Y-96780952D01*
X144661905Y-96590476D01*
X144709524Y-96495238D01*
X144804762Y-96400000D01*
X144947620Y-96352381D01*
X145042858Y-96352381D01*
X145185715Y-96400000D01*
X145233334Y-96447619D01*
X145566667Y-96352381D02*
X146185715Y-96352381D01*
X145852381Y-96733333D01*
X145995239Y-96733333D01*
X146090477Y-96780952D01*
X146138096Y-96828571D01*
X146185715Y-96923810D01*
X146185715Y-97161905D01*
X146138096Y-97257143D01*
X146090477Y-97304762D01*
X145995239Y-97352381D01*
X145709524Y-97352381D01*
X145614286Y-97304762D01*
X145566667Y-97257143D01*
X151533334Y-87157143D02*
X151485715Y-87204762D01*
X151342858Y-87252381D01*
X151247620Y-87252381D01*
X151104762Y-87204762D01*
X151009524Y-87109524D01*
X150961905Y-87014286D01*
X150914286Y-86823810D01*
X150914286Y-86680952D01*
X150961905Y-86490476D01*
X151009524Y-86395238D01*
X151104762Y-86300000D01*
X151247620Y-86252381D01*
X151342858Y-86252381D01*
X151485715Y-86300000D01*
X151533334Y-86347619D01*
X152390477Y-86585714D02*
X152390477Y-87252381D01*
X152152381Y-86204762D02*
X151914286Y-86919048D01*
X152533334Y-86919048D01*
X156657143Y-65766666D02*
X156704762Y-65814285D01*
X156752381Y-65957142D01*
X156752381Y-66052380D01*
X156704762Y-66195238D01*
X156609524Y-66290476D01*
X156514286Y-66338095D01*
X156323810Y-66385714D01*
X156180952Y-66385714D01*
X155990476Y-66338095D01*
X155895238Y-66290476D01*
X155800000Y-66195238D01*
X155752381Y-66052380D01*
X155752381Y-65957142D01*
X155800000Y-65814285D01*
X155847619Y-65766666D01*
X155752381Y-64861904D02*
X155752381Y-65338095D01*
X156228571Y-65385714D01*
X156180952Y-65338095D01*
X156133333Y-65242857D01*
X156133333Y-65004761D01*
X156180952Y-64909523D01*
X156228571Y-64861904D01*
X156323810Y-64814285D01*
X156561905Y-64814285D01*
X156657143Y-64861904D01*
X156704762Y-64909523D01*
X156752381Y-65004761D01*
X156752381Y-65242857D01*
X156704762Y-65338095D01*
X156657143Y-65385714D01*
X158033334Y-74857143D02*
X157985715Y-74904762D01*
X157842858Y-74952381D01*
X157747620Y-74952381D01*
X157604762Y-74904762D01*
X157509524Y-74809524D01*
X157461905Y-74714286D01*
X157414286Y-74523810D01*
X157414286Y-74380952D01*
X157461905Y-74190476D01*
X157509524Y-74095238D01*
X157604762Y-74000000D01*
X157747620Y-73952381D01*
X157842858Y-73952381D01*
X157985715Y-74000000D01*
X158033334Y-74047619D01*
X158890477Y-73952381D02*
X158700000Y-73952381D01*
X158604762Y-74000000D01*
X158557143Y-74047619D01*
X158461905Y-74190476D01*
X158414286Y-74380952D01*
X158414286Y-74761905D01*
X158461905Y-74857143D01*
X158509524Y-74904762D01*
X158604762Y-74952381D01*
X158795239Y-74952381D01*
X158890477Y-74904762D01*
X158938096Y-74857143D01*
X158985715Y-74761905D01*
X158985715Y-74523810D01*
X158938096Y-74428571D01*
X158890477Y-74380952D01*
X158795239Y-74333333D01*
X158604762Y-74333333D01*
X158509524Y-74380952D01*
X158461905Y-74428571D01*
X158414286Y-74523810D01*
X168233334Y-73157143D02*
X168185715Y-73204762D01*
X168042858Y-73252381D01*
X167947620Y-73252381D01*
X167804762Y-73204762D01*
X167709524Y-73109524D01*
X167661905Y-73014286D01*
X167614286Y-72823810D01*
X167614286Y-72680952D01*
X167661905Y-72490476D01*
X167709524Y-72395238D01*
X167804762Y-72300000D01*
X167947620Y-72252381D01*
X168042858Y-72252381D01*
X168185715Y-72300000D01*
X168233334Y-72347619D01*
X168566667Y-72252381D02*
X169233334Y-72252381D01*
X168804762Y-73252381D01*
X139261905Y-97252381D02*
X139261905Y-96252381D01*
X139642858Y-96252381D01*
X139738096Y-96300000D01*
X139785715Y-96347619D01*
X139833334Y-96442857D01*
X139833334Y-96585714D01*
X139785715Y-96680952D01*
X139738096Y-96728571D01*
X139642858Y-96776190D01*
X139261905Y-96776190D01*
X140785715Y-97252381D02*
X140214286Y-97252381D01*
X140500000Y-97252381D02*
X140500000Y-96252381D01*
X140404762Y-96395238D01*
X140309524Y-96490476D01*
X140214286Y-96538095D01*
X143062381Y-106186190D02*
X142062381Y-106186190D01*
X142967143Y-105138571D02*
X143014762Y-105186190D01*
X143062381Y-105329047D01*
X143062381Y-105424285D01*
X143014762Y-105567143D01*
X142919524Y-105662381D01*
X142824286Y-105710000D01*
X142633810Y-105757619D01*
X142490952Y-105757619D01*
X142300476Y-105710000D01*
X142205238Y-105662381D01*
X142110000Y-105567143D01*
X142062381Y-105424285D01*
X142062381Y-105329047D01*
X142110000Y-105186190D01*
X142157619Y-105138571D01*
X143014762Y-104757619D02*
X143062381Y-104614762D01*
X143062381Y-104376666D01*
X143014762Y-104281428D01*
X142967143Y-104233809D01*
X142871905Y-104186190D01*
X142776667Y-104186190D01*
X142681429Y-104233809D01*
X142633810Y-104281428D01*
X142586190Y-104376666D01*
X142538571Y-104567143D01*
X142490952Y-104662381D01*
X142443333Y-104710000D01*
X142348095Y-104757619D01*
X142252857Y-104757619D01*
X142157619Y-104710000D01*
X142110000Y-104662381D01*
X142062381Y-104567143D01*
X142062381Y-104329047D01*
X142110000Y-104186190D01*
X143062381Y-103757619D02*
X142062381Y-103757619D01*
X142062381Y-103376666D01*
X142110000Y-103281428D01*
X142157619Y-103233809D01*
X142252857Y-103186190D01*
X142395714Y-103186190D01*
X142490952Y-103233809D01*
X142538571Y-103281428D01*
X142586190Y-103376666D01*
X142586190Y-103757619D01*
X146073905Y-85288381D02*
X146073905Y-84288381D01*
X146454858Y-84288381D01*
X146550096Y-84336000D01*
X146597715Y-84383619D01*
X146645334Y-84478857D01*
X146645334Y-84621714D01*
X146597715Y-84716952D01*
X146550096Y-84764571D01*
X146454858Y-84812190D01*
X146073905Y-84812190D01*
X147026286Y-84383619D02*
X147073905Y-84336000D01*
X147169143Y-84288381D01*
X147407239Y-84288381D01*
X147502477Y-84336000D01*
X147550096Y-84383619D01*
X147597715Y-84478857D01*
X147597715Y-84574095D01*
X147550096Y-84716952D01*
X146978667Y-85288381D01*
X147597715Y-85288381D01*
X172402381Y-106538095D02*
X171402381Y-106538095D01*
X171402381Y-106157142D01*
X171450000Y-106061904D01*
X171497619Y-106014285D01*
X171592857Y-105966666D01*
X171735714Y-105966666D01*
X171830952Y-106014285D01*
X171878571Y-106061904D01*
X171926190Y-106157142D01*
X171926190Y-106538095D01*
X171402381Y-105633333D02*
X171402381Y-105014285D01*
X171783333Y-105347619D01*
X171783333Y-105204761D01*
X171830952Y-105109523D01*
X171878571Y-105061904D01*
X171973810Y-105014285D01*
X172211905Y-105014285D01*
X172307143Y-105061904D01*
X172354762Y-105109523D01*
X172402381Y-105204761D01*
X172402381Y-105490476D01*
X172354762Y-105585714D01*
X172307143Y-105633333D01*
X138199905Y-79446381D02*
X138199905Y-78446381D01*
X138580858Y-78446381D01*
X138676096Y-78494000D01*
X138723715Y-78541619D01*
X138771334Y-78636857D01*
X138771334Y-78779714D01*
X138723715Y-78874952D01*
X138676096Y-78922571D01*
X138580858Y-78970190D01*
X138199905Y-78970190D01*
X139628477Y-78779714D02*
X139628477Y-79446381D01*
X139390381Y-78398762D02*
X139152286Y-79113048D01*
X139771334Y-79113048D01*
X158752381Y-65866666D02*
X158276190Y-66200000D01*
X158752381Y-66438095D02*
X157752381Y-66438095D01*
X157752381Y-66057142D01*
X157800000Y-65961904D01*
X157847619Y-65914285D01*
X157942857Y-65866666D01*
X158085714Y-65866666D01*
X158180952Y-65914285D01*
X158228571Y-65961904D01*
X158276190Y-66057142D01*
X158276190Y-66438095D01*
X157752381Y-64961904D02*
X157752381Y-65438095D01*
X158228571Y-65485714D01*
X158180952Y-65438095D01*
X158133333Y-65342857D01*
X158133333Y-65104761D01*
X158180952Y-65009523D01*
X158228571Y-64961904D01*
X158323810Y-64914285D01*
X158561905Y-64914285D01*
X158657143Y-64961904D01*
X158704762Y-65009523D01*
X158752381Y-65104761D01*
X158752381Y-65342857D01*
X158704762Y-65438095D01*
X158657143Y-65485714D01*
X150033334Y-77052381D02*
X149700000Y-76576190D01*
X149461905Y-77052381D02*
X149461905Y-76052381D01*
X149842858Y-76052381D01*
X149938096Y-76100000D01*
X149985715Y-76147619D01*
X150033334Y-76242857D01*
X150033334Y-76385714D01*
X149985715Y-76480952D01*
X149938096Y-76528571D01*
X149842858Y-76576190D01*
X149461905Y-76576190D01*
X150509524Y-77052381D02*
X150700000Y-77052381D01*
X150795239Y-77004762D01*
X150842858Y-76957143D01*
X150938096Y-76814286D01*
X150985715Y-76623810D01*
X150985715Y-76242857D01*
X150938096Y-76147619D01*
X150890477Y-76100000D01*
X150795239Y-76052381D01*
X150604762Y-76052381D01*
X150509524Y-76100000D01*
X150461905Y-76147619D01*
X150414286Y-76242857D01*
X150414286Y-76480952D01*
X150461905Y-76576190D01*
X150509524Y-76623810D01*
X150604762Y-76671429D01*
X150795239Y-76671429D01*
X150890477Y-76623810D01*
X150938096Y-76576190D01*
X150985715Y-76480952D01*
X149957143Y-75352381D02*
X149623809Y-74876190D01*
X149385714Y-75352381D02*
X149385714Y-74352381D01*
X149766667Y-74352381D01*
X149861905Y-74400000D01*
X149909524Y-74447619D01*
X149957143Y-74542857D01*
X149957143Y-74685714D01*
X149909524Y-74780952D01*
X149861905Y-74828571D01*
X149766667Y-74876190D01*
X149385714Y-74876190D01*
X150909524Y-75352381D02*
X150338095Y-75352381D01*
X150623809Y-75352381D02*
X150623809Y-74352381D01*
X150528571Y-74495238D01*
X150433333Y-74590476D01*
X150338095Y-74638095D01*
X151861905Y-75352381D02*
X151290476Y-75352381D01*
X151576190Y-75352381D02*
X151576190Y-74352381D01*
X151480952Y-74495238D01*
X151385714Y-74590476D01*
X151290476Y-74638095D01*
X157957143Y-73052381D02*
X157623809Y-72576190D01*
X157385714Y-73052381D02*
X157385714Y-72052381D01*
X157766667Y-72052381D01*
X157861905Y-72100000D01*
X157909524Y-72147619D01*
X157957143Y-72242857D01*
X157957143Y-72385714D01*
X157909524Y-72480952D01*
X157861905Y-72528571D01*
X157766667Y-72576190D01*
X157385714Y-72576190D01*
X158909524Y-73052381D02*
X158338095Y-73052381D01*
X158623809Y-73052381D02*
X158623809Y-72052381D01*
X158528571Y-72195238D01*
X158433333Y-72290476D01*
X158338095Y-72338095D01*
X159290476Y-72147619D02*
X159338095Y-72100000D01*
X159433333Y-72052381D01*
X159671429Y-72052381D01*
X159766667Y-72100000D01*
X159814286Y-72147619D01*
X159861905Y-72242857D01*
X159861905Y-72338095D01*
X159814286Y-72480952D01*
X159242857Y-73052381D01*
X159861905Y-73052381D01*
X149957143Y-73452381D02*
X149623809Y-72976190D01*
X149385714Y-73452381D02*
X149385714Y-72452381D01*
X149766667Y-72452381D01*
X149861905Y-72500000D01*
X149909524Y-72547619D01*
X149957143Y-72642857D01*
X149957143Y-72785714D01*
X149909524Y-72880952D01*
X149861905Y-72928571D01*
X149766667Y-72976190D01*
X149385714Y-72976190D01*
X150909524Y-73452381D02*
X150338095Y-73452381D01*
X150623809Y-73452381D02*
X150623809Y-72452381D01*
X150528571Y-72595238D01*
X150433333Y-72690476D01*
X150338095Y-72738095D01*
X151242857Y-72452381D02*
X151861905Y-72452381D01*
X151528571Y-72833333D01*
X151671429Y-72833333D01*
X151766667Y-72880952D01*
X151814286Y-72928571D01*
X151861905Y-73023810D01*
X151861905Y-73261905D01*
X151814286Y-73357143D01*
X151766667Y-73404762D01*
X151671429Y-73452381D01*
X151385714Y-73452381D01*
X151290476Y-73404762D01*
X151242857Y-73357143D01*
X149857143Y-71652381D02*
X149523809Y-71176190D01*
X149285714Y-71652381D02*
X149285714Y-70652381D01*
X149666667Y-70652381D01*
X149761905Y-70700000D01*
X149809524Y-70747619D01*
X149857143Y-70842857D01*
X149857143Y-70985714D01*
X149809524Y-71080952D01*
X149761905Y-71128571D01*
X149666667Y-71176190D01*
X149285714Y-71176190D01*
X150809524Y-71652381D02*
X150238095Y-71652381D01*
X150523809Y-71652381D02*
X150523809Y-70652381D01*
X150428571Y-70795238D01*
X150333333Y-70890476D01*
X150238095Y-70938095D01*
X151666667Y-70985714D02*
X151666667Y-71652381D01*
X151428571Y-70604762D02*
X151190476Y-71319048D01*
X151809524Y-71319048D01*
X158057143Y-77252381D02*
X157723809Y-76776190D01*
X157485714Y-77252381D02*
X157485714Y-76252381D01*
X157866667Y-76252381D01*
X157961905Y-76300000D01*
X158009524Y-76347619D01*
X158057143Y-76442857D01*
X158057143Y-76585714D01*
X158009524Y-76680952D01*
X157961905Y-76728571D01*
X157866667Y-76776190D01*
X157485714Y-76776190D01*
X159009524Y-77252381D02*
X158438095Y-77252381D01*
X158723809Y-77252381D02*
X158723809Y-76252381D01*
X158628571Y-76395238D01*
X158533333Y-76490476D01*
X158438095Y-76538095D01*
X159914286Y-76252381D02*
X159438095Y-76252381D01*
X159390476Y-76728571D01*
X159438095Y-76680952D01*
X159533333Y-76633333D01*
X159771429Y-76633333D01*
X159866667Y-76680952D01*
X159914286Y-76728571D01*
X159961905Y-76823810D01*
X159961905Y-77061905D01*
X159914286Y-77157143D01*
X159866667Y-77204762D01*
X159771429Y-77252381D01*
X159533333Y-77252381D01*
X159438095Y-77204762D01*
X159390476Y-77157143D01*
X148604762Y-66052381D02*
X148271428Y-65576190D01*
X148033333Y-66052381D02*
X148033333Y-65052381D01*
X148414286Y-65052381D01*
X148509524Y-65100000D01*
X148557143Y-65147619D01*
X148604762Y-65242857D01*
X148604762Y-65385714D01*
X148557143Y-65480952D01*
X148509524Y-65528571D01*
X148414286Y-65576190D01*
X148033333Y-65576190D01*
X148890476Y-65052381D02*
X149223809Y-66052381D01*
X149557143Y-65052381D01*
X150414286Y-66052381D02*
X149842857Y-66052381D01*
X150128571Y-66052381D02*
X150128571Y-65052381D01*
X150033333Y-65195238D01*
X149938095Y-65290476D01*
X149842857Y-65338095D01*
X153288095Y-106152381D02*
X153288095Y-106961905D01*
X153335714Y-107057143D01*
X153383333Y-107104762D01*
X153478571Y-107152381D01*
X153669048Y-107152381D01*
X153764286Y-107104762D01*
X153811905Y-107057143D01*
X153859524Y-106961905D01*
X153859524Y-106152381D01*
X154859524Y-107152381D02*
X154288095Y-107152381D01*
X154573809Y-107152381D02*
X154573809Y-106152381D01*
X154478571Y-106295238D01*
X154383333Y-106390476D01*
X154288095Y-106438095D01*
X161688095Y-65802381D02*
X161688095Y-66611905D01*
X161735714Y-66707143D01*
X161783333Y-66754762D01*
X161878571Y-66802381D01*
X162069048Y-66802381D01*
X162164286Y-66754762D01*
X162211905Y-66707143D01*
X162259524Y-66611905D01*
X162259524Y-65802381D01*
X162688095Y-65897619D02*
X162735714Y-65850000D01*
X162830952Y-65802381D01*
X163069048Y-65802381D01*
X163164286Y-65850000D01*
X163211905Y-65897619D01*
X163259524Y-65992857D01*
X163259524Y-66088095D01*
X163211905Y-66230952D01*
X162640476Y-66802381D01*
X163259524Y-66802381D01*
X166526190Y-100626191D02*
X167002381Y-100626191D01*
X166002381Y-100959524D02*
X166526190Y-100626191D01*
X166002381Y-100292857D01*
X167002381Y-99435714D02*
X167002381Y-100007143D01*
X167002381Y-99721429D02*
X166002381Y-99721429D01*
X166145238Y-99816667D01*
X166240476Y-99911905D01*
X166288095Y-100007143D01*
X171452381Y-67666666D02*
X171452381Y-68142857D01*
X170452381Y-68142857D01*
X171452381Y-66809523D02*
X171452381Y-67380952D01*
X171452381Y-67095238D02*
X170452381Y-67095238D01*
X170595238Y-67190476D01*
X170690476Y-67285714D01*
X170738095Y-67380952D01*
D13*
G36*
X142953000Y-110431346D02*
X142069940Y-109792384D01*
X142953000Y-109182139D01*
X142953000Y-110431346D01*
X142953000Y-110431346D01*
G37*
X142953000Y-110431346D02*
X142069940Y-109792384D01*
X142953000Y-109182139D01*
X142953000Y-110431346D01*
M02*
