G04 #@! TF.FileFunction,Legend,Bot*
%FSLAX46Y46*%
G04 Gerber Fmt 4.6, Leading zero omitted, Abs format (unit mm)*
G04 Created by KiCad (PCBNEW 4.0.4-stable) date 11/02/17 18:15:52*
%MOMM*%
%LPD*%
G01*
G04 APERTURE LIST*
%ADD10C,0.100000*%
%ADD11C,0.175000*%
%ADD12C,0.150000*%
%ADD13C,0.200000*%
%ADD14C,0.300000*%
%ADD15C,0.120000*%
G04 APERTURE END LIST*
D10*
D11*
X178630000Y-105495195D02*
X178596666Y-105461862D01*
X178530000Y-105428529D01*
X178363333Y-105428529D01*
X178296666Y-105461862D01*
X178263333Y-105495195D01*
X178230000Y-105561862D01*
X178230000Y-105628529D01*
X178263333Y-105728529D01*
X178663333Y-106128529D01*
X178230000Y-106128529D01*
X178326666Y-100348529D02*
X178460000Y-100348529D01*
X178526666Y-100381862D01*
X178560000Y-100415195D01*
X178626666Y-100515195D01*
X178660000Y-100648529D01*
X178660000Y-100915195D01*
X178626666Y-100981862D01*
X178593333Y-101015195D01*
X178526666Y-101048529D01*
X178393333Y-101048529D01*
X178326666Y-101015195D01*
X178293333Y-100981862D01*
X178260000Y-100915195D01*
X178260000Y-100748529D01*
X178293333Y-100681862D01*
X178326666Y-100648529D01*
X178393333Y-100615195D01*
X178526666Y-100615195D01*
X178593333Y-100648529D01*
X178626666Y-100681862D01*
X178660000Y-100748529D01*
X178566666Y-98148529D02*
X178633333Y-98115195D01*
X178666666Y-98081862D01*
X178700000Y-98015195D01*
X178700000Y-97981862D01*
X178666666Y-97915195D01*
X178633333Y-97881862D01*
X178566666Y-97848529D01*
X178433333Y-97848529D01*
X178366666Y-97881862D01*
X178333333Y-97915195D01*
X178300000Y-97981862D01*
X178300000Y-98015195D01*
X178333333Y-98081862D01*
X178366666Y-98115195D01*
X178433333Y-98148529D01*
X178566666Y-98148529D01*
X178633333Y-98181862D01*
X178666666Y-98215195D01*
X178700000Y-98281862D01*
X178700000Y-98415195D01*
X178666666Y-98481862D01*
X178633333Y-98515195D01*
X178566666Y-98548529D01*
X178433333Y-98548529D01*
X178366666Y-98515195D01*
X178333333Y-98481862D01*
X178300000Y-98415195D01*
X178300000Y-98281862D01*
X178333333Y-98215195D01*
X178366666Y-98181862D01*
X178433333Y-98148529D01*
X178326666Y-103091862D02*
X178326666Y-103558529D01*
X178493333Y-102825195D02*
X178660000Y-103325195D01*
X178226666Y-103325195D01*
X178683334Y-95908529D02*
X179083334Y-95908529D01*
X178883334Y-95908529D02*
X178883334Y-95208529D01*
X178950000Y-95308529D01*
X179016667Y-95375195D01*
X179083334Y-95408529D01*
X178250000Y-95208529D02*
X178183333Y-95208529D01*
X178116667Y-95241862D01*
X178083333Y-95275195D01*
X178050000Y-95341862D01*
X178016667Y-95475195D01*
X178016667Y-95641862D01*
X178050000Y-95775195D01*
X178083333Y-95841862D01*
X178116667Y-95875195D01*
X178183333Y-95908529D01*
X178250000Y-95908529D01*
X178316667Y-95875195D01*
X178350000Y-95841862D01*
X178383333Y-95775195D01*
X178416667Y-95641862D01*
X178416667Y-95475195D01*
X178383333Y-95341862D01*
X178350000Y-95275195D01*
X178316667Y-95241862D01*
X178250000Y-95208529D01*
X178493334Y-85878529D02*
X178893334Y-85878529D01*
X178693334Y-85878529D02*
X178693334Y-85178529D01*
X178760000Y-85278529D01*
X178826667Y-85345195D01*
X178893334Y-85378529D01*
X178093333Y-85478529D02*
X178160000Y-85445195D01*
X178193333Y-85411862D01*
X178226667Y-85345195D01*
X178226667Y-85311862D01*
X178193333Y-85245195D01*
X178160000Y-85211862D01*
X178093333Y-85178529D01*
X177960000Y-85178529D01*
X177893333Y-85211862D01*
X177860000Y-85245195D01*
X177826667Y-85311862D01*
X177826667Y-85345195D01*
X177860000Y-85411862D01*
X177893333Y-85445195D01*
X177960000Y-85478529D01*
X178093333Y-85478529D01*
X178160000Y-85511862D01*
X178193333Y-85545195D01*
X178226667Y-85611862D01*
X178226667Y-85745195D01*
X178193333Y-85811862D01*
X178160000Y-85845195D01*
X178093333Y-85878529D01*
X177960000Y-85878529D01*
X177893333Y-85845195D01*
X177860000Y-85811862D01*
X177826667Y-85745195D01*
X177826667Y-85611862D01*
X177860000Y-85545195D01*
X177893333Y-85511862D01*
X177960000Y-85478529D01*
X178533334Y-88418529D02*
X178933334Y-88418529D01*
X178733334Y-88418529D02*
X178733334Y-87718529D01*
X178800000Y-87818529D01*
X178866667Y-87885195D01*
X178933334Y-87918529D01*
X177933333Y-87718529D02*
X178066667Y-87718529D01*
X178133333Y-87751862D01*
X178166667Y-87785195D01*
X178233333Y-87885195D01*
X178266667Y-88018529D01*
X178266667Y-88285195D01*
X178233333Y-88351862D01*
X178200000Y-88385195D01*
X178133333Y-88418529D01*
X178000000Y-88418529D01*
X177933333Y-88385195D01*
X177900000Y-88351862D01*
X177866667Y-88285195D01*
X177866667Y-88118529D01*
X177900000Y-88051862D01*
X177933333Y-88018529D01*
X178000000Y-87985195D01*
X178133333Y-87985195D01*
X178200000Y-88018529D01*
X178233333Y-88051862D01*
X178266667Y-88118529D01*
X178563334Y-90868529D02*
X178963334Y-90868529D01*
X178763334Y-90868529D02*
X178763334Y-90168529D01*
X178830000Y-90268529D01*
X178896667Y-90335195D01*
X178963334Y-90368529D01*
X177963333Y-90401862D02*
X177963333Y-90868529D01*
X178130000Y-90135195D02*
X178296667Y-90635195D01*
X177863333Y-90635195D01*
X178613334Y-93408529D02*
X179013334Y-93408529D01*
X178813334Y-93408529D02*
X178813334Y-92708529D01*
X178880000Y-92808529D01*
X178946667Y-92875195D01*
X179013334Y-92908529D01*
X178346667Y-92775195D02*
X178313333Y-92741862D01*
X178246667Y-92708529D01*
X178080000Y-92708529D01*
X178013333Y-92741862D01*
X177980000Y-92775195D01*
X177946667Y-92841862D01*
X177946667Y-92908529D01*
X177980000Y-93008529D01*
X178380000Y-93408529D01*
X177946667Y-93408529D01*
X178863334Y-83793333D02*
X178830000Y-83760000D01*
X178763334Y-83726667D01*
X178596667Y-83726667D01*
X178530000Y-83760000D01*
X178496667Y-83793333D01*
X178463334Y-83860000D01*
X178463334Y-83926667D01*
X178496667Y-84026667D01*
X178896667Y-84426667D01*
X178463334Y-84426667D01*
X178030000Y-83726667D02*
X177963333Y-83726667D01*
X177896667Y-83760000D01*
X177863333Y-83793333D01*
X177830000Y-83860000D01*
X177796667Y-83993333D01*
X177796667Y-84160000D01*
X177830000Y-84293333D01*
X177863333Y-84360000D01*
X177896667Y-84393333D01*
X177963333Y-84426667D01*
X178030000Y-84426667D01*
X178096667Y-84393333D01*
X178130000Y-84360000D01*
X178163333Y-84293333D01*
X178196667Y-84160000D01*
X178196667Y-83993333D01*
X178163333Y-83860000D01*
X178130000Y-83793333D01*
X178096667Y-83760000D01*
X178030000Y-83726667D01*
X179013334Y-80155195D02*
X178980000Y-80121862D01*
X178913334Y-80088529D01*
X178746667Y-80088529D01*
X178680000Y-80121862D01*
X178646667Y-80155195D01*
X178613334Y-80221862D01*
X178613334Y-80288529D01*
X178646667Y-80388529D01*
X179046667Y-80788529D01*
X178613334Y-80788529D01*
X178346667Y-80155195D02*
X178313333Y-80121862D01*
X178246667Y-80088529D01*
X178080000Y-80088529D01*
X178013333Y-80121862D01*
X177980000Y-80155195D01*
X177946667Y-80221862D01*
X177946667Y-80288529D01*
X177980000Y-80388529D01*
X178380000Y-80788529D01*
X177946667Y-80788529D01*
X178963334Y-78043333D02*
X178930000Y-78010000D01*
X178863334Y-77976667D01*
X178696667Y-77976667D01*
X178630000Y-78010000D01*
X178596667Y-78043333D01*
X178563334Y-78110000D01*
X178563334Y-78176667D01*
X178596667Y-78276667D01*
X178996667Y-78676667D01*
X178563334Y-78676667D01*
X177963333Y-78210000D02*
X177963333Y-78676667D01*
X178130000Y-77943333D02*
X178296667Y-78443333D01*
X177863333Y-78443333D01*
X178993334Y-72565195D02*
X178960000Y-72531862D01*
X178893334Y-72498529D01*
X178726667Y-72498529D01*
X178660000Y-72531862D01*
X178626667Y-72565195D01*
X178593334Y-72631862D01*
X178593334Y-72698529D01*
X178626667Y-72798529D01*
X179026667Y-73198529D01*
X178593334Y-73198529D01*
X178193333Y-72798529D02*
X178260000Y-72765195D01*
X178293333Y-72731862D01*
X178326667Y-72665195D01*
X178326667Y-72631862D01*
X178293333Y-72565195D01*
X178260000Y-72531862D01*
X178193333Y-72498529D01*
X178060000Y-72498529D01*
X177993333Y-72531862D01*
X177960000Y-72565195D01*
X177926667Y-72631862D01*
X177926667Y-72665195D01*
X177960000Y-72731862D01*
X177993333Y-72765195D01*
X178060000Y-72798529D01*
X178193333Y-72798529D01*
X178260000Y-72831862D01*
X178293333Y-72865195D01*
X178326667Y-72931862D01*
X178326667Y-73065195D01*
X178293333Y-73131862D01*
X178260000Y-73165195D01*
X178193333Y-73198529D01*
X178060000Y-73198529D01*
X177993333Y-73165195D01*
X177960000Y-73131862D01*
X177926667Y-73065195D01*
X177926667Y-72931862D01*
X177960000Y-72865195D01*
X177993333Y-72831862D01*
X178060000Y-72798529D01*
X179046667Y-69928529D02*
X178613334Y-69928529D01*
X178846667Y-70195195D01*
X178746667Y-70195195D01*
X178680000Y-70228529D01*
X178646667Y-70261862D01*
X178613334Y-70328529D01*
X178613334Y-70495195D01*
X178646667Y-70561862D01*
X178680000Y-70595195D01*
X178746667Y-70628529D01*
X178946667Y-70628529D01*
X179013334Y-70595195D01*
X179046667Y-70561862D01*
X178180000Y-69928529D02*
X178113333Y-69928529D01*
X178046667Y-69961862D01*
X178013333Y-69995195D01*
X177980000Y-70061862D01*
X177946667Y-70195195D01*
X177946667Y-70361862D01*
X177980000Y-70495195D01*
X178013333Y-70561862D01*
X178046667Y-70595195D01*
X178113333Y-70628529D01*
X178180000Y-70628529D01*
X178246667Y-70595195D01*
X178280000Y-70561862D01*
X178313333Y-70495195D01*
X178346667Y-70361862D01*
X178346667Y-70195195D01*
X178313333Y-70061862D01*
X178280000Y-69995195D01*
X178246667Y-69961862D01*
X178180000Y-69928529D01*
X178983334Y-74303333D02*
X178950000Y-74270000D01*
X178883334Y-74236667D01*
X178716667Y-74236667D01*
X178650000Y-74270000D01*
X178616667Y-74303333D01*
X178583334Y-74370000D01*
X178583334Y-74436667D01*
X178616667Y-74536667D01*
X179016667Y-74936667D01*
X178583334Y-74936667D01*
X177983333Y-74236667D02*
X178116667Y-74236667D01*
X178183333Y-74270000D01*
X178216667Y-74303333D01*
X178283333Y-74403333D01*
X178316667Y-74536667D01*
X178316667Y-74803333D01*
X178283333Y-74870000D01*
X178250000Y-74903333D01*
X178183333Y-74936667D01*
X178050000Y-74936667D01*
X177983333Y-74903333D01*
X177950000Y-74870000D01*
X177916667Y-74803333D01*
X177916667Y-74636667D01*
X177950000Y-74570000D01*
X177983333Y-74536667D01*
X178050000Y-74503333D01*
X178183333Y-74503333D01*
X178250000Y-74536667D01*
X178283333Y-74570000D01*
X178316667Y-74636667D01*
X171600000Y-106128529D02*
X172000000Y-106128529D01*
X171800000Y-106128529D02*
X171800000Y-105428529D01*
X171866666Y-105528529D01*
X171933333Y-105595195D01*
X172000000Y-105628529D01*
X172063333Y-102858529D02*
X171630000Y-102858529D01*
X171863333Y-103125195D01*
X171763333Y-103125195D01*
X171696666Y-103158529D01*
X171663333Y-103191862D01*
X171630000Y-103258529D01*
X171630000Y-103425195D01*
X171663333Y-103491862D01*
X171696666Y-103525195D01*
X171763333Y-103558529D01*
X171963333Y-103558529D01*
X172030000Y-103525195D01*
X172063333Y-103491862D01*
X171663333Y-100348529D02*
X171996666Y-100348529D01*
X172030000Y-100681862D01*
X171996666Y-100648529D01*
X171930000Y-100615195D01*
X171763333Y-100615195D01*
X171696666Y-100648529D01*
X171663333Y-100681862D01*
X171630000Y-100748529D01*
X171630000Y-100915195D01*
X171663333Y-100981862D01*
X171696666Y-101015195D01*
X171763333Y-101048529D01*
X171930000Y-101048529D01*
X171996666Y-101015195D01*
X172030000Y-100981862D01*
X172103333Y-97848529D02*
X171636666Y-97848529D01*
X171936666Y-98548529D01*
X172053333Y-95908529D02*
X171920000Y-95908529D01*
X171853333Y-95875195D01*
X171820000Y-95841862D01*
X171753333Y-95741862D01*
X171720000Y-95608529D01*
X171720000Y-95341862D01*
X171753333Y-95275195D01*
X171786666Y-95241862D01*
X171853333Y-95208529D01*
X171986666Y-95208529D01*
X172053333Y-95241862D01*
X172086666Y-95275195D01*
X172120000Y-95341862D01*
X172120000Y-95508529D01*
X172086666Y-95575195D01*
X172053333Y-95608529D01*
X171986666Y-95641862D01*
X171853333Y-95641862D01*
X171786666Y-95608529D01*
X171753333Y-95575195D01*
X171720000Y-95508529D01*
X171983334Y-93408529D02*
X172383334Y-93408529D01*
X172183334Y-93408529D02*
X172183334Y-92708529D01*
X172250000Y-92808529D01*
X172316667Y-92875195D01*
X172383334Y-92908529D01*
X171316667Y-93408529D02*
X171716667Y-93408529D01*
X171516667Y-93408529D02*
X171516667Y-92708529D01*
X171583333Y-92808529D01*
X171650000Y-92875195D01*
X171716667Y-92908529D01*
X171933334Y-90868529D02*
X172333334Y-90868529D01*
X172133334Y-90868529D02*
X172133334Y-90168529D01*
X172200000Y-90268529D01*
X172266667Y-90335195D01*
X172333334Y-90368529D01*
X171700000Y-90168529D02*
X171266667Y-90168529D01*
X171500000Y-90435195D01*
X171400000Y-90435195D01*
X171333333Y-90468529D01*
X171300000Y-90501862D01*
X171266667Y-90568529D01*
X171266667Y-90735195D01*
X171300000Y-90801862D01*
X171333333Y-90835195D01*
X171400000Y-90868529D01*
X171600000Y-90868529D01*
X171666667Y-90835195D01*
X171700000Y-90801862D01*
X171903334Y-88418529D02*
X172303334Y-88418529D01*
X172103334Y-88418529D02*
X172103334Y-87718529D01*
X172170000Y-87818529D01*
X172236667Y-87885195D01*
X172303334Y-87918529D01*
X171270000Y-87718529D02*
X171603333Y-87718529D01*
X171636667Y-88051862D01*
X171603333Y-88018529D01*
X171536667Y-87985195D01*
X171370000Y-87985195D01*
X171303333Y-88018529D01*
X171270000Y-88051862D01*
X171236667Y-88118529D01*
X171236667Y-88285195D01*
X171270000Y-88351862D01*
X171303333Y-88385195D01*
X171370000Y-88418529D01*
X171536667Y-88418529D01*
X171603333Y-88385195D01*
X171636667Y-88351862D01*
X171863334Y-85878529D02*
X172263334Y-85878529D01*
X172063334Y-85878529D02*
X172063334Y-85178529D01*
X172130000Y-85278529D01*
X172196667Y-85345195D01*
X172263334Y-85378529D01*
X171630000Y-85178529D02*
X171163333Y-85178529D01*
X171463333Y-85878529D01*
X171813334Y-83238529D02*
X172213334Y-83238529D01*
X172013334Y-83238529D02*
X172013334Y-82538529D01*
X172080000Y-82638529D01*
X172146667Y-82705195D01*
X172213334Y-82738529D01*
X171480000Y-83238529D02*
X171346667Y-83238529D01*
X171280000Y-83205195D01*
X171246667Y-83171862D01*
X171180000Y-83071862D01*
X171146667Y-82938529D01*
X171146667Y-82671862D01*
X171180000Y-82605195D01*
X171213333Y-82571862D01*
X171280000Y-82538529D01*
X171413333Y-82538529D01*
X171480000Y-82571862D01*
X171513333Y-82605195D01*
X171546667Y-82671862D01*
X171546667Y-82838529D01*
X171513333Y-82905195D01*
X171480000Y-82938529D01*
X171413333Y-82971862D01*
X171280000Y-82971862D01*
X171213333Y-82938529D01*
X171180000Y-82905195D01*
X171146667Y-82838529D01*
X172383334Y-80155195D02*
X172350000Y-80121862D01*
X172283334Y-80088529D01*
X172116667Y-80088529D01*
X172050000Y-80121862D01*
X172016667Y-80155195D01*
X171983334Y-80221862D01*
X171983334Y-80288529D01*
X172016667Y-80388529D01*
X172416667Y-80788529D01*
X171983334Y-80788529D01*
X171316667Y-80788529D02*
X171716667Y-80788529D01*
X171516667Y-80788529D02*
X171516667Y-80088529D01*
X171583333Y-80188529D01*
X171650000Y-80255195D01*
X171716667Y-80288529D01*
X172383334Y-77575195D02*
X172350000Y-77541862D01*
X172283334Y-77508529D01*
X172116667Y-77508529D01*
X172050000Y-77541862D01*
X172016667Y-77575195D01*
X171983334Y-77641862D01*
X171983334Y-77708529D01*
X172016667Y-77808529D01*
X172416667Y-78208529D01*
X171983334Y-78208529D01*
X171750000Y-77508529D02*
X171316667Y-77508529D01*
X171550000Y-77775195D01*
X171450000Y-77775195D01*
X171383333Y-77808529D01*
X171350000Y-77841862D01*
X171316667Y-77908529D01*
X171316667Y-78075195D01*
X171350000Y-78141862D01*
X171383333Y-78175195D01*
X171450000Y-78208529D01*
X171650000Y-78208529D01*
X171716667Y-78175195D01*
X171750000Y-78141862D01*
X172313334Y-75135195D02*
X172280000Y-75101862D01*
X172213334Y-75068529D01*
X172046667Y-75068529D01*
X171980000Y-75101862D01*
X171946667Y-75135195D01*
X171913334Y-75201862D01*
X171913334Y-75268529D01*
X171946667Y-75368529D01*
X172346667Y-75768529D01*
X171913334Y-75768529D01*
X171280000Y-75068529D02*
X171613333Y-75068529D01*
X171646667Y-75401862D01*
X171613333Y-75368529D01*
X171546667Y-75335195D01*
X171380000Y-75335195D01*
X171313333Y-75368529D01*
X171280000Y-75401862D01*
X171246667Y-75468529D01*
X171246667Y-75635195D01*
X171280000Y-75701862D01*
X171313333Y-75735195D01*
X171380000Y-75768529D01*
X171546667Y-75768529D01*
X171613333Y-75735195D01*
X171646667Y-75701862D01*
X172363334Y-72565195D02*
X172330000Y-72531862D01*
X172263334Y-72498529D01*
X172096667Y-72498529D01*
X172030000Y-72531862D01*
X171996667Y-72565195D01*
X171963334Y-72631862D01*
X171963334Y-72698529D01*
X171996667Y-72798529D01*
X172396667Y-73198529D01*
X171963334Y-73198529D01*
X171730000Y-72498529D02*
X171263333Y-72498529D01*
X171563333Y-73198529D01*
X172383334Y-69995195D02*
X172350000Y-69961862D01*
X172283334Y-69928529D01*
X172116667Y-69928529D01*
X172050000Y-69961862D01*
X172016667Y-69995195D01*
X171983334Y-70061862D01*
X171983334Y-70128529D01*
X172016667Y-70228529D01*
X172416667Y-70628529D01*
X171983334Y-70628529D01*
X171650000Y-70628529D02*
X171516667Y-70628529D01*
X171450000Y-70595195D01*
X171416667Y-70561862D01*
X171350000Y-70461862D01*
X171316667Y-70328529D01*
X171316667Y-70061862D01*
X171350000Y-69995195D01*
X171383333Y-69961862D01*
X171450000Y-69928529D01*
X171583333Y-69928529D01*
X171650000Y-69961862D01*
X171683333Y-69995195D01*
X171716667Y-70061862D01*
X171716667Y-70228529D01*
X171683333Y-70295195D01*
X171650000Y-70328529D01*
X171583333Y-70361862D01*
X171450000Y-70361862D01*
X171383333Y-70328529D01*
X171350000Y-70295195D01*
X171316667Y-70228529D01*
D12*
X176527429Y-107796286D02*
X176527429Y-108558191D01*
X176908381Y-108177239D02*
X176146476Y-108177239D01*
X175908381Y-109510572D02*
X175908381Y-109034381D01*
X176384571Y-108986762D01*
X176336952Y-109034381D01*
X176289333Y-109129619D01*
X176289333Y-109367715D01*
X176336952Y-109462953D01*
X176384571Y-109510572D01*
X176479810Y-109558191D01*
X176717905Y-109558191D01*
X176813143Y-109510572D01*
X176860762Y-109462953D01*
X176908381Y-109367715D01*
X176908381Y-109129619D01*
X176860762Y-109034381D01*
X176813143Y-108986762D01*
X175908381Y-109843905D02*
X176908381Y-110177238D01*
X175908381Y-110510572D01*
X173416000Y-108367810D02*
X173368381Y-108272572D01*
X173368381Y-108129715D01*
X173416000Y-107986857D01*
X173511238Y-107891619D01*
X173606476Y-107844000D01*
X173796952Y-107796381D01*
X173939810Y-107796381D01*
X174130286Y-107844000D01*
X174225524Y-107891619D01*
X174320762Y-107986857D01*
X174368381Y-108129715D01*
X174368381Y-108224953D01*
X174320762Y-108367810D01*
X174273143Y-108415429D01*
X173939810Y-108415429D01*
X173939810Y-108224953D01*
X174368381Y-108844000D02*
X173368381Y-108844000D01*
X173368381Y-109224953D01*
X173416000Y-109320191D01*
X173463619Y-109367810D01*
X173558857Y-109415429D01*
X173701714Y-109415429D01*
X173796952Y-109367810D01*
X173844571Y-109320191D01*
X173892190Y-109224953D01*
X173892190Y-108844000D01*
X174368381Y-109844000D02*
X173368381Y-109844000D01*
X173368381Y-110510666D02*
X173368381Y-110701143D01*
X173416000Y-110796381D01*
X173511238Y-110891619D01*
X173701714Y-110939238D01*
X174035048Y-110939238D01*
X174225524Y-110891619D01*
X174320762Y-110796381D01*
X174368381Y-110701143D01*
X174368381Y-110510666D01*
X174320762Y-110415428D01*
X174225524Y-110320190D01*
X174035048Y-110272571D01*
X173701714Y-110272571D01*
X173511238Y-110320190D01*
X173416000Y-110415428D01*
X173368381Y-110510666D01*
X173368381Y-111558285D02*
X173368381Y-111653524D01*
X173416000Y-111748762D01*
X173463619Y-111796381D01*
X173558857Y-111844000D01*
X173749333Y-111891619D01*
X173987429Y-111891619D01*
X174177905Y-111844000D01*
X174273143Y-111796381D01*
X174320762Y-111748762D01*
X174368381Y-111653524D01*
X174368381Y-111558285D01*
X174320762Y-111463047D01*
X174273143Y-111415428D01*
X174177905Y-111367809D01*
X173987429Y-111320190D01*
X173749333Y-111320190D01*
X173558857Y-111367809D01*
X173463619Y-111415428D01*
X173416000Y-111463047D01*
X173368381Y-111558285D01*
D13*
X161544000Y-71120000D02*
X161036000Y-71628000D01*
X161036000Y-70612000D02*
X161544000Y-71120000D01*
X161036000Y-71374000D02*
X161036000Y-71628000D01*
X161290000Y-71120000D02*
X161036000Y-71374000D01*
X161036000Y-70866000D02*
X161290000Y-71120000D01*
D12*
X161949381Y-70159714D02*
X162949381Y-70493047D01*
X161949381Y-70826381D01*
X162949381Y-71635905D02*
X162949381Y-71159714D01*
X161949381Y-71159714D01*
X162901762Y-71921619D02*
X162949381Y-72064476D01*
X162949381Y-72302572D01*
X162901762Y-72397810D01*
X162854143Y-72445429D01*
X162758905Y-72493048D01*
X162663667Y-72493048D01*
X162568429Y-72445429D01*
X162520810Y-72397810D01*
X162473190Y-72302572D01*
X162425571Y-72112095D01*
X162377952Y-72016857D01*
X162330333Y-71969238D01*
X162235095Y-71921619D01*
X162139857Y-71921619D01*
X162044619Y-71969238D01*
X161997000Y-72016857D01*
X161949381Y-72112095D01*
X161949381Y-72350191D01*
X161997000Y-72493048D01*
X163599381Y-65326379D02*
X164599381Y-65659712D01*
X163599381Y-65993046D01*
X164599381Y-66469236D02*
X164551762Y-66373998D01*
X164504143Y-66326379D01*
X164408905Y-66278760D01*
X164123190Y-66278760D01*
X164027952Y-66326379D01*
X163980333Y-66373998D01*
X163932714Y-66469236D01*
X163932714Y-66612094D01*
X163980333Y-66707332D01*
X164027952Y-66754951D01*
X164123190Y-66802570D01*
X164408905Y-66802570D01*
X164504143Y-66754951D01*
X164551762Y-66707332D01*
X164599381Y-66612094D01*
X164599381Y-66469236D01*
X164599381Y-67373998D02*
X164551762Y-67278760D01*
X164456524Y-67231141D01*
X163599381Y-67231141D01*
X163932714Y-67612094D02*
X163932714Y-67993046D01*
X163599381Y-67754951D02*
X164456524Y-67754951D01*
X164551762Y-67802570D01*
X164599381Y-67897808D01*
X164599381Y-67993046D01*
X164599381Y-68754952D02*
X164075571Y-68754952D01*
X163980333Y-68707333D01*
X163932714Y-68612095D01*
X163932714Y-68421618D01*
X163980333Y-68326380D01*
X164551762Y-68754952D02*
X164599381Y-68659714D01*
X164599381Y-68421618D01*
X164551762Y-68326380D01*
X164456524Y-68278761D01*
X164361286Y-68278761D01*
X164266048Y-68326380D01*
X164218429Y-68421618D01*
X164218429Y-68659714D01*
X164170810Y-68754952D01*
X163932714Y-69659714D02*
X164742238Y-69659714D01*
X164837476Y-69612095D01*
X164885095Y-69564476D01*
X164932714Y-69469237D01*
X164932714Y-69326380D01*
X164885095Y-69231142D01*
X164551762Y-69659714D02*
X164599381Y-69564476D01*
X164599381Y-69373999D01*
X164551762Y-69278761D01*
X164504143Y-69231142D01*
X164408905Y-69183523D01*
X164123190Y-69183523D01*
X164027952Y-69231142D01*
X163980333Y-69278761D01*
X163932714Y-69373999D01*
X163932714Y-69564476D01*
X163980333Y-69659714D01*
X164551762Y-70516857D02*
X164599381Y-70421619D01*
X164599381Y-70231142D01*
X164551762Y-70135904D01*
X164456524Y-70088285D01*
X164075571Y-70088285D01*
X163980333Y-70135904D01*
X163932714Y-70231142D01*
X163932714Y-70421619D01*
X163980333Y-70516857D01*
X164075571Y-70564476D01*
X164170810Y-70564476D01*
X164266048Y-70088285D01*
X164551762Y-71707333D02*
X164599381Y-71802571D01*
X164599381Y-71993047D01*
X164551762Y-72088286D01*
X164456524Y-72135905D01*
X164408905Y-72135905D01*
X164313667Y-72088286D01*
X164266048Y-71993047D01*
X164266048Y-71850190D01*
X164218429Y-71754952D01*
X164123190Y-71707333D01*
X164075571Y-71707333D01*
X163980333Y-71754952D01*
X163932714Y-71850190D01*
X163932714Y-71993047D01*
X163980333Y-72088286D01*
X164551762Y-72945429D02*
X164599381Y-72850191D01*
X164599381Y-72659714D01*
X164551762Y-72564476D01*
X164456524Y-72516857D01*
X164075571Y-72516857D01*
X163980333Y-72564476D01*
X163932714Y-72659714D01*
X163932714Y-72850191D01*
X163980333Y-72945429D01*
X164075571Y-72993048D01*
X164170810Y-72993048D01*
X164266048Y-72516857D01*
X164599381Y-73564476D02*
X164551762Y-73469238D01*
X164456524Y-73421619D01*
X163599381Y-73421619D01*
X164551762Y-74326382D02*
X164599381Y-74231144D01*
X164599381Y-74040667D01*
X164551762Y-73945429D01*
X164456524Y-73897810D01*
X164075571Y-73897810D01*
X163980333Y-73945429D01*
X163932714Y-74040667D01*
X163932714Y-74231144D01*
X163980333Y-74326382D01*
X164075571Y-74374001D01*
X164170810Y-74374001D01*
X164266048Y-73897810D01*
X164551762Y-75231144D02*
X164599381Y-75135906D01*
X164599381Y-74945429D01*
X164551762Y-74850191D01*
X164504143Y-74802572D01*
X164408905Y-74754953D01*
X164123190Y-74754953D01*
X164027952Y-74802572D01*
X163980333Y-74850191D01*
X163932714Y-74945429D01*
X163932714Y-75135906D01*
X163980333Y-75231144D01*
X163932714Y-75516858D02*
X163932714Y-75897810D01*
X163599381Y-75659715D02*
X164456524Y-75659715D01*
X164551762Y-75707334D01*
X164599381Y-75802572D01*
X164599381Y-75897810D01*
X164599381Y-76374001D02*
X164551762Y-76278763D01*
X164504143Y-76231144D01*
X164408905Y-76183525D01*
X164123190Y-76183525D01*
X164027952Y-76231144D01*
X163980333Y-76278763D01*
X163932714Y-76374001D01*
X163932714Y-76516859D01*
X163980333Y-76612097D01*
X164027952Y-76659716D01*
X164123190Y-76707335D01*
X164408905Y-76707335D01*
X164504143Y-76659716D01*
X164551762Y-76612097D01*
X164599381Y-76516859D01*
X164599381Y-76374001D01*
X164599381Y-77135906D02*
X163932714Y-77135906D01*
X164123190Y-77135906D02*
X164027952Y-77183525D01*
X163980333Y-77231144D01*
X163932714Y-77326382D01*
X163932714Y-77421621D01*
D13*
X161036000Y-76962000D02*
X160274000Y-77724000D01*
X161036000Y-76454000D02*
X161036000Y-76962000D01*
X161036000Y-65786000D02*
X161036000Y-76454000D01*
X160274000Y-65024000D02*
X161036000Y-65786000D01*
X172392000Y-107304000D02*
X169852000Y-109844000D01*
X172392000Y-107304000D02*
X172392000Y-108574000D01*
X172392000Y-108574000D02*
X172392000Y-108828000D01*
X172392000Y-107304000D02*
X170868000Y-107304000D01*
X169852000Y-109844000D02*
X150294000Y-109844000D01*
X147754000Y-107304000D02*
X150294000Y-109844000D01*
X161190000Y-107030234D02*
X161190000Y-88709902D01*
X161190045Y-88700000D02*
X143480000Y-88700000D01*
X143500000Y-88700000D02*
X143500000Y-107093721D01*
X143440000Y-107130000D02*
X161180025Y-107130000D01*
D12*
X160750000Y-89106667D02*
X160316667Y-89106667D01*
X160550000Y-89373333D01*
X160450000Y-89373333D01*
X160383333Y-89406667D01*
X160350000Y-89440000D01*
X160316667Y-89506667D01*
X160316667Y-89673333D01*
X160350000Y-89740000D01*
X160383333Y-89773333D01*
X160450000Y-89806667D01*
X160650000Y-89806667D01*
X160716667Y-89773333D01*
X160750000Y-89740000D01*
X159883333Y-89106667D02*
X159816666Y-89106667D01*
X159750000Y-89140000D01*
X159716666Y-89173333D01*
X159683333Y-89240000D01*
X159650000Y-89373333D01*
X159650000Y-89540000D01*
X159683333Y-89673333D01*
X159716666Y-89740000D01*
X159750000Y-89773333D01*
X159816666Y-89806667D01*
X159883333Y-89806667D01*
X159950000Y-89773333D01*
X159983333Y-89740000D01*
X160016666Y-89673333D01*
X160050000Y-89540000D01*
X160050000Y-89373333D01*
X160016666Y-89240000D01*
X159983333Y-89173333D01*
X159950000Y-89140000D01*
X159883333Y-89106667D01*
X159349999Y-89740000D02*
X159316666Y-89773333D01*
X159349999Y-89806667D01*
X159383333Y-89773333D01*
X159349999Y-89740000D01*
X159349999Y-89806667D01*
X159016666Y-89540000D02*
X158483333Y-89540000D01*
X157716666Y-89106667D02*
X157483333Y-89806667D01*
X157250000Y-89106667D01*
X156683333Y-89806667D02*
X157016666Y-89806667D01*
X157016666Y-89106667D01*
X156483333Y-89773333D02*
X156383333Y-89806667D01*
X156216666Y-89806667D01*
X156149999Y-89773333D01*
X156116666Y-89740000D01*
X156083333Y-89673333D01*
X156083333Y-89606667D01*
X156116666Y-89540000D01*
X156149999Y-89506667D01*
X156216666Y-89473333D01*
X156349999Y-89440000D01*
X156416666Y-89406667D01*
X156449999Y-89373333D01*
X156483333Y-89306667D01*
X156483333Y-89240000D01*
X156449999Y-89173333D01*
X156416666Y-89140000D01*
X156349999Y-89106667D01*
X156183333Y-89106667D01*
X156083333Y-89140000D01*
X160716667Y-90373333D02*
X160683333Y-90340000D01*
X160616667Y-90306667D01*
X160450000Y-90306667D01*
X160383333Y-90340000D01*
X160350000Y-90373333D01*
X160316667Y-90440000D01*
X160316667Y-90506667D01*
X160350000Y-90606667D01*
X160750000Y-91006667D01*
X160316667Y-91006667D01*
X159916666Y-90606667D02*
X159983333Y-90573333D01*
X160016666Y-90540000D01*
X160050000Y-90473333D01*
X160050000Y-90440000D01*
X160016666Y-90373333D01*
X159983333Y-90340000D01*
X159916666Y-90306667D01*
X159783333Y-90306667D01*
X159716666Y-90340000D01*
X159683333Y-90373333D01*
X159650000Y-90440000D01*
X159650000Y-90473333D01*
X159683333Y-90540000D01*
X159716666Y-90573333D01*
X159783333Y-90606667D01*
X159916666Y-90606667D01*
X159983333Y-90640000D01*
X160016666Y-90673333D01*
X160050000Y-90740000D01*
X160050000Y-90873333D01*
X160016666Y-90940000D01*
X159983333Y-90973333D01*
X159916666Y-91006667D01*
X159783333Y-91006667D01*
X159716666Y-90973333D01*
X159683333Y-90940000D01*
X159650000Y-90873333D01*
X159650000Y-90740000D01*
X159683333Y-90673333D01*
X159716666Y-90640000D01*
X159783333Y-90606667D01*
X159349999Y-90940000D02*
X159316666Y-90973333D01*
X159349999Y-91006667D01*
X159383333Y-90973333D01*
X159349999Y-90940000D01*
X159349999Y-91006667D01*
X159016666Y-90740000D02*
X158483333Y-90740000D01*
X157250000Y-90340000D02*
X157316666Y-90306667D01*
X157416666Y-90306667D01*
X157516666Y-90340000D01*
X157583333Y-90406667D01*
X157616666Y-90473333D01*
X157650000Y-90606667D01*
X157650000Y-90706667D01*
X157616666Y-90840000D01*
X157583333Y-90906667D01*
X157516666Y-90973333D01*
X157416666Y-91006667D01*
X157350000Y-91006667D01*
X157250000Y-90973333D01*
X157216666Y-90940000D01*
X157216666Y-90706667D01*
X157350000Y-90706667D01*
X156916666Y-91006667D02*
X156916666Y-90306667D01*
X156516666Y-91006667D01*
X156516666Y-90306667D01*
X156183333Y-91006667D02*
X156183333Y-90306667D01*
X156016667Y-90306667D01*
X155916667Y-90340000D01*
X155850000Y-90406667D01*
X155816667Y-90473333D01*
X155783333Y-90606667D01*
X155783333Y-90706667D01*
X155816667Y-90840000D01*
X155850000Y-90906667D01*
X155916667Y-90973333D01*
X156016667Y-91006667D01*
X156183333Y-91006667D01*
X160716667Y-91573333D02*
X160683333Y-91540000D01*
X160616667Y-91506667D01*
X160450000Y-91506667D01*
X160383333Y-91540000D01*
X160350000Y-91573333D01*
X160316667Y-91640000D01*
X160316667Y-91706667D01*
X160350000Y-91806667D01*
X160750000Y-92206667D01*
X160316667Y-92206667D01*
X159716666Y-91506667D02*
X159850000Y-91506667D01*
X159916666Y-91540000D01*
X159950000Y-91573333D01*
X160016666Y-91673333D01*
X160050000Y-91806667D01*
X160050000Y-92073333D01*
X160016666Y-92140000D01*
X159983333Y-92173333D01*
X159916666Y-92206667D01*
X159783333Y-92206667D01*
X159716666Y-92173333D01*
X159683333Y-92140000D01*
X159650000Y-92073333D01*
X159650000Y-91906667D01*
X159683333Y-91840000D01*
X159716666Y-91806667D01*
X159783333Y-91773333D01*
X159916666Y-91773333D01*
X159983333Y-91806667D01*
X160016666Y-91840000D01*
X160050000Y-91906667D01*
X159349999Y-92140000D02*
X159316666Y-92173333D01*
X159349999Y-92206667D01*
X159383333Y-92173333D01*
X159349999Y-92140000D01*
X159349999Y-92206667D01*
X159016666Y-91940000D02*
X158483333Y-91940000D01*
X157250000Y-91540000D02*
X157316666Y-91506667D01*
X157416666Y-91506667D01*
X157516666Y-91540000D01*
X157583333Y-91606667D01*
X157616666Y-91673333D01*
X157650000Y-91806667D01*
X157650000Y-91906667D01*
X157616666Y-92040000D01*
X157583333Y-92106667D01*
X157516666Y-92173333D01*
X157416666Y-92206667D01*
X157350000Y-92206667D01*
X157250000Y-92173333D01*
X157216666Y-92140000D01*
X157216666Y-91906667D01*
X157350000Y-91906667D01*
X156916666Y-92206667D02*
X156916666Y-91506667D01*
X156650000Y-91506667D01*
X156583333Y-91540000D01*
X156550000Y-91573333D01*
X156516666Y-91640000D01*
X156516666Y-91740000D01*
X156550000Y-91806667D01*
X156583333Y-91840000D01*
X156650000Y-91873333D01*
X156916666Y-91873333D01*
X156216666Y-92206667D02*
X156216666Y-91506667D01*
X155750000Y-91506667D02*
X155616667Y-91506667D01*
X155550000Y-91540000D01*
X155483333Y-91606667D01*
X155450000Y-91740000D01*
X155450000Y-91973333D01*
X155483333Y-92106667D01*
X155550000Y-92173333D01*
X155616667Y-92206667D01*
X155750000Y-92206667D01*
X155816667Y-92173333D01*
X155883333Y-92106667D01*
X155916667Y-91973333D01*
X155916667Y-91740000D01*
X155883333Y-91606667D01*
X155816667Y-91540000D01*
X155750000Y-91506667D01*
X154783334Y-92206667D02*
X155183334Y-92206667D01*
X154983334Y-92206667D02*
X154983334Y-91506667D01*
X155050000Y-91606667D01*
X155116667Y-91673333D01*
X155183334Y-91706667D01*
X154550000Y-91506667D02*
X154116667Y-91506667D01*
X154350000Y-91773333D01*
X154250000Y-91773333D01*
X154183333Y-91806667D01*
X154150000Y-91840000D01*
X154116667Y-91906667D01*
X154116667Y-92073333D01*
X154150000Y-92140000D01*
X154183333Y-92173333D01*
X154250000Y-92206667D01*
X154450000Y-92206667D01*
X154516667Y-92173333D01*
X154550000Y-92140000D01*
X153983333Y-92273333D02*
X153450000Y-92273333D01*
X153383333Y-91506667D02*
X153150000Y-92206667D01*
X152916667Y-91506667D01*
X152350000Y-92206667D02*
X152683333Y-92206667D01*
X152683333Y-91506667D01*
X152150000Y-92173333D02*
X152050000Y-92206667D01*
X151883333Y-92206667D01*
X151816666Y-92173333D01*
X151783333Y-92140000D01*
X151750000Y-92073333D01*
X151750000Y-92006667D01*
X151783333Y-91940000D01*
X151816666Y-91906667D01*
X151883333Y-91873333D01*
X152016666Y-91840000D01*
X152083333Y-91806667D01*
X152116666Y-91773333D01*
X152150000Y-91706667D01*
X152150000Y-91640000D01*
X152116666Y-91573333D01*
X152083333Y-91540000D01*
X152016666Y-91506667D01*
X151850000Y-91506667D01*
X151750000Y-91540000D01*
X160716667Y-92773333D02*
X160683333Y-92740000D01*
X160616667Y-92706667D01*
X160450000Y-92706667D01*
X160383333Y-92740000D01*
X160350000Y-92773333D01*
X160316667Y-92840000D01*
X160316667Y-92906667D01*
X160350000Y-93006667D01*
X160750000Y-93406667D01*
X160316667Y-93406667D01*
X159716666Y-92940000D02*
X159716666Y-93406667D01*
X159883333Y-92673333D02*
X160050000Y-93173333D01*
X159616666Y-93173333D01*
X159349999Y-93340000D02*
X159316666Y-93373333D01*
X159349999Y-93406667D01*
X159383333Y-93373333D01*
X159349999Y-93340000D01*
X159349999Y-93406667D01*
X159016666Y-93140000D02*
X158483333Y-93140000D01*
X157250000Y-92740000D02*
X157316666Y-92706667D01*
X157416666Y-92706667D01*
X157516666Y-92740000D01*
X157583333Y-92806667D01*
X157616666Y-92873333D01*
X157650000Y-93006667D01*
X157650000Y-93106667D01*
X157616666Y-93240000D01*
X157583333Y-93306667D01*
X157516666Y-93373333D01*
X157416666Y-93406667D01*
X157350000Y-93406667D01*
X157250000Y-93373333D01*
X157216666Y-93340000D01*
X157216666Y-93106667D01*
X157350000Y-93106667D01*
X156916666Y-93406667D02*
X156916666Y-92706667D01*
X156650000Y-92706667D01*
X156583333Y-92740000D01*
X156550000Y-92773333D01*
X156516666Y-92840000D01*
X156516666Y-92940000D01*
X156550000Y-93006667D01*
X156583333Y-93040000D01*
X156650000Y-93073333D01*
X156916666Y-93073333D01*
X156216666Y-93406667D02*
X156216666Y-92706667D01*
X155750000Y-92706667D02*
X155616667Y-92706667D01*
X155550000Y-92740000D01*
X155483333Y-92806667D01*
X155450000Y-92940000D01*
X155450000Y-93173333D01*
X155483333Y-93306667D01*
X155550000Y-93373333D01*
X155616667Y-93406667D01*
X155750000Y-93406667D01*
X155816667Y-93373333D01*
X155883333Y-93306667D01*
X155916667Y-93173333D01*
X155916667Y-92940000D01*
X155883333Y-92806667D01*
X155816667Y-92740000D01*
X155750000Y-92706667D01*
X154783334Y-93406667D02*
X155183334Y-93406667D01*
X154983334Y-93406667D02*
X154983334Y-92706667D01*
X155050000Y-92806667D01*
X155116667Y-92873333D01*
X155183334Y-92906667D01*
X154516667Y-92773333D02*
X154483333Y-92740000D01*
X154416667Y-92706667D01*
X154250000Y-92706667D01*
X154183333Y-92740000D01*
X154150000Y-92773333D01*
X154116667Y-92840000D01*
X154116667Y-92906667D01*
X154150000Y-93006667D01*
X154550000Y-93406667D01*
X154116667Y-93406667D01*
X153983333Y-93473333D02*
X153450000Y-93473333D01*
X153383333Y-92706667D02*
X153150000Y-93406667D01*
X152916667Y-92706667D01*
X152350000Y-93406667D02*
X152683333Y-93406667D01*
X152683333Y-92706667D01*
X152150000Y-93373333D02*
X152050000Y-93406667D01*
X151883333Y-93406667D01*
X151816666Y-93373333D01*
X151783333Y-93340000D01*
X151750000Y-93273333D01*
X151750000Y-93206667D01*
X151783333Y-93140000D01*
X151816666Y-93106667D01*
X151883333Y-93073333D01*
X152016666Y-93040000D01*
X152083333Y-93006667D01*
X152116666Y-92973333D01*
X152150000Y-92906667D01*
X152150000Y-92840000D01*
X152116666Y-92773333D01*
X152083333Y-92740000D01*
X152016666Y-92706667D01*
X151850000Y-92706667D01*
X151750000Y-92740000D01*
X160716667Y-93973333D02*
X160683333Y-93940000D01*
X160616667Y-93906667D01*
X160450000Y-93906667D01*
X160383333Y-93940000D01*
X160350000Y-93973333D01*
X160316667Y-94040000D01*
X160316667Y-94106667D01*
X160350000Y-94206667D01*
X160750000Y-94606667D01*
X160316667Y-94606667D01*
X160050000Y-93973333D02*
X160016666Y-93940000D01*
X159950000Y-93906667D01*
X159783333Y-93906667D01*
X159716666Y-93940000D01*
X159683333Y-93973333D01*
X159650000Y-94040000D01*
X159650000Y-94106667D01*
X159683333Y-94206667D01*
X160083333Y-94606667D01*
X159650000Y-94606667D01*
X159349999Y-94540000D02*
X159316666Y-94573333D01*
X159349999Y-94606667D01*
X159383333Y-94573333D01*
X159349999Y-94540000D01*
X159349999Y-94606667D01*
X159016666Y-94340000D02*
X158483333Y-94340000D01*
X157250000Y-93940000D02*
X157316666Y-93906667D01*
X157416666Y-93906667D01*
X157516666Y-93940000D01*
X157583333Y-94006667D01*
X157616666Y-94073333D01*
X157650000Y-94206667D01*
X157650000Y-94306667D01*
X157616666Y-94440000D01*
X157583333Y-94506667D01*
X157516666Y-94573333D01*
X157416666Y-94606667D01*
X157350000Y-94606667D01*
X157250000Y-94573333D01*
X157216666Y-94540000D01*
X157216666Y-94306667D01*
X157350000Y-94306667D01*
X156916666Y-94606667D02*
X156916666Y-93906667D01*
X156650000Y-93906667D01*
X156583333Y-93940000D01*
X156550000Y-93973333D01*
X156516666Y-94040000D01*
X156516666Y-94140000D01*
X156550000Y-94206667D01*
X156583333Y-94240000D01*
X156650000Y-94273333D01*
X156916666Y-94273333D01*
X156216666Y-94606667D02*
X156216666Y-93906667D01*
X155750000Y-93906667D02*
X155616667Y-93906667D01*
X155550000Y-93940000D01*
X155483333Y-94006667D01*
X155450000Y-94140000D01*
X155450000Y-94373333D01*
X155483333Y-94506667D01*
X155550000Y-94573333D01*
X155616667Y-94606667D01*
X155750000Y-94606667D01*
X155816667Y-94573333D01*
X155883333Y-94506667D01*
X155916667Y-94373333D01*
X155916667Y-94140000D01*
X155883333Y-94006667D01*
X155816667Y-93940000D01*
X155750000Y-93906667D01*
X154783334Y-94606667D02*
X155183334Y-94606667D01*
X154983334Y-94606667D02*
X154983334Y-93906667D01*
X155050000Y-94006667D01*
X155116667Y-94073333D01*
X155183334Y-94106667D01*
X154116667Y-94606667D02*
X154516667Y-94606667D01*
X154316667Y-94606667D02*
X154316667Y-93906667D01*
X154383333Y-94006667D01*
X154450000Y-94073333D01*
X154516667Y-94106667D01*
X153983333Y-94673333D02*
X153450000Y-94673333D01*
X153383333Y-93906667D02*
X153150000Y-94606667D01*
X152916667Y-93906667D01*
X152350000Y-94606667D02*
X152683333Y-94606667D01*
X152683333Y-93906667D01*
X152150000Y-94573333D02*
X152050000Y-94606667D01*
X151883333Y-94606667D01*
X151816666Y-94573333D01*
X151783333Y-94540000D01*
X151750000Y-94473333D01*
X151750000Y-94406667D01*
X151783333Y-94340000D01*
X151816666Y-94306667D01*
X151883333Y-94273333D01*
X152016666Y-94240000D01*
X152083333Y-94206667D01*
X152116666Y-94173333D01*
X152150000Y-94106667D01*
X152150000Y-94040000D01*
X152116666Y-93973333D01*
X152083333Y-93940000D01*
X152016666Y-93906667D01*
X151850000Y-93906667D01*
X151750000Y-93940000D01*
X160716667Y-95173333D02*
X160683333Y-95140000D01*
X160616667Y-95106667D01*
X160450000Y-95106667D01*
X160383333Y-95140000D01*
X160350000Y-95173333D01*
X160316667Y-95240000D01*
X160316667Y-95306667D01*
X160350000Y-95406667D01*
X160750000Y-95806667D01*
X160316667Y-95806667D01*
X159883333Y-95106667D02*
X159816666Y-95106667D01*
X159750000Y-95140000D01*
X159716666Y-95173333D01*
X159683333Y-95240000D01*
X159650000Y-95373333D01*
X159650000Y-95540000D01*
X159683333Y-95673333D01*
X159716666Y-95740000D01*
X159750000Y-95773333D01*
X159816666Y-95806667D01*
X159883333Y-95806667D01*
X159950000Y-95773333D01*
X159983333Y-95740000D01*
X160016666Y-95673333D01*
X160050000Y-95540000D01*
X160050000Y-95373333D01*
X160016666Y-95240000D01*
X159983333Y-95173333D01*
X159950000Y-95140000D01*
X159883333Y-95106667D01*
X159349999Y-95740000D02*
X159316666Y-95773333D01*
X159349999Y-95806667D01*
X159383333Y-95773333D01*
X159349999Y-95740000D01*
X159349999Y-95806667D01*
X159016666Y-95540000D02*
X158483333Y-95540000D01*
X157250000Y-95140000D02*
X157316666Y-95106667D01*
X157416666Y-95106667D01*
X157516666Y-95140000D01*
X157583333Y-95206667D01*
X157616666Y-95273333D01*
X157650000Y-95406667D01*
X157650000Y-95506667D01*
X157616666Y-95640000D01*
X157583333Y-95706667D01*
X157516666Y-95773333D01*
X157416666Y-95806667D01*
X157350000Y-95806667D01*
X157250000Y-95773333D01*
X157216666Y-95740000D01*
X157216666Y-95506667D01*
X157350000Y-95506667D01*
X156916666Y-95806667D02*
X156916666Y-95106667D01*
X156650000Y-95106667D01*
X156583333Y-95140000D01*
X156550000Y-95173333D01*
X156516666Y-95240000D01*
X156516666Y-95340000D01*
X156550000Y-95406667D01*
X156583333Y-95440000D01*
X156650000Y-95473333D01*
X156916666Y-95473333D01*
X156216666Y-95806667D02*
X156216666Y-95106667D01*
X155750000Y-95106667D02*
X155616667Y-95106667D01*
X155550000Y-95140000D01*
X155483333Y-95206667D01*
X155450000Y-95340000D01*
X155450000Y-95573333D01*
X155483333Y-95706667D01*
X155550000Y-95773333D01*
X155616667Y-95806667D01*
X155750000Y-95806667D01*
X155816667Y-95773333D01*
X155883333Y-95706667D01*
X155916667Y-95573333D01*
X155916667Y-95340000D01*
X155883333Y-95206667D01*
X155816667Y-95140000D01*
X155750000Y-95106667D01*
X154783334Y-95806667D02*
X155183334Y-95806667D01*
X154983334Y-95806667D02*
X154983334Y-95106667D01*
X155050000Y-95206667D01*
X155116667Y-95273333D01*
X155183334Y-95306667D01*
X154183333Y-95106667D02*
X154316667Y-95106667D01*
X154383333Y-95140000D01*
X154416667Y-95173333D01*
X154483333Y-95273333D01*
X154516667Y-95406667D01*
X154516667Y-95673333D01*
X154483333Y-95740000D01*
X154450000Y-95773333D01*
X154383333Y-95806667D01*
X154250000Y-95806667D01*
X154183333Y-95773333D01*
X154150000Y-95740000D01*
X154116667Y-95673333D01*
X154116667Y-95506667D01*
X154150000Y-95440000D01*
X154183333Y-95406667D01*
X154250000Y-95373333D01*
X154383333Y-95373333D01*
X154450000Y-95406667D01*
X154483333Y-95440000D01*
X154516667Y-95506667D01*
X160316667Y-97006667D02*
X160716667Y-97006667D01*
X160516667Y-97006667D02*
X160516667Y-96306667D01*
X160583333Y-96406667D01*
X160650000Y-96473333D01*
X160716667Y-96506667D01*
X159916666Y-96606667D02*
X159983333Y-96573333D01*
X160016666Y-96540000D01*
X160050000Y-96473333D01*
X160050000Y-96440000D01*
X160016666Y-96373333D01*
X159983333Y-96340000D01*
X159916666Y-96306667D01*
X159783333Y-96306667D01*
X159716666Y-96340000D01*
X159683333Y-96373333D01*
X159650000Y-96440000D01*
X159650000Y-96473333D01*
X159683333Y-96540000D01*
X159716666Y-96573333D01*
X159783333Y-96606667D01*
X159916666Y-96606667D01*
X159983333Y-96640000D01*
X160016666Y-96673333D01*
X160050000Y-96740000D01*
X160050000Y-96873333D01*
X160016666Y-96940000D01*
X159983333Y-96973333D01*
X159916666Y-97006667D01*
X159783333Y-97006667D01*
X159716666Y-96973333D01*
X159683333Y-96940000D01*
X159650000Y-96873333D01*
X159650000Y-96740000D01*
X159683333Y-96673333D01*
X159716666Y-96640000D01*
X159783333Y-96606667D01*
X159349999Y-96940000D02*
X159316666Y-96973333D01*
X159349999Y-97006667D01*
X159383333Y-96973333D01*
X159349999Y-96940000D01*
X159349999Y-97006667D01*
X159016666Y-96740000D02*
X158483333Y-96740000D01*
X157250000Y-96340000D02*
X157316666Y-96306667D01*
X157416666Y-96306667D01*
X157516666Y-96340000D01*
X157583333Y-96406667D01*
X157616666Y-96473333D01*
X157650000Y-96606667D01*
X157650000Y-96706667D01*
X157616666Y-96840000D01*
X157583333Y-96906667D01*
X157516666Y-96973333D01*
X157416666Y-97006667D01*
X157350000Y-97006667D01*
X157250000Y-96973333D01*
X157216666Y-96940000D01*
X157216666Y-96706667D01*
X157350000Y-96706667D01*
X156916666Y-97006667D02*
X156916666Y-96306667D01*
X156650000Y-96306667D01*
X156583333Y-96340000D01*
X156550000Y-96373333D01*
X156516666Y-96440000D01*
X156516666Y-96540000D01*
X156550000Y-96606667D01*
X156583333Y-96640000D01*
X156650000Y-96673333D01*
X156916666Y-96673333D01*
X156216666Y-97006667D02*
X156216666Y-96306667D01*
X155750000Y-96306667D02*
X155616667Y-96306667D01*
X155550000Y-96340000D01*
X155483333Y-96406667D01*
X155450000Y-96540000D01*
X155450000Y-96773333D01*
X155483333Y-96906667D01*
X155550000Y-96973333D01*
X155616667Y-97006667D01*
X155750000Y-97006667D01*
X155816667Y-96973333D01*
X155883333Y-96906667D01*
X155916667Y-96773333D01*
X155916667Y-96540000D01*
X155883333Y-96406667D01*
X155816667Y-96340000D01*
X155750000Y-96306667D01*
X154783334Y-97006667D02*
X155183334Y-97006667D01*
X154983334Y-97006667D02*
X154983334Y-96306667D01*
X155050000Y-96406667D01*
X155116667Y-96473333D01*
X155183334Y-96506667D01*
X154150000Y-96306667D02*
X154483333Y-96306667D01*
X154516667Y-96640000D01*
X154483333Y-96606667D01*
X154416667Y-96573333D01*
X154250000Y-96573333D01*
X154183333Y-96606667D01*
X154150000Y-96640000D01*
X154116667Y-96706667D01*
X154116667Y-96873333D01*
X154150000Y-96940000D01*
X154183333Y-96973333D01*
X154250000Y-97006667D01*
X154416667Y-97006667D01*
X154483333Y-96973333D01*
X154516667Y-96940000D01*
X160316667Y-98206667D02*
X160716667Y-98206667D01*
X160516667Y-98206667D02*
X160516667Y-97506667D01*
X160583333Y-97606667D01*
X160650000Y-97673333D01*
X160716667Y-97706667D01*
X159716666Y-97506667D02*
X159850000Y-97506667D01*
X159916666Y-97540000D01*
X159950000Y-97573333D01*
X160016666Y-97673333D01*
X160050000Y-97806667D01*
X160050000Y-98073333D01*
X160016666Y-98140000D01*
X159983333Y-98173333D01*
X159916666Y-98206667D01*
X159783333Y-98206667D01*
X159716666Y-98173333D01*
X159683333Y-98140000D01*
X159650000Y-98073333D01*
X159650000Y-97906667D01*
X159683333Y-97840000D01*
X159716666Y-97806667D01*
X159783333Y-97773333D01*
X159916666Y-97773333D01*
X159983333Y-97806667D01*
X160016666Y-97840000D01*
X160050000Y-97906667D01*
X159349999Y-98140000D02*
X159316666Y-98173333D01*
X159349999Y-98206667D01*
X159383333Y-98173333D01*
X159349999Y-98140000D01*
X159349999Y-98206667D01*
X159016666Y-97940000D02*
X158483333Y-97940000D01*
X157250000Y-97540000D02*
X157316666Y-97506667D01*
X157416666Y-97506667D01*
X157516666Y-97540000D01*
X157583333Y-97606667D01*
X157616666Y-97673333D01*
X157650000Y-97806667D01*
X157650000Y-97906667D01*
X157616666Y-98040000D01*
X157583333Y-98106667D01*
X157516666Y-98173333D01*
X157416666Y-98206667D01*
X157350000Y-98206667D01*
X157250000Y-98173333D01*
X157216666Y-98140000D01*
X157216666Y-97906667D01*
X157350000Y-97906667D01*
X156916666Y-98206667D02*
X156916666Y-97506667D01*
X156516666Y-98206667D01*
X156516666Y-97506667D01*
X156183333Y-98206667D02*
X156183333Y-97506667D01*
X156016667Y-97506667D01*
X155916667Y-97540000D01*
X155850000Y-97606667D01*
X155816667Y-97673333D01*
X155783333Y-97806667D01*
X155783333Y-97906667D01*
X155816667Y-98040000D01*
X155850000Y-98106667D01*
X155916667Y-98173333D01*
X156016667Y-98206667D01*
X156183333Y-98206667D01*
X160316667Y-99406667D02*
X160716667Y-99406667D01*
X160516667Y-99406667D02*
X160516667Y-98706667D01*
X160583333Y-98806667D01*
X160650000Y-98873333D01*
X160716667Y-98906667D01*
X159716666Y-98940000D02*
X159716666Y-99406667D01*
X159883333Y-98673333D02*
X160050000Y-99173333D01*
X159616666Y-99173333D01*
X159349999Y-99340000D02*
X159316666Y-99373333D01*
X159349999Y-99406667D01*
X159383333Y-99373333D01*
X159349999Y-99340000D01*
X159349999Y-99406667D01*
X159016666Y-99140000D02*
X158483333Y-99140000D01*
X157250000Y-98740000D02*
X157316666Y-98706667D01*
X157416666Y-98706667D01*
X157516666Y-98740000D01*
X157583333Y-98806667D01*
X157616666Y-98873333D01*
X157650000Y-99006667D01*
X157650000Y-99106667D01*
X157616666Y-99240000D01*
X157583333Y-99306667D01*
X157516666Y-99373333D01*
X157416666Y-99406667D01*
X157350000Y-99406667D01*
X157250000Y-99373333D01*
X157216666Y-99340000D01*
X157216666Y-99106667D01*
X157350000Y-99106667D01*
X156916666Y-99406667D02*
X156916666Y-98706667D01*
X156650000Y-98706667D01*
X156583333Y-98740000D01*
X156550000Y-98773333D01*
X156516666Y-98840000D01*
X156516666Y-98940000D01*
X156550000Y-99006667D01*
X156583333Y-99040000D01*
X156650000Y-99073333D01*
X156916666Y-99073333D01*
X156216666Y-99406667D02*
X156216666Y-98706667D01*
X155750000Y-98706667D02*
X155616667Y-98706667D01*
X155550000Y-98740000D01*
X155483333Y-98806667D01*
X155450000Y-98940000D01*
X155450000Y-99173333D01*
X155483333Y-99306667D01*
X155550000Y-99373333D01*
X155616667Y-99406667D01*
X155750000Y-99406667D01*
X155816667Y-99373333D01*
X155883333Y-99306667D01*
X155916667Y-99173333D01*
X155916667Y-98940000D01*
X155883333Y-98806667D01*
X155816667Y-98740000D01*
X155750000Y-98706667D01*
X154783334Y-99406667D02*
X155183334Y-99406667D01*
X154983334Y-99406667D02*
X154983334Y-98706667D01*
X155050000Y-98806667D01*
X155116667Y-98873333D01*
X155183334Y-98906667D01*
X154550000Y-98706667D02*
X154083333Y-98706667D01*
X154383333Y-99406667D01*
X160316667Y-100606667D02*
X160716667Y-100606667D01*
X160516667Y-100606667D02*
X160516667Y-99906667D01*
X160583333Y-100006667D01*
X160650000Y-100073333D01*
X160716667Y-100106667D01*
X160050000Y-99973333D02*
X160016666Y-99940000D01*
X159950000Y-99906667D01*
X159783333Y-99906667D01*
X159716666Y-99940000D01*
X159683333Y-99973333D01*
X159650000Y-100040000D01*
X159650000Y-100106667D01*
X159683333Y-100206667D01*
X160083333Y-100606667D01*
X159650000Y-100606667D01*
X159349999Y-100540000D02*
X159316666Y-100573333D01*
X159349999Y-100606667D01*
X159383333Y-100573333D01*
X159349999Y-100540000D01*
X159349999Y-100606667D01*
X159016666Y-100340000D02*
X158483333Y-100340000D01*
X157250000Y-99940000D02*
X157316666Y-99906667D01*
X157416666Y-99906667D01*
X157516666Y-99940000D01*
X157583333Y-100006667D01*
X157616666Y-100073333D01*
X157650000Y-100206667D01*
X157650000Y-100306667D01*
X157616666Y-100440000D01*
X157583333Y-100506667D01*
X157516666Y-100573333D01*
X157416666Y-100606667D01*
X157350000Y-100606667D01*
X157250000Y-100573333D01*
X157216666Y-100540000D01*
X157216666Y-100306667D01*
X157350000Y-100306667D01*
X156916666Y-100606667D02*
X156916666Y-99906667D01*
X156650000Y-99906667D01*
X156583333Y-99940000D01*
X156550000Y-99973333D01*
X156516666Y-100040000D01*
X156516666Y-100140000D01*
X156550000Y-100206667D01*
X156583333Y-100240000D01*
X156650000Y-100273333D01*
X156916666Y-100273333D01*
X156216666Y-100606667D02*
X156216666Y-99906667D01*
X155750000Y-99906667D02*
X155616667Y-99906667D01*
X155550000Y-99940000D01*
X155483333Y-100006667D01*
X155450000Y-100140000D01*
X155450000Y-100373333D01*
X155483333Y-100506667D01*
X155550000Y-100573333D01*
X155616667Y-100606667D01*
X155750000Y-100606667D01*
X155816667Y-100573333D01*
X155883333Y-100506667D01*
X155916667Y-100373333D01*
X155916667Y-100140000D01*
X155883333Y-100006667D01*
X155816667Y-99940000D01*
X155750000Y-99906667D01*
X154783334Y-100606667D02*
X155183334Y-100606667D01*
X154983334Y-100606667D02*
X154983334Y-99906667D01*
X155050000Y-100006667D01*
X155116667Y-100073333D01*
X155183334Y-100106667D01*
X154383333Y-100206667D02*
X154450000Y-100173333D01*
X154483333Y-100140000D01*
X154516667Y-100073333D01*
X154516667Y-100040000D01*
X154483333Y-99973333D01*
X154450000Y-99940000D01*
X154383333Y-99906667D01*
X154250000Y-99906667D01*
X154183333Y-99940000D01*
X154150000Y-99973333D01*
X154116667Y-100040000D01*
X154116667Y-100073333D01*
X154150000Y-100140000D01*
X154183333Y-100173333D01*
X154250000Y-100206667D01*
X154383333Y-100206667D01*
X154450000Y-100240000D01*
X154483333Y-100273333D01*
X154516667Y-100340000D01*
X154516667Y-100473333D01*
X154483333Y-100540000D01*
X154450000Y-100573333D01*
X154383333Y-100606667D01*
X154250000Y-100606667D01*
X154183333Y-100573333D01*
X154150000Y-100540000D01*
X154116667Y-100473333D01*
X154116667Y-100340000D01*
X154150000Y-100273333D01*
X154183333Y-100240000D01*
X154250000Y-100206667D01*
X160316667Y-101806667D02*
X160716667Y-101806667D01*
X160516667Y-101806667D02*
X160516667Y-101106667D01*
X160583333Y-101206667D01*
X160650000Y-101273333D01*
X160716667Y-101306667D01*
X159883333Y-101106667D02*
X159816666Y-101106667D01*
X159750000Y-101140000D01*
X159716666Y-101173333D01*
X159683333Y-101240000D01*
X159650000Y-101373333D01*
X159650000Y-101540000D01*
X159683333Y-101673333D01*
X159716666Y-101740000D01*
X159750000Y-101773333D01*
X159816666Y-101806667D01*
X159883333Y-101806667D01*
X159950000Y-101773333D01*
X159983333Y-101740000D01*
X160016666Y-101673333D01*
X160050000Y-101540000D01*
X160050000Y-101373333D01*
X160016666Y-101240000D01*
X159983333Y-101173333D01*
X159950000Y-101140000D01*
X159883333Y-101106667D01*
X159349999Y-101740000D02*
X159316666Y-101773333D01*
X159349999Y-101806667D01*
X159383333Y-101773333D01*
X159349999Y-101740000D01*
X159349999Y-101806667D01*
X159016666Y-101540000D02*
X158483333Y-101540000D01*
X157250000Y-101140000D02*
X157316666Y-101106667D01*
X157416666Y-101106667D01*
X157516666Y-101140000D01*
X157583333Y-101206667D01*
X157616666Y-101273333D01*
X157650000Y-101406667D01*
X157650000Y-101506667D01*
X157616666Y-101640000D01*
X157583333Y-101706667D01*
X157516666Y-101773333D01*
X157416666Y-101806667D01*
X157350000Y-101806667D01*
X157250000Y-101773333D01*
X157216666Y-101740000D01*
X157216666Y-101506667D01*
X157350000Y-101506667D01*
X156916666Y-101806667D02*
X156916666Y-101106667D01*
X156650000Y-101106667D01*
X156583333Y-101140000D01*
X156550000Y-101173333D01*
X156516666Y-101240000D01*
X156516666Y-101340000D01*
X156550000Y-101406667D01*
X156583333Y-101440000D01*
X156650000Y-101473333D01*
X156916666Y-101473333D01*
X156216666Y-101806667D02*
X156216666Y-101106667D01*
X155750000Y-101106667D02*
X155616667Y-101106667D01*
X155550000Y-101140000D01*
X155483333Y-101206667D01*
X155450000Y-101340000D01*
X155450000Y-101573333D01*
X155483333Y-101706667D01*
X155550000Y-101773333D01*
X155616667Y-101806667D01*
X155750000Y-101806667D01*
X155816667Y-101773333D01*
X155883333Y-101706667D01*
X155916667Y-101573333D01*
X155916667Y-101340000D01*
X155883333Y-101206667D01*
X155816667Y-101140000D01*
X155750000Y-101106667D01*
X154783334Y-101806667D02*
X155183334Y-101806667D01*
X154983334Y-101806667D02*
X154983334Y-101106667D01*
X155050000Y-101206667D01*
X155116667Y-101273333D01*
X155183334Y-101306667D01*
X154450000Y-101806667D02*
X154316667Y-101806667D01*
X154250000Y-101773333D01*
X154216667Y-101740000D01*
X154150000Y-101640000D01*
X154116667Y-101506667D01*
X154116667Y-101240000D01*
X154150000Y-101173333D01*
X154183333Y-101140000D01*
X154250000Y-101106667D01*
X154383333Y-101106667D01*
X154450000Y-101140000D01*
X154483333Y-101173333D01*
X154516667Y-101240000D01*
X154516667Y-101406667D01*
X154483333Y-101473333D01*
X154450000Y-101506667D01*
X154383333Y-101540000D01*
X154250000Y-101540000D01*
X154183333Y-101506667D01*
X154150000Y-101473333D01*
X154116667Y-101406667D01*
X160583333Y-102606667D02*
X160650000Y-102573333D01*
X160683333Y-102540000D01*
X160716667Y-102473333D01*
X160716667Y-102440000D01*
X160683333Y-102373333D01*
X160650000Y-102340000D01*
X160583333Y-102306667D01*
X160450000Y-102306667D01*
X160383333Y-102340000D01*
X160350000Y-102373333D01*
X160316667Y-102440000D01*
X160316667Y-102473333D01*
X160350000Y-102540000D01*
X160383333Y-102573333D01*
X160450000Y-102606667D01*
X160583333Y-102606667D01*
X160650000Y-102640000D01*
X160683333Y-102673333D01*
X160716667Y-102740000D01*
X160716667Y-102873333D01*
X160683333Y-102940000D01*
X160650000Y-102973333D01*
X160583333Y-103006667D01*
X160450000Y-103006667D01*
X160383333Y-102973333D01*
X160350000Y-102940000D01*
X160316667Y-102873333D01*
X160316667Y-102740000D01*
X160350000Y-102673333D01*
X160383333Y-102640000D01*
X160450000Y-102606667D01*
X160016666Y-102940000D02*
X159983333Y-102973333D01*
X160016666Y-103006667D01*
X160050000Y-102973333D01*
X160016666Y-102940000D01*
X160016666Y-103006667D01*
X159683333Y-102740000D02*
X159150000Y-102740000D01*
X157916667Y-102340000D02*
X157983333Y-102306667D01*
X158083333Y-102306667D01*
X158183333Y-102340000D01*
X158250000Y-102406667D01*
X158283333Y-102473333D01*
X158316667Y-102606667D01*
X158316667Y-102706667D01*
X158283333Y-102840000D01*
X158250000Y-102906667D01*
X158183333Y-102973333D01*
X158083333Y-103006667D01*
X158016667Y-103006667D01*
X157916667Y-102973333D01*
X157883333Y-102940000D01*
X157883333Y-102706667D01*
X158016667Y-102706667D01*
X157583333Y-103006667D02*
X157583333Y-102306667D01*
X157316667Y-102306667D01*
X157250000Y-102340000D01*
X157216667Y-102373333D01*
X157183333Y-102440000D01*
X157183333Y-102540000D01*
X157216667Y-102606667D01*
X157250000Y-102640000D01*
X157316667Y-102673333D01*
X157583333Y-102673333D01*
X156883333Y-103006667D02*
X156883333Y-102306667D01*
X156416667Y-102306667D02*
X156283334Y-102306667D01*
X156216667Y-102340000D01*
X156150000Y-102406667D01*
X156116667Y-102540000D01*
X156116667Y-102773333D01*
X156150000Y-102906667D01*
X156216667Y-102973333D01*
X156283334Y-103006667D01*
X156416667Y-103006667D01*
X156483334Y-102973333D01*
X156550000Y-102906667D01*
X156583334Y-102773333D01*
X156583334Y-102540000D01*
X156550000Y-102406667D01*
X156483334Y-102340000D01*
X156416667Y-102306667D01*
X155683334Y-102306667D02*
X155616667Y-102306667D01*
X155550001Y-102340000D01*
X155516667Y-102373333D01*
X155483334Y-102440000D01*
X155450001Y-102573333D01*
X155450001Y-102740000D01*
X155483334Y-102873333D01*
X155516667Y-102940000D01*
X155550001Y-102973333D01*
X155616667Y-103006667D01*
X155683334Y-103006667D01*
X155750001Y-102973333D01*
X155783334Y-102940000D01*
X155816667Y-102873333D01*
X155850001Y-102740000D01*
X155850001Y-102573333D01*
X155816667Y-102440000D01*
X155783334Y-102373333D01*
X155750001Y-102340000D01*
X155683334Y-102306667D01*
X154816667Y-102306667D02*
X155150000Y-102306667D01*
X155183334Y-102640000D01*
X155150000Y-102606667D01*
X155083334Y-102573333D01*
X154916667Y-102573333D01*
X154850000Y-102606667D01*
X154816667Y-102640000D01*
X154783334Y-102706667D01*
X154783334Y-102873333D01*
X154816667Y-102940000D01*
X154850000Y-102973333D01*
X154916667Y-103006667D01*
X155083334Y-103006667D01*
X155150000Y-102973333D01*
X155183334Y-102940000D01*
X154650000Y-103073333D02*
X154116667Y-103073333D01*
X154050000Y-102306667D02*
X153816667Y-103006667D01*
X153583334Y-102306667D01*
X153016667Y-103006667D02*
X153350000Y-103006667D01*
X153350000Y-102306667D01*
X152816667Y-102973333D02*
X152716667Y-103006667D01*
X152550000Y-103006667D01*
X152483333Y-102973333D01*
X152450000Y-102940000D01*
X152416667Y-102873333D01*
X152416667Y-102806667D01*
X152450000Y-102740000D01*
X152483333Y-102706667D01*
X152550000Y-102673333D01*
X152683333Y-102640000D01*
X152750000Y-102606667D01*
X152783333Y-102573333D01*
X152816667Y-102506667D01*
X152816667Y-102440000D01*
X152783333Y-102373333D01*
X152750000Y-102340000D01*
X152683333Y-102306667D01*
X152516667Y-102306667D01*
X152416667Y-102340000D01*
X160383333Y-103506667D02*
X160516667Y-103506667D01*
X160583333Y-103540000D01*
X160616667Y-103573333D01*
X160683333Y-103673333D01*
X160716667Y-103806667D01*
X160716667Y-104073333D01*
X160683333Y-104140000D01*
X160650000Y-104173333D01*
X160583333Y-104206667D01*
X160450000Y-104206667D01*
X160383333Y-104173333D01*
X160350000Y-104140000D01*
X160316667Y-104073333D01*
X160316667Y-103906667D01*
X160350000Y-103840000D01*
X160383333Y-103806667D01*
X160450000Y-103773333D01*
X160583333Y-103773333D01*
X160650000Y-103806667D01*
X160683333Y-103840000D01*
X160716667Y-103906667D01*
X160016666Y-104140000D02*
X159983333Y-104173333D01*
X160016666Y-104206667D01*
X160050000Y-104173333D01*
X160016666Y-104140000D01*
X160016666Y-104206667D01*
X159683333Y-103940000D02*
X159150000Y-103940000D01*
X157916667Y-103540000D02*
X157983333Y-103506667D01*
X158083333Y-103506667D01*
X158183333Y-103540000D01*
X158250000Y-103606667D01*
X158283333Y-103673333D01*
X158316667Y-103806667D01*
X158316667Y-103906667D01*
X158283333Y-104040000D01*
X158250000Y-104106667D01*
X158183333Y-104173333D01*
X158083333Y-104206667D01*
X158016667Y-104206667D01*
X157916667Y-104173333D01*
X157883333Y-104140000D01*
X157883333Y-103906667D01*
X158016667Y-103906667D01*
X157583333Y-104206667D02*
X157583333Y-103506667D01*
X157316667Y-103506667D01*
X157250000Y-103540000D01*
X157216667Y-103573333D01*
X157183333Y-103640000D01*
X157183333Y-103740000D01*
X157216667Y-103806667D01*
X157250000Y-103840000D01*
X157316667Y-103873333D01*
X157583333Y-103873333D01*
X156883333Y-104206667D02*
X156883333Y-103506667D01*
X156416667Y-103506667D02*
X156283334Y-103506667D01*
X156216667Y-103540000D01*
X156150000Y-103606667D01*
X156116667Y-103740000D01*
X156116667Y-103973333D01*
X156150000Y-104106667D01*
X156216667Y-104173333D01*
X156283334Y-104206667D01*
X156416667Y-104206667D01*
X156483334Y-104173333D01*
X156550000Y-104106667D01*
X156583334Y-103973333D01*
X156583334Y-103740000D01*
X156550000Y-103606667D01*
X156483334Y-103540000D01*
X156416667Y-103506667D01*
X155683334Y-103506667D02*
X155616667Y-103506667D01*
X155550001Y-103540000D01*
X155516667Y-103573333D01*
X155483334Y-103640000D01*
X155450001Y-103773333D01*
X155450001Y-103940000D01*
X155483334Y-104073333D01*
X155516667Y-104140000D01*
X155550001Y-104173333D01*
X155616667Y-104206667D01*
X155683334Y-104206667D01*
X155750001Y-104173333D01*
X155783334Y-104140000D01*
X155816667Y-104073333D01*
X155850001Y-103940000D01*
X155850001Y-103773333D01*
X155816667Y-103640000D01*
X155783334Y-103573333D01*
X155750001Y-103540000D01*
X155683334Y-103506667D01*
X154850000Y-103740000D02*
X154850000Y-104206667D01*
X155016667Y-103473333D02*
X155183334Y-103973333D01*
X154750000Y-103973333D01*
X154650000Y-104273333D02*
X154116667Y-104273333D01*
X154050000Y-103506667D02*
X153816667Y-104206667D01*
X153583334Y-103506667D01*
X153016667Y-104206667D02*
X153350000Y-104206667D01*
X153350000Y-103506667D01*
X152816667Y-104173333D02*
X152716667Y-104206667D01*
X152550000Y-104206667D01*
X152483333Y-104173333D01*
X152450000Y-104140000D01*
X152416667Y-104073333D01*
X152416667Y-104006667D01*
X152450000Y-103940000D01*
X152483333Y-103906667D01*
X152550000Y-103873333D01*
X152683333Y-103840000D01*
X152750000Y-103806667D01*
X152783333Y-103773333D01*
X152816667Y-103706667D01*
X152816667Y-103640000D01*
X152783333Y-103573333D01*
X152750000Y-103540000D01*
X152683333Y-103506667D01*
X152516667Y-103506667D01*
X152416667Y-103540000D01*
X160383333Y-104940000D02*
X160383333Y-105406667D01*
X160550000Y-104673333D02*
X160716667Y-105173333D01*
X160283333Y-105173333D01*
X160016666Y-105340000D02*
X159983333Y-105373333D01*
X160016666Y-105406667D01*
X160050000Y-105373333D01*
X160016666Y-105340000D01*
X160016666Y-105406667D01*
X159683333Y-105140000D02*
X159150000Y-105140000D01*
X157916667Y-104740000D02*
X157983333Y-104706667D01*
X158083333Y-104706667D01*
X158183333Y-104740000D01*
X158250000Y-104806667D01*
X158283333Y-104873333D01*
X158316667Y-105006667D01*
X158316667Y-105106667D01*
X158283333Y-105240000D01*
X158250000Y-105306667D01*
X158183333Y-105373333D01*
X158083333Y-105406667D01*
X158016667Y-105406667D01*
X157916667Y-105373333D01*
X157883333Y-105340000D01*
X157883333Y-105106667D01*
X158016667Y-105106667D01*
X157583333Y-105406667D02*
X157583333Y-104706667D01*
X157183333Y-105406667D01*
X157183333Y-104706667D01*
X156850000Y-105406667D02*
X156850000Y-104706667D01*
X156683334Y-104706667D01*
X156583334Y-104740000D01*
X156516667Y-104806667D01*
X156483334Y-104873333D01*
X156450000Y-105006667D01*
X156450000Y-105106667D01*
X156483334Y-105240000D01*
X156516667Y-105306667D01*
X156583334Y-105373333D01*
X156683334Y-105406667D01*
X156850000Y-105406667D01*
X160716667Y-105973333D02*
X160683333Y-105940000D01*
X160616667Y-105906667D01*
X160450000Y-105906667D01*
X160383333Y-105940000D01*
X160350000Y-105973333D01*
X160316667Y-106040000D01*
X160316667Y-106106667D01*
X160350000Y-106206667D01*
X160750000Y-106606667D01*
X160316667Y-106606667D01*
X160016666Y-106540000D02*
X159983333Y-106573333D01*
X160016666Y-106606667D01*
X160050000Y-106573333D01*
X160016666Y-106540000D01*
X160016666Y-106606667D01*
X159683333Y-106340000D02*
X159150000Y-106340000D01*
X158283333Y-106340000D02*
X157750000Y-106340000D01*
X158016667Y-106606667D02*
X158016667Y-106073333D01*
X157083333Y-105906667D02*
X157416666Y-105906667D01*
X157450000Y-106240000D01*
X157416666Y-106206667D01*
X157350000Y-106173333D01*
X157183333Y-106173333D01*
X157116666Y-106206667D01*
X157083333Y-106240000D01*
X157050000Y-106306667D01*
X157050000Y-106473333D01*
X157083333Y-106540000D01*
X157116666Y-106573333D01*
X157183333Y-106606667D01*
X157350000Y-106606667D01*
X157416666Y-106573333D01*
X157450000Y-106540000D01*
X156849999Y-105906667D02*
X156616666Y-106606667D01*
X156383333Y-105906667D01*
X150500000Y-89173333D02*
X150466666Y-89140000D01*
X150400000Y-89106667D01*
X150233333Y-89106667D01*
X150166666Y-89140000D01*
X150133333Y-89173333D01*
X150100000Y-89240000D01*
X150100000Y-89306667D01*
X150133333Y-89406667D01*
X150533333Y-89806667D01*
X150100000Y-89806667D01*
X149766666Y-89806667D02*
X149633333Y-89806667D01*
X149566666Y-89773333D01*
X149533333Y-89740000D01*
X149466666Y-89640000D01*
X149433333Y-89506667D01*
X149433333Y-89240000D01*
X149466666Y-89173333D01*
X149499999Y-89140000D01*
X149566666Y-89106667D01*
X149699999Y-89106667D01*
X149766666Y-89140000D01*
X149799999Y-89173333D01*
X149833333Y-89240000D01*
X149833333Y-89406667D01*
X149799999Y-89473333D01*
X149766666Y-89506667D01*
X149699999Y-89540000D01*
X149566666Y-89540000D01*
X149499999Y-89506667D01*
X149466666Y-89473333D01*
X149433333Y-89406667D01*
X149133332Y-89740000D02*
X149099999Y-89773333D01*
X149133332Y-89806667D01*
X149166666Y-89773333D01*
X149133332Y-89740000D01*
X149133332Y-89806667D01*
X148799999Y-89540000D02*
X148266666Y-89540000D01*
X147033333Y-89140000D02*
X147099999Y-89106667D01*
X147199999Y-89106667D01*
X147299999Y-89140000D01*
X147366666Y-89206667D01*
X147399999Y-89273333D01*
X147433333Y-89406667D01*
X147433333Y-89506667D01*
X147399999Y-89640000D01*
X147366666Y-89706667D01*
X147299999Y-89773333D01*
X147199999Y-89806667D01*
X147133333Y-89806667D01*
X147033333Y-89773333D01*
X146999999Y-89740000D01*
X146999999Y-89506667D01*
X147133333Y-89506667D01*
X146699999Y-89806667D02*
X146699999Y-89106667D01*
X146433333Y-89106667D01*
X146366666Y-89140000D01*
X146333333Y-89173333D01*
X146299999Y-89240000D01*
X146299999Y-89340000D01*
X146333333Y-89406667D01*
X146366666Y-89440000D01*
X146433333Y-89473333D01*
X146699999Y-89473333D01*
X145999999Y-89806667D02*
X145999999Y-89106667D01*
X145533333Y-89106667D02*
X145400000Y-89106667D01*
X145333333Y-89140000D01*
X145266666Y-89206667D01*
X145233333Y-89340000D01*
X145233333Y-89573333D01*
X145266666Y-89706667D01*
X145333333Y-89773333D01*
X145400000Y-89806667D01*
X145533333Y-89806667D01*
X145600000Y-89773333D01*
X145666666Y-89706667D01*
X145700000Y-89573333D01*
X145700000Y-89340000D01*
X145666666Y-89206667D01*
X145600000Y-89140000D01*
X145533333Y-89106667D01*
X144566667Y-89806667D02*
X144966667Y-89806667D01*
X144766667Y-89806667D02*
X144766667Y-89106667D01*
X144833333Y-89206667D01*
X144900000Y-89273333D01*
X144966667Y-89306667D01*
X143966666Y-89340000D02*
X143966666Y-89806667D01*
X144133333Y-89073333D02*
X144300000Y-89573333D01*
X143866666Y-89573333D01*
X150500000Y-90373333D02*
X150466666Y-90340000D01*
X150400000Y-90306667D01*
X150233333Y-90306667D01*
X150166666Y-90340000D01*
X150133333Y-90373333D01*
X150100000Y-90440000D01*
X150100000Y-90506667D01*
X150133333Y-90606667D01*
X150533333Y-91006667D01*
X150100000Y-91006667D01*
X149866666Y-90306667D02*
X149399999Y-90306667D01*
X149699999Y-91006667D01*
X149133332Y-90940000D02*
X149099999Y-90973333D01*
X149133332Y-91006667D01*
X149166666Y-90973333D01*
X149133332Y-90940000D01*
X149133332Y-91006667D01*
X148799999Y-90740000D02*
X148266666Y-90740000D01*
X147033333Y-90340000D02*
X147099999Y-90306667D01*
X147199999Y-90306667D01*
X147299999Y-90340000D01*
X147366666Y-90406667D01*
X147399999Y-90473333D01*
X147433333Y-90606667D01*
X147433333Y-90706667D01*
X147399999Y-90840000D01*
X147366666Y-90906667D01*
X147299999Y-90973333D01*
X147199999Y-91006667D01*
X147133333Y-91006667D01*
X147033333Y-90973333D01*
X146999999Y-90940000D01*
X146999999Y-90706667D01*
X147133333Y-90706667D01*
X146699999Y-91006667D02*
X146699999Y-90306667D01*
X146433333Y-90306667D01*
X146366666Y-90340000D01*
X146333333Y-90373333D01*
X146299999Y-90440000D01*
X146299999Y-90540000D01*
X146333333Y-90606667D01*
X146366666Y-90640000D01*
X146433333Y-90673333D01*
X146699999Y-90673333D01*
X145999999Y-91006667D02*
X145999999Y-90306667D01*
X145533333Y-90306667D02*
X145400000Y-90306667D01*
X145333333Y-90340000D01*
X145266666Y-90406667D01*
X145233333Y-90540000D01*
X145233333Y-90773333D01*
X145266666Y-90906667D01*
X145333333Y-90973333D01*
X145400000Y-91006667D01*
X145533333Y-91006667D01*
X145600000Y-90973333D01*
X145666666Y-90906667D01*
X145700000Y-90773333D01*
X145700000Y-90540000D01*
X145666666Y-90406667D01*
X145600000Y-90340000D01*
X145533333Y-90306667D01*
X144566667Y-91006667D02*
X144966667Y-91006667D01*
X144766667Y-91006667D02*
X144766667Y-90306667D01*
X144833333Y-90406667D01*
X144900000Y-90473333D01*
X144966667Y-90506667D01*
X144333333Y-90306667D02*
X143900000Y-90306667D01*
X144133333Y-90573333D01*
X144033333Y-90573333D01*
X143966666Y-90606667D01*
X143933333Y-90640000D01*
X143900000Y-90706667D01*
X143900000Y-90873333D01*
X143933333Y-90940000D01*
X143966666Y-90973333D01*
X144033333Y-91006667D01*
X144233333Y-91006667D01*
X144300000Y-90973333D01*
X144333333Y-90940000D01*
X150500000Y-91573333D02*
X150466666Y-91540000D01*
X150400000Y-91506667D01*
X150233333Y-91506667D01*
X150166666Y-91540000D01*
X150133333Y-91573333D01*
X150100000Y-91640000D01*
X150100000Y-91706667D01*
X150133333Y-91806667D01*
X150533333Y-92206667D01*
X150100000Y-92206667D01*
X149466666Y-91506667D02*
X149799999Y-91506667D01*
X149833333Y-91840000D01*
X149799999Y-91806667D01*
X149733333Y-91773333D01*
X149566666Y-91773333D01*
X149499999Y-91806667D01*
X149466666Y-91840000D01*
X149433333Y-91906667D01*
X149433333Y-92073333D01*
X149466666Y-92140000D01*
X149499999Y-92173333D01*
X149566666Y-92206667D01*
X149733333Y-92206667D01*
X149799999Y-92173333D01*
X149833333Y-92140000D01*
X149133332Y-92140000D02*
X149099999Y-92173333D01*
X149133332Y-92206667D01*
X149166666Y-92173333D01*
X149133332Y-92140000D01*
X149133332Y-92206667D01*
X148799999Y-91940000D02*
X148266666Y-91940000D01*
X147033333Y-91540000D02*
X147099999Y-91506667D01*
X147199999Y-91506667D01*
X147299999Y-91540000D01*
X147366666Y-91606667D01*
X147399999Y-91673333D01*
X147433333Y-91806667D01*
X147433333Y-91906667D01*
X147399999Y-92040000D01*
X147366666Y-92106667D01*
X147299999Y-92173333D01*
X147199999Y-92206667D01*
X147133333Y-92206667D01*
X147033333Y-92173333D01*
X146999999Y-92140000D01*
X146999999Y-91906667D01*
X147133333Y-91906667D01*
X146699999Y-92206667D02*
X146699999Y-91506667D01*
X146433333Y-91506667D01*
X146366666Y-91540000D01*
X146333333Y-91573333D01*
X146299999Y-91640000D01*
X146299999Y-91740000D01*
X146333333Y-91806667D01*
X146366666Y-91840000D01*
X146433333Y-91873333D01*
X146699999Y-91873333D01*
X145999999Y-92206667D02*
X145999999Y-91506667D01*
X145533333Y-91506667D02*
X145400000Y-91506667D01*
X145333333Y-91540000D01*
X145266666Y-91606667D01*
X145233333Y-91740000D01*
X145233333Y-91973333D01*
X145266666Y-92106667D01*
X145333333Y-92173333D01*
X145400000Y-92206667D01*
X145533333Y-92206667D01*
X145600000Y-92173333D01*
X145666666Y-92106667D01*
X145700000Y-91973333D01*
X145700000Y-91740000D01*
X145666666Y-91606667D01*
X145600000Y-91540000D01*
X145533333Y-91506667D01*
X144566667Y-92206667D02*
X144966667Y-92206667D01*
X144766667Y-92206667D02*
X144766667Y-91506667D01*
X144833333Y-91606667D01*
X144900000Y-91673333D01*
X144966667Y-91706667D01*
X144300000Y-91573333D02*
X144266666Y-91540000D01*
X144200000Y-91506667D01*
X144033333Y-91506667D01*
X143966666Y-91540000D01*
X143933333Y-91573333D01*
X143900000Y-91640000D01*
X143900000Y-91706667D01*
X143933333Y-91806667D01*
X144333333Y-92206667D01*
X143900000Y-92206667D01*
X150500000Y-92773333D02*
X150466666Y-92740000D01*
X150400000Y-92706667D01*
X150233333Y-92706667D01*
X150166666Y-92740000D01*
X150133333Y-92773333D01*
X150100000Y-92840000D01*
X150100000Y-92906667D01*
X150133333Y-93006667D01*
X150533333Y-93406667D01*
X150100000Y-93406667D01*
X149866666Y-92706667D02*
X149433333Y-92706667D01*
X149666666Y-92973333D01*
X149566666Y-92973333D01*
X149499999Y-93006667D01*
X149466666Y-93040000D01*
X149433333Y-93106667D01*
X149433333Y-93273333D01*
X149466666Y-93340000D01*
X149499999Y-93373333D01*
X149566666Y-93406667D01*
X149766666Y-93406667D01*
X149833333Y-93373333D01*
X149866666Y-93340000D01*
X149133332Y-93340000D02*
X149099999Y-93373333D01*
X149133332Y-93406667D01*
X149166666Y-93373333D01*
X149133332Y-93340000D01*
X149133332Y-93406667D01*
X148799999Y-93140000D02*
X148266666Y-93140000D01*
X147033333Y-92740000D02*
X147099999Y-92706667D01*
X147199999Y-92706667D01*
X147299999Y-92740000D01*
X147366666Y-92806667D01*
X147399999Y-92873333D01*
X147433333Y-93006667D01*
X147433333Y-93106667D01*
X147399999Y-93240000D01*
X147366666Y-93306667D01*
X147299999Y-93373333D01*
X147199999Y-93406667D01*
X147133333Y-93406667D01*
X147033333Y-93373333D01*
X146999999Y-93340000D01*
X146999999Y-93106667D01*
X147133333Y-93106667D01*
X146699999Y-93406667D02*
X146699999Y-92706667D01*
X146433333Y-92706667D01*
X146366666Y-92740000D01*
X146333333Y-92773333D01*
X146299999Y-92840000D01*
X146299999Y-92940000D01*
X146333333Y-93006667D01*
X146366666Y-93040000D01*
X146433333Y-93073333D01*
X146699999Y-93073333D01*
X145999999Y-93406667D02*
X145999999Y-92706667D01*
X145533333Y-92706667D02*
X145400000Y-92706667D01*
X145333333Y-92740000D01*
X145266666Y-92806667D01*
X145233333Y-92940000D01*
X145233333Y-93173333D01*
X145266666Y-93306667D01*
X145333333Y-93373333D01*
X145400000Y-93406667D01*
X145533333Y-93406667D01*
X145600000Y-93373333D01*
X145666666Y-93306667D01*
X145700000Y-93173333D01*
X145700000Y-92940000D01*
X145666666Y-92806667D01*
X145600000Y-92740000D01*
X145533333Y-92706667D01*
X144566667Y-93406667D02*
X144966667Y-93406667D01*
X144766667Y-93406667D02*
X144766667Y-92706667D01*
X144833333Y-92806667D01*
X144900000Y-92873333D01*
X144966667Y-92906667D01*
X143900000Y-93406667D02*
X144300000Y-93406667D01*
X144100000Y-93406667D02*
X144100000Y-92706667D01*
X144166666Y-92806667D01*
X144233333Y-92873333D01*
X144300000Y-92906667D01*
X150500000Y-93973333D02*
X150466666Y-93940000D01*
X150400000Y-93906667D01*
X150233333Y-93906667D01*
X150166666Y-93940000D01*
X150133333Y-93973333D01*
X150100000Y-94040000D01*
X150100000Y-94106667D01*
X150133333Y-94206667D01*
X150533333Y-94606667D01*
X150100000Y-94606667D01*
X149433333Y-94606667D02*
X149833333Y-94606667D01*
X149633333Y-94606667D02*
X149633333Y-93906667D01*
X149699999Y-94006667D01*
X149766666Y-94073333D01*
X149833333Y-94106667D01*
X149133332Y-94540000D02*
X149099999Y-94573333D01*
X149133332Y-94606667D01*
X149166666Y-94573333D01*
X149133332Y-94540000D01*
X149133332Y-94606667D01*
X148799999Y-94340000D02*
X148266666Y-94340000D01*
X147033333Y-93940000D02*
X147099999Y-93906667D01*
X147199999Y-93906667D01*
X147299999Y-93940000D01*
X147366666Y-94006667D01*
X147399999Y-94073333D01*
X147433333Y-94206667D01*
X147433333Y-94306667D01*
X147399999Y-94440000D01*
X147366666Y-94506667D01*
X147299999Y-94573333D01*
X147199999Y-94606667D01*
X147133333Y-94606667D01*
X147033333Y-94573333D01*
X146999999Y-94540000D01*
X146999999Y-94306667D01*
X147133333Y-94306667D01*
X146699999Y-94606667D02*
X146699999Y-93906667D01*
X146433333Y-93906667D01*
X146366666Y-93940000D01*
X146333333Y-93973333D01*
X146299999Y-94040000D01*
X146299999Y-94140000D01*
X146333333Y-94206667D01*
X146366666Y-94240000D01*
X146433333Y-94273333D01*
X146699999Y-94273333D01*
X145999999Y-94606667D02*
X145999999Y-93906667D01*
X145533333Y-93906667D02*
X145400000Y-93906667D01*
X145333333Y-93940000D01*
X145266666Y-94006667D01*
X145233333Y-94140000D01*
X145233333Y-94373333D01*
X145266666Y-94506667D01*
X145333333Y-94573333D01*
X145400000Y-94606667D01*
X145533333Y-94606667D01*
X145600000Y-94573333D01*
X145666666Y-94506667D01*
X145700000Y-94373333D01*
X145700000Y-94140000D01*
X145666666Y-94006667D01*
X145600000Y-93940000D01*
X145533333Y-93906667D01*
X144566667Y-94606667D02*
X144966667Y-94606667D01*
X144766667Y-94606667D02*
X144766667Y-93906667D01*
X144833333Y-94006667D01*
X144900000Y-94073333D01*
X144966667Y-94106667D01*
X144133333Y-93906667D02*
X144066666Y-93906667D01*
X144000000Y-93940000D01*
X143966666Y-93973333D01*
X143933333Y-94040000D01*
X143900000Y-94173333D01*
X143900000Y-94340000D01*
X143933333Y-94473333D01*
X143966666Y-94540000D01*
X144000000Y-94573333D01*
X144066666Y-94606667D01*
X144133333Y-94606667D01*
X144200000Y-94573333D01*
X144233333Y-94540000D01*
X144266666Y-94473333D01*
X144300000Y-94340000D01*
X144300000Y-94173333D01*
X144266666Y-94040000D01*
X144233333Y-93973333D01*
X144200000Y-93940000D01*
X144133333Y-93906667D01*
X150100000Y-95806667D02*
X150500000Y-95806667D01*
X150300000Y-95806667D02*
X150300000Y-95106667D01*
X150366666Y-95206667D01*
X150433333Y-95273333D01*
X150500000Y-95306667D01*
X149766666Y-95806667D02*
X149633333Y-95806667D01*
X149566666Y-95773333D01*
X149533333Y-95740000D01*
X149466666Y-95640000D01*
X149433333Y-95506667D01*
X149433333Y-95240000D01*
X149466666Y-95173333D01*
X149499999Y-95140000D01*
X149566666Y-95106667D01*
X149699999Y-95106667D01*
X149766666Y-95140000D01*
X149799999Y-95173333D01*
X149833333Y-95240000D01*
X149833333Y-95406667D01*
X149799999Y-95473333D01*
X149766666Y-95506667D01*
X149699999Y-95540000D01*
X149566666Y-95540000D01*
X149499999Y-95506667D01*
X149466666Y-95473333D01*
X149433333Y-95406667D01*
X149133332Y-95740000D02*
X149099999Y-95773333D01*
X149133332Y-95806667D01*
X149166666Y-95773333D01*
X149133332Y-95740000D01*
X149133332Y-95806667D01*
X148799999Y-95540000D02*
X148266666Y-95540000D01*
X147033333Y-95140000D02*
X147099999Y-95106667D01*
X147199999Y-95106667D01*
X147299999Y-95140000D01*
X147366666Y-95206667D01*
X147399999Y-95273333D01*
X147433333Y-95406667D01*
X147433333Y-95506667D01*
X147399999Y-95640000D01*
X147366666Y-95706667D01*
X147299999Y-95773333D01*
X147199999Y-95806667D01*
X147133333Y-95806667D01*
X147033333Y-95773333D01*
X146999999Y-95740000D01*
X146999999Y-95506667D01*
X147133333Y-95506667D01*
X146699999Y-95806667D02*
X146699999Y-95106667D01*
X146433333Y-95106667D01*
X146366666Y-95140000D01*
X146333333Y-95173333D01*
X146299999Y-95240000D01*
X146299999Y-95340000D01*
X146333333Y-95406667D01*
X146366666Y-95440000D01*
X146433333Y-95473333D01*
X146699999Y-95473333D01*
X145999999Y-95806667D02*
X145999999Y-95106667D01*
X145533333Y-95106667D02*
X145400000Y-95106667D01*
X145333333Y-95140000D01*
X145266666Y-95206667D01*
X145233333Y-95340000D01*
X145233333Y-95573333D01*
X145266666Y-95706667D01*
X145333333Y-95773333D01*
X145400000Y-95806667D01*
X145533333Y-95806667D01*
X145600000Y-95773333D01*
X145666666Y-95706667D01*
X145700000Y-95573333D01*
X145700000Y-95340000D01*
X145666666Y-95206667D01*
X145600000Y-95140000D01*
X145533333Y-95106667D01*
X144800000Y-95106667D02*
X144733333Y-95106667D01*
X144666667Y-95140000D01*
X144633333Y-95173333D01*
X144600000Y-95240000D01*
X144566667Y-95373333D01*
X144566667Y-95540000D01*
X144600000Y-95673333D01*
X144633333Y-95740000D01*
X144666667Y-95773333D01*
X144733333Y-95806667D01*
X144800000Y-95806667D01*
X144866667Y-95773333D01*
X144900000Y-95740000D01*
X144933333Y-95673333D01*
X144966667Y-95540000D01*
X144966667Y-95373333D01*
X144933333Y-95240000D01*
X144900000Y-95173333D01*
X144866667Y-95140000D01*
X144800000Y-95106667D01*
X144233333Y-95806667D02*
X144100000Y-95806667D01*
X144033333Y-95773333D01*
X144000000Y-95740000D01*
X143933333Y-95640000D01*
X143900000Y-95506667D01*
X143900000Y-95240000D01*
X143933333Y-95173333D01*
X143966666Y-95140000D01*
X144033333Y-95106667D01*
X144166666Y-95106667D01*
X144233333Y-95140000D01*
X144266666Y-95173333D01*
X144300000Y-95240000D01*
X144300000Y-95406667D01*
X144266666Y-95473333D01*
X144233333Y-95506667D01*
X144166666Y-95540000D01*
X144033333Y-95540000D01*
X143966666Y-95506667D01*
X143933333Y-95473333D01*
X143900000Y-95406667D01*
X150100000Y-97006667D02*
X150500000Y-97006667D01*
X150300000Y-97006667D02*
X150300000Y-96306667D01*
X150366666Y-96406667D01*
X150433333Y-96473333D01*
X150500000Y-96506667D01*
X149866666Y-96306667D02*
X149399999Y-96306667D01*
X149699999Y-97006667D01*
X149133332Y-96940000D02*
X149099999Y-96973333D01*
X149133332Y-97006667D01*
X149166666Y-96973333D01*
X149133332Y-96940000D01*
X149133332Y-97006667D01*
X148799999Y-96740000D02*
X148266666Y-96740000D01*
X147033333Y-96340000D02*
X147099999Y-96306667D01*
X147199999Y-96306667D01*
X147299999Y-96340000D01*
X147366666Y-96406667D01*
X147399999Y-96473333D01*
X147433333Y-96606667D01*
X147433333Y-96706667D01*
X147399999Y-96840000D01*
X147366666Y-96906667D01*
X147299999Y-96973333D01*
X147199999Y-97006667D01*
X147133333Y-97006667D01*
X147033333Y-96973333D01*
X146999999Y-96940000D01*
X146999999Y-96706667D01*
X147133333Y-96706667D01*
X146699999Y-97006667D02*
X146699999Y-96306667D01*
X146433333Y-96306667D01*
X146366666Y-96340000D01*
X146333333Y-96373333D01*
X146299999Y-96440000D01*
X146299999Y-96540000D01*
X146333333Y-96606667D01*
X146366666Y-96640000D01*
X146433333Y-96673333D01*
X146699999Y-96673333D01*
X145999999Y-97006667D02*
X145999999Y-96306667D01*
X145533333Y-96306667D02*
X145400000Y-96306667D01*
X145333333Y-96340000D01*
X145266666Y-96406667D01*
X145233333Y-96540000D01*
X145233333Y-96773333D01*
X145266666Y-96906667D01*
X145333333Y-96973333D01*
X145400000Y-97006667D01*
X145533333Y-97006667D01*
X145600000Y-96973333D01*
X145666666Y-96906667D01*
X145700000Y-96773333D01*
X145700000Y-96540000D01*
X145666666Y-96406667D01*
X145600000Y-96340000D01*
X145533333Y-96306667D01*
X144800000Y-96306667D02*
X144733333Y-96306667D01*
X144666667Y-96340000D01*
X144633333Y-96373333D01*
X144600000Y-96440000D01*
X144566667Y-96573333D01*
X144566667Y-96740000D01*
X144600000Y-96873333D01*
X144633333Y-96940000D01*
X144666667Y-96973333D01*
X144733333Y-97006667D01*
X144800000Y-97006667D01*
X144866667Y-96973333D01*
X144900000Y-96940000D01*
X144933333Y-96873333D01*
X144966667Y-96740000D01*
X144966667Y-96573333D01*
X144933333Y-96440000D01*
X144900000Y-96373333D01*
X144866667Y-96340000D01*
X144800000Y-96306667D01*
X144166666Y-96606667D02*
X144233333Y-96573333D01*
X144266666Y-96540000D01*
X144300000Y-96473333D01*
X144300000Y-96440000D01*
X144266666Y-96373333D01*
X144233333Y-96340000D01*
X144166666Y-96306667D01*
X144033333Y-96306667D01*
X143966666Y-96340000D01*
X143933333Y-96373333D01*
X143900000Y-96440000D01*
X143900000Y-96473333D01*
X143933333Y-96540000D01*
X143966666Y-96573333D01*
X144033333Y-96606667D01*
X144166666Y-96606667D01*
X144233333Y-96640000D01*
X144266666Y-96673333D01*
X144300000Y-96740000D01*
X144300000Y-96873333D01*
X144266666Y-96940000D01*
X144233333Y-96973333D01*
X144166666Y-97006667D01*
X144033333Y-97006667D01*
X143966666Y-96973333D01*
X143933333Y-96940000D01*
X143900000Y-96873333D01*
X143900000Y-96740000D01*
X143933333Y-96673333D01*
X143966666Y-96640000D01*
X144033333Y-96606667D01*
X150100000Y-98206667D02*
X150500000Y-98206667D01*
X150300000Y-98206667D02*
X150300000Y-97506667D01*
X150366666Y-97606667D01*
X150433333Y-97673333D01*
X150500000Y-97706667D01*
X149466666Y-97506667D02*
X149799999Y-97506667D01*
X149833333Y-97840000D01*
X149799999Y-97806667D01*
X149733333Y-97773333D01*
X149566666Y-97773333D01*
X149499999Y-97806667D01*
X149466666Y-97840000D01*
X149433333Y-97906667D01*
X149433333Y-98073333D01*
X149466666Y-98140000D01*
X149499999Y-98173333D01*
X149566666Y-98206667D01*
X149733333Y-98206667D01*
X149799999Y-98173333D01*
X149833333Y-98140000D01*
X149133332Y-98140000D02*
X149099999Y-98173333D01*
X149133332Y-98206667D01*
X149166666Y-98173333D01*
X149133332Y-98140000D01*
X149133332Y-98206667D01*
X148799999Y-97940000D02*
X148266666Y-97940000D01*
X147033333Y-97540000D02*
X147099999Y-97506667D01*
X147199999Y-97506667D01*
X147299999Y-97540000D01*
X147366666Y-97606667D01*
X147399999Y-97673333D01*
X147433333Y-97806667D01*
X147433333Y-97906667D01*
X147399999Y-98040000D01*
X147366666Y-98106667D01*
X147299999Y-98173333D01*
X147199999Y-98206667D01*
X147133333Y-98206667D01*
X147033333Y-98173333D01*
X146999999Y-98140000D01*
X146999999Y-97906667D01*
X147133333Y-97906667D01*
X146699999Y-98206667D02*
X146699999Y-97506667D01*
X146433333Y-97506667D01*
X146366666Y-97540000D01*
X146333333Y-97573333D01*
X146299999Y-97640000D01*
X146299999Y-97740000D01*
X146333333Y-97806667D01*
X146366666Y-97840000D01*
X146433333Y-97873333D01*
X146699999Y-97873333D01*
X145999999Y-98206667D02*
X145999999Y-97506667D01*
X145533333Y-97506667D02*
X145400000Y-97506667D01*
X145333333Y-97540000D01*
X145266666Y-97606667D01*
X145233333Y-97740000D01*
X145233333Y-97973333D01*
X145266666Y-98106667D01*
X145333333Y-98173333D01*
X145400000Y-98206667D01*
X145533333Y-98206667D01*
X145600000Y-98173333D01*
X145666666Y-98106667D01*
X145700000Y-97973333D01*
X145700000Y-97740000D01*
X145666666Y-97606667D01*
X145600000Y-97540000D01*
X145533333Y-97506667D01*
X144800000Y-97506667D02*
X144733333Y-97506667D01*
X144666667Y-97540000D01*
X144633333Y-97573333D01*
X144600000Y-97640000D01*
X144566667Y-97773333D01*
X144566667Y-97940000D01*
X144600000Y-98073333D01*
X144633333Y-98140000D01*
X144666667Y-98173333D01*
X144733333Y-98206667D01*
X144800000Y-98206667D01*
X144866667Y-98173333D01*
X144900000Y-98140000D01*
X144933333Y-98073333D01*
X144966667Y-97940000D01*
X144966667Y-97773333D01*
X144933333Y-97640000D01*
X144900000Y-97573333D01*
X144866667Y-97540000D01*
X144800000Y-97506667D01*
X144333333Y-97506667D02*
X143866666Y-97506667D01*
X144166666Y-98206667D01*
X150100000Y-99406667D02*
X150500000Y-99406667D01*
X150300000Y-99406667D02*
X150300000Y-98706667D01*
X150366666Y-98806667D01*
X150433333Y-98873333D01*
X150500000Y-98906667D01*
X149866666Y-98706667D02*
X149433333Y-98706667D01*
X149666666Y-98973333D01*
X149566666Y-98973333D01*
X149499999Y-99006667D01*
X149466666Y-99040000D01*
X149433333Y-99106667D01*
X149433333Y-99273333D01*
X149466666Y-99340000D01*
X149499999Y-99373333D01*
X149566666Y-99406667D01*
X149766666Y-99406667D01*
X149833333Y-99373333D01*
X149866666Y-99340000D01*
X149133332Y-99340000D02*
X149099999Y-99373333D01*
X149133332Y-99406667D01*
X149166666Y-99373333D01*
X149133332Y-99340000D01*
X149133332Y-99406667D01*
X148799999Y-99140000D02*
X148266666Y-99140000D01*
X147033333Y-98740000D02*
X147099999Y-98706667D01*
X147199999Y-98706667D01*
X147299999Y-98740000D01*
X147366666Y-98806667D01*
X147399999Y-98873333D01*
X147433333Y-99006667D01*
X147433333Y-99106667D01*
X147399999Y-99240000D01*
X147366666Y-99306667D01*
X147299999Y-99373333D01*
X147199999Y-99406667D01*
X147133333Y-99406667D01*
X147033333Y-99373333D01*
X146999999Y-99340000D01*
X146999999Y-99106667D01*
X147133333Y-99106667D01*
X146699999Y-99406667D02*
X146699999Y-98706667D01*
X146433333Y-98706667D01*
X146366666Y-98740000D01*
X146333333Y-98773333D01*
X146299999Y-98840000D01*
X146299999Y-98940000D01*
X146333333Y-99006667D01*
X146366666Y-99040000D01*
X146433333Y-99073333D01*
X146699999Y-99073333D01*
X145999999Y-99406667D02*
X145999999Y-98706667D01*
X145533333Y-98706667D02*
X145400000Y-98706667D01*
X145333333Y-98740000D01*
X145266666Y-98806667D01*
X145233333Y-98940000D01*
X145233333Y-99173333D01*
X145266666Y-99306667D01*
X145333333Y-99373333D01*
X145400000Y-99406667D01*
X145533333Y-99406667D01*
X145600000Y-99373333D01*
X145666666Y-99306667D01*
X145700000Y-99173333D01*
X145700000Y-98940000D01*
X145666666Y-98806667D01*
X145600000Y-98740000D01*
X145533333Y-98706667D01*
X144800000Y-98706667D02*
X144733333Y-98706667D01*
X144666667Y-98740000D01*
X144633333Y-98773333D01*
X144600000Y-98840000D01*
X144566667Y-98973333D01*
X144566667Y-99140000D01*
X144600000Y-99273333D01*
X144633333Y-99340000D01*
X144666667Y-99373333D01*
X144733333Y-99406667D01*
X144800000Y-99406667D01*
X144866667Y-99373333D01*
X144900000Y-99340000D01*
X144933333Y-99273333D01*
X144966667Y-99140000D01*
X144966667Y-98973333D01*
X144933333Y-98840000D01*
X144900000Y-98773333D01*
X144866667Y-98740000D01*
X144800000Y-98706667D01*
X143966666Y-98706667D02*
X144100000Y-98706667D01*
X144166666Y-98740000D01*
X144200000Y-98773333D01*
X144266666Y-98873333D01*
X144300000Y-99006667D01*
X144300000Y-99273333D01*
X144266666Y-99340000D01*
X144233333Y-99373333D01*
X144166666Y-99406667D01*
X144033333Y-99406667D01*
X143966666Y-99373333D01*
X143933333Y-99340000D01*
X143900000Y-99273333D01*
X143900000Y-99106667D01*
X143933333Y-99040000D01*
X143966666Y-99006667D01*
X144033333Y-98973333D01*
X144166666Y-98973333D01*
X144233333Y-99006667D01*
X144266666Y-99040000D01*
X144300000Y-99106667D01*
X150100000Y-100606667D02*
X150500000Y-100606667D01*
X150300000Y-100606667D02*
X150300000Y-99906667D01*
X150366666Y-100006667D01*
X150433333Y-100073333D01*
X150500000Y-100106667D01*
X149433333Y-100606667D02*
X149833333Y-100606667D01*
X149633333Y-100606667D02*
X149633333Y-99906667D01*
X149699999Y-100006667D01*
X149766666Y-100073333D01*
X149833333Y-100106667D01*
X149133332Y-100540000D02*
X149099999Y-100573333D01*
X149133332Y-100606667D01*
X149166666Y-100573333D01*
X149133332Y-100540000D01*
X149133332Y-100606667D01*
X148799999Y-100340000D02*
X148266666Y-100340000D01*
X147033333Y-99940000D02*
X147099999Y-99906667D01*
X147199999Y-99906667D01*
X147299999Y-99940000D01*
X147366666Y-100006667D01*
X147399999Y-100073333D01*
X147433333Y-100206667D01*
X147433333Y-100306667D01*
X147399999Y-100440000D01*
X147366666Y-100506667D01*
X147299999Y-100573333D01*
X147199999Y-100606667D01*
X147133333Y-100606667D01*
X147033333Y-100573333D01*
X146999999Y-100540000D01*
X146999999Y-100306667D01*
X147133333Y-100306667D01*
X146699999Y-100606667D02*
X146699999Y-99906667D01*
X146433333Y-99906667D01*
X146366666Y-99940000D01*
X146333333Y-99973333D01*
X146299999Y-100040000D01*
X146299999Y-100140000D01*
X146333333Y-100206667D01*
X146366666Y-100240000D01*
X146433333Y-100273333D01*
X146699999Y-100273333D01*
X145999999Y-100606667D02*
X145999999Y-99906667D01*
X145533333Y-99906667D02*
X145400000Y-99906667D01*
X145333333Y-99940000D01*
X145266666Y-100006667D01*
X145233333Y-100140000D01*
X145233333Y-100373333D01*
X145266666Y-100506667D01*
X145333333Y-100573333D01*
X145400000Y-100606667D01*
X145533333Y-100606667D01*
X145600000Y-100573333D01*
X145666666Y-100506667D01*
X145700000Y-100373333D01*
X145700000Y-100140000D01*
X145666666Y-100006667D01*
X145600000Y-99940000D01*
X145533333Y-99906667D01*
X144800000Y-99906667D02*
X144733333Y-99906667D01*
X144666667Y-99940000D01*
X144633333Y-99973333D01*
X144600000Y-100040000D01*
X144566667Y-100173333D01*
X144566667Y-100340000D01*
X144600000Y-100473333D01*
X144633333Y-100540000D01*
X144666667Y-100573333D01*
X144733333Y-100606667D01*
X144800000Y-100606667D01*
X144866667Y-100573333D01*
X144900000Y-100540000D01*
X144933333Y-100473333D01*
X144966667Y-100340000D01*
X144966667Y-100173333D01*
X144933333Y-100040000D01*
X144900000Y-99973333D01*
X144866667Y-99940000D01*
X144800000Y-99906667D01*
X143933333Y-99906667D02*
X144266666Y-99906667D01*
X144300000Y-100240000D01*
X144266666Y-100206667D01*
X144200000Y-100173333D01*
X144033333Y-100173333D01*
X143966666Y-100206667D01*
X143933333Y-100240000D01*
X143900000Y-100306667D01*
X143900000Y-100473333D01*
X143933333Y-100540000D01*
X143966666Y-100573333D01*
X144033333Y-100606667D01*
X144200000Y-100606667D01*
X144266666Y-100573333D01*
X144300000Y-100540000D01*
X150100000Y-101806667D02*
X149966667Y-101806667D01*
X149900000Y-101773333D01*
X149866667Y-101740000D01*
X149800000Y-101640000D01*
X149766667Y-101506667D01*
X149766667Y-101240000D01*
X149800000Y-101173333D01*
X149833333Y-101140000D01*
X149900000Y-101106667D01*
X150033333Y-101106667D01*
X150100000Y-101140000D01*
X150133333Y-101173333D01*
X150166667Y-101240000D01*
X150166667Y-101406667D01*
X150133333Y-101473333D01*
X150100000Y-101506667D01*
X150033333Y-101540000D01*
X149900000Y-101540000D01*
X149833333Y-101506667D01*
X149800000Y-101473333D01*
X149766667Y-101406667D01*
X149466666Y-101740000D02*
X149433333Y-101773333D01*
X149466666Y-101806667D01*
X149500000Y-101773333D01*
X149466666Y-101740000D01*
X149466666Y-101806667D01*
X149133333Y-101540000D02*
X148600000Y-101540000D01*
X147366667Y-101140000D02*
X147433333Y-101106667D01*
X147533333Y-101106667D01*
X147633333Y-101140000D01*
X147700000Y-101206667D01*
X147733333Y-101273333D01*
X147766667Y-101406667D01*
X147766667Y-101506667D01*
X147733333Y-101640000D01*
X147700000Y-101706667D01*
X147633333Y-101773333D01*
X147533333Y-101806667D01*
X147466667Y-101806667D01*
X147366667Y-101773333D01*
X147333333Y-101740000D01*
X147333333Y-101506667D01*
X147466667Y-101506667D01*
X147033333Y-101806667D02*
X147033333Y-101106667D01*
X146766667Y-101106667D01*
X146700000Y-101140000D01*
X146666667Y-101173333D01*
X146633333Y-101240000D01*
X146633333Y-101340000D01*
X146666667Y-101406667D01*
X146700000Y-101440000D01*
X146766667Y-101473333D01*
X147033333Y-101473333D01*
X146333333Y-101806667D02*
X146333333Y-101106667D01*
X145866667Y-101106667D02*
X145733334Y-101106667D01*
X145666667Y-101140000D01*
X145600000Y-101206667D01*
X145566667Y-101340000D01*
X145566667Y-101573333D01*
X145600000Y-101706667D01*
X145666667Y-101773333D01*
X145733334Y-101806667D01*
X145866667Y-101806667D01*
X145933334Y-101773333D01*
X146000000Y-101706667D01*
X146033334Y-101573333D01*
X146033334Y-101340000D01*
X146000000Y-101206667D01*
X145933334Y-101140000D01*
X145866667Y-101106667D01*
X145133334Y-101106667D02*
X145066667Y-101106667D01*
X145000001Y-101140000D01*
X144966667Y-101173333D01*
X144933334Y-101240000D01*
X144900001Y-101373333D01*
X144900001Y-101540000D01*
X144933334Y-101673333D01*
X144966667Y-101740000D01*
X145000001Y-101773333D01*
X145066667Y-101806667D01*
X145133334Y-101806667D01*
X145200001Y-101773333D01*
X145233334Y-101740000D01*
X145266667Y-101673333D01*
X145300001Y-101540000D01*
X145300001Y-101373333D01*
X145266667Y-101240000D01*
X145233334Y-101173333D01*
X145200001Y-101140000D01*
X145133334Y-101106667D01*
X144300000Y-101340000D02*
X144300000Y-101806667D01*
X144466667Y-101073333D02*
X144633334Y-101573333D01*
X144200000Y-101573333D01*
X150200000Y-102306667D02*
X149733333Y-102306667D01*
X150033333Y-103006667D01*
X149466666Y-102940000D02*
X149433333Y-102973333D01*
X149466666Y-103006667D01*
X149500000Y-102973333D01*
X149466666Y-102940000D01*
X149466666Y-103006667D01*
X149133333Y-102740000D02*
X148600000Y-102740000D01*
X147366667Y-102340000D02*
X147433333Y-102306667D01*
X147533333Y-102306667D01*
X147633333Y-102340000D01*
X147700000Y-102406667D01*
X147733333Y-102473333D01*
X147766667Y-102606667D01*
X147766667Y-102706667D01*
X147733333Y-102840000D01*
X147700000Y-102906667D01*
X147633333Y-102973333D01*
X147533333Y-103006667D01*
X147466667Y-103006667D01*
X147366667Y-102973333D01*
X147333333Y-102940000D01*
X147333333Y-102706667D01*
X147466667Y-102706667D01*
X147033333Y-103006667D02*
X147033333Y-102306667D01*
X146766667Y-102306667D01*
X146700000Y-102340000D01*
X146666667Y-102373333D01*
X146633333Y-102440000D01*
X146633333Y-102540000D01*
X146666667Y-102606667D01*
X146700000Y-102640000D01*
X146766667Y-102673333D01*
X147033333Y-102673333D01*
X146333333Y-103006667D02*
X146333333Y-102306667D01*
X145866667Y-102306667D02*
X145733334Y-102306667D01*
X145666667Y-102340000D01*
X145600000Y-102406667D01*
X145566667Y-102540000D01*
X145566667Y-102773333D01*
X145600000Y-102906667D01*
X145666667Y-102973333D01*
X145733334Y-103006667D01*
X145866667Y-103006667D01*
X145933334Y-102973333D01*
X146000000Y-102906667D01*
X146033334Y-102773333D01*
X146033334Y-102540000D01*
X146000000Y-102406667D01*
X145933334Y-102340000D01*
X145866667Y-102306667D01*
X145133334Y-102306667D02*
X145066667Y-102306667D01*
X145000001Y-102340000D01*
X144966667Y-102373333D01*
X144933334Y-102440000D01*
X144900001Y-102573333D01*
X144900001Y-102740000D01*
X144933334Y-102873333D01*
X144966667Y-102940000D01*
X145000001Y-102973333D01*
X145066667Y-103006667D01*
X145133334Y-103006667D01*
X145200001Y-102973333D01*
X145233334Y-102940000D01*
X145266667Y-102873333D01*
X145300001Y-102740000D01*
X145300001Y-102573333D01*
X145266667Y-102440000D01*
X145233334Y-102373333D01*
X145200001Y-102340000D01*
X145133334Y-102306667D01*
X144666667Y-102306667D02*
X144233334Y-102306667D01*
X144466667Y-102573333D01*
X144366667Y-102573333D01*
X144300000Y-102606667D01*
X144266667Y-102640000D01*
X144233334Y-102706667D01*
X144233334Y-102873333D01*
X144266667Y-102940000D01*
X144300000Y-102973333D01*
X144366667Y-103006667D01*
X144566667Y-103006667D01*
X144633334Y-102973333D01*
X144666667Y-102940000D01*
X149800000Y-103506667D02*
X150133333Y-103506667D01*
X150166667Y-103840000D01*
X150133333Y-103806667D01*
X150066667Y-103773333D01*
X149900000Y-103773333D01*
X149833333Y-103806667D01*
X149800000Y-103840000D01*
X149766667Y-103906667D01*
X149766667Y-104073333D01*
X149800000Y-104140000D01*
X149833333Y-104173333D01*
X149900000Y-104206667D01*
X150066667Y-104206667D01*
X150133333Y-104173333D01*
X150166667Y-104140000D01*
X149466666Y-104140000D02*
X149433333Y-104173333D01*
X149466666Y-104206667D01*
X149500000Y-104173333D01*
X149466666Y-104140000D01*
X149466666Y-104206667D01*
X149133333Y-103940000D02*
X148600000Y-103940000D01*
X147366667Y-103540000D02*
X147433333Y-103506667D01*
X147533333Y-103506667D01*
X147633333Y-103540000D01*
X147700000Y-103606667D01*
X147733333Y-103673333D01*
X147766667Y-103806667D01*
X147766667Y-103906667D01*
X147733333Y-104040000D01*
X147700000Y-104106667D01*
X147633333Y-104173333D01*
X147533333Y-104206667D01*
X147466667Y-104206667D01*
X147366667Y-104173333D01*
X147333333Y-104140000D01*
X147333333Y-103906667D01*
X147466667Y-103906667D01*
X147033333Y-104206667D02*
X147033333Y-103506667D01*
X146766667Y-103506667D01*
X146700000Y-103540000D01*
X146666667Y-103573333D01*
X146633333Y-103640000D01*
X146633333Y-103740000D01*
X146666667Y-103806667D01*
X146700000Y-103840000D01*
X146766667Y-103873333D01*
X147033333Y-103873333D01*
X146333333Y-104206667D02*
X146333333Y-103506667D01*
X145866667Y-103506667D02*
X145733334Y-103506667D01*
X145666667Y-103540000D01*
X145600000Y-103606667D01*
X145566667Y-103740000D01*
X145566667Y-103973333D01*
X145600000Y-104106667D01*
X145666667Y-104173333D01*
X145733334Y-104206667D01*
X145866667Y-104206667D01*
X145933334Y-104173333D01*
X146000000Y-104106667D01*
X146033334Y-103973333D01*
X146033334Y-103740000D01*
X146000000Y-103606667D01*
X145933334Y-103540000D01*
X145866667Y-103506667D01*
X145133334Y-103506667D02*
X145066667Y-103506667D01*
X145000001Y-103540000D01*
X144966667Y-103573333D01*
X144933334Y-103640000D01*
X144900001Y-103773333D01*
X144900001Y-103940000D01*
X144933334Y-104073333D01*
X144966667Y-104140000D01*
X145000001Y-104173333D01*
X145066667Y-104206667D01*
X145133334Y-104206667D01*
X145200001Y-104173333D01*
X145233334Y-104140000D01*
X145266667Y-104073333D01*
X145300001Y-103940000D01*
X145300001Y-103773333D01*
X145266667Y-103640000D01*
X145233334Y-103573333D01*
X145200001Y-103540000D01*
X145133334Y-103506667D01*
X144633334Y-103573333D02*
X144600000Y-103540000D01*
X144533334Y-103506667D01*
X144366667Y-103506667D01*
X144300000Y-103540000D01*
X144266667Y-103573333D01*
X144233334Y-103640000D01*
X144233334Y-103706667D01*
X144266667Y-103806667D01*
X144666667Y-104206667D01*
X144233334Y-104206667D01*
X150200000Y-104706667D02*
X149766667Y-104706667D01*
X150000000Y-104973333D01*
X149900000Y-104973333D01*
X149833333Y-105006667D01*
X149800000Y-105040000D01*
X149766667Y-105106667D01*
X149766667Y-105273333D01*
X149800000Y-105340000D01*
X149833333Y-105373333D01*
X149900000Y-105406667D01*
X150100000Y-105406667D01*
X150166667Y-105373333D01*
X150200000Y-105340000D01*
X149466666Y-105340000D02*
X149433333Y-105373333D01*
X149466666Y-105406667D01*
X149500000Y-105373333D01*
X149466666Y-105340000D01*
X149466666Y-105406667D01*
X149133333Y-105140000D02*
X148600000Y-105140000D01*
X147366667Y-104740000D02*
X147433333Y-104706667D01*
X147533333Y-104706667D01*
X147633333Y-104740000D01*
X147700000Y-104806667D01*
X147733333Y-104873333D01*
X147766667Y-105006667D01*
X147766667Y-105106667D01*
X147733333Y-105240000D01*
X147700000Y-105306667D01*
X147633333Y-105373333D01*
X147533333Y-105406667D01*
X147466667Y-105406667D01*
X147366667Y-105373333D01*
X147333333Y-105340000D01*
X147333333Y-105106667D01*
X147466667Y-105106667D01*
X147033333Y-105406667D02*
X147033333Y-104706667D01*
X146766667Y-104706667D01*
X146700000Y-104740000D01*
X146666667Y-104773333D01*
X146633333Y-104840000D01*
X146633333Y-104940000D01*
X146666667Y-105006667D01*
X146700000Y-105040000D01*
X146766667Y-105073333D01*
X147033333Y-105073333D01*
X146333333Y-105406667D02*
X146333333Y-104706667D01*
X145866667Y-104706667D02*
X145733334Y-104706667D01*
X145666667Y-104740000D01*
X145600000Y-104806667D01*
X145566667Y-104940000D01*
X145566667Y-105173333D01*
X145600000Y-105306667D01*
X145666667Y-105373333D01*
X145733334Y-105406667D01*
X145866667Y-105406667D01*
X145933334Y-105373333D01*
X146000000Y-105306667D01*
X146033334Y-105173333D01*
X146033334Y-104940000D01*
X146000000Y-104806667D01*
X145933334Y-104740000D01*
X145866667Y-104706667D01*
X145133334Y-104706667D02*
X145066667Y-104706667D01*
X145000001Y-104740000D01*
X144966667Y-104773333D01*
X144933334Y-104840000D01*
X144900001Y-104973333D01*
X144900001Y-105140000D01*
X144933334Y-105273333D01*
X144966667Y-105340000D01*
X145000001Y-105373333D01*
X145066667Y-105406667D01*
X145133334Y-105406667D01*
X145200001Y-105373333D01*
X145233334Y-105340000D01*
X145266667Y-105273333D01*
X145300001Y-105140000D01*
X145300001Y-104973333D01*
X145266667Y-104840000D01*
X145233334Y-104773333D01*
X145200001Y-104740000D01*
X145133334Y-104706667D01*
X144233334Y-105406667D02*
X144633334Y-105406667D01*
X144433334Y-105406667D02*
X144433334Y-104706667D01*
X144500000Y-104806667D01*
X144566667Y-104873333D01*
X144633334Y-104906667D01*
X149766667Y-106606667D02*
X150166667Y-106606667D01*
X149966667Y-106606667D02*
X149966667Y-105906667D01*
X150033333Y-106006667D01*
X150100000Y-106073333D01*
X150166667Y-106106667D01*
X149466666Y-106540000D02*
X149433333Y-106573333D01*
X149466666Y-106606667D01*
X149500000Y-106573333D01*
X149466666Y-106540000D01*
X149466666Y-106606667D01*
X149133333Y-106340000D02*
X148600000Y-106340000D01*
X147366667Y-105940000D02*
X147433333Y-105906667D01*
X147533333Y-105906667D01*
X147633333Y-105940000D01*
X147700000Y-106006667D01*
X147733333Y-106073333D01*
X147766667Y-106206667D01*
X147766667Y-106306667D01*
X147733333Y-106440000D01*
X147700000Y-106506667D01*
X147633333Y-106573333D01*
X147533333Y-106606667D01*
X147466667Y-106606667D01*
X147366667Y-106573333D01*
X147333333Y-106540000D01*
X147333333Y-106306667D01*
X147466667Y-106306667D01*
X147033333Y-106606667D02*
X147033333Y-105906667D01*
X146766667Y-105906667D01*
X146700000Y-105940000D01*
X146666667Y-105973333D01*
X146633333Y-106040000D01*
X146633333Y-106140000D01*
X146666667Y-106206667D01*
X146700000Y-106240000D01*
X146766667Y-106273333D01*
X147033333Y-106273333D01*
X146333333Y-106606667D02*
X146333333Y-105906667D01*
X145866667Y-105906667D02*
X145733334Y-105906667D01*
X145666667Y-105940000D01*
X145600000Y-106006667D01*
X145566667Y-106140000D01*
X145566667Y-106373333D01*
X145600000Y-106506667D01*
X145666667Y-106573333D01*
X145733334Y-106606667D01*
X145866667Y-106606667D01*
X145933334Y-106573333D01*
X146000000Y-106506667D01*
X146033334Y-106373333D01*
X146033334Y-106140000D01*
X146000000Y-106006667D01*
X145933334Y-105940000D01*
X145866667Y-105906667D01*
X145133334Y-105906667D02*
X145066667Y-105906667D01*
X145000001Y-105940000D01*
X144966667Y-105973333D01*
X144933334Y-106040000D01*
X144900001Y-106173333D01*
X144900001Y-106340000D01*
X144933334Y-106473333D01*
X144966667Y-106540000D01*
X145000001Y-106573333D01*
X145066667Y-106606667D01*
X145133334Y-106606667D01*
X145200001Y-106573333D01*
X145233334Y-106540000D01*
X145266667Y-106473333D01*
X145300001Y-106340000D01*
X145300001Y-106173333D01*
X145266667Y-106040000D01*
X145233334Y-105973333D01*
X145200001Y-105940000D01*
X145133334Y-105906667D01*
X144466667Y-105906667D02*
X144400000Y-105906667D01*
X144333334Y-105940000D01*
X144300000Y-105973333D01*
X144266667Y-106040000D01*
X144233334Y-106173333D01*
X144233334Y-106340000D01*
X144266667Y-106473333D01*
X144300000Y-106540000D01*
X144333334Y-106573333D01*
X144400000Y-106606667D01*
X144466667Y-106606667D01*
X144533334Y-106573333D01*
X144566667Y-106540000D01*
X144600000Y-106473333D01*
X144633334Y-106340000D01*
X144633334Y-106173333D01*
X144600000Y-106040000D01*
X144566667Y-105973333D01*
X144533334Y-105940000D01*
X144466667Y-105906667D01*
D13*
X143220000Y-69200000D02*
X143220000Y-69950000D01*
X144020000Y-69210000D02*
X144010000Y-69210000D01*
X143220000Y-69210000D02*
X144020000Y-69210000D01*
X143900000Y-69880000D02*
X143230000Y-69210000D01*
X144160000Y-69880000D02*
X143900000Y-69880000D01*
X144850000Y-69880000D02*
X144160000Y-69880000D01*
X153880000Y-69880000D02*
X144850000Y-69880000D01*
X154270000Y-69490000D02*
X153880000Y-69880000D01*
X159030000Y-69490000D02*
X154270000Y-69490000D01*
X144550000Y-65710000D02*
X145270000Y-64990000D01*
X144540000Y-65710000D02*
X145250000Y-66420000D01*
X154640000Y-65710000D02*
X144540000Y-65710000D01*
D14*
X158862857Y-65058571D02*
X158362857Y-66558571D01*
X157862857Y-65058571D01*
X157434286Y-66130000D02*
X156720000Y-66130000D01*
X157577143Y-66558571D02*
X157077143Y-65058571D01*
X156577143Y-66558571D01*
X155220000Y-66558571D02*
X155720000Y-65844286D01*
X156077143Y-66558571D02*
X156077143Y-65058571D01*
X155505715Y-65058571D01*
X155362857Y-65130000D01*
X155291429Y-65201429D01*
X155220000Y-65344286D01*
X155220000Y-65558571D01*
X155291429Y-65701429D01*
X155362857Y-65772857D01*
X155505715Y-65844286D01*
X156077143Y-65844286D01*
X157875714Y-69068571D02*
X158732857Y-69068571D01*
X158304285Y-69068571D02*
X158304285Y-67568571D01*
X158447142Y-67782857D01*
X158590000Y-67925714D01*
X158732857Y-67997143D01*
X157232857Y-68925714D02*
X157161429Y-68997143D01*
X157232857Y-69068571D01*
X157304286Y-68997143D01*
X157232857Y-68925714D01*
X157232857Y-69068571D01*
X156590000Y-67711429D02*
X156518571Y-67640000D01*
X156375714Y-67568571D01*
X156018571Y-67568571D01*
X155875714Y-67640000D01*
X155804285Y-67711429D01*
X155732857Y-67854286D01*
X155732857Y-67997143D01*
X155804285Y-68211429D01*
X156661428Y-69068571D01*
X155732857Y-69068571D01*
X155304286Y-67568571D02*
X154804286Y-69068571D01*
X154304286Y-67568571D01*
X147835714Y-72088571D02*
X148692857Y-72088571D01*
X148264285Y-72088571D02*
X148264285Y-70588571D01*
X148407142Y-70802857D01*
X148550000Y-70945714D01*
X148692857Y-71017143D01*
X147192857Y-71945714D02*
X147121429Y-72017143D01*
X147192857Y-72088571D01*
X147264286Y-72017143D01*
X147192857Y-71945714D01*
X147192857Y-72088571D01*
X146264285Y-71231429D02*
X146407143Y-71160000D01*
X146478571Y-71088571D01*
X146550000Y-70945714D01*
X146550000Y-70874286D01*
X146478571Y-70731429D01*
X146407143Y-70660000D01*
X146264285Y-70588571D01*
X145978571Y-70588571D01*
X145835714Y-70660000D01*
X145764285Y-70731429D01*
X145692857Y-70874286D01*
X145692857Y-70945714D01*
X145764285Y-71088571D01*
X145835714Y-71160000D01*
X145978571Y-71231429D01*
X146264285Y-71231429D01*
X146407143Y-71302857D01*
X146478571Y-71374286D01*
X146550000Y-71517143D01*
X146550000Y-71802857D01*
X146478571Y-71945714D01*
X146407143Y-72017143D01*
X146264285Y-72088571D01*
X145978571Y-72088571D01*
X145835714Y-72017143D01*
X145764285Y-71945714D01*
X145692857Y-71802857D01*
X145692857Y-71517143D01*
X145764285Y-71374286D01*
X145835714Y-71302857D01*
X145978571Y-71231429D01*
X145264286Y-70588571D02*
X144764286Y-72088571D01*
X144264286Y-70588571D01*
X148662857Y-73101429D02*
X148591428Y-73030000D01*
X148448571Y-72958571D01*
X148091428Y-72958571D01*
X147948571Y-73030000D01*
X147877142Y-73101429D01*
X147805714Y-73244286D01*
X147805714Y-73387143D01*
X147877142Y-73601429D01*
X148734285Y-74458571D01*
X147805714Y-74458571D01*
X147162857Y-74315714D02*
X147091429Y-74387143D01*
X147162857Y-74458571D01*
X147234286Y-74387143D01*
X147162857Y-74315714D01*
X147162857Y-74458571D01*
X145734285Y-72958571D02*
X146448571Y-72958571D01*
X146520000Y-73672857D01*
X146448571Y-73601429D01*
X146305714Y-73530000D01*
X145948571Y-73530000D01*
X145805714Y-73601429D01*
X145734285Y-73672857D01*
X145662857Y-73815714D01*
X145662857Y-74172857D01*
X145734285Y-74315714D01*
X145805714Y-74387143D01*
X145948571Y-74458571D01*
X146305714Y-74458571D01*
X146448571Y-74387143D01*
X146520000Y-74315714D01*
X145234286Y-72958571D02*
X144734286Y-74458571D01*
X144234286Y-72958571D01*
X148704285Y-75288571D02*
X147775714Y-75288571D01*
X148275714Y-75860000D01*
X148061428Y-75860000D01*
X147918571Y-75931429D01*
X147847142Y-76002857D01*
X147775714Y-76145714D01*
X147775714Y-76502857D01*
X147847142Y-76645714D01*
X147918571Y-76717143D01*
X148061428Y-76788571D01*
X148490000Y-76788571D01*
X148632857Y-76717143D01*
X148704285Y-76645714D01*
X147132857Y-76645714D02*
X147061429Y-76717143D01*
X147132857Y-76788571D01*
X147204286Y-76717143D01*
X147132857Y-76645714D01*
X147132857Y-76788571D01*
X146561428Y-75288571D02*
X145632857Y-75288571D01*
X146132857Y-75860000D01*
X145918571Y-75860000D01*
X145775714Y-75931429D01*
X145704285Y-76002857D01*
X145632857Y-76145714D01*
X145632857Y-76502857D01*
X145704285Y-76645714D01*
X145775714Y-76717143D01*
X145918571Y-76788571D01*
X146347143Y-76788571D01*
X146490000Y-76717143D01*
X146561428Y-76645714D01*
X145204286Y-75288571D02*
X144704286Y-76788571D01*
X144204286Y-75288571D01*
D12*
X179800840Y-100549760D02*
X179849100Y-100549760D01*
X182599820Y-101250800D02*
X182599820Y-100549760D01*
X182599820Y-100549760D02*
X182350900Y-100549760D01*
X179800840Y-100549760D02*
X179600180Y-100549760D01*
X179600180Y-100549760D02*
X179600180Y-101250800D01*
X179700840Y-69249760D02*
X179749100Y-69249760D01*
X182499820Y-69950800D02*
X182499820Y-69249760D01*
X182499820Y-69249760D02*
X182250900Y-69249760D01*
X179700840Y-69249760D02*
X179500180Y-69249760D01*
X179500180Y-69249760D02*
X179500180Y-69950800D01*
X179700840Y-75549760D02*
X179749100Y-75549760D01*
X182499820Y-76250800D02*
X182499820Y-75549760D01*
X182499820Y-75549760D02*
X182250900Y-75549760D01*
X179700840Y-75549760D02*
X179500180Y-75549760D01*
X179500180Y-75549760D02*
X179500180Y-76250800D01*
X179800840Y-93449760D02*
X179849100Y-93449760D01*
X182599820Y-94150800D02*
X182599820Y-93449760D01*
X182599820Y-93449760D02*
X182350900Y-93449760D01*
X179800840Y-93449760D02*
X179600180Y-93449760D01*
X179600180Y-93449760D02*
X179600180Y-94150800D01*
X179700840Y-81949760D02*
X179749100Y-81949760D01*
X182499820Y-82650800D02*
X182499820Y-81949760D01*
X182499820Y-81949760D02*
X182250900Y-81949760D01*
X179700840Y-81949760D02*
X179500180Y-81949760D01*
X179500180Y-81949760D02*
X179500180Y-82650800D01*
X181650000Y-103400000D02*
X180950000Y-103400000D01*
X180950000Y-104600000D02*
X181650000Y-104600000D01*
X181550000Y-72100000D02*
X180850000Y-72100000D01*
X180850000Y-73300000D02*
X181550000Y-73300000D01*
X184600000Y-101250000D02*
X184600000Y-100550000D01*
X183400000Y-100550000D02*
X183400000Y-101250000D01*
X184500000Y-69950000D02*
X184500000Y-69250000D01*
X183300000Y-69250000D02*
X183300000Y-69950000D01*
X181550000Y-78400000D02*
X180850000Y-78400000D01*
X180850000Y-79600000D02*
X181550000Y-79600000D01*
X181650000Y-96300000D02*
X180950000Y-96300000D01*
X180950000Y-97500000D02*
X181650000Y-97500000D01*
X184500000Y-76250000D02*
X184500000Y-75550000D01*
X183300000Y-75550000D02*
X183300000Y-76250000D01*
X184600000Y-94150000D02*
X184600000Y-93450000D01*
X183400000Y-93450000D02*
X183400000Y-94150000D01*
X181550000Y-84800000D02*
X180850000Y-84800000D01*
X180850000Y-86000000D02*
X181550000Y-86000000D01*
X184500000Y-82650000D02*
X184500000Y-81950000D01*
X183300000Y-81950000D02*
X183300000Y-82650000D01*
D15*
X164370000Y-119600000D02*
X155670000Y-119600000D01*
X164370000Y-113190000D02*
X155670000Y-113190000D01*
X155670000Y-113190000D02*
X155670000Y-119600000D01*
X155670000Y-118370000D02*
X164370000Y-118370000D01*
X164370000Y-119600000D02*
X164370000Y-113190000D01*
D12*
X181295238Y-99447619D02*
X181390476Y-99400000D01*
X181485714Y-99304762D01*
X181628571Y-99161905D01*
X181723810Y-99114286D01*
X181819048Y-99114286D01*
X181771429Y-99352381D02*
X181866667Y-99304762D01*
X181961905Y-99209524D01*
X182009524Y-99019048D01*
X182009524Y-98685714D01*
X181961905Y-98495238D01*
X181866667Y-98400000D01*
X181771429Y-98352381D01*
X181580952Y-98352381D01*
X181485714Y-98400000D01*
X181390476Y-98495238D01*
X181342857Y-98685714D01*
X181342857Y-99019048D01*
X181390476Y-99209524D01*
X181485714Y-99304762D01*
X181580952Y-99352381D01*
X181771429Y-99352381D01*
X180390476Y-99352381D02*
X180961905Y-99352381D01*
X180676191Y-99352381D02*
X180676191Y-98352381D01*
X180771429Y-98495238D01*
X180866667Y-98590476D01*
X180961905Y-98638095D01*
X181195238Y-68147619D02*
X181290476Y-68100000D01*
X181385714Y-68004762D01*
X181528571Y-67861905D01*
X181623810Y-67814286D01*
X181719048Y-67814286D01*
X181671429Y-68052381D02*
X181766667Y-68004762D01*
X181861905Y-67909524D01*
X181909524Y-67719048D01*
X181909524Y-67385714D01*
X181861905Y-67195238D01*
X181766667Y-67100000D01*
X181671429Y-67052381D01*
X181480952Y-67052381D01*
X181385714Y-67100000D01*
X181290476Y-67195238D01*
X181242857Y-67385714D01*
X181242857Y-67719048D01*
X181290476Y-67909524D01*
X181385714Y-68004762D01*
X181480952Y-68052381D01*
X181671429Y-68052381D01*
X180861905Y-67147619D02*
X180814286Y-67100000D01*
X180719048Y-67052381D01*
X180480952Y-67052381D01*
X180385714Y-67100000D01*
X180338095Y-67147619D01*
X180290476Y-67242857D01*
X180290476Y-67338095D01*
X180338095Y-67480952D01*
X180909524Y-68052381D01*
X180290476Y-68052381D01*
X179197619Y-76054762D02*
X179150000Y-75959524D01*
X179054762Y-75864286D01*
X178911905Y-75721429D01*
X178864286Y-75626190D01*
X178864286Y-75530952D01*
X179102381Y-75578571D02*
X179054762Y-75483333D01*
X178959524Y-75388095D01*
X178769048Y-75340476D01*
X178435714Y-75340476D01*
X178245238Y-75388095D01*
X178150000Y-75483333D01*
X178102381Y-75578571D01*
X178102381Y-75769048D01*
X178150000Y-75864286D01*
X178245238Y-75959524D01*
X178435714Y-76007143D01*
X178769048Y-76007143D01*
X178959524Y-75959524D01*
X179054762Y-75864286D01*
X179102381Y-75769048D01*
X179102381Y-75578571D01*
X178102381Y-76340476D02*
X178102381Y-76959524D01*
X178483333Y-76626190D01*
X178483333Y-76769048D01*
X178530952Y-76864286D01*
X178578571Y-76911905D01*
X178673810Y-76959524D01*
X178911905Y-76959524D01*
X179007143Y-76911905D01*
X179054762Y-76864286D01*
X179102381Y-76769048D01*
X179102381Y-76483333D01*
X179054762Y-76388095D01*
X179007143Y-76340476D01*
X181445238Y-92297619D02*
X181540476Y-92250000D01*
X181635714Y-92154762D01*
X181778571Y-92011905D01*
X181873810Y-91964286D01*
X181969048Y-91964286D01*
X181921429Y-92202381D02*
X182016667Y-92154762D01*
X182111905Y-92059524D01*
X182159524Y-91869048D01*
X182159524Y-91535714D01*
X182111905Y-91345238D01*
X182016667Y-91250000D01*
X181921429Y-91202381D01*
X181730952Y-91202381D01*
X181635714Y-91250000D01*
X181540476Y-91345238D01*
X181492857Y-91535714D01*
X181492857Y-91869048D01*
X181540476Y-92059524D01*
X181635714Y-92154762D01*
X181730952Y-92202381D01*
X181921429Y-92202381D01*
X180635714Y-91535714D02*
X180635714Y-92202381D01*
X180873810Y-91154762D02*
X181111905Y-91869048D01*
X180492857Y-91869048D01*
X179197619Y-82554762D02*
X179150000Y-82459524D01*
X179054762Y-82364286D01*
X178911905Y-82221429D01*
X178864286Y-82126190D01*
X178864286Y-82030952D01*
X179102381Y-82078571D02*
X179054762Y-81983333D01*
X178959524Y-81888095D01*
X178769048Y-81840476D01*
X178435714Y-81840476D01*
X178245238Y-81888095D01*
X178150000Y-81983333D01*
X178102381Y-82078571D01*
X178102381Y-82269048D01*
X178150000Y-82364286D01*
X178245238Y-82459524D01*
X178435714Y-82507143D01*
X178769048Y-82507143D01*
X178959524Y-82459524D01*
X179054762Y-82364286D01*
X179102381Y-82269048D01*
X179102381Y-82078571D01*
X178102381Y-83411905D02*
X178102381Y-82935714D01*
X178578571Y-82888095D01*
X178530952Y-82935714D01*
X178483333Y-83030952D01*
X178483333Y-83269048D01*
X178530952Y-83364286D01*
X178578571Y-83411905D01*
X178673810Y-83459524D01*
X178911905Y-83459524D01*
X179007143Y-83411905D01*
X179054762Y-83364286D01*
X179102381Y-83269048D01*
X179102381Y-83030952D01*
X179054762Y-82935714D01*
X179007143Y-82888095D01*
X181466666Y-105952381D02*
X181800000Y-105476190D01*
X182038095Y-105952381D02*
X182038095Y-104952381D01*
X181657142Y-104952381D01*
X181561904Y-105000000D01*
X181514285Y-105047619D01*
X181466666Y-105142857D01*
X181466666Y-105285714D01*
X181514285Y-105380952D01*
X181561904Y-105428571D01*
X181657142Y-105476190D01*
X182038095Y-105476190D01*
X180514285Y-105952381D02*
X181085714Y-105952381D01*
X180800000Y-105952381D02*
X180800000Y-104952381D01*
X180895238Y-105095238D01*
X180990476Y-105190476D01*
X181085714Y-105238095D01*
X184216666Y-73202381D02*
X184550000Y-72726190D01*
X184788095Y-73202381D02*
X184788095Y-72202381D01*
X184407142Y-72202381D01*
X184311904Y-72250000D01*
X184264285Y-72297619D01*
X184216666Y-72392857D01*
X184216666Y-72535714D01*
X184264285Y-72630952D01*
X184311904Y-72678571D01*
X184407142Y-72726190D01*
X184788095Y-72726190D01*
X183835714Y-72297619D02*
X183788095Y-72250000D01*
X183692857Y-72202381D01*
X183454761Y-72202381D01*
X183359523Y-72250000D01*
X183311904Y-72297619D01*
X183264285Y-72392857D01*
X183264285Y-72488095D01*
X183311904Y-72630952D01*
X183883333Y-73202381D01*
X183264285Y-73202381D01*
X184752381Y-103533334D02*
X184276190Y-103200000D01*
X184752381Y-102961905D02*
X183752381Y-102961905D01*
X183752381Y-103342858D01*
X183800000Y-103438096D01*
X183847619Y-103485715D01*
X183942857Y-103533334D01*
X184085714Y-103533334D01*
X184180952Y-103485715D01*
X184228571Y-103438096D01*
X184276190Y-103342858D01*
X184276190Y-102961905D01*
X183752381Y-103866667D02*
X183752381Y-104485715D01*
X184133333Y-104152381D01*
X184133333Y-104295239D01*
X184180952Y-104390477D01*
X184228571Y-104438096D01*
X184323810Y-104485715D01*
X184561905Y-104485715D01*
X184657143Y-104438096D01*
X184704762Y-104390477D01*
X184752381Y-104295239D01*
X184752381Y-104009524D01*
X184704762Y-103914286D01*
X184657143Y-103866667D01*
X184402381Y-66483334D02*
X183926190Y-66150000D01*
X184402381Y-65911905D02*
X183402381Y-65911905D01*
X183402381Y-66292858D01*
X183450000Y-66388096D01*
X183497619Y-66435715D01*
X183592857Y-66483334D01*
X183735714Y-66483334D01*
X183830952Y-66435715D01*
X183878571Y-66388096D01*
X183926190Y-66292858D01*
X183926190Y-65911905D01*
X183735714Y-67340477D02*
X184402381Y-67340477D01*
X183354762Y-67102381D02*
X184069048Y-66864286D01*
X184069048Y-67483334D01*
X184266666Y-79502381D02*
X184600000Y-79026190D01*
X184838095Y-79502381D02*
X184838095Y-78502381D01*
X184457142Y-78502381D01*
X184361904Y-78550000D01*
X184314285Y-78597619D01*
X184266666Y-78692857D01*
X184266666Y-78835714D01*
X184314285Y-78930952D01*
X184361904Y-78978571D01*
X184457142Y-79026190D01*
X184838095Y-79026190D01*
X183409523Y-78502381D02*
X183600000Y-78502381D01*
X183695238Y-78550000D01*
X183742857Y-78597619D01*
X183838095Y-78740476D01*
X183885714Y-78930952D01*
X183885714Y-79311905D01*
X183838095Y-79407143D01*
X183790476Y-79454762D01*
X183695238Y-79502381D01*
X183504761Y-79502381D01*
X183409523Y-79454762D01*
X183361904Y-79407143D01*
X183314285Y-79311905D01*
X183314285Y-79073810D01*
X183361904Y-78978571D01*
X183409523Y-78930952D01*
X183504761Y-78883333D01*
X183695238Y-78883333D01*
X183790476Y-78930952D01*
X183838095Y-78978571D01*
X183885714Y-79073810D01*
X184416666Y-97502381D02*
X184750000Y-97026190D01*
X184988095Y-97502381D02*
X184988095Y-96502381D01*
X184607142Y-96502381D01*
X184511904Y-96550000D01*
X184464285Y-96597619D01*
X184416666Y-96692857D01*
X184416666Y-96835714D01*
X184464285Y-96930952D01*
X184511904Y-96978571D01*
X184607142Y-97026190D01*
X184988095Y-97026190D01*
X184083333Y-96502381D02*
X183416666Y-96502381D01*
X183845238Y-97502381D01*
X185852381Y-75733334D02*
X185376190Y-75400000D01*
X185852381Y-75161905D02*
X184852381Y-75161905D01*
X184852381Y-75542858D01*
X184900000Y-75638096D01*
X184947619Y-75685715D01*
X185042857Y-75733334D01*
X185185714Y-75733334D01*
X185280952Y-75685715D01*
X185328571Y-75638096D01*
X185376190Y-75542858D01*
X185376190Y-75161905D01*
X185280952Y-76304762D02*
X185233333Y-76209524D01*
X185185714Y-76161905D01*
X185090476Y-76114286D01*
X185042857Y-76114286D01*
X184947619Y-76161905D01*
X184900000Y-76209524D01*
X184852381Y-76304762D01*
X184852381Y-76495239D01*
X184900000Y-76590477D01*
X184947619Y-76638096D01*
X185042857Y-76685715D01*
X185090476Y-76685715D01*
X185185714Y-76638096D01*
X185233333Y-76590477D01*
X185280952Y-76495239D01*
X185280952Y-76304762D01*
X185328571Y-76209524D01*
X185376190Y-76161905D01*
X185471429Y-76114286D01*
X185661905Y-76114286D01*
X185757143Y-76161905D01*
X185804762Y-76209524D01*
X185852381Y-76304762D01*
X185852381Y-76495239D01*
X185804762Y-76590477D01*
X185757143Y-76638096D01*
X185661905Y-76685715D01*
X185471429Y-76685715D01*
X185376190Y-76638096D01*
X185328571Y-76590477D01*
X185280952Y-76495239D01*
X184502381Y-89757143D02*
X184026190Y-89423809D01*
X184502381Y-89185714D02*
X183502381Y-89185714D01*
X183502381Y-89566667D01*
X183550000Y-89661905D01*
X183597619Y-89709524D01*
X183692857Y-89757143D01*
X183835714Y-89757143D01*
X183930952Y-89709524D01*
X183978571Y-89661905D01*
X184026190Y-89566667D01*
X184026190Y-89185714D01*
X184502381Y-90709524D02*
X184502381Y-90138095D01*
X184502381Y-90423809D02*
X183502381Y-90423809D01*
X183645238Y-90328571D01*
X183740476Y-90233333D01*
X183788095Y-90138095D01*
X183502381Y-91328571D02*
X183502381Y-91423810D01*
X183550000Y-91519048D01*
X183597619Y-91566667D01*
X183692857Y-91614286D01*
X183883333Y-91661905D01*
X184121429Y-91661905D01*
X184311905Y-91614286D01*
X184407143Y-91566667D01*
X184454762Y-91519048D01*
X184502381Y-91423810D01*
X184502381Y-91328571D01*
X184454762Y-91233333D01*
X184407143Y-91185714D01*
X184311905Y-91138095D01*
X184121429Y-91090476D01*
X183883333Y-91090476D01*
X183692857Y-91138095D01*
X183597619Y-91185714D01*
X183550000Y-91233333D01*
X183502381Y-91328571D01*
X185192857Y-85852381D02*
X185526191Y-85376190D01*
X185764286Y-85852381D02*
X185764286Y-84852381D01*
X185383333Y-84852381D01*
X185288095Y-84900000D01*
X185240476Y-84947619D01*
X185192857Y-85042857D01*
X185192857Y-85185714D01*
X185240476Y-85280952D01*
X185288095Y-85328571D01*
X185383333Y-85376190D01*
X185764286Y-85376190D01*
X184240476Y-85852381D02*
X184811905Y-85852381D01*
X184526191Y-85852381D02*
X184526191Y-84852381D01*
X184621429Y-84995238D01*
X184716667Y-85090476D01*
X184811905Y-85138095D01*
X183383333Y-84852381D02*
X183573810Y-84852381D01*
X183669048Y-84900000D01*
X183716667Y-84947619D01*
X183811905Y-85090476D01*
X183859524Y-85280952D01*
X183859524Y-85661905D01*
X183811905Y-85757143D01*
X183764286Y-85804762D01*
X183669048Y-85852381D01*
X183478571Y-85852381D01*
X183383333Y-85804762D01*
X183335714Y-85757143D01*
X183288095Y-85661905D01*
X183288095Y-85423810D01*
X183335714Y-85328571D01*
X183383333Y-85280952D01*
X183478571Y-85233333D01*
X183669048Y-85233333D01*
X183764286Y-85280952D01*
X183811905Y-85328571D01*
X183859524Y-85423810D01*
X185852381Y-81657143D02*
X185376190Y-81323809D01*
X185852381Y-81085714D02*
X184852381Y-81085714D01*
X184852381Y-81466667D01*
X184900000Y-81561905D01*
X184947619Y-81609524D01*
X185042857Y-81657143D01*
X185185714Y-81657143D01*
X185280952Y-81609524D01*
X185328571Y-81561905D01*
X185376190Y-81466667D01*
X185376190Y-81085714D01*
X185852381Y-82609524D02*
X185852381Y-82038095D01*
X185852381Y-82323809D02*
X184852381Y-82323809D01*
X184995238Y-82228571D01*
X185090476Y-82133333D01*
X185138095Y-82038095D01*
X184852381Y-82942857D02*
X184852381Y-83609524D01*
X185852381Y-83180952D01*
X160758095Y-112782381D02*
X160758095Y-111782381D01*
X160377142Y-111782381D01*
X160281904Y-111830000D01*
X160234285Y-111877619D01*
X160186666Y-111972857D01*
X160186666Y-112115714D01*
X160234285Y-112210952D01*
X160281904Y-112258571D01*
X160377142Y-112306190D01*
X160758095Y-112306190D01*
X159281904Y-111782381D02*
X159758095Y-111782381D01*
X159805714Y-112258571D01*
X159758095Y-112210952D01*
X159662857Y-112163333D01*
X159424761Y-112163333D01*
X159329523Y-112210952D01*
X159281904Y-112258571D01*
X159234285Y-112353810D01*
X159234285Y-112591905D01*
X159281904Y-112687143D01*
X159329523Y-112734762D01*
X159424761Y-112782381D01*
X159662857Y-112782381D01*
X159758095Y-112734762D01*
X159805714Y-112687143D01*
M02*
