M48
INCH,TZ
T1C0.016
T2C0.020
T3C0.032
T4C0.035
T5C0.040
%
G90
G05
T1
X54587Y-37697
X54894Y-37697
X55205Y-37697
X56480Y-43854
X56488Y-39752
X56492Y-42181
X56791Y-43854
X56811Y-40177
X56811Y-43031
X57102Y-43854
X57165Y-40591
X57165Y-42185
X57421Y-43854
X57598Y-41110
X57598Y-42181
X57764Y-35756
X57764Y-36071
X57764Y-36386
X57827Y-32626
X57827Y-32941
X57827Y-33252
X58028Y-41610
X58028Y-42181
X58543Y-31299
X59173Y-38701
X59449Y-30394
X59606Y-38189
X60039Y-37717
X60354Y-36181
X60504Y-27894
X60709Y-35669
X60732Y-27673
X60957Y-27449
X62854Y-27059
X63256Y-30051
X63260Y-28634
X63563Y-30047
X63567Y-34697
X63571Y-28634
X63571Y-32610
X63571Y-32921
X63870Y-30047
X63882Y-28634
X63882Y-34697
X63890Y-32602
X63890Y-32921
X64197Y-34697
X64213Y-32606
X64213Y-32921
X64512Y-34697
X64528Y-32606
X64528Y-32921
X64827Y-34697
X64846Y-32606
X64846Y-32921
X66417Y-38661
X66417Y-39646
X66417Y-40669
X71681Y-41854
X71681Y-42165
X71697Y-35268
X71701Y-34634
X71701Y-35587
X71705Y-34949
X71996Y-41854
X71996Y-42169
X72307Y-41854
X72307Y-42169
X72343Y-25866
X72756Y-28622
X72756Y-31102
X72756Y-33622
X72756Y-38150
X72756Y-40945
T2
X57677Y-26811
X58677Y-26811
X59677Y-26811
T3
X64409Y-36165
X64409Y-38087
T4
X55768Y-33819
X55768Y-35551
T5
X54866Y-25921
X54866Y-26921
X54866Y-27921
X54866Y-28921
X54866Y-29921
X55079Y-39228
X55079Y-40228
X55079Y-41228
X55079Y-42228
X55079Y-43228
X55866Y-25921
X55866Y-26921
X55866Y-27921
X55866Y-28921
X55866Y-29921
X68504Y-27654
X68504Y-28654
X68504Y-29654
X68504Y-30654
X68504Y-31654
X68504Y-32654
X68504Y-33654
X68504Y-34654
X68504Y-35654
X68504Y-36654
X68504Y-37654
X68504Y-38654
X68504Y-39654
X68504Y-40654
X68504Y-41654
X69504Y-27654
X69504Y-28654
X69504Y-29654
X69504Y-30654
X69504Y-31654
X69504Y-32654
X69504Y-33654
X69504Y-34654
X69504Y-35654
X69504Y-36654
X69504Y-37654
X69504Y-38654
X69504Y-39654
X69504Y-40654
X69504Y-41654
T0
M30
